<?xml version="1.0" standalone="no"?>
<!DOCTYPE svg PUBLIC "-//W3C//DTD SVG 1.1//EN" "http://www.w3.org/Graphics/SVG/1.1/DTD/svg11.dtd" >
<svg>
<metadata>
Created by FontForge 20090914 at Fri Feb 20 14:38:54 2015
 By www-data
(c) rzy/SDFonts, 2000.
</metadata>
<defs>
<font id="Fire-OfYsgardRegular" horiz-adv-x="682" >
  <font-face 
    font-family="Fire Of Ysgard Regular"
    font-weight="400"
    font-stretch="normal"
    units-per-em="2048"
    panose-1="0 0 0 0 0 0 0 0 0 0"
    ascent="1638"
    descent="-410"
    x-height="949"
    cap-height="1728"
    bbox="-77.9971 -442.003 2017 1835"
    underline-thickness="0"
    underline-position="0"
    unicode-range="U+0020-U+2122"
  />
<missing-glyph horiz-adv-x="1024" 
d="M64 0v1424h896v-1424h-896zM896 64v1296h-768v-1296h768z" />
    <glyph glyph-name=".notdef" horiz-adv-x="1024" 
d="M64 0v1424h896v-1424h-896zM896 64v1296h-768v-1296h768z" />
    <glyph glyph-name="space" unicode=" " horiz-adv-x="800" 
 />
    <glyph glyph-name="exclam" unicode="!" 
d="M187 76l151 -153l154 153l-154 152zM582 1355l0.00195312 -32.999c-9.33301 -1.33301 -16 -2.33301 -20 -3s-9 -2.33398 -15 -5.00098l-20 -6c-16.667 -6 -35.667 -16 -57 -30c-18.667 -13.333 -32.334 -27.333 -41.001 -42c-6.66699 -15.333 -10 -34.333 -10 -57v-30
l1 -33v-424v-152c0 -85.333 9.33301 -138.333 28 -159c25.333 -29.333 63.666 -44 114.999 -44h52v-37h-581v37h51c57.333 0 98.333 18.667 123 56c13.333 20.667 20 69.667 20 147v576c0 84 -9 137 -27 159c-26 29.333 -64.667 44 -116 44h-51v37z" />
    <glyph glyph-name="quotedbl" unicode="&#x22;" horiz-adv-x="1035" 
d="M587 1076l151 -423l154 423l-154 152zM187 1076l151 -423l154 423l-154 152z" />
    <glyph glyph-name="numbersign" unicode="#" horiz-adv-x="717" 
d="M184 115l-1 184h-157v57h156l1 240h-157v56h158l1 175h54l-1 -175h236l1 175h62l-3 -175h157v-56h-155l1 -240h154v-57h-154l-1 -184h-57v184h-237l1 -184h-59zM241 356h237l3 240h-242z" />
    <glyph glyph-name="dollar" unicode="$" horiz-adv-x="797" 
d="M321 615v297c-14.667 -2 -27 -6.66699 -37 -14c-11.333 -6.66699 -23.333 -16 -36 -28c-31.333 -29.333 -47 -63 -47 -101c0 -26.667 10 -53 30 -79c12 -16 24 -29 36 -39c18 -16 36 -28 54 -36zM545 79c34 32 51 68.334 51 109.001c0 12 -1.33301 23.167 -4 33.5
s-8 22.166 -16 35.499c-12 24 -31.667 46.667 -59 68l-47 31c-14 8.66699 -25.667 15 -35 19v-336c28 0 48.667 2.5 62 7.5s29.333 15.833 48 32.5zM314 1015l-14.999 29.0049c-12.667 21.333 -32 36 -58 44l-17 3l-20 1l-40 1v36h425v-36l-38 -1c-25.333 0 -50 -8 -74 -24
c-17.333 -13.333 -28 -26.333 -32 -39l-7 -28l-2 -15l1 -14c0 -4 16.333 -11.333 49 -22l42 -16c26 -11.333 44.333 -17.333 55 -18c12 0 21.667 3.33301 29 10s13.666 21.667 18.999 45h26v-328h-26c-8 61.333 -22.667 111 -44 149s-52.666 68 -93.999 90l-28 17l-30 7
l-1 -17l-2 -89v-108l1 -102c0 -23.333 1 -36.666 3 -39.999l83 -49c53.333 -30 86.666 -50.333 99.999 -61c30.667 -24.667 55.667 -54.334 75 -89.001c17.333 -36.667 26 -73 26 -109c0 -70 -28 -132 -84 -186c-16.667 -16 -37.667 -29.667 -63 -41
c-10.667 -4.66699 -56.334 -17 -137.001 -37c0 -12.667 1.83301 -27.334 5.5 -44.001s8.16699 -29.334 13.5 -38.001c11.333 -18.667 31 -32.334 59 -41.001c12 -3.33301 24.333 -5 37 -5h38v-37h-425v37l41 1c26.667 0 49.667 7.16699 69 21.5s31.333 29.166 36 44.499
c0.666992 0.666992 1.5 5.16699 2.5 13.5s1.83301 15.833 2.5 22.5l3 38l-65 19c-48 14.667 -76.667 22 -86 22c-11.333 0 -20.666 -3.33301 -27.999 -10c-5.33301 -6 -10 -20.667 -14 -44h-26v326h26c10 -66 26.333 -117.333 49 -154c20 -32 51 -60 93 -84l53 -27l-2 399
c-30.667 17.333 -60 36.666 -88 57.999l-36 28c-34 26 -59.833 55.5 -77.5 88.5s-26.5 69.167 -26.5 108.5c0 67.333 26 126 78 176c39.333 38 89.333 61 150 69c0 26.667 -1.33301 43 -4 49z" />
    <glyph glyph-name="percent" unicode="%" horiz-adv-x="958" 
d="M493 -38l-7 -25l-287 77l6 25l26 -7l26 -3c18.667 0 34 5.66699 46 17c12 10 26.667 44 44 102l158 593l7 28l8 37l4 28c0 9.33301 -5 21 -15 35c-13.333 16 -28.666 26 -45.999 30l-26 7l7 25l287 -77l-6 -25l-27 7l-13 3l-13 1c-18.667 0 -34.667 -6.33301 -48 -19
c-12 -13.333 -26 -47 -42 -101l-158 -592l-14 -57l-4 -37c0 -10 5.33301 -21.667 16 -35c9.33301 -13.333 23.666 -23 42.999 -29zM674 277c22 16 45.999 24 71.999 24c40 0 72.667 -16.667 98 -50c16 -22 24 -46 24 -72c0 -19.333 -4.16699 -37 -12.5 -53
s-20.5 -30.667 -36.5 -44c-10.667 -8 -22.167 -14 -34.5 -18s-25.166 -6 -38.499 -6c-39.333 0 -72 16.333 -98 49c-16 22 -24 46 -24 72c0 40 16.667 72.667 50 98zM686.999 246c17.333 15.333 37.002 23 59.002 23c25.333 0 47.666 -10 66.999 -30
c5.33301 -6.66699 10.666 -16 15.999 -28c4 -11.333 6 -22 6 -32c0 -25.333 -9.33301 -47 -28 -65c-18 -16 -38.333 -24 -61 -24c-26 0 -48 10 -66 30c-15.333 17.333 -23 37.333 -23 60c0 26 10 48 30 66zM126.001 787c22 16 46 23.999 72 23.999
c39.333 0 72 -16.333 98 -49c16 -22 24 -46.333 24 -73c0 -19.333 -4.16699 -37 -12.5 -53s-20.5 -30.667 -36.5 -44c-22 -16 -46.333 -24 -73 -24c-39.333 0 -72 16.333 -98 49c-16 22 -24 46 -24 72c0 40.667 16.667 73.334 50 98.001zM139.001 755.999
c17.333 15.333 37.001 23 59.001 23c25.333 0 47.666 -10 66.999 -30c14.667 -16.667 22 -36.667 22 -60c0 -26 -9.16699 -47.167 -27.5 -63.5s-38.833 -24.5 -61.5 -24.5c-25.333 0 -47 9 -65 27c-16 18 -24 38.667 -24 62c0 26 10 48 30 66z" />
    <glyph glyph-name="ampersand" unicode="&#x26;" horiz-adv-x="1274" 
d="M836 698l336.003 -0.00390625v-29c-7.33301 0 -15.333 -0.166992 -24 -0.5s-19.667 -2.83301 -33 -7.5c-18.667 -5.33301 -34 -13 -46 -23c-20 -14 -54.333 -64.333 -103 -151c-42.667 -80 -95.667 -159.667 -159 -239c45.333 -53.333 87.666 -91.666 126.999 -114.999
s77 -35 113 -35c35.333 0 65.666 9.83301 90.999 29.5s44.333 49.5 57 89.5l30 -22c-18 -74 -49.5 -129.167 -94.5 -165.5s-96.167 -54.5 -153.5 -54.5c-44.667 0 -88.5 11.333 -131.5 34s-92.833 63.334 -149.5 122.001c-67.333 -59.333 -127 -100.166 -179 -122.499
s-108.667 -33.5 -170 -33.5c-88 0 -157.833 23 -209.5 69s-77.5 102.667 -77.5 170c0 64 22.833 127.833 68.5 191.5s133.167 130.5 262.5 200.5l-31 75l-20 61c-9.33301 39.333 -14 73.666 -14 102.999c0 90 33.667 159.667 101 209c2 1.33301 7.83301 4.83301 17.5 10.5
l21.5 12.5l45 18c30 10 61.667 15 95 15c60.667 0 111.667 -18.833 153 -56.5s62 -84.167 62 -139.5c0 -54.667 -18.833 -103.5 -56.5 -146.5s-106.5 -90.167 -206.5 -141.5c28.667 -52.667 62.667 -110 102 -172l54 -82l56 -78c93.333 112.667 140 207.334 140 284.001
c0 21.333 -8 43 -24 65c-8.66699 12.667 -25.334 21.334 -50.001 26.001v29zM530.003 677.996c66 31.333 115.5 67.167 148.5 107.5s49.5 84.5 49.5 132.5c0 36.667 -11.833 68 -35.5 94s-53.167 39 -88.5 39c-46 0 -81 -16.167 -105 -48.5s-36 -63.833 -36 -94.5l3 -41
c0 -6.66699 1.33301 -13.667 4 -21l7 -26l20 -62zM654.003 177.997l-88 122l-57 86l-44 77l-47 90c-64 -36.667 -112 -77.334 -144 -122.001s-48 -92.667 -48 -144c0 -56.667 18.5 -106.667 55.5 -150s86.5 -65 148.5 -65h26c11.333 2 21.5 3.66699 30.5 5
s22 5.83301 39 13.5s36.333 18.834 58 33.501s45.167 32.667 70.5 54z" />
    <glyph glyph-name="quotesingle" unicode="'" 
d="M187 1076l151 -423l154 423l-154 152z" />
    <glyph glyph-name="parenleft" unicode="(" 
d="M636 -401l-0.000976562 -36.9971c-100.667 50 -184.667 109.333 -252 178c-95.333 95.333 -169.166 209.166 -221.499 341.499s-78.5 268.833 -78.5 409.5c0 203.333 51 390.333 153 561s235 294 399 370v-42c-82.667 -44 -149.5 -104.833 -200.5 -182.5
s-90.167 -178 -117.5 -301s-41 -249.5 -41 -379.5c0 -139.333 11 -269 33 -389c16 -86.667 37 -160.334 63 -221.001c21.333 -50.667 54.333 -104.334 99 -161.001c21.333 -26 45.333 -51 72 -75l42 -36zM367.999 585.003l162 -153l154 153l-154 152z" />
    <glyph glyph-name="parenright" unicode=")" 
d="M598 493c0 -204.667 -50.666 -391.999 -151.999 -561.999s-234.666 -293 -399.999 -369v37c81.333 46 148 107.667 200 185s91.667 177 119 299c13.333 62.667 23.333 124.667 30 186s10 126 10 194c0 139.333 -11 269 -33 389c-8 44 -17 84.667 -27 122
c-4.66699 17.333 -9.83398 34.166 -15.501 50.499s-12.167 31.833 -19.5 46.5c-24 54 -57 107 -99 159s-97 102 -165 150v42c98 -48.667 182.333 -107.667 253 -177c93.333 -95.333 166.666 -209.333 219.999 -342c26 -66 45.667 -133 59 -201s20 -137.667 20 -209z
M332.001 585.001l-162 -153l-154 153l154 152z" />
    <glyph glyph-name="asterisk" unicode="*" horiz-adv-x="1107" 
d="M575 423l94.9961 -92.999c45.333 -44.667 77.333 -71 96 -79c10 -4 19.333 -6 28 -6c12 0 24.667 5.33301 38 16l16 15l20 -20l-168 -167l-19 20l14 15c10 11.333 15 25.666 15 42.999c0 14 -4.66699 27.667 -14 41c-5.33301 10 -28.666 35.667 -69.999 77l-93 94
l-90 -91c-45.333 -46.667 -71 -77 -77 -91c-3.33301 -10.667 -5.66602 -21.667 -6.99902 -33c0 -14 5.33301 -26.333 16 -37l15 -16l-20 -21l-168 168l20 20l15 -13c12 -10.667 26.333 -16 43 -16c12.667 0 26.334 4.33301 41.001 13l38 34l40 37l92 88l-80 79
c-45.333 45.333 -76.666 72 -93.999 80l-19 5h-8c-14.667 0 -27.667 -5.66699 -39 -17l-15 -15l-21 22l167 167l21 -21l-14 -16c-5.33301 -5.33301 -9.33301 -11 -12 -17s-4 -13.667 -4 -23c0 -11.333 3 -23.666 9 -36.999c2 -5.33301 5.33301 -10.333 10 -15l16 -17l19 -24
l27 -31l79 -78l80 84l54 59c13.333 15.333 22 27 26 35l5 19v8c0 14 -5.66699 27.667 -17 41l-14 14l21 21l167 -168l-20 -20l-16 14c-10 10 -23.667 15 -41 15c-13.333 0 -25.666 -3 -36.999 -9c-6.66699 -2.66699 -17.334 -11.334 -32.001 -26.001l-23 -17l-32 -28z
M562.996 395.001l0.998047 -132.999c0 -62.667 4 -104 12 -124c11.333 -26 29.333 -39 54 -39l22 -1v-28h-237v28l21 1c12.667 0 26.334 6.33301 41.001 19c8.66699 9.33301 14.834 21.5 18.501 36.5s5.5 50.833 5.5 107.5l1 132l-128 -1c-64 0 -105 -4 -123 -12
c-26 -11.333 -39 -29.333 -39 -54l-1 -22h-29v237h29l1 -20c0 -14.667 6.33301 -28.667 19 -42c8.66699 -8.66699 21.667 -14.834 39 -18.501s52 -5.5 104 -5.5l128 -3l-1 112c0 66.667 -3.33301 107.667 -10 123c-12 26 -30.333 39 -55 39h-21v30h237v-30l-22 -1
c-15.333 0 -28 -5 -38 -15s-17 -21 -21 -33l-4 -44l-2 -21l-5 -49l1 -111l116 3c66.667 0 107.667 3.33301 123 10c26.667 12 40 30.667 40 56v20h29v-237h-29l-1 22c0 14 -5.33301 26.5 -16 37.5s-20.667 17.833 -30 20.5l-22 4l-24 1l-38 5l-33 2z" />
    <glyph glyph-name="plus" unicode="+" horiz-adv-x="778" 
d="M413 395l0.998047 -132.999c0 -62.667 4 -104 12 -124c11.333 -26 29.333 -39 54 -39l22 -1v-28h-237v28l21 1c12.667 0 26.334 6.33301 41.001 19c8.66699 9.33301 14.834 21.5 18.501 36.5s5.5 50.833 5.5 107.5l1 132l-128 -1c-64 0 -105 -4 -123 -12
c-26 -11.333 -39 -29.333 -39 -54l-1 -22h-29v237h29l1 -20c0 -14.667 6.33301 -28.667 19 -42c8.66699 -8.66699 21.667 -14.834 39 -18.501s52 -5.5 104 -5.5l128 -3l-1 112c0 66.667 -3.33301 107.667 -10 123c-12 26 -30.333 39 -55 39h-21v30h237v-30l-22 -1
c-15.333 0 -28 -5 -38 -15s-17 -21 -21 -33l-4 -44l-2 -21l-5 -49l1 -111l116 3c66.667 0 107.667 3.33301 123 10c26.667 12 40 30.667 40 56v20h29v-237h-29l-1 22c0 14 -5.33301 26.5 -16 37.5s-20.667 17.833 -30 20.5l-22 4l-24 1l-38 5l-33 2z" />
    <glyph glyph-name="comma" unicode="," 
d="M187 76l151 -423l154 423l-154 152z" />
    <glyph glyph-name="hyphen" unicode="-" horiz-adv-x="778" 
d="M719 542v-236.999h-29l-1 22c0 14 -5.33301 26.5 -16 37.5s-20.667 17.833 -30 20.5l-22 4l-24 1l-38 5l-33 2l-302 -4c-64 0 -105 -4 -123 -12c-26 -11.333 -39 -29.333 -39 -54l-1 -22h-29v237h29l1 -20c0 -14.667 6.33301 -28.667 19 -42
c8.66699 -8.66699 21.667 -14.834 39 -18.501s52 -5.5 104 -5.5h303c66.667 0 107.667 3.33301 123 10c26.667 12 40 30.667 40 56v20h29z" />
    <glyph glyph-name="period" unicode="." 
d="M187 76l151 -153l154 153l-154 152z" />
    <glyph glyph-name="slash" unicode="/" horiz-adv-x="781" 
d="M404 -54l-10 -36l-410 110l9 36l37 -10l37 -5c26 0 48 8 66 24s39 65 63 147l226 846l20 82c4 21.333 6 38.666 6 51.999s-7 30 -21 50c-18 22 -39.667 36.333 -65 43l-37 10l10 35l410 -110l-9 -35l-39 10l-19 4l-18 1c-24 0 -46.667 -9 -68 -27
c-18 -18 -38 -66 -60 -144l-226 -846l-20 -82c-4 -21.333 -6 -38.666 -6 -51.999c0 -15.333 7.5 -32.5 22.5 -51.5s35.833 -32.5 62.5 -40.5z" />
    <glyph glyph-name="zero" unicode="0" horiz-adv-x="819" 
d="M59 536c0 122.667 18.498 228.667 55.498 318s86.833 156.333 149.5 201c48.667 34.667 98.334 52 149.001 52c80.667 0 155.334 -42.333 224.001 -127c82.667 -106.667 124 -249 124 -427c0 -126.667 -18.167 -233.667 -54.5 -321s-82.833 -151 -139.5 -191
s-110.667 -60 -162 -60c-100.667 0 -187 61 -259 183c-26 48 -47.667 104.667 -65 170l-16 96c-4 34 -6 69.333 -6 106zM215.998 516c0 -148.667 18.334 -270.666 55.001 -365.999c31.333 -79.333 76.666 -119 135.999 -119c28.667 0 57.667 12.333 87 37
s53.666 68.667 72.999 132c24.667 97.333 37 226.666 37 387.999c0 62 -3.16699 118.667 -9.5 170s-15.833 98 -28.5 140c-20 60.667 -45 104 -75 130c-20.667 17.333 -47 26 -79 26c-33.333 0 -65.666 -16 -96.999 -48c-38 -44 -64 -113.667 -78 -209s-21 -189 -21 -281z
" />
    <glyph glyph-name="one" unicode="1" horiz-adv-x="819" 
d="M192 978l264 129h26v-916c0 -59.333 2 -96.333 6 -111s15.333 -27 34 -37c19.333 -8.66699 51.666 -13 96.999 -13v-30h-408v30c50.667 0 82.834 3.83301 96.501 11.5s25.167 18.5 34.5 32.5c5.33301 12.667 8 51.667 8 117v586c0 83.333 -2.66699 134 -8 152
c-3.33301 17.333 -10 29.833 -20 37.5s-22 11.5 -36 11.5c-16.667 0 -44 -8 -82 -24z" />
    <glyph glyph-name="two" unicode="2" horiz-adv-x="819" 
d="M751 209l-76 -209.002h-640v30c86 78.667 165.667 156 239 232l48 52c16.667 18.667 30.667 35 42 49l69 87c76.667 108.667 115 208.334 115 299.001c0 68 -21.333 124.333 -64 169s-92.667 67 -150 67c-54 0 -101.833 -15.167 -143.5 -45.5s-73.167 -76.5 -94.5 -138.5
h-30c12 96.667 45.833 171.834 101.5 225.501s125.167 80.5 208.5 80.5c88 0 161.5 -28.167 220.5 -84.5s88.5 -123.166 88.5 -200.499c0 -51.333 -13 -106 -39 -164c-36.667 -82.667 -100.667 -174.334 -192 -275.001l-161 -174l-87 -88h283h21c43.333 0 76.833 2 100.5 6
s44.5 12.667 62.5 26s34.333 32 49 56h29z" />
    <glyph glyph-name="three" unicode="3" horiz-adv-x="819" 
d="M83 878c16.667 38 34.333 70.666 53 97.999s40 51 64 71c47.333 40 106.333 60 177 60c84.667 0 151.334 -28.333 200.001 -85c35.333 -41.333 53 -86.333 53 -135c0 -78 -49.667 -159.667 -149 -245c66 -24 116.167 -60.333 150.5 -109s51.5 -106.667 51.5 -174
c0 -93.333 -29.667 -174.666 -89 -243.999c-78 -89.333 -191 -134 -339 -134c-70 0 -119.667 9 -149 27c-26.667 18.667 -40 38 -40 58c0 14 6.83301 27.333 20.5 40s28.167 19 43.5 19c14 0 27.667 -2.33301 41 -7c4 0 11 -3 21 -9l41 -20l40 -19l28 -12l24 -5l37 -3
c52.667 0 99.667 21.167 141 63.5s62 92.166 62 149.499c0 42.667 -9.33301 83.667 -28 123c-13.333 27.333 -28.666 50 -45.999 68c-21.333 20.667 -52 39.834 -92 57.501s-81.667 26.5 -125 26.5h-25v24c42 5.33301 84.167 20.5 126.5 45.5s73.166 55.667 92.499 92
s29 74.5 29 114.5c0 54 -17.333 98 -52 132c-17.333 17.333 -36.333 30.333 -57 39s-44.334 13 -71.001 13c-82 0 -151 -44 -207 -132z" />
    <glyph glyph-name="four" unicode="4" horiz-adv-x="819" 
d="M762 400v-114h-145v-286h-132v286h-459v103l503 718h88v-707h145zM485 400v538l-381 -538h381z" />
    <glyph glyph-name="five" unicode="5" horiz-adv-x="819" 
d="M711 1085l-61.999 -135.999h-327l-71 -146c141.333 -21.333 253.333 -73.666 336 -156.999c71.333 -72.667 107 -158 107 -256c0 -56.667 -11.333 -109.334 -34 -158.001s-52.334 -90.334 -89.001 -125.001c-16 -15.333 -34.667 -31 -56 -47
c-17.333 -12.667 -37.666 -24.334 -60.999 -35.001c-62.667 -29.333 -125.667 -44 -189 -44c-65.333 0 -112.833 11 -142.5 33s-44.5 46.333 -44.5 73c0 14 6 27 18 39s27.667 18 47 18c14 0 26 -2 36 -6l20 -11l34 -22c41.333 -28 81.666 -42 120.999 -42
c62.667 0 117.667 23.667 165 71s71 104.666 71 171.999c0 66.667 -20.5 127.834 -61.5 183.501s-99.833 99.834 -176.5 132.501l-46 15l-60 14c-40 8 -84 12 -132 12l208 422h389z" />
    <glyph glyph-name="six" unicode="6" horiz-adv-x="819" 
d="M734 1107l-0.00195312 -28.9961c-40.667 -4 -73.167 -9.16699 -97.5 -15.5s-49.166 -15.5 -74.499 -27.5c-44 -20.667 -88 -52.334 -132 -95.001s-80.333 -91 -109 -145c-11.333 -22 -23.166 -49.333 -35.499 -82s-24.166 -68.334 -35.499 -107.001
c80 52.667 157.333 79 232 79c72 0 135.667 -29.667 191 -89s83 -136.333 83 -231c0 -90 -27.333 -172.667 -82 -248c-66.667 -90.667 -154.334 -136 -263.001 -136c-72.667 0 -134.167 23.667 -184.5 71s-89 102.666 -116 165.999s-40.5 132.666 -40.5 207.999
c0 95.333 19.333 187 58 275c18 43.333 41 84.5 69 123.5s60.667 75.833 98 110.5c70.667 66.667 139.667 112 207 136s129.333 36 186 36h46zM236.998 547.004c-10 -72 -15.001 -130.002 -15.001 -174.002c0 -28 2.33301 -55 7 -81c2 -14.667 4.66699 -28.667 8 -42
s8 -28.333 14 -45c18 -56.667 46 -104 84 -142c26.667 -24.667 59.667 -37 99 -37c46 0 87.667 21.667 125 65c17.333 20.667 30.833 46.834 40.5 78.501s14.5 67.834 14.5 108.501c0 91.333 -18.333 170.333 -55 237c-18.667 34 -40.667 59.167 -66 75.5
s-54.666 24.5 -87.999 24.5c-20.667 0 -42.667 -4.16699 -66 -12.5s-57.333 -26.833 -102 -55.5z" />
    <glyph glyph-name="seven" unicode="7" horiz-adv-x="819" 
d="M165 1085h581v-31l-361 -1076h-90l324 976h-298c-60 0 -103 -7 -129 -21c-44 -24 -80 -62 -108 -114l-23 9z" />
    <glyph glyph-name="eight" unicode="8" horiz-adv-x="819" 
d="M314 546c-84 70 -138.831 126.833 -164.498 170.5s-38.5 87.834 -38.5 132.501c0 68.667 27.167 128.834 81.5 180.501s126.833 77.5 217.5 77.5c87.333 0 157.666 -23.667 210.999 -71s80 -101.333 80 -162c0 -38.667 -14.667 -79.667 -44 -123
c-13.333 -20 -34.833 -42.667 -64.5 -68s-67.834 -52.666 -114.501 -81.999c93.333 -72 155.333 -129 186 -171c40.667 -56.667 61 -114 61 -172c0 -74 -29.333 -138.667 -88 -194s-134.667 -83 -228 -83c-102 0 -182.333 32.333 -241 97
c-46 51.333 -69 107.666 -69 168.999c0 45.333 16 93 48 143c16 24 37.333 48.333 64 73c12 11.333 26.833 24.166 44.5 38.499s37.167 29.166 58.5 44.499zM440.002 632c62 56 102.667 101.333 122 136c7.33301 16.667 13.333 34.334 18 53.001l5 30l2 31
c0 56 -15.667 99.833 -47 131.5s-74.333 47.5 -129 47.5c-52.667 0 -96.667 -16 -132 -48c-17.333 -16.667 -30.333 -33.834 -39 -51.501s-13 -37.167 -13 -58.5c0 -24.667 7 -52 21 -82c14 -27.333 34.333 -54 61 -80zM352.002 516
c-40.667 -34.667 -73.332 -75.666 -97.999 -122.999c-10.667 -22.667 -18.667 -45.334 -24 -68.001c-2.66699 -11.333 -4.66699 -22.5 -6 -33.5s-2 -24.5 -2 -40.5c0 -70 18.667 -125.333 56 -166s85.333 -61 144 -61c57.333 0 103.333 16.333 138 49s52 72 52 118
c0 36.667 -10 71 -30 103c-38.667 59.333 -115.334 133.333 -230.001 222z" />
    <glyph glyph-name="nine" unicode="9" horiz-adv-x="819" 
d="M86 -22l-0.00292969 28.999c66.667 0 130.334 15.833 191.001 47.5s118.334 85.334 173.001 161.001s94.667 162.5 120 260.5c-84 -54 -160 -81 -228 -81c-74 0 -138.667 29.667 -194 89s-83 137.333 -83 234c0 92 27 176.667 81 254c66 90 151.667 135 257 135
c88 0 164.333 -36.667 229 -110c78 -91.333 117 -204 117 -338c0 -120 -29.167 -232 -87.5 -336s-141.166 -191 -248.499 -261c-86 -56 -179.667 -84 -281 -84h-46zM581.997 534.999c10 69.333 15.002 125 15.002 167c0 26.667 -2 53.5 -6 80.5s-10.667 55.5 -20 85.5
c-16 57.333 -40.5 102.833 -73.5 136.5s-70.167 50.5 -111.5 50.5c-45.333 0 -87 -21.333 -125 -64c-16.667 -20 -29.834 -46.667 -39.501 -80s-14.5 -70 -14.5 -110c0 -112.667 23.667 -200.667 71 -264c35.333 -46 78 -69 128 -69c11.333 0 24.666 1.33301 39.999 4
s31.333 7 48 13c34.667 12 64 28.667 88 50z" />
    <glyph glyph-name="colon" unicode=":" 
d="M187 676l151 -153l154 153l-154 152zM187 76l151 -153l154 153l-154 152z" />
    <glyph glyph-name="semicolon" unicode=";" 
d="M187 76l151 -423l154 423l-154 152zM187 676l151 -153l154 153l-154 152z" />
    <glyph glyph-name="less" unicode="&#x3c;" horiz-adv-x="699" 
d="M636 366l-237.999 -237.998l-29 30l21 22c16 17.333 24 35.333 24 54c0 12 -2.83301 25.167 -8.5 39.5s-17.167 32.166 -34.5 53.499c-20 25.333 -45.667 52.666 -77 81.999l-195 187l179 172l37 43l27 34l27 32l10 15c9.33301 14.667 14 32 14 52
c0 22.667 -7.33301 41.667 -22 57l-22 23l30 30l239 -238l-30 -29l-21 20c-17.333 16 -37 24 -59 24c-8 0 -14 -0.333008 -18 -1s-10.333 -2.66699 -19 -6c-16.667 -8 -61 -46 -133 -114l-112 -112l130 -125l71 -66l40 -35c20 -12 39 -18 57 -18
c25.333 0 45.666 7.33301 60.999 22l21 19z" />
    <glyph glyph-name="equal" unicode="=" horiz-adv-x="778" 
d="M725 527l0.00292969 -177h-29l-1 22c0 5.33301 -2.33301 8.5 -7 9.5s-8.83398 3.33301 -12.501 7s-8.83398 6.5 -15.501 8.5l-16 4l-17 3l-24 1l-38 5l-33 2l-302 -4c-64 0 -105 -4 -123 -12l-23 -8c-0.666992 -0.666992 -1.33398 -1 -2.00098 -1
c-4.66699 -4 -9.33398 -9 -14.001 -15c-2 -2 -3 -5.33301 -3 -10v-9l2 -3h-29v177h29l1 -20c0 -2 0.333008 -3.5 1 -4.5s1.33398 -1.83301 2.00098 -2.5l5 1c3.33301 0 7 -2 11 -6c8.66699 -8.66699 21.667 -14.834 39 -18.501s52 -5.5 104 -5.5h303
c66.667 0 107.667 3.33301 123 10c8 2.66699 14.333 5.33398 19 8.00098c6 2 13 8 21 18v20h29zM728.003 329l0.00292969 -177h-29l-1 22c0 5.33301 -2.33301 8.5 -7 9.5s-8.83398 3.33301 -12.501 7s-8.83398 6.5 -15.501 8.5l-16 4l-17 3l-24 1l-38 5l-33 2l-302 -4
c-64 0 -105 -4 -123 -12l-23 -8c-0.666992 -0.666992 -1.33398 -1 -2.00098 -1c-4.66699 -4 -9.33398 -9 -14.001 -15c-2 -2 -3 -5.33301 -3 -10v-9l2 -3h-29v177h29l1 -20c0 -2 0.333008 -3.5 1 -4.5s1.33398 -1.83301 2.00098 -2.5l5 1c3.33301 0 7 -2 11 -6
c8.66699 -8.66699 21.667 -14.834 39 -18.501s52 -5.5 104 -5.5h303c66.667 0 107.667 3.33301 123 10c8 2.66699 14.333 5.33398 19 8.00098c6 2 13 8 21 18v20h29z" />
    <glyph glyph-name="greater" unicode="&#x3e;" horiz-adv-x="699" 
d="M429 768l-38.001 44.001l-26 33l-27 32l-10 15c-9.33301 14.667 -14 32 -14 52c0 22.667 7.66699 41.667 23 57l21 23l-30 30l-239 -238l30 -29l22 20c16 16 35.333 24 58 24c8 0 14 -0.333008 18 -1s10.333 -2.66699 19 -6c16.667 -8 61 -46 133 -114l112 -112
l-130 -125l-55 -52l-56 -49c-19.333 -12 -38.333 -18 -57 -18c-25.333 0 -45.666 7.33301 -60.999 22l-21 19l-30 -29l239 -238l28 30l-21 22c-16 17.333 -24 35.333 -24 54c0 9.33301 0.5 16.166 1.5 20.499s3.16699 10.5 6.5 18.5c6 13.333 18.167 31.833 36.5 55.5
s43.5 50.5 75.5 80.5l195 187z" />
    <glyph glyph-name="question" unicode="?" horiz-adv-x="1139" 
d="M228 1116l-5.99805 71.002c-6 47.333 -13 76.666 -21 87.999c-26 29.333 -64.667 44 -116 44h-51v37h497c122.667 0 218.667 -12.167 288 -36.5s128 -66.5 176 -126.5s72 -130.667 72 -212c0 -110.667 -36.5 -200.667 -109.5 -270s-176.167 -104 -309.5 -104
c-32.667 0 -68 2 -106 6s-78.667 11.333 -122 22v-95c0 -85.333 9.33301 -138.333 28 -159c25.333 -29.333 63.666 -44 114.999 -44h52v-37h-581v37h51c57.333 0 98.333 18.667 123 56c13.333 20.667 20 69.667 20 147l3 219l187 -44c30.667 -19.333 62.667 -32 96 -38
l70 -5c66.667 0 125.834 27.167 177.501 81.5s77.5 123.5 77.5 207.5c0 57.333 -11.5 110.666 -34.5 159.999s-56.833 87.333 -101.5 114s-95.334 40 -152.001 40c-34.667 0 -78.334 -6.33301 -131.001 -19l-2 9zM187.002 76.002l151 -153l154 153l-154 152z" />
    <glyph glyph-name="at" unicode="@" horiz-adv-x="1665" 
d="M716 665l91 -86l86 86l-86 85zM1134 135c-48.667 -26 -97 -46.002 -145 -60.002s-98.667 -21 -152 -21c-180.667 0 -336.834 63 -468.501 189s-197.5 279 -197.5 459c0 180.667 63 336.834 189 468.501s279 197.5 459 197.5c181.333 0 337.666 -63.167 468.999 -189.5
s197 -279.166 197 -458.499c0 -76.667 -8.66699 -134.667 -26 -174c-16 -40.667 -48.333 -80.667 -97 -120c-15.333 -13.333 -26.666 -21.333 -33.999 -24c-16 -6 -43.333 -9 -82 -9h-310v21c18.667 0 32 1 40 3l17 6l12 9c10 9.33301 15 21 15 35
c0 18.667 -8.33301 47 -25 85l-193 445l-179 -439c-17.333 -40.667 -26 -70.667 -26 -90c0 -16 5.33301 -28.333 16 -37c3.33301 -3.33301 11.333 -7.66602 24 -12.999l39 -4v-21h-234v21c26 4 47.333 13 64 27s33.334 41.667 50.001 83l265 646h21l282 -649
c6.66699 -17.333 15 -31 25 -41l25 -22c6 -5.33301 15.333 -10.333 28 -15l19 -7c10 -4 18.333 -6 25 -6h17c18.667 0 32.5 1 41.5 3s17.5 7 25.5 15c39.333 37.333 66.833 75.666 82.5 114.999s23.5 93 23.5 161c0 165.333 -61 306.5 -183 423.5s-266.667 175.5 -434 175.5
c-166 0 -307.333 -61 -424 -183s-175 -266.667 -175 -434c0 -166 60.833 -307.167 182.5 -423.5s266.5 -174.5 434.5 -174.5c48 0 94 6.33301 138 19c22 6 44 13.333 66 22s44 19 66 31z" />
    <glyph glyph-name="A" unicode="A" horiz-adv-x="1485" 
d="M28 0l0.000976562 36.998c51.333 8 90.5 24.5 117.5 49.5s55.833 73.833 86.5 146.5l473 1154h37l504 -1160c34 -78.667 63.333 -129.667 88 -153c11.333 -11.333 28.666 -20.333 51.999 -27s49.333 -10 78 -10v-37h-553v37c33.333 0 59.333 2.83301 78 8.5
s32.667 12.834 42 21.501s17 18.334 23 29.001c4.66699 14 7 25.667 7 35c0 32.667 -15.333 83.667 -46 153l-345 795l-320 -785c-30 -72 -45 -125.333 -45 -160c0 -28 9.33301 -50.333 28 -67c8.66699 -6.66699 23 -14 43 -22c10 -2.66699 20.333 -4.66699 31 -6
s23.667 -2 39 -2v-37h-418zM518.001 484.998l162 -153l154 153l-154 152z" />
    <glyph glyph-name="B" unicode="B" horiz-adv-x="1366" 
d="M946 692c91.333 -20 161.665 -52.001 210.998 -96.001c64.667 -61.333 97 -136.333 97 -225c0 -66 -21.167 -130.167 -63.5 -192.5s-100.666 -107.666 -174.999 -135.999s-188.166 -42.5 -341.499 -42.5h-640v37h51c53.333 0 94 18 122 54c15.333 23.333 23 73 23 149
v876c0 84.667 -9.66699 137.667 -29 159c-26 29.333 -64.667 44 -116 44h-51v37h586c106 0 193.667 -8 263 -24c100 -24 176.333 -66.5 229 -127.5s79 -131.167 79 -210.5c0 -68 -20.167 -128.167 -60.5 -180.5s-101.833 -92.833 -184.5 -121.5zM829.999 762.999
c46.667 20 83.999 51.999 111.999 95.999c13.333 22.667 23.333 45.334 30 68.001c2.66699 10 5 22 7 36s3 27 3 39c0 78 -32.333 145.333 -97 202s-159 85 -283 85c-69.333 0 -129.333 -7.33301 -180 -22v-521v-648c77.333 -18 153.666 -27 228.999 -27
c118 0 209.333 27 274 81s97 121.333 97 202c0 52.667 -14.167 103 -42.5 151s-75.166 86.667 -140.499 116l-90 45c-39.333 16.667 -77.666 25 -114.999 25c42 0 81.333 9.33301 118 28z" />
    <glyph glyph-name="C" unicode="C" horiz-adv-x="1366" 
d="M1288 657c0 -168 -46.0049 -314.001 -138.005 -438.001c-124.667 -166.667 -298.667 -250 -522 -250c-123.333 0 -230.5 28 -321.5 84s-170.833 144.333 -239.5 265l31 20c81.333 -112 155.333 -186.833 222 -224.5s144.334 -56.5 233.001 -56.5c100 0 190 24 270 72
s139.333 116.667 178 206c9.33301 22 17.5 44.5 24.5 67.5s13.5 49.5 19.5 79.5c10 53.333 15 111 15 173c0 146.667 -21 270.334 -63 371.001s-99.167 174 -171.5 220s-153.5 69 -243.5 69c-107.333 0 -199.166 -30.167 -275.499 -90.5s-135.5 -159.833 -177.5 -298.5h-31
l31 461h35c8 -32.667 20.333 -57.667 37 -75c14.667 -12.667 30.334 -19 47.001 -19c10.667 0 30.667 7.33301 60 22c96 48 192.667 72 290 72c34.667 0 65.834 -1.66699 93.501 -5s56.834 -9.33301 87.501 -18c56 -14.667 112 -38.667 168 -72
c106 -62 189.333 -149.5 250 -262.5s91 -237.167 91 -372.5zM457.995 684.999l162 -153l154 153l-154 152z" />
    <glyph glyph-name="D" unicode="D" horiz-adv-x="1479" 
d="M35 0l-0.000976562 37h51c54.667 0 95.334 18.333 122.001 55c6.66699 12 12 30.333 16 55s6 55.667 6 93v876c0 84.667 -9.33301 137.667 -28 159c-26 29.333 -64.667 44 -116 44h-51v37h552c201.333 0 354.833 -23 460.5 -69s191 -123 256 -231
s97.5 -231.667 97.5 -371c0 -188 -57.333 -345.667 -172 -473c-128 -141.333 -324 -212 -588 -212h-606zM421.999 98l116.999 -20.998l48 -5l48 -2c154 0 282.167 54.167 384.5 162.5s153.5 255.833 153.5 442.5c0 185.333 -51.167 332.5 -153.5 441.5
s-233.166 163.5 -392.499 163.5c-20.667 0 -36.667 -0.333008 -48 -1s-31.833 -2.83398 -61.5 -6.50098s-61.5 -10.834 -95.5 -21.501v-1153zM567.998 520.002l162 -153l154 153l-154 152zM567.998 839.002l162 -153l154 153l-154 152z" />
    <glyph glyph-name="E" unicode="E" horiz-adv-x="1251" 
d="M428 746v535.999h372c68 0 115 -5 141 -15c34 -15.333 59 -35.666 75 -60.999c17.333 -25.333 33 -74.333 47 -147h39l-15 297h-1045v-37h48c55.333 0 95.333 -13.333 120 -40c17.333 -19.333 26 -72.333 26 -159v-881c0 -66 -4 -109.833 -12 -131.5
s-22.333 -37.5 -43 -47.5c-28 -15.333 -58.333 -23 -91 -23h-48v-37h1045l117 340h-40c-44 -84 -86.333 -146.333 -127 -187c-33.333 -32 -67 -53.167 -101 -63.5s-89.333 -15.5 -166 -15.5h-230c-37.333 0 -62.833 4 -76.5 12s-23 18.167 -28 30.5s-7.5 48.833 -7.5 109.5
v447h258l118 -113l154 153l-154 152l-118 -119h-258z" />
    <glyph glyph-name="F" unicode="F" horiz-adv-x="1139" 
d="M422 746h254l118 119l154 -152l-154 -153l-118 113h-254l-3 -433c0 -68.667 4.33301 -114 13 -136c6 -13.333 20 -27.666 42 -42.999c29.333 -16 60 -24 92 -24h49v-37h-582v37h48c53.333 0 94 16.333 122 49c16 21.333 24 72.666 24 153.999v876
c0 68.667 -4.33301 114 -13 136c-6 16 -19.667 30.333 -41 43c-28 16 -58.667 24 -92 24h-48v37h1009l13 -298h-35c-16 63.333 -35.167 109.333 -57.5 138s-51 50.167 -86 64.5s-87.833 21.5 -158.5 21.5h-299z" />
    <glyph glyph-name="G" unicode="G" horiz-adv-x="1479" 
d="M1257 1387l35.0039 -427.998h-35c-35.333 106.667 -81 187 -137 241c-80 78 -183.667 117 -311 117c-172 0 -303.333 -68.333 -394 -205c-75.333 -115.333 -113 -252.666 -113 -411.999c0 -126.667 25 -243.334 75 -350.001s115.5 -185.5 196.5 -236.5
s164.167 -76.5 249.5 -76.5c50 0 98.667 6 146 18s92 31 134 57v392c0 68 -5.16699 112.5 -15.5 133.5s-26.333 37 -48 48s-59.834 16.5 -114.501 16.5v38h525v-38h-25c-49.333 0 -85 -17.333 -107 -52c-6 -12 -11 -30.333 -15 -55c-3.33301 -26.667 -5 -57 -5 -91v-415
c-75.333 -40.667 -150.833 -70.834 -226.5 -90.501s-158.834 -29.5 -249.501 -29.5c-262 0 -461 84 -597 252c-102 126 -153 271.333 -153 436c0 59.333 7.16699 118.166 21.5 176.499s35.833 113.833 64.5 166.5c68 130 161.333 230 280 300
c99.333 58 216.666 87 351.999 87c50 0 96.167 -4.16699 138.5 -12.5s98.166 -25.833 167.499 -52.5c37.333 -14 62.333 -21 75 -21c12 0 21.833 5.33301 29.5 16s14.167 34 19.5 70h37z" />
    <glyph glyph-name="H" unicode="H" horiz-adv-x="1479" 
d="M421 727l630.001 -99.999v288c0 69.333 -4.33301 115 -13 137c-6 13.333 -20 27.666 -42 42.999c-28 16 -58.333 24 -91 24h-48v37h580v-37h-48c-32.667 0 -63 -7.66699 -91 -23c-18.667 -8.66699 -33.334 -25 -44.001 -49c-7.33301 -24 -11 -68 -11 -132v-675
c0 -68.667 4.33301 -114 13 -136c6 -16 19.667 -30.333 41 -43c29.333 -16 60 -24 92 -24h48v-37h-580v37h48c54 0 94.333 16.333 121 49c16.667 22.667 25 74 25 154v313l-630 100v-413c0 -68.667 4.33301 -114 13 -136c6 -13.333 20 -27.666 42 -42.999
c28 -16 58.333 -24 91 -24h49v-37h-581v37h48c53.333 0 94 16.333 122 49c16 21.333 24 72.666 24 153.999v875c0 69.333 -4.33301 115 -13 137c-6 16 -19.667 30.333 -41 43c-29.333 16 -60 24 -92 24h-48v37h581v-37h-49c-32.667 0 -63 -7.66699 -91 -23
c-18.667 -10 -33 -26 -43 -48c-8 -22 -12 -66.333 -12 -133v-388z" />
    <glyph glyph-name="I" unicode="I" 
d="M632 37v-37h-581v37h48c53.333 0 94 16.333 122 49c16 21.333 24 72.666 24 153.999v876c0 68.667 -4.33301 114 -13 136c-6 16 -19.667 30.333 -41 43c-29.333 16 -60 24 -92 24h-48v37h581v-37h-49c-54 0 -94.333 -16.333 -121 -49c-16.667 -22.667 -25 -74 -25 -154
v-876c0 -68.667 4.33301 -114 13 -136c6 -13.333 20 -27.666 42 -42.999c28 -16 58.333 -24 91 -24h49zM187 1576l151 -153l154 153l-154 152z" />
    <glyph glyph-name="J" unicode="J" horiz-adv-x="797" 
d="M204 1319l-0.00195312 37h581v-37h-49c-54 0 -94.333 -16.333 -121 -49c-16 -21.333 -24 -72.666 -24 -153.999v-663c0 -102 -11.167 -184.5 -33.5 -247.5s-60.833 -118.167 -115.5 -165.5s-120.667 -71 -198 -71c-62 0 -111.167 15.5 -147.5 46.5
s-54.5 66.5 -54.5 106.5c0 32 8.33301 56.667 25 74c22.667 20.667 48.334 31 77.001 31c18.667 0 36.334 -6.66699 53.001 -20s39.667 -51 69 -113c15.333 -36 35 -54 59 -54c15.333 0 32 11 50 33c16 22 24 61 24 117v926c0 68.667 -4.33301 114 -13 136
c-6 13.333 -20 27.666 -42 42.999c-28 16 -58.333 24 -91 24h-49zM335.998 1576l162 -153l154 153l-154 152z" />
    <glyph glyph-name="K" unicode="K" horiz-adv-x="1479" 
d="M612 752l499.999 -497c80.667 -80.667 149.834 -135.334 207.501 -164.001s116.5 -46.667 176.5 -54v-37h-645v37c38 0 65.667 6.5 83 19.5s26 27.5 26 43.5c0 16.667 -3.33301 30.667 -10 42c-6.66699 14 -27.334 38 -62.001 72l-468 463v-437
c0 -68.667 4.33301 -114 13 -136c6 -13.333 20 -27.666 42 -42.999c28 -16 58.333 -24 91 -24h46v-37h-578v37h48c53.333 0 94 16.333 122 49c16 21.333 24 72.666 24 153.999v876c0 68 -4.33301 113.667 -13 137c-6 16.667 -19.667 30.667 -41 42c-29.333 16 -60 24 -92 24
h-48v37h578v-37h-46c-32.667 0 -63 -7.66699 -91 -23c-17.333 -10 -31.666 -26 -42.999 -48c-8 -21.333 -12 -65.333 -12 -132v-415l137 127c192 175.333 311.667 296.333 359 363c18 26 27 49.333 27 70c0 12.667 -7 26 -21 40c-14 12 -37.667 18 -71 18h-31v37h498v-37
c-29.333 0 -56 -3.66699 -80 -11s-53.333 -21.666 -88 -42.999c-30 -17.333 -72.667 -51.333 -128 -102l-203 -205z" />
    <glyph glyph-name="L" unicode="L" horiz-adv-x="1251" 
d="M1174 375l33.001 -7.00098l-116 -368h-1050v37h51c57.333 0 98.333 18.667 123 56c14 21.333 21 70.666 21 147.999v875c0 84.667 -9.33301 137.667 -28 159c-26 29.333 -64.667 44 -116 44h-51v37h614v-37c-72.667 0 -123.334 -6.66699 -152.001 -20
c-25.333 -14 -45 -31.667 -59 -53c-10.667 -24.667 -16 -75.667 -16 -153v-852c0 -55.333 5.33301 -93.333 16 -114c8 -13.333 21 -23.666 39 -30.999c20 -6.66699 71.333 -10 154 -10h99c106.667 0 180 7.16699 220 21.5s77 40.833 111 79.5s69.667 101.334 107 188.001z
" />
    <glyph glyph-name="M" unicode="M" horiz-adv-x="2066" 
d="M67 1356l966.997 -202.999l980 203l3 -47c-27.333 0 -56.666 -10.333 -87.999 -31l-54 -44c-20 -16 -33 -33.333 -39 -52l-2 -72l-1 -156v-189v-298l1 -220c0 -66 3.83301 -110.167 11.5 -132.5s23.834 -40.833 48.501 -55.5l47 -16c19.333 -4 41 -6 65 -6v-37h-518v37
c66 7.33301 108 23.666 126 48.999c9.33301 12.667 16.333 32 21 58s7 60.333 7 103v761v27v22v17v14c0 30.667 -1.66699 49 -5 55c-2 11.333 -9.16699 20.666 -21.5 27.999s-36.166 11 -71.499 11l-269 -55c-32 -6 -61.667 -20.667 -89 -44
c-18 -16 -31.333 -31.667 -40 -47c-4 -2 -7.5 -8 -10.5 -18s-4.83301 -18.833 -5.5 -26.5s-1 -20.5 -1 -38.5v-706c0 -82 9 -136 27 -162s60 -42 126 -48v-37h-499v37c66 6 108.167 22.333 126.5 49s27.5 80.334 27.5 161.001v706c0 46 -3.33301 73.667 -10 83l-8 5
c-16 23.333 -28.667 39.333 -38 48c-11.333 11.333 -24.333 20.5 -39 27.5s-28.334 10.5 -41.001 10.5l-264 55c-42 0 -68.5 -2.66699 -79.5 -8s-19.833 -17.333 -26.5 -36l-5 -46l-2 -84v-761c0 -82.667 8.66699 -136.667 26 -162c18 -24 60.333 -40 127 -48v-37h-520v37
h21c8 0 17.333 0.666992 28 2c8.66699 0 22 3 40 9c22.667 8 40.334 18.333 53.001 31c22 25.333 33 81.333 33 168v147l2 268l1 248v52v43v34v28v22v17v14c0 28.667 -1 46 -3 52c-6 16.667 -19 34 -39 52l-31 30c-32 30 -64 45 -96 45zM886.997 1576l151 -153l154 153
l-154 152z" />
    <glyph glyph-name="N" unicode="N" horiz-adv-x="1342" 
d="M1275 1077l-12.001 0.999023c-27.333 0 -53.333 -13.667 -78 -41l-39 -51c-4 -2 -7.5 -8 -10.5 -18s-4.83301 -18.833 -5.5 -26.5s-1 -20.5 -1 -38.5v-656c0 -82 9 -136 27 -162s60 -42 126 -48v-37h-499v37c66 6 108.167 22.333 126.5 49s27.5 80.334 27.5 161.001v716
c0 38 -3 64.667 -9 80c-0.666992 2 -3.66699 4.66699 -9 8c-12 24 -29.333 44.333 -52 61s-44.667 25 -66 25l-264 55c-42 0 -68.5 -2.66699 -79.5 -8s-19.833 -17.333 -26.5 -36l-5 -46l-2 -84v-771c0 -82.667 8.66699 -136.667 26 -162c18 -24 60.333 -40 127 -48v-37
h-520v37h21c8 0 17.333 0.666992 28 2c8.66699 0 22 3 40 9c22.667 8 40.334 18.333 53.001 31c22 25.333 33 81.333 33 168v147l2 268l1 248v52v43v34v28v22v17v14c0 28.667 -1 46 -3 52c-6 16.667 -19 34 -39 52l-31 30c-32 30 -64 45 -96 45l1 57l937 -193l274 -58z" />
    <glyph glyph-name="O" unicode="O" horiz-adv-x="1479" 
d="M749 1387c174 0 326.001 -66.835 456.001 -200.502s195 -300.5 195 -500.5c0 -206 -65 -377 -195 -513s-287.333 -204 -472 -204s-341 66.333 -469 199s-192 304.334 -192 515.001c0 212.667 73.333 388.334 220 527.001c127.333 118 279.666 177 456.999 177z
M730.001 1314c-118.667 0 -216.001 -45.001 -292.001 -135.001c-91.333 -112.667 -137 -276.667 -137 -492c0 -221.333 47.333 -391.666 142 -510.999c72.667 -90.667 168.667 -136 288 -136c127.333 0 232.5 49.667 315.5 149s124.5 256 124.5 470
c0 232.667 -45.667 405.667 -137 519c-73.333 90.667 -174.666 136 -303.999 136zM578 684.997l162 -153l154 153l-154 152z" />
    <glyph glyph-name="P" unicode="P" horiz-adv-x="1139" 
d="M420 635l0.000976562 -395c0 -85.333 9.33301 -138.333 28 -159c25.333 -29.333 63.666 -44 114.999 -44h52v-37h-581v37h51c57.333 0 98.333 18.667 123 56c13.333 20.667 20 69.667 20 147v876c0 84 -9 137 -27 159c-26 29.333 -64.667 44 -116 44h-51v37h497
c122.667 0 218.667 -12.167 288 -36.5s128 -66.5 176 -126.5s72 -130.667 72 -212c0 -110.667 -36.5 -200.667 -109.5 -270s-176.167 -104 -309.5 -104c-32.667 0 -68 2 -106 6s-78.667 11.333 -122 22zM420.001 692l94.001 -14.999l70 -5
c66.667 0 125.834 27.167 177.501 81.5s77.5 123.5 77.5 207.5c0 57.333 -11.5 110.666 -34.5 159.999s-56.833 87.333 -101.5 114s-95.334 40 -152.001 40c-34.667 0 -78.334 -6.33301 -131.001 -19v-564z" />
    <glyph glyph-name="Q" unicode="Q" horiz-adv-x="1479" 
d="M902 -15c67.333 -114.667 139.999 -199.833 217.999 -255.5s168.667 -88.5 272 -98.5v-32c-43.333 0 -90.666 4.83301 -141.999 14.5s-102.666 23.167 -153.999 40.5c-28.667 8.66699 -54.334 17.5 -77.001 26.5s-47 19.833 -73 32.5c-49.333 22.667 -98.333 50 -147 82
c-90 56.667 -170.667 120 -242 190c-96 38 -172 79 -228 123c-80 64 -143 143.333 -189 238c-22 48 -38.833 99.5 -50.5 154.5s-17.5 115.167 -17.5 180.5c0 202.667 65.667 371 197 505s290.333 201 477 201c176 0 329 -67.333 459 -202
c65.333 -67.333 114.333 -143 147 -227s49 -177.667 49 -281c0 -166 -46.167 -311 -138.5 -435s-212.5 -209.667 -360.5 -257zM733.999 1310c-118.667 0 -216.333 -43.332 -293 -129.999c-93.333 -108.667 -140 -275 -140 -499c0 -219.333 47.333 -388.333 142 -507
c73.333 -91.333 170.333 -137 291 -137c125.333 0 226.333 45.667 303 137c90 108 135 267.333 135 478c0 81.333 -6.16699 156.333 -18.5 225s-30.833 130 -55.5 184c-38 83.333 -88.833 145.666 -152.5 186.999s-134.167 62 -211.5 62zM578 685.002l162 -153l154 153
l-154 152z" />
    <glyph glyph-name="R" unicode="R" horiz-adv-x="1366" 
d="M1645 -225l-97.001 -26.998c-44 -6.66699 -76.667 -11.334 -98 -14.001c-38.667 -5.33301 -70.334 -8 -95.001 -8c-27.333 0 -50.333 2.83301 -69 8.5s-34.667 16.167 -48 31.5c-61.333 70.667 -143.666 172 -246.999 304l-271 354
c-90 118.667 -142.333 188.667 -157 210c-0.666992 1.33301 -5 2 -13 2c-6.66699 0 -18.667 -0.666992 -36 -2s-28.666 -2 -33.999 -2h-28h-11c-4 0 -10.667 0.666992 -20 2v-394c0 -85.333 9.33301 -138.333 28 -159c25.333 -29.333 63.333 -44 114 -44h53v-37h-581v37h51
c57.333 0 98.333 18.667 123 56c14 20 21 69 21 147v876c0 85.333 -9.33301 138.333 -28 159c-26 29.333 -64.667 44 -116 44h-51v37h494c146 0 252.667 -10.333 320 -31s124.833 -59.334 172.5 -116.001s71.5 -124 71.5 -202c0 -83.333 -27 -155.5 -81 -216.5
s-138.333 -104.5 -253 -130.5l496 -623c63.333 -88.667 118.333 -148 165 -178c18.667 -11.333 37.667 -20.333 57 -27s42.333 -10 69 -10c30 0 63 5.66699 99 17v-64zM420.999 697.002l32.999 -1h23c128.667 0 226 28 292 84s99 127.333 99 214
c0 84 -26.333 152.667 -79 206s-123 80 -211 80c-39.333 0 -91.666 -6.33301 -156.999 -19v-564z" />
    <glyph glyph-name="S" unicode="S" horiz-adv-x="1251" 
d="M42 1356l891.003 -1274h-556c-84.667 0 -149.334 18 -194.001 54s-86 112.333 -124 229l-33 -6l64 -359h1104v37l-870 1238h434c73.333 0 125.166 -7.16699 155.499 -21.5s55.166 -37.833 74.499 -70.5c14 -23.333 29.667 -78.666 47 -165.999h38l-28 339h-1003z" />
    <glyph glyph-name="T" unicode="T" horiz-adv-x="1251" 
d="M1185 1356l14.999 -317.998h-38c-6 56 -16 96 -30 120c-20 37.333 -48 65.5 -84 84.5s-80.667 28.5 -134 28.5h-191v-1036c0 -82 9 -134 27 -156c25.333 -28 64.333 -42 117 -42h47v-37h-575v37h48c54.667 0 95.334 17.333 122.001 52c4.66699 8 10 25.333 16 52
c4 25.333 6 56.666 6 93.999v1036h-163c-67.333 0 -112.333 -4.66699 -135 -14c-31.333 -12 -61 -36.333 -89 -73c-21.333 -30.667 -36 -79.334 -44 -146.001h-38l16 318h1107z" />
    <glyph glyph-name="U" unicode="U" horiz-adv-x="1479" 
d="M1454 1356l0.000976562 -37c-48 -8 -84.333 -23.333 -109 -46c-32.667 -29.333 -64 -79.333 -94 -150l-473 -1154h-37l-508 1169c-26 57.333 -44.333 94 -55 110c-8.66699 10.667 -18.167 20 -28.5 28s-21.5 14.667 -33.5 20c-18.667 9.33301 -51.334 17 -98.001 23v37
h554v-37c-62 -6 -102.5 -16.667 -121.5 -32s-28.5 -35 -28.5 -59c0 -34.667 15.333 -86.667 46 -156l345 -795l320 785c31.333 78.667 47 132.334 47 161.001c0 17.333 -8.83301 34.666 -26.5 51.999s-51.167 31 -100.5 41l-17 3v37h418z" />
    <glyph glyph-name="V" unicode="V" horiz-adv-x="1479" 
d="M1454 1356l0.000976562 -37c-48 -8 -84.333 -23.333 -109 -46c-32.667 -29.333 -64 -79.333 -94 -150l-473 -1154h-37l-508 1169c-26 57.333 -44.333 94 -55 110c-8.66699 10.667 -18.167 20 -28.5 28s-21.5 14.667 -33.5 20c-18.667 9.33301 -51.334 17 -98.001 23v37
h554v-37c-62 -6 -102.5 -16.667 -121.5 -32s-28.5 -35 -28.5 -59c0 -34.667 15.333 -86.667 46 -156l345 -795l320 785c31.333 78.667 47 132.334 47 161.001c0 17.333 -8.83301 34.666 -26.5 51.999s-51.167 31 -100.5 41l-17 3v37h418zM660.001 1594l151 -153l154 153
l-154 152z" />
    <glyph glyph-name="W" unicode="W" horiz-adv-x="2066" 
d="M2017 61l-3.00293 -47.0029l-980 203l-967 -203l-1 57c26 0 52.667 10.333 80 31l47 44c20 16 33 33.333 39 52c2 7.33301 3 97 3 269l-1 282l-1 228l-1 146c0 86 -11 142 -33 168c-11.333 12 -29 22 -53 30s-53.667 12 -89 12v37h520v-37
c-65.333 -6 -107.166 -21.667 -125.499 -47s-27.5 -79.666 -27.5 -162.999v-761c0 -68.667 2.5 -112 7.5 -130s13.167 -30 24.5 -36c12.667 -5.33301 39.667 -8 81 -8l264 55c28 0 54.667 12.333 80 37c6.66699 6.66699 19.334 23 38.001 49l7 5
c7.33301 8.66699 11 36.334 11 83.001v706c0 78 -8.66699 130.333 -26 157s-60 44.334 -128 53.001v37h499v-37c-66 -6 -108 -22 -126 -48s-27 -80 -27 -162v-706c0 -36.667 2.66699 -61.334 8 -74.001c1.33301 -4 4.33301 -7 9 -9c10 -20.667 29.333 -40.667 58 -60
c21.333 -16 45 -26.333 71 -31l269 -55c35.333 0 58.833 3 70.5 9s19.167 16.333 22.5 31s5 59.334 5 134.001v761c0 82.667 -9.16699 136.667 -27.5 162s-60.5 41.333 -126.5 48v37h518v-37c-47.333 0 -84.666 -7.33301 -111.999 -22c-24 -12 -40.333 -30.667 -49 -56
c-7.33301 -27.333 -11 -71.333 -11 -132l-1 -235v-311v-258c0 -80 1 -123.667 3 -131c6 -16.667 19 -34 39 -52l54 -43c32.667 -21.333 62 -32 88 -32z" />
    <glyph glyph-name="X" unicode="X" horiz-adv-x="1479" 
d="M836 751l290.998 -433.998c80.667 -122.667 140.334 -198.667 179.001 -228c22.667 -16.667 45.334 -29.667 68.001 -39c28 -8.66699 55 -13 81 -13v-37h-582v37c38.667 0 66 3.5 82 10.5s28.667 16.667 38 29s14 24.833 14 37.5c0 16.667 -2.66699 30.667 -8 42
c-4 14.667 -22.667 45.334 -56 92.001l-230 348l-284 -364c-30 -38 -48 -63.5 -54 -76.5s-9 -26.833 -9 -41.5c0 -18 9 -35.667 27 -53l40 -17c10.667 -2 21 -3.66699 31 -5s20.667 -2 32 -2v-37h-481v37c4.66699 0 10.5 0.166992 17.5 0.5s17 2.16602 30 5.49902
s26.5 8.33301 40.5 15c41.333 17.333 80.666 40.666 117.999 69.999c14.667 11.333 34.334 29.666 59.001 54.999l33 36l36 44l320 404l-267 391c-72 106 -133.667 175.333 -185 208c-26.667 17.333 -54.5 30.5 -83.5 39.5s-59.5 13.5 -91.5 13.5v37h627v-37
c-27.333 0 -49.333 -2.33301 -66 -7c-18 -4 -32.667 -10.333 -44 -19c-19.333 -15.333 -29 -32.333 -29 -51c0 -24 16 -60 48 -108l208 -311l241 305c27.333 34.667 44.333 59.5 51 74.5s10 28.5 10 40.5s-4 24 -12 36s-21 22 -39 30l-36 7l-58 3v37h481v-37l-26 -1
c-8.66699 0 -17 -1.33301 -25 -4l-20 -4l-22 -9c-37.333 -14.667 -70 -35 -98 -61c-25.333 -22.667 -68 -71 -128 -145z" />
    <glyph glyph-name="Y" unicode="Y" horiz-adv-x="1511" 
d="M852 656c90 0 158.331 14.835 204.998 44.502s78.334 67.5 95.001 113.5c7.33301 22.667 14.333 53 21 91c2.66699 17.333 5 37.5 7 60.5s3 45.833 3 68.5c0 58 6.16699 106.667 18.5 146s31.5 75.333 57.5 108c46 56 122.333 84 229 84v-38
c-18.667 0 -34.167 -3.5 -46.5 -10.5s-22.833 -18.5 -31.5 -34.5c-13.333 -26.667 -20 -83.667 -20 -171c0 -130.667 -13.167 -229.834 -39.5 -297.501s-80.833 -123.834 -163.5 -168.501c-40.667 -21.333 -89.334 -38.333 -146.001 -51c-28 -6 -57.667 -10.667 -89 -14
s-64.666 -5 -99.999 -5v-317c0 -77.333 4 -127 12 -149s27.333 -41.333 58 -58c29.333 -14 74.333 -21 135 -21v-37h-602v37c60 0 104 6 132 18s47.167 30.333 57.5 55s15.5 76.334 15.5 155.001v317h-13h-54c-14.667 2 -25.334 3.33301 -32.001 4
c-13.333 0 -27.333 1.16699 -42 3.5s-30.334 5.5 -47.001 9.5c-54 12 -102.667 29.333 -146 52c-79.333 42 -133.166 97.667 -161.499 167s-42.5 169.666 -42.5 300.999c0 84 -6.16699 139.833 -18.5 167.5s-38.833 43.5 -79.5 47.5v38
c66.667 0 120.834 -10.167 162.501 -30.5s74.834 -56.166 99.501 -107.499c12 -25.333 22.167 -55.333 30.5 -90s12.5 -71.334 12.5 -110.001c0 -52 2.33301 -94.667 7 -128l9 -48c2 -9.33301 3.66699 -16.333 5 -21s4 -12 8 -22c14 -44 46.167 -81.5 96.5 -112.5
s118.833 -46.5 205.5 -46.5h192zM600.998 1059l162 -153l154 153l-154 152z" />
    <glyph glyph-name="Z" unicode="Z" horiz-adv-x="1251" 
d="M1178 1356l-891.002 -1274h556c84.667 0 149.334 18 194.001 54s86 112.333 124 229l33 -6l-64 -359h-1104v37l870 1238h-434c-73.333 0 -125.333 -7.16699 -156 -21.5s-55.667 -37.833 -75 -70.5c-13.333 -26 -28.666 -81.333 -45.999 -166h-38l28 339h1003z" />
    <glyph glyph-name="bracketleft" unicode="[" 
d="M608 -406l-440.001 0.000976562v1793h440l3 -19l1 -24c0 -15.333 -1.66699 -29.333 -5 -42s-13 -22.834 -29 -30.501s-36 -11.5 -60 -11.5c-34.667 0 -78.667 8 -132 24l-68 24v-1636l67 24c52 16 96.333 24 133 24c24.667 0 44.334 -3.66699 59.001 -11
c16 -6.66699 26.333 -19 31 -37l3 -15l1 -20l-1 -24z" />
    <glyph glyph-name="backslash" unicode="\" horiz-adv-x="781" 
d="M744 20l-410.001 -110l-10 36l39 11c24.667 6 45.667 19.667 63 41c14.667 18.667 22 35.667 22 51c0 10.667 -2 25.667 -6 45l-9 46c-0.666992 3.33301 -2 9.5 -4 18.5s-4.33301 17.167 -7 24.5l-226 846c-22 78.667 -42.167 126.834 -60.5 144.501
s-40.833 26.5 -67.5 26.5c-14 0 -26.333 -1.66699 -37 -5l-39 -10l-9 35l410 110l10 -35l-37 -10c-23.333 -6 -45 -20.333 -65 -43c-14 -18 -21 -34.667 -21 -50c0 -14 1.66699 -28.667 5 -44l11 -52l10 -38l226 -846c22 -78.667 42.333 -127.334 61 -146.001
c18.667 -16.667 41.334 -25 68.001 -25c14 0 26.333 1.66699 37 5l37 10z" />
    <glyph glyph-name="bracketright" unicode="]" 
d="M75 1387h440v-1794h-440l-3 19l-1 24c0 16 1.83301 30.167 5.5 42.5s13.334 22.333 29.001 30s35.5 11.5 59.5 11.5c34.667 0 78.667 -8 132 -24l68 -24v1636l-67 -24c-52 -16 -96.333 -24 -133 -24c-25.333 0 -45.333 3.5 -60 10.5s-24.334 17.5 -29.001 31.5
c-3.33301 15.333 -5 29.333 -5 42l1 24z" />
    <glyph glyph-name="asciicircum" unicode="^" horiz-adv-x="819" 
d="M285 1171l-23.001 -20.002l-31 -25l-14 -12l-19 -13c-10 -6.66699 -22.333 -10 -37 -10c-15.333 0 -28.333 5.33301 -39 16l-17 15l-21 -21l167 -168l20 21l-14 16c-10.667 10.667 -16 24.334 -16 41.001c0 8.66699 1.33301 17 4 25c5.33301 12 32 43 80 93l79 79l87 -91
l46 -49l25 -29c8 -14 12 -27.333 12 -40c0 -15.333 -5 -29.666 -15 -42.999l-13 -14l20 -21l167 167l-21 20l-16 -15c-12.667 -11.333 -25.667 -17 -39 -17c-8 0 -17 2 -27 6c-19.333 8 -50.666 34 -93.999 78l-131 137z" />
    <glyph glyph-name="underscore" unicode="_" horiz-adv-x="1155" 
d="M1108 86v-425.002h-37l-1 41c0 26.667 -7 49.5 -21 68.5s-25.833 30.333 -35.5 34s-18.667 6.33398 -27 8.00098s-18.833 2.5 -31.5 2.5l-88 2l-578 1c-78.667 0 -130 -7 -154 -21c-32.667 -18.667 -49 -50.667 -49 -96l-1 -40h-36v425h36l1 -38c0 -24 8 -48.667 24 -74
c12 -16 27.333 -27.167 46 -33.5s63 -9.5 133 -9.5h579c82 0 133.333 6.33301 154 19c32.667 22.667 49 55.334 49 98.001v38h37z" />
    <glyph glyph-name="grave" unicode="`" 
d="M148 1390h223l106 -345h-35z" />
    <glyph glyph-name="a" unicode="a" horiz-adv-x="1039" 
d="M20 0l-0.000976562 26.001c35.333 5.33301 62.666 17 81.999 35s39.333 52 60 102l331 808h26l353 -812c24 -54 44.667 -89.667 62 -107c6.66699 -7.33301 18.334 -14 35.001 -20c15.333 -4 34 -6 56 -6v-26h-387v26c10.667 0 20.334 0.333008 29.001 1
s16.334 2 23.001 4c15.333 5.33301 26 11 32 17l16 19l5 25c0 21.333 -11 57 -33 107l-241 556l-224 -549c-21.333 -52.667 -32 -90 -32 -112c0 -18.667 6.66699 -34.334 20 -47.001c5.33301 -4 15.333 -9.33301 30 -16c15.333 -3.33301 31.666 -5 48.999 -5v-26h-292z
M362.999 339.001l113 -107l108 107l-108 107z" />
    <glyph glyph-name="b" unicode="b" horiz-adv-x="956" 
d="M662 484c65.333 -14 114.668 -36.334 148.001 -67.001c45.333 -43.333 68 -95.666 68 -156.999c0 -46 -14.333 -90.5 -43 -133.5s-69.5 -74.833 -122.5 -95.5s-133.167 -31 -240.5 -31h-448v26h35c38 0 66.667 12.667 86 38c10.667 18 16 52.667 16 104v613
c0 60.667 -6.66699 97.667 -20 111c-18.667 20.667 -46 31 -82 31h-35v26h410c38 0 72.5 -1.33301 103.5 -4s57.833 -7 80.5 -13c69.333 -16 122.666 -45.5 159.999 -88.5s56 -92.167 56 -147.5c0 -48 -14 -90 -42 -126s-71.333 -64.667 -130 -86zM581.002 533.999
c31.333 12.667 56.834 34.667 76.501 66s29.5 65 29.5 101c0 55.333 -22.5 102.666 -67.5 141.999s-111.167 59 -198.5 59c-46 0 -88 -5 -126 -15v-365v-453c26 -6 52.333 -10.667 79 -14s54 -5 82 -5c82 0 145.667 18.833 191 56.5s68 84.834 68 141.501
c0 38 -9.5 73.167 -28.5 105.5s-52.167 59.5 -99.5 81.5l-63 31l-40 13c-9.33301 2 -16 3.33301 -20 4s-10.667 1 -20 1c29.333 0 56.666 6.33301 81.999 19z" />
    <glyph glyph-name="c" unicode="c" horiz-adv-x="956" 
d="M902 460c0 -116 -32.3301 -218.332 -96.9971 -306.999c-87.333 -116.667 -209 -175 -365 -175c-89.333 0 -165.333 19.667 -228 59s-117.667 101.333 -165 186l22 14c54 -76.667 105.667 -129.334 155 -158.001c46 -26 100.333 -39 163 -39
c71.333 0 134.5 16.667 189.5 50s96.333 81.833 124 145.5s41.5 137.834 41.5 222.501c0 103.333 -14.667 190.666 -44 261.999c-15.333 36.667 -33 67 -53 91c-18.667 24.667 -41.334 45.334 -68.001 62.001c-50.667 31.333 -107.334 47 -170.001 47
c-74 0 -137.667 -20.833 -191 -62.5s-95.333 -111.5 -126 -209.5h-21l21 323h25c4 -21.333 12.667 -39 26 -53c10.667 -8.66699 21.667 -13 33 -13c6 0 20 5 42 15c67.333 34 135 51 203 51c86.667 0 167.167 -21.667 241.5 -65s133.166 -104.833 176.499 -184.5
s65 -166.834 65 -261.501z" />
    <glyph glyph-name="d" unicode="d" horiz-adv-x="1035" 
d="M24 0v25.999h36c38 0 66.667 12.667 86 38c10 18 15 52.667 15 104v613c0 60.667 -6.66699 97.667 -20 111c-18.667 20.667 -45.667 31 -81 31h-36v26h387c140 0 247.167 -15.833 321.5 -47.5s134.333 -85.5 180 -161.5s68.5 -163 68.5 -261
c0 -131.333 -40.333 -241.666 -121 -330.999c-89.333 -98.667 -226.333 -148 -411 -148h-425zM295 68.999l83 -16.001l66 -4c108 0 197.833 37.833 269.5 113.5s107.5 178.834 107.5 309.501c0 130 -35.833 233.167 -107.5 309.5s-163.167 114.5 -274.5 114.5l-33 -1
c-5.33301 0 -11.666 -0.333008 -18.999 -1s-17 -2 -29 -4l-26.5 -4.5c-5.66699 -1 -17.834 -4.16699 -36.501 -9.5v-807z" />
    <glyph glyph-name="e" unicode="e" horiz-adv-x="876" 
d="M300 522l0.00195312 374.999h260c48 0 81 -3.33301 99 -10c24 -11.333 41.333 -25.666 52 -42.999c12 -17.333 23 -51.666 33 -102.999h27l-10 208h-732v-26h34c38.667 0 66.667 -9.33301 84 -28c12 -12.667 18 -49.667 18 -111v-617c0 -46 -2.83301 -76.5 -8.5 -91.5
s-15.5 -26.167 -29.5 -33.5c-20.667 -10.667 -42 -16 -64 -16h-34v-26h732l82 238h-28c-30.667 -58.667 -60.334 -102.334 -89.001 -131.001c-23.333 -22.667 -46.5 -37.5 -69.5 -44.5s-62.167 -10.5 -117.5 -10.5h-161c-24.667 0 -42.334 2.33301 -53.001 7
c-9.33301 6.66699 -15.833 14.167 -19.5 22.5s-5.5 33.833 -5.5 76.5v313h180l83 -79l108 107l-108 106l-83 -83h-180z" />
    <glyph glyph-name="f" unicode="f" horiz-adv-x="797" 
d="M295 522l178 0.000976562l83 83l108 -106l-108 -107l-83 79h-178l-2 -303c0 -47.333 3 -79 9 -95c5.33301 -10.667 16.333 -21.167 33 -31.5s37 -15.5 61 -15.5h34v-26h-407v26h34c36.667 0 65 11.333 85 34c11.333 15.333 17 51.333 17 108v613c0 47.333 -3 79 -9 95
c-3.33301 10.667 -13 20.667 -29 30c-18.667 11.333 -40 17 -64 17h-34v26h706l9 -208h-24c-10.667 42.667 -24.334 74.667 -41.001 96c-8.66699 10.667 -17.667 19.667 -27 27s-20.666 13.666 -33.999 18.999c-24 9.33301 -60.333 14 -109 14h-210z" />
    <glyph glyph-name="g" unicode="g" horiz-adv-x="1035" 
d="M880 971l24 -300.001h-24c-24.667 73.333 -56.667 129.666 -96 168.999c-56 54.667 -128.667 82 -218 82c-120 0 -212 -48 -276 -144c-52.667 -82 -79 -178 -79 -288c0 -89.333 17.667 -171.5 53 -246.5s81.333 -130 138 -165s114.667 -52.5 174 -52.5
c37.333 0 71.333 4.33301 102 13c15.333 3.33301 24 5.33301 26 6s9.66699 4 23 10c6 2 13.333 5.16699 22 9.5s16.334 8.83301 23.001 13.5v275c0 48.667 -3.5 79.834 -10.5 93.501s-18 24.5 -33 32.5s-42.167 12 -81.5 12v27h368v-27h-18c-34 0 -58.667 -12 -74 -36
l-6 -14l-5 -29c-2 -12 -3 -31.667 -3 -59v-291c-54.667 -28 -108 -49 -160 -63s-110 -21 -174 -21c-181.333 0 -320.666 59 -417.999 177c-71.333 88.667 -107 190.334 -107 305.001c0 40.667 5 81 15 121s25.333 79.667 46 119c47.333 91.333 112.666 161.333 195.999 210
c69.333 40.667 151.333 61 246 61c34.667 0 66.667 -3.16699 96 -9.5s68.666 -18.5 117.999 -36.5c12.667 -4.66699 23.167 -8 31.5 -10s15.5 -3.33301 21.5 -4c8.66699 0 15.5 3.5 20.5 10.5s9.5 23.5 13.5 49.5h26z" />
    <glyph glyph-name="h" unicode="h" horiz-adv-x="1035" 
d="M295 509l440.998 -69.999v201c0 48 -3 79 -9 93c-4.66699 14 -14.667 25 -30 33c-18.667 11.333 -40 17 -64 17h-33v26h406v-26h-34c-22.667 0 -43.667 -5.33301 -63 -16c-14 -6 -24.333 -17.333 -31 -34l-6 -34l-2 -59v-472c0 -46 3 -77.667 9 -95
c4 -11.333 13.667 -21.333 29 -30c18.667 -11.333 40 -17 64 -17h34v-26h-406v26h33c38 0 66.333 11.333 85 34c4.66699 7.33301 8.83398 20.666 12.501 39.999s5.5 42 5.5 68v219l-441 70v-289c0 -48 3 -79.667 9 -95c4 -9.33301 14.333 -20 31 -32
c17.333 -10 38 -15 62 -15h34v-26h-407v26h34c38 0 66.333 11.333 85 34c11.333 14.667 17 50.667 17 108v612c0 48.667 -2.66699 79.334 -8 92.001c-4 13.333 -14 24.666 -30 33.999c-18.667 11.333 -40 17 -64 17h-34v26h407v-26h-34
c-23.333 0 -44.666 -5.33301 -63.999 -16c-14 -6 -24 -17 -30 -33l-6 -34l-2 -60v-271z" />
    <glyph glyph-name="i" unicode="i" horiz-adv-x="477" 
d="M442 26v-26h-406v26h33c37.333 0 66 11.333 86 34c10.667 14.667 16 50.667 16 108v613c0 48 -3 79.667 -9 95c-3.33301 11.333 -12.666 21.333 -27.999 30c-20.667 11.333 -42.334 17 -65.001 17h-33v26h406v-26h-34c-38 0 -66.333 -11.333 -85 -34
c-11.333 -15.333 -17 -51.333 -17 -108v-613c0 -46 3 -77.667 9 -95c4 -9.33301 14.333 -20 31 -32c17.333 -10 38 -15 62 -15h34zM131 1103l106 -107l107 107l-107 107z" />
    <glyph glyph-name="j" unicode="j" horiz-adv-x="558" 
d="M143 923l-0.000976562 25.999h406v-26h-34c-38 0 -66.333 -11.333 -85 -34c-10.667 -14.667 -16 -50.667 -16 -108v-464c0 -69.333 -8 -126.5 -24 -171.5s-43 -84.167 -81 -117.5s-84 -50 -138 -50c-42.667 0 -77 10.833 -103 32.5s-39 46.5 -39 74.5
c0 21.333 6 38.666 18 51.999c16.667 14.667 34.667 22 54 22c11.333 0 24 -5 38 -15c10.667 -9.33301 26.334 -35.333 47.001 -78c11.333 -25.333 25 -38 41 -38c11.333 0 22.833 7.33301 34.5 22s17.5 42.334 17.5 83.001v648c0 48 -2.66699 78.333 -8 91
c-4 12.667 -14.667 24.334 -32 35.001s-38 16 -62 16h-34zM234.999 1103l114 -107l107 107l-107 107z" />
    <glyph glyph-name="k" unicode="k" horiz-adv-x="1035" 
d="M428 526l350.001 -348.001c56.667 -54.667 105.667 -93.334 147 -116.001c40 -20 80.667 -32 122 -36v-26h-451v26c26.667 0 46 4.5 58 13.5s18 19.167 18 30.5c0 12 -2.33301 21.667 -7 29c-4 9.33301 -18.333 26.333 -43 51l-328 324v-306c0 -46 3 -77.667 9 -95
c4 -9.33301 14.333 -20 31 -32c17.333 -10 38 -15 62 -15h32v-26h-404v26h33c37.333 0 66 11.333 86 34c11.333 15.333 17 51.333 17 108v613c0 48.667 -3.33301 80.667 -10 96c-4 10.667 -13.333 20.334 -28 29.001c-20.667 11.333 -42.334 17 -65.001 17h-33v26h404v-26
h-32c-22 0 -43.333 -5.33301 -64 -16c-12 -6 -22 -17 -30 -33c-5.33301 -17.333 -8 -48.333 -8 -93v-290l96 89c70.667 64.667 125.667 117 165 157s68 72.333 86 97c12.667 18 19 34.333 19 49c0 8.66699 -5 17.5 -15 26.5s-26.333 13.5 -49 13.5h-22v26h349v-26
c-12.667 0 -22 -0.333008 -28 -1s-15 -3 -27 -7c-7.33301 -2 -14.333 -4.33301 -21 -7c-12.667 -5.33301 -26.667 -12.666 -42 -21.999c-22.667 -14 -52.667 -38 -90 -72l-142 -143z" />
    <glyph glyph-name="l" unicode="l" horiz-adv-x="876" 
d="M822 262l23 -3.99902l-81 -258h-735v26h35c39.333 0 68 13 86 39c10 15.333 15 50 15 104v612c0 59.333 -6.33301 96.333 -19 111c-18.667 20.667 -46 31 -82 31h-35v26h429v-26c-50.667 0 -85.5 -4.66699 -104.5 -14s-33.167 -21.666 -42.5 -36.999
c-7.33301 -16.667 -11 -52.334 -11 -107.001v-596c0 -39.333 3.66699 -66 11 -80c4 -8.66699 12.667 -16 26 -22c7.33301 -2 19.833 -3.66699 37.5 -5s41.5 -2 71.5 -2h69c74.667 0 126 5.33301 154 16c28 9.33301 54 28.166 78 56.499s49 71.5 75 129.5z" />
    <glyph glyph-name="m" unicode="m" horiz-adv-x="1446" 
d="M47 949l677.003 -142.002l686 142l2 -33c-17.333 0 -38 -7 -62 -21l-38 -31c-14 -11.333 -23 -23.666 -27 -36.999l-1 -50l-1 -109v-133v-208l1 -154c0 -45.333 2.33301 -76.333 7 -93c6 -16.667 17.667 -29.667 35 -39l14 -5l24 -7c8 -2 21.333 -3 40 -3v-26h-362v26
c44.667 4 74 15 88 33c12.667 20 19 58 19 114v533v36v11c0 24.667 -1 40.834 -3 48.501s-7 13.834 -15 18.501s-24.667 7 -50 7l-189 -38c-20.667 -4 -41.334 -14.333 -62.001 -31c-12 -11.333 -21.333 -22.333 -28 -33c-4 -4.66699 -6.66699 -8.66699 -8 -12l-3 -21
l-1 -25v-494c0 -56.667 6.33301 -94.667 19 -114c13.333 -18 42.666 -29 87.999 -33v-26h-349v26c46 4 75.5 15.333 88.5 34s19.5 56.334 19.5 113.001v494c0 33.333 -2.33301 52.666 -7 57.999l-6 4l-10 14l-16 19c-19.333 18 -38 27 -56 27l-185 38
c-31.333 0 -50 -1.5 -56 -4.5s-12 -11.5 -18 -25.5c-3.33301 -15.333 -5 -45.666 -5 -90.999v-533c0 -58 6 -96 18 -114c12 -16 41.667 -27 89 -33v-26h-364v26l35 1c8 0 17 2.33301 27 7c15.333 4 27.666 11 36.999 21c15.333 17.333 23 56.666 23 117.999v103l2 187v174
v36v30v24v20v15v12v10v20c0 8.66699 -0.666992 14 -2 16c-4 11.333 -13 23.666 -27 36.999l-22 21c-22 20.667 -44.333 31 -67 31z" />
    <glyph glyph-name="n" unicode="n" horiz-adv-x="939" 
d="M892 754l-7.99805 1c-18 0 -36.333 -9.66699 -55 -29l-27 -36c-4 -4.66699 -6.66699 -8.66699 -8 -12l-3 -21l-1 -25v-459c0 -56.667 6.33301 -94.667 19 -114c13.333 -18 42.666 -29 87.999 -33v-26h-349v26c46 4 75.5 15.333 88.5 34s19.5 56.334 19.5 113.001v501
c0 26 -2 44.667 -6 56l-7 6c-8 16.667 -20.333 30.667 -37 42c-15.333 12 -30.333 18 -45 18l-185 38c-31.333 0 -50 -1.5 -56 -4.5s-12 -11.5 -18 -25.5c-3.33301 -15.333 -5 -45.666 -5 -90.999v-540c0 -58 6 -96 18 -114c12 -16 41.667 -27 89 -33v-26h-364v26l35 1
c8 0 17 2.33301 27 7c15.333 4 27.666 11 36.999 21c15.333 17.333 23 56.666 23 117.999v103l2 187v174v36v30v24v20v15v12v10v20c0 8.66699 -0.666992 14 -2 16c-4 11.333 -13 23.666 -27 36.999l-22 21c-22 20.667 -44.333 31 -67 31l1 40l656 -135l192 -41z" />
    <glyph glyph-name="o" unicode="o" horiz-adv-x="1035" 
d="M524 971c121.333 0 227.666 -47.167 318.999 -141.5s137 -210.833 137 -349.5c0 -144 -45.667 -263.667 -137 -359s-201.333 -143 -330 -143c-129.333 0 -238.833 46.5 -328.5 139.5s-134.5 213.167 -134.5 360.5c0 149.333 51.333 272.333 154 369
c88.667 82.667 195.334 124 320.001 124zM511 920c-84.667 0 -152.667 -31.667 -204 -95c-64 -78 -96 -192.667 -96 -344c0 -153.333 33 -272.666 99 -357.999c50 -63.333 117.333 -95 202 -95c88 0 161.333 35 220 105s88 179.333 88 328
c0 161.333 -32 282.666 -96 363.999c-51.333 63.333 -122.333 95 -213 95z" />
    <glyph glyph-name="p" unicode="p" horiz-adv-x="797" 
d="M294 444v-275.998c0 -60.667 6.66699 -97.667 20 -111c16.667 -20.667 43.334 -31 80.001 -31h36v-26h-406v26h35c40 0 69 13 87 39c9.33301 14.667 14 49 14 103v613c0 58.667 -6.33301 95.667 -19 111c-18.667 20.667 -46 31 -82 31h-35v26h348c44 0 82.667 -2 116 -6
s61.666 -10.667 84.999 -20c50 -17.333 91.5 -46.833 124.5 -88.5s49.5 -90.834 49.5 -147.501c0 -77.333 -25.5 -140.333 -76.5 -189s-123.167 -73 -216.5 -73h-45l-30 4c-10 0 -18.833 0.666992 -26.5 2s-27.167 5.66602 -58.5 12.999zM294 484.002l65.999 -10l49 -4
c46.667 0 88 19 124 57s54 86.667 54 146c0 40 -8.16699 77.333 -24.5 112s-40.166 61.167 -71.499 79.5s-66.333 27.5 -105 27.5l-40 -3l-52 -10v-395z" />
    <glyph glyph-name="q" unicode="q" horiz-adv-x="1035" 
d="M631 -10c46.667 -80 97.166 -139.333 151.499 -178s118.166 -62 191.499 -70v-23c-29.333 0 -61.666 3.33301 -96.999 10c-20.667 3.33301 -38.667 7 -54 11s-34 10 -56 18c-36 11.333 -71.333 25.333 -106 42l-50 25c-14 7.33301 -22.667 12 -26 14s-12 8 -26 18
c-64 40 -120.333 84.333 -169 133c-68 26.667 -121.333 55.334 -160 86.001c-55.333 43.333 -99.166 98.666 -131.499 165.999s-48.5 145.666 -48.5 234.999c0 140 46 257.333 138 352s203.333 142 334 142c122 0 229 -47 321 -141s138 -212.667 138 -356
c0 -114.667 -32 -215.667 -96 -303s-148.667 -147.666 -254 -180.999zM513.999 917c-84 0 -152.333 -30.333 -205 -91c-65.333 -76.667 -98 -193 -98 -349c0 -152.667 33 -271 99 -355c51.333 -64 119.333 -96 204 -96c87.333 0 158 32 212 96c62.667 74.667 94 186 94 334
c0 56 -4 108 -12 156c-2 12 -4.33301 23.5 -7 34.5s-6 22.167 -10 33.5c-6.66699 24 -14 45 -22 63c-26.667 58 -62.667 101.5 -108 130.5s-94.333 43.5 -147 43.5z" />
    <glyph glyph-name="r" unicode="r" horiz-adv-x="956" 
d="M1151 -157l-67.001 -19.002l-136 -16c-18 0 -33.833 2.16699 -47.5 6.5s-24.834 11.5 -33.501 21.5c-40.667 46.667 -98.667 118.167 -174 214.5l-190 245.5c-55.333 72.667 -91.666 122 -108.999 148c-1.33301 1.33301 -9.33301 1.5 -24 0.5s-26 -1.83301 -34 -2.5h-20
c-9.33301 0 -16.333 0.666992 -21 2v-276c0 -60.667 6.33301 -97.667 19 -111c18 -20.667 44.667 -31 80 -31h37v-26h-407v26h36c40.667 0 69.334 13 86.001 39c10 14 15 48.333 15 103v613c0 60.667 -6.66699 97.667 -20 111c-18 20.667 -45 31 -81 31h-36v26h346
c102 0 176.5 -7.16699 223.5 -21.5s87.333 -41.666 121 -81.999s50.5 -87.166 50.5 -140.499c0 -58 -18.833 -108.5 -56.5 -151.5s-96.834 -73.5 -177.501 -91.5l347 -436c45.333 -62 84 -103.667 116 -125c12.667 -8 25.834 -14.333 39.501 -19s30.167 -7 49.5 -7
s42 4 68 12v-44zM294.999 487.998l23 -1h16c89.333 0 157.333 19.667 204 59s70 89.333 70 150c0 57.333 -18.667 105 -56 143s-86.333 57 -147 57c-28 0 -64.667 -4.33301 -110 -13v-395z" />
    <glyph glyph-name="s" unicode="s" horiz-adv-x="876" 
d="M29 949l623.999 -891.999h-389c-59.333 0 -104.5 12.667 -135.5 38s-60.167 78.666 -87.5 159.999l-23 -4l45 -251h773v26l-609 866h304h32.5c9.66699 0 20.834 -1.33301 33.501 -4c16 -2 30 -6 42 -12c21.333 -9.33301 39 -25.333 53 -48
c9.33301 -15.333 20 -54 32 -116h27l-20 237h-702z" />
    <glyph glyph-name="t" unicode="t" horiz-adv-x="876" 
d="M829 949l11.002 -222.001h-27c-4 39.333 -11 67.333 -21 84c-14 25.333 -33.5 44.833 -58.5 58.5s-56.167 20.5 -93.5 20.5h-134v-726c0 -57.333 6.33301 -93.666 19 -108.999c17.333 -19.333 44.666 -29 81.999 -29h33v-26h-403v26h34c37.333 0 65.666 12 84.999 36
l5 11l7 31l4 60v726h-114c-46 0 -78.833 -3.83301 -98.5 -11.5s-39.167 -24.167 -58.5 -49.5c-14.667 -22.667 -25 -56.667 -31 -102h-27l12 222h774z" />
    <glyph glyph-name="u" unicode="u" horiz-adv-x="1035" 
d="M1018 949l-0.00195312 -26c-32 -4 -57.667 -14.667 -77 -32c-22 -20.667 -43.667 -55.667 -65 -105l-331 -808h-26l-356 819l-24 50l-14 27l-19 18c-7.33301 6 -15.666 11 -24.999 15c-13.333 6.66699 -36 12 -68 16v26h387v-26c-43.333 -4 -71.666 -11.667 -84.999 -23
c-13.333 -10 -20 -23.333 -20 -40c0 -23.333 11 -60 33 -110l241 -556l224 549c22 55.333 33 93 33 113c0 12.667 -6.33301 25.167 -19 37.5s-36 21.5 -70 27.5l-12 2v26h293z" />
    <glyph glyph-name="v" unicode="v" horiz-adv-x="1035" 
d="M1018 949l-0.00195312 -26c-32 -4 -57.667 -14.667 -77 -32c-22 -20.667 -43.667 -55.667 -65 -105l-331 -808h-26l-356 819l-24 50l-14 27l-19 18c-7.33301 6 -15.666 11 -24.999 15c-13.333 6.66699 -36 12 -68 16v26h387v-26c-43.333 -4 -71.666 -11.667 -84.999 -23
c-13.333 -10 -20 -23.333 -20 -40c0 -23.333 11 -60 33 -110l241 -556l224 549c22 55.333 33 93 33 113c0 12.667 -6.33301 25.167 -19 37.5s-36 21.5 -70 27.5l-12 2v26h293zM461.998 1116l106 -107l107 107l-107 106z" />
    <glyph glyph-name="w" unicode="w" horiz-adv-x="1446" 
d="M1412 43l-2.00098 -33.0029l-686 142l-677 -142l-1 40c17.333 0 36 7 56 21l33 31c14 11.333 23 23.666 27 36.999l2 188v197l-1 160l-1 102c0 60.667 -7.66699 100 -23 118c-7.33301 8 -19.666 15 -36.999 21l-28 6l-34 2v26h364v-26
c-45.333 -4 -74.5 -14.833 -87.5 -32.5s-19.5 -55.834 -19.5 -114.501v-533c0 -49.333 1.66699 -80 5 -92s9 -20 17 -24c6 -2 12.667 -3.33301 20 -4s19.666 -1 36.999 -1l185 38c19.333 0 38 8.66699 56 26l26 34l5 4c5.33301 5.33301 8 24.666 8 57.999v494
c0 56.667 -6.16699 93.834 -18.5 111.501s-42.166 29.5 -89.499 35.5v26h349v-26c-46 -4 -75.333 -15.667 -88 -35s-19 -56.666 -19 -111.999v-494c0 -23.333 2 -40.666 6 -51.999l6 -6c7.33301 -14.667 21 -28.667 41 -42c14.667 -9.33301 31 -16.666 49 -21.999l189 -38
c24 0 40.333 2 49 6s14 10.667 16 20s3 41 3 95v533c0 58 -6.16699 95.833 -18.5 113.5s-41.833 28.834 -88.5 33.501v26h362v-26c-32.667 0 -58 -4.5 -76 -13.5s-30.333 -22.833 -37 -41.5l-5 -36l-2 -56l-1 -164v-218v-181c0 -56.667 0.666992 -87 2 -91
c4 -11.333 13 -23.666 27 -36.999l38 -30c23.333 -14.667 44 -22 62 -22z" />
    <glyph glyph-name="x" unicode="x" horiz-adv-x="1035" 
d="M585 526l203.997 -304.001c56 -85.333 97.667 -138.666 125 -159.999l16 -11l36 -17c7.33301 -2.66699 14.833 -4.66699 22.5 -6s17.5 -2 29.5 -2v-26h-407v26c26.667 0 46 2.5 58 7.5s20.667 11.333 26 19s8.66602 16.834 9.99902 27.501c0 10 -1.66699 18.667 -5 26
c-2 8 -6.33301 16.667 -13 26l-27 42l-161 243l-199 -255l-24 -31l-15 -25c-3.33301 -6.66699 -5 -15.334 -5 -26.001c0 -14 6.33301 -26.333 19 -37l11 -6l22 -7l39 -4v-26h-337v26c11.333 0 20.833 1 28.5 3s14 3.83301 19 5.5s9.83301 3.83398 14.5 6.50098
c25.333 10 53 26.333 83 49c10.667 8 24 20 40 36l49 58l224 283l-187 274c-48.667 72.667 -91.667 121 -129 145c-18 12 -37.167 21.167 -57.5 27.5s-42.166 9.5 -65.499 9.5v26h439v-26c-21.333 0 -36.666 -1.66699 -45.999 -5c-5.33301 0 -10.666 -1.33301 -15.999 -4
l-15 -9c-13.333 -10 -20 -22 -20 -36c0 -17.333 11.333 -42.333 34 -75l145 -218l169 214c19.333 25.333 31.333 42.666 36 51.999l7 28c0 8 -2.66699 16.167 -8 24.5s-14.5 15.166 -27.5 20.499s-35.167 8 -66.5 8v26h337v-26c-15.333 0 -26.666 -1 -33.999 -3l-16 -4
c-4.66699 0 -9.66699 -1.66699 -15 -5c-26.667 -11.333 -49.667 -25.666 -69 -42.999s-49.333 -51.333 -90 -102z" />
    <glyph glyph-name="y" unicode="y" horiz-adv-x="1058" 
d="M596 459c62 0 109.331 10.168 141.998 30.501s55.334 47.166 68.001 80.499c4.66699 12 10 33.333 16 64c4 27.333 6 57.333 6 90c0 41.333 4.33301 75.333 13 102c8 28 21.333 53.333 40 76c32.667 38.667 86.334 58 161.001 58v-26c-12 0 -22.833 -2.83301 -32.5 -8.5
s-17.167 -13.5 -22.5 -23.5c-9.33301 -18.667 -14 -58.334 -14 -119.001c0 -91.333 -9.16699 -160.333 -27.5 -207s-56.5 -86.667 -114.5 -120c-30 -15.333 -66 -27.333 -108 -36s-84.333 -13 -127 -13v-222c0 -55.333 2.83301 -90.333 8.5 -105s19.167 -27.667 40.5 -39
c21.333 -10 53 -15 95 -15v-26h-422v26c42 0 73 4.16699 93 12.5s33.5 21.5 40.5 39.5s10.5 53.667 10.5 107v222c-49.333 0 -93.333 4.16699 -132 12.5s-72.667 20.5 -102 36.5c-54.667 28.667 -92.167 67.167 -112.5 115.5s-30.5 118.833 -30.5 211.5
c0 60.667 -4.33301 99.667 -13 117c-8 18.667 -26.333 30 -55 34v26c45.333 0 82.666 -7 111.999 -21s53 -39 71 -75l12 -29l10 -35l6 -35l2 -41c0 -15.333 0.333008 -30.5 1 -45.5s2.33398 -31 5.00098 -48s4.66699 -28.333 6 -34s4.33301 -14.5 9 -26.5
c8 -29.333 29.667 -55.166 65 -77.499s84 -33.5 146 -33.5h134z" />
    <glyph glyph-name="z" unicode="z" horiz-adv-x="876" 
d="M825 949l-623.999 -892.001h389c59.333 0 104.833 12.833 136.5 38.5s60.5 78.834 86.5 159.501l23 -4l-45 -251h-773v26l609 866h-304c-52.667 0 -89.334 -5 -110.001 -15s-37.667 -26.333 -51 -49l-16 -43l-17 -73h-26l19 237h703z" />
    <glyph glyph-name="braceleft" unicode="{" horiz-adv-x="983" 
d="M841 -407l-0.00195312 -35.0029c-109.333 14 -199.333 58.833 -270 134.5s-106 159.167 -106 250.5c0 12.667 0.333008 25.5 1 38.5s2.33398 29 5.00098 48s8.33398 45.833 17.001 80.5c6.66699 30 12.167 58 16.5 84s6.5 47.667 6.5 65
c0 47.333 -19.833 91.5 -59.5 132.5s-95.834 67.167 -168.501 78.5v41c69.333 8 124.666 33.333 165.999 76s62 87.667 62 135c0 10 -0.333008 20.167 -1 30.5s-2.16699 23.333 -4.5 39s-8.16602 41.834 -17.499 78.501c-15.333 65.333 -23 121.333 -23 168
c0 90.667 34.833 173.667 104.5 249s160.167 120.333 271.5 135v-35c-78 -18 -135.167 -48.167 -171.5 -90.5s-54.5 -89.166 -54.5 -140.499c0 -40.667 7.5 -93.5 22.5 -158.5s22.5 -118.833 22.5 -161.5c0 -67.333 -24.667 -132.666 -74 -195.999s-123 -112.333 -221 -147
c96 -34 169.167 -83.667 219.5 -149s75.5 -131.666 75.5 -198.999c0 -12 -0.333008 -24.167 -1 -36.5s-2.16699 -27.666 -4.5 -45.999s-8.16602 -45.5 -17.499 -81.5c-14.667 -70 -22 -122 -22 -156c0 -48.667 18 -94.334 54 -137.001s93.333 -74.334 172 -95.001z" />
    <glyph glyph-name="bar" unicode="|" horiz-adv-x="781" 
d="M724 -133l-425 0.00292969v37l41 1c26.667 0 49.667 7.16699 69 21.5s31.333 29.166 36 44.499l5 28l3 22l1 37l1 50l1 1135c0 79.333 -7 130.666 -21 153.999s-33.667 38.333 -59 45l-17 3l-20 1l-40 1v36h425v-36l-38 -1c-25.333 0 -50 -8 -74 -24
c-18 -14 -29 -28.333 -33 -43l-4 -21l-3 -30c-2 -20 -3 -48.333 -3 -85v-1136c0 -80.667 7 -133 21 -157c11.333 -18.667 31 -32.334 59 -41.001c12 -3.33301 24.333 -5 37 -5h38v-37z" />
    <glyph glyph-name="braceright" unicode="}" horiz-adv-x="983" 
d="M177 1387l-0.00195312 35c110 -14 200.167 -58.333 270.5 -133s105.5 -158.667 105.5 -252c0 -12.667 -0.333008 -25.5 -1 -38.5s-2.33398 -29.667 -5.00098 -50s-8 -45.833 -16 -76.5s-14 -58.834 -18 -84.501s-6 -47.5 -6 -65.5c0 -48 19.667 -92.333 59 -133
s95.666 -66.667 168.999 -78v-41c-72.667 -9.33301 -128.834 -34.833 -168.501 -76.5s-59.5 -86.5 -59.5 -134.5c0 -9.33301 0.333008 -19.333 1 -30s1.83398 -21.834 3.50098 -33.501s3.83398 -24 6.50098 -37s6.33398 -27.833 11.001 -44.5c8 -32.667 14 -63.167 18 -91.5
s6 -54.833 6 -79.5c0 -90 -34.5 -172.5 -103.5 -247.5s-159.833 -120.833 -272.5 -137.5v35c77.333 18.667 134.333 49.334 171 92.001s55 89.334 55 140.001c0 44.667 -7.66699 96.667 -23 156l-17 87c-4 28 -6 53.333 -6 76c0 68 24.833 133.667 74.5 197
s123.5 112.333 221.5 147c-95.333 34 -168.5 83.833 -219.5 149.5s-76.5 131.834 -76.5 198.501c0 12 0.333008 24.167 1 36.5s2.33398 27.666 5.00098 45.999s8.33398 45.5 17.001 81.5c15.333 66.667 23 118.667 23 156c0 50 -18 96 -54 138s-93.333 73 -172 93z" />
    <glyph glyph-name="asciitilde" unicode="~" horiz-adv-x="1108" 
d="M1042 675h45.001c0 -84.667 -24.667 -152.667 -74 -204c-46.667 -48.667 -103.667 -73 -171 -73c-29.333 0 -63 5.16699 -101 15.5s-128.667 45.5 -272 105.5c-104.667 42.667 -177.667 64 -219 64c-46 0 -85 -14 -117 -42s-55 -75 -69 -141h-44c0 44 6 82.833 18 116.5
s30.667 63.5 56 89.5c45.333 48 98.666 72 159.999 72l44 -3c5.33301 -0.666992 12.5 -2 21.5 -4s17.167 -4.33301 24.5 -7c71.333 -20 163 -54.167 275 -102.5s191 -72.5 237 -72.5c50 0 92 16 126 48s54 78 60 138z" />
    <glyph glyph-name="exclamdown" unicode="&#xa1;" 
d="M492 1432l-154 -152l-151 152l151 153zM615 1171h-52.002c-51.333 0 -89.666 -14.667 -114.999 -44c-18.667 -20.667 -28 -73.667 -28 -159v-152v-424l-1 -33v-30c0 -24.667 3.33301 -43.667 10 -57c6 -14.667 19.667 -28.667 41 -42c20 -14 39 -24 57 -30l18 -6l37 -8
v-33l-548 -1v37h51c50.667 0 89.334 14.667 116.001 44c18 22 27 75 27 159v576c0 78 -6.66699 127 -20 147c-24 37.333 -65 56 -123 56h-51v37h581v-37z" />
    <glyph glyph-name="cent" unicode="&#xa2;" horiz-adv-x="956" 
d="M714 669l-552 -545l32 -26l30 -19c46 -26 100.333 -39 163 -39c71.333 0 134.5 16.667 189.5 50s96.333 81.833 124 145.5s41.5 137.834 41.5 222.501c0 40.667 -1.83301 76.167 -5.5 106.5s-11.167 65.166 -22.5 104.499zM839 720
c42 -78 63.0049 -164.666 63.0049 -259.999c0 -116 -32.333 -218.333 -97 -307c-87.333 -116.667 -209 -175 -365 -175c-88.667 0 -164.334 19.667 -227.001 59l-40 28c-6.66699 5.33301 -12.834 10.5 -18.501 15.5s-11.834 11.5 -18.501 19.5l-163 -159l-47 47l85 79l82 85
c-15.333 20 -30.666 43.667 -45.999 71l22 14l23 -32l23 -29l571 567c-6 14.667 -12.667 28.167 -20 40.5s-16.333 24.166 -27 35.499c-18.667 22.667 -39.334 40.667 -62.001 54c-50.667 31.333 -107.334 47 -170.001 47c-74 0 -137.667 -20.833 -191 -62.5
s-95.333 -111.5 -126 -209.5h-21l21 323h25c4 -21.333 12.667 -39 26 -53c10.667 -8.66699 21.667 -13 33 -13c6 0 20 5 42 15c67.333 34 135 51 203 51c87.333 0 168.666 -22.333 243.999 -67c34 -18 68 -45 102 -81l149 137l47 -47l-148 -148z" />
    <glyph glyph-name="sterling" unicode="&#xa3;" horiz-adv-x="1251" 
d="M430 754l202.002 1.99707c80.667 0 130 3.33301 148 10c32 12 48 30.667 48 56v20h35v-237h-35l-1 22c0 15.333 -6.33301 27.833 -19 37.5s-25.667 16.834 -39 21.501l-53 4l-33 3l-52 4l-203 -1v-455c0 -55.333 5.33301 -93.333 16 -114
c8 -13.333 21 -23.666 39 -30.999c20 -6.66699 71.333 -10 154 -10h99c106.667 0 180 7.16699 220 21.5s77 40.833 111 79.5s69.667 101.334 107 188.001l33 -7l-116 -368h-1050v37h51c57.333 0 98.333 18.667 123 56c14 21.333 21 70.666 21 147.999v453l-21 4l-14 1
c-10.667 0 -21.667 -1 -33 -3s-19 -3.66699 -23 -5s-12 -4.66602 -24 -9.99902c-31.333 -11.333 -47 -29.333 -47 -54l-1 -22h-35v237h35l1 -20c0 -14.667 7.66699 -28.667 23 -42c10.667 -8.66699 26 -15 46 -19l32 -5l34 -2h12h8c3.33301 1.33301 5.66602 2 6.99902 2v360
l-1 48l-1 58c0 25.333 2.66699 43 8 53c22.667 36.667 37 57.667 43 63c14.667 11.333 32 17 52 17h42l30 1h246v-37c-72.667 0 -123.334 -6.66699 -152.001 -20c-25.333 -14 -45 -31.667 -59 -53c-10.667 -24.667 -16 -75.667 -16 -153z" />
    <glyph glyph-name="currency" unicode="&#xa4;" horiz-adv-x="717" 
d="M556 713l99.999 99.998l40 -40l-100 -99c48 -63.333 72 -129 72 -197c0 -70 -24 -136 -72 -198l100 -102l-40 -38l-100 100c-63.333 -48 -126.333 -72 -189 -72c-39.333 0 -79.166 6.83301 -119.499 20.5s-69.5 30.834 -87.5 51.501l-102 -100l-39 38l101 102
c-48 54 -72 119.667 -72 197c0 72 24 138 72 198l-101 99l39 40l102 -100c24 20.667 55 37.834 93 51.501s73.667 20.5 107 20.5s67 -6.33301 101 -19c34 -10 65.667 -27.667 95 -53zM357.999 727.998c-68.667 0 -128.001 -24.668 -178.001 -74.001s-75 -109.333 -75 -180
c0 -69.333 24.833 -128.5 74.5 -177.5s109.167 -73.5 178.5 -73.5s129 24.833 179 74.5s75 108.834 75 177.501c0 44 -11.333 86.167 -34 126.5s-54.167 71.5 -94.5 93.5s-82.166 33 -125.499 33z" />
    <glyph glyph-name="yen" unicode="&#xa5;" horiz-adv-x="1511" 
d="M852 656c90 0 158.331 14.835 204.998 44.502s78.334 67.5 95.001 113.5c7.33301 22.667 14.333 53 21 91c2.66699 17.333 5 37.5 7 60.5s3 45.833 3 68.5c0 58 6.16699 106.667 18.5 146s31.5 75.333 57.5 108c46 56 122.333 84 229 84v-38
c-18.667 0 -34.167 -3.5 -46.5 -10.5s-22.833 -18.5 -31.5 -34.5c-13.333 -26.667 -20 -83.667 -20 -171c0 -130.667 -13.167 -229.834 -39.5 -297.501s-80.833 -123.834 -163.5 -168.501c-40.667 -21.333 -89.334 -38.333 -146.001 -51c-28 -6 -57.667 -10.667 -89 -14
s-64.666 -5 -99.999 -5v-317c0 -77.333 4 -127 12 -149s27.333 -41.333 58 -58c29.333 -14 74.333 -21 135 -21v-37h-602v37c60 0 104 6 132 18s47.167 30.333 57.5 55s15.5 76.334 15.5 155.001v317h-13h-54c-14.667 2 -25.334 3.33301 -32.001 4
c-13.333 0 -27.333 1.16699 -42 3.5s-30.334 5.5 -47.001 9.5c-54 12 -102.667 29.333 -146 52c-79.333 42 -133.166 97.667 -161.499 167s-42.5 169.666 -42.5 300.999c0 84 -6.16699 139.833 -18.5 167.5s-38.833 43.5 -79.5 47.5v38
c66.667 0 120.834 -10.167 162.501 -30.5s74.834 -56.166 99.501 -107.499c12 -25.333 22.167 -55.333 30.5 -90s12.5 -71.334 12.5 -110.001c0 -52 2.33301 -94.667 7 -128l9 -48c2 -9.33301 3.66699 -16.333 5 -21s4 -12 8 -22c14 -44 46.167 -81.5 96.5 -112.5
s118.833 -46.5 205.5 -46.5h192zM600.998 1059l162 -153l154 153l-154 152zM1163 442.002l-0.000976562 -237.001h-35l-1 22c0 15.333 -6.33301 27.833 -19 37.5s-25.667 16.834 -39 21.501l-53 4l-33 3l-52 4l-362 -4c-75.333 0 -124.666 -4 -147.999 -12
c-31.333 -11.333 -47 -29.333 -47 -54l-1 -22h-35v237h35l1 -20c0 -14.667 7.66699 -28.667 23 -42c10.667 -8.66699 26 -15 46 -19c22 -3.33301 64 -5 126 -5h363c80.667 0 130 3.33301 148 10c32 12 48 30.667 48 56v20h35z" />
    <glyph glyph-name="brokenbar" unicode="&#xa6;" horiz-adv-x="781" 
d="M724 -133l-425 0.00292969v37l41 1c26.667 0 49.667 7.16699 69 21.5s31.333 29.166 36 44.499l5 28l3 22l1 37l1 50l1 1135c0 79.333 -7 130.666 -21 153.999s-33.667 38.333 -59 45l-17 3l-20 1l-40 1v36h425v-36l-38 -1c-25.333 0 -50 -8 -74 -24
c-18 -14 -29 -28.333 -33 -43l-4 -21l-3 -30c-2 -20 -3 -48.333 -3 -85v-1136c0 -80.667 7 -133 21 -157c11.333 -18.667 31 -32.334 59 -41.001c12 -3.33301 24.333 -5 37 -5h38v-37z" />
    <glyph glyph-name="section" unicode="&#xa7;" horiz-adv-x="1024" 
d="M377 843c-44 49.333 -76.002 94.332 -96.002 134.999c-9.33301 21.333 -16.333 41.666 -21 60.999c-2 9.33301 -3.66699 19.333 -5 30s-2 21.667 -2 33c0 77.333 27 143.666 81 198.999s121.667 83 203 83c73.333 0 133.833 -22.167 181.5 -66.5s71.5 -95.5 71.5 -153.5
c0 -26.667 -8.66699 -49.667 -26 -69c-12 -14 -29.667 -21 -53 -21c-22 0 -40.667 7.66699 -56 23c-14.667 16.667 -22 34.667 -22 54l1 21l6 32c4 16 6 30.333 6 43c0 26 -9.66699 48.333 -29 67c-10 9.33301 -21.333 16.333 -34 21s-28 7 -46 7
c-47.333 0 -88.166 -17.167 -122.499 -51.5s-51.5 -75.5 -51.5 -123.5c0 -40.667 9 -76 27 -106c30 -46.667 80.333 -95.667 151 -147c132.667 -96 224.334 -182.667 275.001 -260c17.333 -28 30.333 -56 39 -84s13 -57.333 13 -88c0 -30 -4.33301 -60 -13 -90
s-22 -60.333 -40 -91c-33.333 -58.667 -89.333 -112.334 -168 -161.001c46 -51.333 78 -95.666 96 -132.999s27 -77.666 27 -120.999c0 -81.333 -27.333 -149.333 -82 -204s-122 -82 -202 -82c-72 0 -131.833 22.833 -179.5 68.5s-71.5 97.834 -71.5 156.501
c0 24.667 7.66699 45.667 23 63c16.667 16.667 35 25 55 25s37.667 -7.66699 53 -23c14.667 -16.667 22 -38 22 -64l-1 -29c0 -6.66699 -2.33301 -16.667 -7 -30c-0.666992 -4 -2.16699 -12.5 -4.5 -25.5s-3.5 -21.167 -3.5 -24.5c0 -19.333 8.33301 -35.333 25 -48
c26 -20 57.667 -30 95 -30c44 0 84.333 17.333 121 52s55 72.334 55 113.001c0 41.333 -10.333 78.333 -31 111c-30 46.667 -88 103.334 -174 170.001c-124 92 -209.333 174.333 -256 247c-34 54 -51 111.333 -51 172c0 60 18.167 120.167 54.5 180.5
s91.833 113.166 166.5 158.499zM408.998 811.999c-100.667 -60.667 -151.001 -134.666 -151.001 -221.999c0 -46.667 12.333 -89.667 37 -129c34 -54 99.667 -117.667 197 -191c46.667 -35.333 87.334 -69 122.001 -101c102 62 153 135.333 153 220
c0 23.333 -3.5 45.666 -10.5 66.999s-18.167 44 -33.5 68c-28 46 -88.333 105.333 -181 178c-58.667 46 -103 82.667 -133 110z" />
    <glyph glyph-name="dieresis" unicode="&#xa8;" 
d="M518 1337c30 0 55.5 -10.667 76.5 -32s31.5 -47 31.5 -77s-10.5 -55.5 -31.5 -76.5s-46.5 -31.5 -76.5 -31.5s-55.667 10.5 -77 31.5s-32 46.5 -32 76.5s10.667 55.667 32 77s47 32 77 32zM165 1337c30 0 55.667 -10.667 77 -32s32 -47 32 -77c0 -29.333 -11 -55 -33 -77
c-22 -20.667 -47 -31 -75 -31c-30 0 -55.667 10.5 -77 31.5s-32 46.5 -32 76.5s10.5 55.667 31.5 77s46.5 32 76.5 32z" />
    <glyph glyph-name="copyright" unicode="&#xa9;" horiz-adv-x="999" 
d="M884 710c0 -66.667 -17.668 -132.334 -53.001 -197.001c-32 -61.333 -81 -110.666 -147 -147.999c-62 -34.667 -128 -52 -198 -52c-68 0 -133.333 17.167 -196 51.5s-111.667 83 -147 146s-53 129.5 -53 199.5c0 69.333 17.5 135.5 52.5 198.5
s84.833 111.833 149.5 146.5c32.667 17.333 64.667 30.333 96 39s64 13 98 13c33.333 0 65.833 -4 97.5 -12s63.834 -20.667 96.501 -38c62 -32.667 111.5 -81.667 148.5 -147s55.5 -132 55.5 -200zM849.999 710c0 62 -16.332 122.166 -48.999 180.499
s-78.334 103.333 -137.001 135s-118 47.5 -178 47.5c-61.333 0 -120.333 -15.5 -177 -46.5s-101.667 -76.167 -135 -135.5s-50 -119.666 -50 -180.999c0 -62 16 -121.833 48 -179.5s76.833 -102.667 134.5 -135s117.5 -48.5 179.5 -48.5c64 0 124.667 15.833 182 47.5
s102 76.667 134 135s48 118.5 48 180.5zM704 571.999c-52 -76 -123.332 -114 -213.999 -114c-72 0 -133.333 24 -184 72s-76 107 -76 177c0 72 26.167 133.167 78.5 183.5s119.166 75.5 200.499 75.5l42 -3c10.667 -2 31.334 -8 62.001 -18l21 -4c6 0 10.667 1.16699 14 3.5
s7.66602 9.16602 12.999 20.499h22l11 -156h-21c-14 44.667 -35.667 77.667 -65 99c-14 10 -30.167 18 -48.5 24s-37.5 9 -57.5 9c-31.333 0 -58.333 -6.66699 -81 -20c-24 -12 -43.667 -28.667 -59 -50c-9.33301 -14.667 -18.666 -36 -27.999 -64
c-7.33301 -28 -11 -56 -11 -84c0 -77.333 17 -135.166 51 -173.499s78.667 -57.5 134 -57.5c71.333 0 129.666 30 174.999 90z" />
    <glyph glyph-name="ordfeminine" unicode="&#xaa;" horiz-adv-x="623" 
d="M12 800l0.00292969 16c21.333 3.33301 37.666 10 48.999 20l18 24l18 38l199 485h15l212 -488c15.333 -32 27.666 -53.333 36.999 -64l21 -12c9.33301 -2 20.666 -3 33.999 -3v-16h-232v16c15.333 0 26.5 1.16699 33.5 3.5s12.5 5.5 16.5 9.5l10 11l3 15
c0 7.33301 -1.33301 15.5 -4 24.5s-8 22.167 -16 39.5l-145 334l-134 -329c-12.667 -32 -19 -54.667 -19 -68c0 -10.667 4 -20 12 -28l18 -9l29 -3v-16h-175zM218.003 1003l68 -64l64 64l-64 65z" />
    <glyph glyph-name="guillemotleft" unicode="&#xab;" horiz-adv-x="717" 
d="M356 -6h-40l-271 331l271 329h40l-171 -329zM672 -6h-41l-275 331l275 329h41l-170 -329z" />
    <glyph glyph-name="logicalnot" unicode="&#xac;" horiz-adv-x="808" 
d="M25 615h756v-285h-55v228h-701v57z" />
    <glyph glyph-name="minus" unicode="&#xad;" horiz-adv-x="778" 
d="M719 542v-236.999h-29l-1 22c0 14 -5.33301 26.5 -16 37.5s-20.667 17.833 -30 20.5l-22 4l-24 1l-38 5l-33 2l-302 -4c-64 0 -105 -4 -123 -12c-26 -11.333 -39 -29.333 -39 -54l-1 -22h-29v237h29l1 -20c0 -14.667 6.33301 -28.667 19 -42
c8.66699 -8.66699 21.667 -14.834 39 -18.501s52 -5.5 104 -5.5h303c66.667 0 107.667 3.33301 123 10c26.667 12 40 30.667 40 56v20h29z" />
    <glyph glyph-name="registered" unicode="&#xae;" horiz-adv-x="981" 
d="M465 1068c66.667 0 131.669 -17 195.002 -51s112.833 -83 148.5 -147s53.5 -130.333 53.5 -199c0 -70 -17.333 -136.333 -52 -199s-83.834 -111.5 -147.501 -146.5s-129.5 -52.5 -197.5 -52.5c-66.667 0 -131.834 17.167 -195.501 51.5s-113.5 83.5 -149.5 147.5
c-17.333 32.667 -30.333 65 -39 97s-13 66 -13 102c0 67.333 18 133.5 54 198.5s85.667 114.333 149 148s128 50.5 194 50.5zM465.002 1033c-62.667 0 -122.169 -15.3311 -178.502 -45.998s-101.166 -75.834 -134.499 -135.501s-50 -119.834 -50 -180.501
c0 -61.333 16 -121 48 -179s76.833 -103.167 134.5 -135.5s117.834 -48.5 180.501 -48.5c62 0 121.833 15.833 179.5 47.5s102.5 76.667 134.5 135s48 118.5 48 180.5s-16.167 122 -48.5 180s-77 102.833 -134 134.5s-116.833 47.5 -179.5 47.5zM245 914.002
l215.998 0.000976562c53.333 0 94.5 -12.167 123.5 -36.5s43.5 -53.833 43.5 -88.5c0 -26 -9.33301 -50.167 -28 -72.5s-51 -39.5 -97 -51.5l117 -167c12 -16.667 25 -30.334 39 -41.001c6.66699 -5.33301 16.334 -8 29.001 -8v-19h-103l-164 227h-43v-173
c2 -12 7 -21 15 -27c9.33301 -5.33301 26.333 -8 51 -8v-19h-205v19c18.667 0 30.834 1.83301 36.501 5.5s11.5 10.167 17.5 19.5l3 16l1 36v293l-2 48c-2 8 -6.66699 14.667 -14 20s-19.333 8 -36 8v19zM377.998 681.003c44.667 0 77 4.16699 97 12.5
s35.5 20.833 46.5 37.5s16.5 34 16.5 52c0 29.333 -10.667 54.5 -32 75.5s-48.333 31.5 -81 31.5c-12 0 -27.667 -3 -47 -9v-200z" />
    <glyph glyph-name="macron" unicode="&#xaf;" horiz-adv-x="778" 
d="M719 1342v-236.999h-29l-1 22c0 14 -5.33301 26.5 -16 37.5s-20.667 17.833 -30 20.5l-22 4l-24 1l-38 5l-33 2l-302 -4c-64 0 -105 -4 -123 -12c-26 -11.333 -39 -29.333 -39 -54l-1 -22h-29v237h29l1 -20c0 -14.667 6.33301 -28.667 19 -42
c8.66699 -8.66699 21.667 -14.834 39 -18.501s52 -5.5 104 -5.5h303c66.667 0 107.667 3.33301 123 10c26.667 12 40 30.667 40 56v20h29z" />
    <glyph glyph-name="degree" unicode="&#xb0;" horiz-adv-x="819" 
d="M405 1386c84 0 156.333 -30 217 -90s91 -132.667 91 -218c0 -82.667 -30.167 -154.5 -90.5 -215.5s-132.833 -91.5 -217.5 -91.5c-82.667 0 -154.5 30.167 -215.5 90.5s-91.5 132.5 -91.5 216.5c0 85.333 29.833 158 89.5 218s132.167 90 217.5 90zM405 1302
c-62 0 -114.667 -21.667 -158 -65s-65 -96 -65 -158c0 -61.333 21.667 -113.833 65 -157.5s96 -65.5 158 -65.5c61.333 0 113.833 21.833 157.5 65.5s65.5 96.167 65.5 157.5c0 62 -21.667 114.667 -65 158s-96 65 -158 65z" />
    <glyph glyph-name="plusminus" unicode="&#xb1;" horiz-adv-x="778" 
d="M413 695l0.998047 -132.999c0 -62.667 4 -104 12 -124c11.333 -26 29.333 -39 54 -39l22 -1v-28h-237v28l21 1c12.667 0 26.334 6.33301 41.001 19c8.66699 9.33301 14.834 21.5 18.501 36.5s5.5 50.833 5.5 107.5l1 132l-128 -1c-64 0 -105 -4 -123 -12
c-26 -11.333 -39 -29.333 -39 -54l-1 -22h-29v237h29l1 -20c0 -14.667 6.33301 -28.667 19 -42c8.66699 -8.66699 21.667 -14.834 39 -18.501s52 -5.5 104 -5.5l128 -3l-1 112c0 66.667 -3.33301 107.667 -10 123c-12 26 -30.333 39 -55 39h-21v30h237v-30l-22 -1
c-15.333 0 -28 -5 -38 -15s-17 -21 -21 -33l-4 -44l-2 -21l-5 -49l1 -111l116 3c66.667 0 107.667 3.33301 123 10c26.667 12 40 30.667 40 56v20h29v-237h-29l-1 22c0 14 -5.33301 26.5 -16 37.5s-20.667 17.833 -30 20.5l-22 4l-24 1l-38 5l-33 2zM718.998 442.001
v-236.999h-29l-1 22c0 14 -5.33301 26.5 -16 37.5s-20.667 17.833 -30 20.5l-22 4l-24 1l-38 5l-33 2l-302 -4c-64 0 -105 -4 -123 -12c-26 -11.333 -39 -29.333 -39 -54l-1 -22h-29v237h29l1 -20c0 -14.667 6.33301 -28.667 19 -42
c8.66699 -8.66699 21.667 -14.834 39 -18.501s52 -5.5 104 -5.5h303c66.667 0 107.667 3.33301 123 10c26.667 12 40 30.667 40 56v20h29z" />
    <glyph glyph-name="twosuperior" unicode="&#xb2;" horiz-adv-x="491" 
d="M451 925l-45.9941 -124.999h-384v18c48.667 44.667 96 90.667 142 138c41.333 43.333 73.333 81.333 96 114s40 64 52 94s18 58.333 18 85c0 39.333 -12.833 72.833 -38.5 100.5s-55.834 41.5 -90.501 41.5c-32.667 0 -61.334 -9.16699 -86.001 -27.5
s-43.334 -45.833 -56.001 -82.5h-18c7.33301 58.667 27.666 103.834 60.999 135.501s75 47.5 125 47.5c51.333 0 95 -16.833 131 -50.5s54 -73.834 54 -120.501c0 -30.667 -7.66699 -63.334 -23 -98.001c-11.333 -25.333 -26.333 -51.333 -45 -78
s-42.334 -55.667 -71.001 -87l-96 -105l-52 -52h169h13c25.333 0 45.666 1 60.999 3l20 6l17 10c4 3.33301 8.66699 8 14 14s10.333 12.333 15 19h18z" />
    <glyph glyph-name="threesuperior" unicode="&#xb3;" horiz-adv-x="491" 
d="M50 1327l5.00098 12.5c2 5 4 9.16699 6 12.5l20 33c9.33301 15.333 22.333 29.666 39 42.999c28 24 63.333 36 106 36c50 0 90 -17 120 -51c21.333 -24.667 32 -51.667 32 -81c0 -46.667 -29.667 -95.667 -89 -147c40 -14 70.167 -35.667 90.5 -65
s30.5 -64.333 30.5 -105c0 -54 -18 -102.667 -54 -146c-46 -53.333 -113.667 -80 -203 -80c-44.667 0 -74.667 5.5 -90 16.5s-23 22.5 -23 34.5c0 8.66699 3.66699 16.667 11 24c7.33301 6 16.333 9.66699 27 11c8.66699 0 17 -1.33301 25 -4l12 -6l25 -12l24 -11l17 -7
l14 -3l22 -2c32 0 60.333 13 85 39s37 55.667 37 89c0 26.667 -5.66699 51.334 -17 74.001c-7.33301 15.333 -16.333 28.666 -27 39.999c-13.333 12 -32 23.667 -56 35l-37 12l-38 4h-15v14c12 0 24 2.16699 36 6.5s25.333 11.166 40 20.499
c25.333 14.667 43.833 33.334 55.5 56.001s17.5 45.334 17.5 68.001c0 32 -10.333 58.5 -31 79.5s-46.334 31.5 -77.001 31.5c-48 0 -89.333 -26.333 -124 -79z" />
    <glyph glyph-name="acute" unicode="&#xb4;" 
d="M565 1390l-295 -345h-34l105 345h224z" />
    <glyph glyph-name="mu" unicode="&#xb5;" horiz-adv-x="1180" 
d="M196 916l164.001 0.00488281v-533c0 -96 6 -162 18 -198c8 -24 24 -45.667 48 -65c25.333 -16.667 50.666 -25 75.999 -25c78 0 156.667 44.667 236 134v687h165v-654c0 -68.667 2.16699 -111.334 6.5 -128.001s12.833 -30.334 25.5 -41.001
c13.333 -8.66699 25.333 -13 36 -13c15.333 0 30 7.33301 44 22c15.333 18.667 27.666 52.667 36.999 102h42c0 -38 -5.66699 -71.833 -17 -101.5s-26.666 -54.834 -45.999 -75.501c-36.667 -36.667 -81.667 -55 -135 -55c-52 0 -92 19.333 -120 58
c-18 24.667 -30.667 68.667 -38 132c-54.667 -64.667 -108.667 -113.334 -162 -146.001c-24.667 -14 -49.667 -24.833 -75 -32.5s-51 -11.5 -77 -11.5c-33.333 0 -64 7 -92 21c-18.667 10 -39.667 31.333 -63 64l-1 -46c0 -52.667 11.333 -132.334 34 -239.001
c8.66699 -46.667 13 -81.334 13 -104.001c0 -32 -9.33301 -58.333 -28 -79s-40.667 -31 -66 -31c-23.333 0 -44 10 -62 30c-16.667 20 -25 46.333 -25 79c0 16 2.33301 37.833 7 65.5s12 60.834 22 99.501l22 104c8 68 12 127.667 12 179l-1 75v726z" />
    <glyph glyph-name="paragraph" unicode="&#xb6;" horiz-adv-x="928" 
d="M798 1301l-0.000976562 -1743h-72v1743h-187v-1743h-73v1043c-61.333 0 -116.166 4.5 -164.499 13.5s-88.833 21.167 -121.5 36.5c-62.667 28 -110.667 71.667 -144 131s-50 125.666 -50 198.999s14.333 133.333 43 180c38 64 89.333 112.5 154 145.5s149 49.5 253 49.5
h495v-55h-133z" />
    <glyph glyph-name="periodcentered" unicode="&#xb7;" horiz-adv-x="1035" 
d="M358 479l161 -152l153 152l-153 152z" />
    <glyph glyph-name="periodcentered" unicode="&#x2219;" horiz-adv-x="1035" 
d="M358 479l161 -152l153 152l-153 152z" />
    <glyph glyph-name="cedilla" unicode="&#xb8;" 
d="M361 16l59.998 0.000976562l-50 -79c41.333 -10 72.5 -28.167 93.5 -54.5s31.5 -56.833 31.5 -91.5c0 -48 -20.333 -90 -61 -126c-20 -18 -42.667 -31.667 -68 -41s-54 -14 -86 -14l-53 1l-41 6v43l48 -4c34 0 62.667 11.167 86 33.5s35 47.833 35 76.5
c0 19.333 -8 36.666 -24 51.999c-7.33301 6.66699 -15.666 12 -24.999 16s-19.666 6 -30.999 6l-26 -2z" />
    <glyph glyph-name="onesuperior" unicode="&#xb9;" horiz-adv-x="819" 
d="M266 1375l157.999 77h16v-549c0 -36.667 1.5 -59.334 4.5 -68.001s9.5 -15.667 19.5 -21l21 -6l37 -2v-18h-245v18c30 0 49.667 2.33301 59 7l10 7l10 12c3.33301 8.66699 5 32.334 5 71.001v351v17v14v11c0 26 -1.66699 42.333 -5 49c-2 10.667 -6 18 -12 22
s-13.333 6.66699 -22 8c-9.33301 0 -25.666 -5 -48.999 -15z" />
    <glyph glyph-name="ordmasculine" unicode="&#xba;" horiz-adv-x="635" 
d="M324 1384c82 0 150.333 -28.333 205 -85s82 -126 82 -208c0 -82.667 -29.667 -154 -89 -214s-129.666 -90 -210.999 -90c-76.667 0 -142.834 27 -198.501 81s-83.5 123 -83.5 207c0 92 27.5 166.5 82.5 223.5s125.833 85.5 212.5 85.5zM296 1341
c-32.667 0 -61.833 -15.333 -87.5 -46s-38.5 -78 -38.5 -142c0 -106 23 -192 69 -258c26 -38 60 -57 102 -57c37.333 0 68.666 15.167 93.999 45.5s38 76.833 38 139.5c0 104.667 -23.667 190 -71 256c-29.333 41.333 -64.666 62 -105.999 62z" />
    <glyph glyph-name="guillemotright" unicode="&#xbb;" horiz-adv-x="717" 
d="M361 654h40l271 -331l-271 -329h-40l171 329zM45 654h40l276 -331l-276 -329h-40l170 329z" />
    <glyph glyph-name="onequarter" unicode="&#xbc;" horiz-adv-x="958" 
d="M493 -38l-7 -25l-287 77l6 25l26 -7l26 -3c18.667 0 34 5.66699 46 17c12 10 26.667 44 44 102l158 593l7 28l8 37l4 28c0 9.33301 -5 21 -15 35c-13.333 16 -28.666 26 -45.999 30l-26 7l7 25l287 -77l-6 -25l-27 7l-13 3l-13 1c-18.667 0 -34.667 -6.33301 -48 -19
c-12 -13.333 -26 -47 -42 -101l-158 -592l-14 -57l-4 -37c0 -10 5.33301 -21.667 16 -35c9.33301 -13.333 23.666 -23 42.999 -29zM112 989l95 46.001h9v-329c0 -20 1 -33.167 3 -39.5s5.66699 -11.166 11 -14.499c8 -2.66699 20 -4 36 -4v-11h-147v11
c17.333 0 28.5 1 33.5 3s9.5 6 13.5 12c2 5.33301 3 19.666 3 42.999v210c0 27.333 -1 45.666 -3 54.999c0 6 -2.66699 10.667 -8 14l-12 4c-6 0 -16 -3 -30 -9zM906 178.001v-41h-52v-103h-47v103h-166v37l181 258h32v-254h52zM807 178.001v193l-138 -193h138z" />
    <glyph glyph-name="onehalf" unicode="&#xbd;" horiz-adv-x="958" 
d="M493 -38l-7 -25l-287 77l6 25l26 -7l26 -3c18.667 0 34 5.66699 46 17c12 10 26.667 44 44 102l158 593l7 28l8 37l4 28c0 9.33301 -5 21 -15 35c-13.333 16 -28.666 26 -45.999 30l-26 7l7 25l287 -77l-6 -25l-27 7l-13 3l-13 1c-18.667 0 -34.667 -6.33301 -48 -19
c-12 -13.333 -26 -47 -42 -101l-158 -592l-14 -57l-4 -37c0 -10 5.33301 -21.667 16 -35c9.33301 -13.333 23.666 -23 42.999 -29zM112 989l95 46.001h9v-329c0 -20 1 -33.167 3 -39.5s5.66699 -11.166 11 -14.499c8 -2.66699 20 -4 36 -4v-11h-147v11
c17.333 0 28.5 1 33.5 3s9.5 6 13.5 12c2 5.33301 3 19.666 3 42.999v210c0 27.333 -1 45.666 -3 54.999c0 6 -2.66699 10.667 -8 14l-12 4c-6 0 -16 -3 -30 -9zM898 145.001l-28.0039 -75.001h-230v11c32.667 30 61.334 57.667 86.001 83l32 36l25 32c28 40 42 76 42 108
c0 23.333 -8 43.333 -24 60s-34 25 -54 25c-17.333 0 -34 -5.66699 -50 -17s-27.667 -27.666 -35 -48.999h-11c4 35.333 16.333 62.5 37 81.5s45.667 28.5 75 28.5c30.667 0 56.834 -10.167 78.501 -30.5s32.5 -44.5 32.5 -72.5c0 -18 -4.66699 -37.667 -14 -59
c-13.333 -30.667 -36.666 -63.667 -69.999 -99l-57 -63l-31 -31h101h8l36 2c8 2 15.667 5 23 9c6.66699 5.33301 12.334 12 17.001 20h11z" />
    <glyph glyph-name="threequarters" unicode="&#xbe;" horiz-adv-x="958" 
d="M493 -38l-7 -25l-287 77l6 25l26 -7l26 -3c18.667 0 34 5.66699 46 17c12 10 26.667 44 44 102l158 593l7 28l8 37l4 28c0 9.33301 -5 21 -15 35c-13.333 16 -28.666 26 -45.999 30l-26 7l7 25l287 -77l-6 -25l-27 7l-13 3l-13 1c-18.667 0 -34.667 -6.33301 -48 -19
c-12 -13.333 -26 -47 -42 -101l-158 -592l-14 -57l-4 -37c0 -10 5.33301 -21.667 16 -35c9.33301 -13.333 23.666 -23 42.999 -29zM906 178v-41h-52v-103h-47v103h-166v37l181 258h32v-254h52zM807 178v193l-138 -193h138zM90 941l17.999 33.002l12 17l12 11
c8.66699 6.66699 18.334 12 29.001 16s22.334 6 35.001 6c30 0 54 -10.333 72 -31c12.667 -14 19 -30.333 19 -49c0 -28 -17.667 -57.333 -53 -88c24 -8 42 -21 54 -39s18 -39 18 -63c0 -34.667 -10.667 -63.667 -32 -87c-28 -32 -68.667 -48 -122 -48
c-26.667 0 -44.667 3.16699 -54 9.5s-14 13.166 -14 20.499c0 4.66699 2.16699 9.16699 6.5 13.5s9.83301 6.83301 16.5 7.5c7.33301 0 12.333 -0.666992 15 -2l7 -4l15 -7l15 -7l10 -4l8 -2l14 -1c18 0 34.667 8 50 24s23 33.667 23 53c0 16 -3.33301 30.667 -10 44
c-2 5.33301 -4.66699 9.66602 -8 12.999l-9 11c-6 8 -17.667 15.167 -35 21.5s-31.666 9.5 -42.999 9.5h-9v8c5.33301 0 12.666 2 21.999 6l23 11c15.333 10 26.666 21 33.999 33c6.66699 13.333 10 27 10 41c0 17.333 -6 32.833 -18 46.5s-27.667 20.5 -47 20.5
c-27.333 0 -52 -16 -74 -48z" />
    <glyph glyph-name="questiondown" unicode="&#xbf;" horiz-adv-x="1139" 
d="M876 410l5.99805 -71.0029c6 -47.333 13 -76.666 21 -87.999c26 -29.333 64.667 -44 116 -44h51v-37h-497c-122 0 -218.167 12 -288.5 36s-129.166 66.333 -176.499 127s-71 131.334 -71 212.001c0 110 36.5 199.833 109.5 269.5s176.167 104.5 309.5 104.5
c32.667 0 68 -2 106 -6s78.667 -11.333 122 -22v95c0 85.333 -9.33301 138.333 -28 159c-25.333 29.333 -63.666 44 -114.999 44h-52v37h581v-37h-51c-57.333 0 -98.333 -18.667 -123 -56c-13.333 -20.667 -20 -69.667 -20 -147l-3 -219l-187 44
c-30.667 19.333 -62.667 32 -96 38l-70 5c-66.667 0 -125.834 -27.333 -177.501 -82s-77.5 -123.667 -77.5 -207c0 -57.333 11.833 -110.666 35.5 -159.999s57.5 -87.333 101.5 -114s94.333 -40 151 -40c34.667 0 78.334 6.33301 131.001 19l2 -9zM916.998 1450l-151 153
l-154 -153l154 -152z" />
    <glyph glyph-name="Agrave" unicode="&#xc0;" horiz-adv-x="1485" 
d="M28 0l0.000976562 36.998c51.333 8 90.5 24.5 117.5 49.5s55.833 73.833 86.5 146.5l473 1154h37l504 -1160c34 -78.667 63.333 -129.667 88 -153c11.333 -11.333 28.666 -20.333 51.999 -27s49.333 -10 78 -10v-37h-553v37c33.333 0 59.333 2.83301 78 8.5
s32.667 12.834 42 21.501s17 18.334 23 29.001c4.66699 14 7 25.667 7 35c0 32.667 -15.333 83.667 -46 153l-345 795l-320 -785c-30 -72 -45 -125.333 -45 -160c0 -28 9.33301 -50.333 28 -67c8.66699 -6.66699 23 -14 43 -22c10 -2.66699 20.333 -4.66699 31 -6
s23.667 -2 39 -2v-37h-418zM518.001 484.998l162 -153l154 153l-154 152zM387.001 1786h223l106 -345h-35z" />
    <glyph glyph-name="Aacute" unicode="&#xc1;" horiz-adv-x="1485" 
d="M28 0l0.000976562 36.998c51.333 8 90.5 24.5 117.5 49.5s55.833 73.833 86.5 146.5l473 1154h37l504 -1160c34 -78.667 63.333 -129.667 88 -153c11.333 -11.333 28.666 -20.333 51.999 -27s49.333 -10 78 -10v-37h-553v37c33.333 0 59.333 2.83301 78 8.5
s32.667 12.834 42 21.501s17 18.334 23 29.001c4.66699 14 7 25.667 7 35c0 32.667 -15.333 83.667 -46 153l-345 795l-320 -785c-30 -72 -45 -125.333 -45 -160c0 -28 9.33301 -50.333 28 -67c8.66699 -6.66699 23 -14 43 -22c10 -2.66699 20.333 -4.66699 31 -6
s23.667 -2 39 -2v-37h-418zM518.001 484.998l162 -153l154 153l-154 152zM1044 1797l-295 -345h-34l105 345h224z" />
    <glyph glyph-name="Acircumflex" unicode="&#xc2;" horiz-adv-x="1485" 
d="M28 0l0.000976562 36.998c51.333 8 90.5 24.5 117.5 49.5s55.833 73.833 86.5 146.5l473 1154h37l504 -1160c34 -78.667 63.333 -129.667 88 -153c11.333 -11.333 28.666 -20.333 51.999 -27s49.333 -10 78 -10v-37h-553v37c33.333 0 59.333 2.83301 78 8.5
s32.667 12.834 42 21.501s17 18.334 23 29.001c4.66699 14 7 25.667 7 35c0 32.667 -15.333 83.667 -46 153l-345 795l-320 -785c-30 -72 -45 -125.333 -45 -160c0 -28 9.33301 -50.333 28 -67c8.66699 -6.66699 23 -14 43 -22c10 -2.66699 20.333 -4.66699 31 -6
s23.667 -2 39 -2v-37h-418zM518.001 484.998l162 -153l154 153l-154 152zM638.001 1759h184l190 -331h-31l-255 213l-247 -213h-30z" />
    <glyph glyph-name="Atilde" unicode="&#xc3;" horiz-adv-x="1485" 
d="M28 0l0.000976562 36.998c51.333 8 90.5 24.5 117.5 49.5s55.833 73.833 86.5 146.5l473 1154h37l504 -1160c34 -78.667 63.333 -129.667 88 -153c11.333 -11.333 28.666 -20.333 51.999 -27s49.333 -10 78 -10v-37h-553v37c33.333 0 59.333 2.83301 78 8.5
s32.667 12.834 42 21.501s17 18.334 23 29.001c4.66699 14 7 25.667 7 35c0 32.667 -15.333 83.667 -46 153l-345 795l-320 -785c-30 -72 -45 -125.333 -45 -160c0 -28 9.33301 -50.333 28 -67c8.66699 -6.66699 23 -14 43 -22c10 -2.66699 20.333 -4.66699 31 -6
s23.667 -2 39 -2v-37h-418zM518.001 484.998l162 -153l154 153l-154 152zM470.001 1438l-31.999 0.00195312c0 45.333 4.83301 84.333 14.5 117s23.834 59.667 42.501 81c35.333 40.667 79 61 131 61c27.333 0 53.666 -4.66699 78.999 -14s66.166 -32.5 122.499 -69.5
s97.5 -55.5 123.5 -55.5c19.333 0 38 9 56 27c16 18 29 55.333 39 112h31c0 -62.667 -8.16699 -111.834 -24.5 -147.501s-40.166 -63.834 -71.499 -84.501c-15.333 -10.667 -30.5 -18.5 -45.5 -23.5s-31.167 -7.5 -48.5 -7.5c-52.667 0 -118 26.667 -196 80
c-40.667 27.333 -68.667 44.333 -84 51c-7.33301 3.33301 -12.333 5.33301 -15 6c-8.66699 2.66699 -18.334 4 -29.001 4c-25.333 0 -47 -12 -65 -36c-6 -9.33301 -15.333 -43 -28 -101z" />
    <glyph glyph-name="Adieresis" unicode="&#xc4;" horiz-adv-x="1485" 
d="M28 0l0.000976562 36.998c51.333 8 90.5 24.5 117.5 49.5s55.833 73.833 86.5 146.5l473 1154h37l504 -1160c34 -78.667 63.333 -129.667 88 -153c11.333 -11.333 28.666 -20.333 51.999 -27s49.333 -10 78 -10v-37h-553v37c33.333 0 59.333 2.83301 78 8.5
s32.667 12.834 42 21.501s17 18.334 23 29.001c4.66699 14 7 25.667 7 35c0 32.667 -15.333 83.667 -46 153l-345 795l-320 -785c-30 -72 -45 -125.333 -45 -160c0 -28 9.33301 -50.333 28 -67c8.66699 -6.66699 23 -14 43 -22c10 -2.66699 20.333 -4.66699 31 -6
s23.667 -2 39 -2v-37h-418zM1036 1612c0 -24 -9.99902 -48.001 -29.999 -72.001c-22.667 -20.667 -46.667 -31 -72 -31c-12.667 0 -24 2.16699 -34 6.5s-22 12.5 -36 24.5c-20 21.333 -30 45.333 -30 72c0 24 10 47 30 69c10.667 10.667 21.667 18.834 33 24.501
s23.666 8.5 36.999 8.5c25.333 0 49.333 -10.333 72 -31c20 -20 30 -43.667 30 -71zM629.002 1612c0 -25.333 -10.333 -49.334 -31 -72.001c-20.667 -20.667 -44.667 -31 -72 -31c-23.333 0 -46.333 10.333 -69 31c-20.667 20.667 -31 44.667 -31 72c0 24 10 47 30 69
s43.333 33 70 33c26 0 49.667 -10.167 71 -30.5s32 -44.166 32 -71.499zM518.002 484.996l162 -153l154 153l-154 152z" />
    <glyph glyph-name="Aring" unicode="&#xc5;" horiz-adv-x="1485" 
d="M28 0l0.000976562 36.998c51.333 8 90.5 24.5 117.5 49.5s55.833 73.833 86.5 146.5l473 1154h37l504 -1160c34 -78.667 63.333 -129.667 88 -153c11.333 -11.333 28.666 -20.333 51.999 -27s49.333 -10 78 -10v-37h-553v37c33.333 0 59.333 2.83301 78 8.5
s32.667 12.834 42 21.501s17 18.334 23 29.001c4.66699 14 7 25.667 7 35c0 32.667 -15.333 83.667 -46 153l-345 795l-320 -785c-30 -72 -45 -125.333 -45 -160c0 -28 9.33301 -50.333 28 -67c8.66699 -6.66699 23 -14 43 -22c10 -2.66699 20.333 -4.66699 31 -6
s23.667 -2 39 -2v-37h-418zM931.001 1630l-3.00098 -40.001c-0.666992 -6 -2 -12.167 -4 -18.5s-4.33301 -12.5 -7 -18.5c-8 -22 -23 -44 -45 -66c-40 -40 -87.667 -60 -143 -60c-54 0 -101.667 19.667 -143 59s-62 87.333 -62 144c0 28.667 4.33301 53.834 13 75.501
s24 44.5 46 68.5c38.667 40.667 87.334 61 146.001 61l40 -3c6 -0.666992 12.167 -2 18.5 -4s12.5 -4.33301 18.5 -7c22.667 -8 44.167 -22.333 64.5 -43s35.5 -43 45.5 -67s15 -51 15 -81zM854 1630c0 32.667 -12.667 61.999 -38 87.999s-54.333 39 -87 39
c-33.333 0 -62.833 -12.667 -88.5 -38s-38.5 -55 -38.5 -89c0 -32.667 12.667 -61.667 38 -87s55 -38 89 -38c30 0 59.333 12.333 88 37c11.333 12.667 20.333 26.334 27 41.001c2.66699 7.33301 5 15 7 23s3 16 3 24zM518 484.996l162 -153l154 153l-154 152z" />
    <glyph glyph-name="AE" unicode="&#xc6;" horiz-adv-x="1821" 
d="M1027 672l-0.00390625 -448c0 -60 2 -95.833 6 -107.5s13.167 -21.667 27.5 -30s41.5 -12.5 81.5 -12.5h182c70 0 125.333 6 166 18s79.334 35.333 116.001 70c48.667 45.333 88.667 105 120 179h38l-108 -341h-1018v37h51c52.667 0 93.334 16.333 122.001 49
c16 21.333 24 72.333 24 153v1043l-520 -990c-46.667 -91.333 -70 -149 -70 -173c0 -15.333 10 -32.666 30 -51.999c9.33301 -6 25.333 -13.333 48 -22l33 -6l46 -2v-37h-426v37c28.667 0 53.5 6 74.5 18s43.833 33.667 68.5 65c19.333 24.667 51 76 95 154l412 771
c51.333 95.333 77 159.666 77 192.999c0 18 -9 34.667 -27 50c-9.33301 6.66699 -27.666 14 -54.999 22c-25.333 6 -55.666 9 -90.999 9v37h1111l15 -298h-34c-4 34 -10 64.167 -18 90.5s-18.667 48.5 -32 66.5c-18 26 -44 45 -78 57l-49 7l-87 3h-331v-537h261l118 119
l154 -152l-154 -153l-118 113h-261z" />
    <glyph glyph-name="Ccedilla" unicode="&#xc7;" horiz-adv-x="1366" 
d="M1288 657c0 -168 -46.0049 -314.001 -138.005 -438.001c-124.667 -166.667 -298.667 -250 -522 -250c-123.333 0 -230.5 28 -321.5 84s-170.833 144.333 -239.5 265l31 20c81.333 -112 155.333 -186.833 222 -224.5s144.334 -56.5 233.001 -56.5c100 0 190 24 270 72
s139.333 116.667 178 206c9.33301 22 17.5 44.5 24.5 67.5s13.5 49.5 19.5 79.5c10 53.333 15 111 15 173c0 146.667 -21 270.334 -63 371.001s-99.167 174 -171.5 220s-153.5 69 -243.5 69c-107.333 0 -199.166 -30.167 -275.499 -90.5s-135.5 -159.833 -177.5 -298.5h-31
l31 461h35c8 -32.667 20.333 -57.667 37 -75c14.667 -12.667 30.334 -19 47.001 -19c10.667 0 30.667 7.33301 60 22c96 48 192.667 72 290 72c34.667 0 65.834 -1.66699 93.501 -5s56.834 -9.33301 87.501 -18c56 -14.667 112 -38.667 168 -72
c106 -62 189.333 -149.5 250 -262.5s91 -237.167 91 -372.5zM457.995 684.999l162 -153l154 153l-154 152zM560.995 15.999l59.998 0.000976562l-50 -79c41.333 -10 72.5 -28.167 93.5 -54.5s31.5 -56.833 31.5 -91.5c0 -48 -20.333 -90 -61 -126
c-20 -18 -42.667 -31.667 -68 -41s-54 -14 -86 -14l-53 1l-41 6v43l48 -4c34 0 62.667 11.167 86 33.5s35 47.833 35 76.5c0 19.333 -8 36.666 -24 51.999c-7.33301 6.66699 -15.666 12 -24.999 16s-19.666 6 -30.999 6l-26 -2z" />
    <glyph glyph-name="Egrave" unicode="&#xc8;" horiz-adv-x="1251" 
d="M387 1786h223l106 -345h-35zM428 746v535.999h372c68 0 115 -5 141 -15c34 -15.333 59 -35.666 75 -60.999c17.333 -25.333 33 -74.333 47 -147h39l-15 297h-1045v-37h48c55.333 0 95.333 -13.333 120 -40c17.333 -19.333 26 -72.333 26 -159v-881
c0 -66 -4 -109.833 -12 -131.5s-22.333 -37.5 -43 -47.5c-28 -15.333 -58.333 -23 -91 -23h-48v-37h1045l117 340h-40c-44 -84 -86.333 -146.333 -127 -187c-33.333 -32 -67 -53.167 -101 -63.5s-89.333 -15.5 -166 -15.5h-230c-37.333 0 -62.833 4 -76.5 12
s-23 18.167 -28 30.5s-7.5 48.833 -7.5 109.5v447h258l118 -113l154 153l-154 152l-118 -119h-258z" />
    <glyph glyph-name="Eacute" unicode="&#xc9;" horiz-adv-x="1251" 
d="M1044 1797l-295 -345h-34l105 345h224zM428 746v535.999h372c68 0 115 -5 141 -15c34 -15.333 59 -35.666 75 -60.999c17.333 -25.333 33 -74.333 47 -147h39l-15 297h-1045v-37h48c55.333 0 95.333 -13.333 120 -40c17.333 -19.333 26 -72.333 26 -159v-881
c0 -66 -4 -109.833 -12 -131.5s-22.333 -37.5 -43 -47.5c-28 -15.333 -58.333 -23 -91 -23h-48v-37h1045l117 340h-40c-44 -84 -86.333 -146.333 -127 -187c-33.333 -32 -67 -53.167 -101 -63.5s-89.333 -15.5 -166 -15.5h-230c-37.333 0 -62.833 4 -76.5 12
s-23 18.167 -28 30.5s-7.5 48.833 -7.5 109.5v447h258l118 -113l154 153l-154 152l-118 -119h-258z" />
    <glyph glyph-name="Ecircumflex" unicode="&#xca;" horiz-adv-x="1251" 
d="M538 1759h184l190 -331h-31l-255 213l-247 -213h-30zM428 746v535.999h372c68 0 115 -5 141 -15c34 -15.333 59 -35.666 75 -60.999c17.333 -25.333 33 -74.333 47 -147h39l-15 297h-1045v-37h48c55.333 0 95.333 -13.333 120 -40c17.333 -19.333 26 -72.333 26 -159
v-881c0 -66 -4 -109.833 -12 -131.5s-22.333 -37.5 -43 -47.5c-28 -15.333 -58.333 -23 -91 -23h-48v-37h1045l117 340h-40c-44 -84 -86.333 -146.333 -127 -187c-33.333 -32 -67 -53.167 -101 -63.5s-89.333 -15.5 -166 -15.5h-230c-37.333 0 -62.833 4 -76.5 12
s-23 18.167 -28 30.5s-7.5 48.833 -7.5 109.5v447h258l118 -113l154 153l-154 152l-118 -119h-258z" />
    <glyph glyph-name="Edieresis" unicode="&#xcb;" horiz-adv-x="1251" 
d="M370 1438l-31.999 0.00195312c0 45.333 4.83301 84.333 14.5 117s23.834 59.667 42.501 81c35.333 40.667 79 61 131 61c27.333 0 53.666 -4.66699 78.999 -14s66.166 -32.5 122.499 -69.5s97.5 -55.5 123.5 -55.5c19.333 0 38 9 56 27c16 18 29 55.333 39 112h31
c0 -62.667 -8.16699 -111.834 -24.5 -147.501s-40.166 -63.834 -71.499 -84.501c-15.333 -10.667 -30.5 -18.5 -45.5 -23.5s-31.167 -7.5 -48.5 -7.5c-52.667 0 -118 26.667 -196 80c-40.667 27.333 -68.667 44.333 -84 51c-7.33301 3.33301 -12.333 5.33301 -15 6
c-8.66699 2.66699 -18.334 4 -29.001 4c-25.333 0 -47 -12 -65 -36c-6 -9.33301 -15.333 -43 -28 -101zM428.001 746.002v535.999h372c68 0 115 -5 141 -15c34 -15.333 59 -35.666 75 -60.999c17.333 -25.333 33 -74.333 47 -147h39l-15 297h-1045v-37h48
c55.333 0 95.333 -13.333 120 -40c17.333 -19.333 26 -72.333 26 -159v-881c0 -66 -4 -109.833 -12 -131.5s-22.333 -37.5 -43 -47.5c-28 -15.333 -58.333 -23 -91 -23h-48v-37h1045l117 340h-40c-44 -84 -86.333 -146.333 -127 -187c-33.333 -32 -67 -53.167 -101 -63.5
s-89.333 -15.5 -166 -15.5h-230c-37.333 0 -62.833 4 -76.5 12s-23 18.167 -28 30.5s-7.5 48.833 -7.5 109.5v447h258l118 -113l154 153l-154 152l-118 -119h-258z" />
    <glyph glyph-name="Igrave" unicode="&#xcc;" 
d="M632 37v-37h-581v37h48c53.333 0 94 16.333 122 49c16 21.333 24 72.666 24 153.999v876c0 68.667 -4.33301 114 -13 136c-6 16 -19.667 30.333 -41 43c-29.333 16 -60 24 -92 24h-48v37h581v-37h-49c-54 0 -94.333 -16.333 -121 -49c-16.667 -22.667 -25 -74 -25 -154
v-876c0 -68.667 4.33301 -114 13 -136c6 -13.333 20 -27.666 42 -42.999c28 -16 58.333 -24 91 -24h49zM37 1786h223l106 -345h-35z" />
    <glyph glyph-name="Iacute" unicode="&#xcd;" 
d="M632 37v-37h-581v37h48c53.333 0 94 16.333 122 49c16 21.333 24 72.666 24 153.999v876c0 68.667 -4.33301 114 -13 136c-6 16 -19.667 30.333 -41 43c-29.333 16 -60 24 -92 24h-48v37h581v-37h-49c-54 0 -94.333 -16.333 -121 -49c-16.667 -22.667 -25 -74 -25 -154
v-876c0 -68.667 4.33301 -114 13 -136c6 -13.333 20 -27.666 42 -42.999c28 -16 58.333 -24 91 -24h49zM694 1797l-295 -345h-34l105 345h224z" />
    <glyph glyph-name="Icircumflex" unicode="&#xce;" 
d="M632 37v-37h-581v37h48c53.333 0 94 16.333 122 49c16 21.333 24 72.666 24 153.999v876c0 68.667 -4.33301 114 -13 136c-6 16 -19.667 30.333 -41 43c-29.333 16 -60 24 -92 24h-48v37h581v-37h-49c-54 0 -94.333 -16.333 -121 -49c-16.667 -22.667 -25 -74 -25 -154
v-876c0 -68.667 4.33301 -114 13 -136c6 -13.333 20 -27.666 42 -42.999c28 -16 58.333 -24 91 -24h49zM238 1759h184l190 -331h-31l-255 213l-247 -213h-30z" />
    <glyph glyph-name="Idieresis" unicode="&#xcf;" 
d="M632 37v-37h-581v37h48c53.333 0 94 16.333 122 49c16 21.333 24 72.666 24 153.999v876c0 68.667 -4.33301 114 -13 136c-6 16 -19.667 30.333 -41 43c-29.333 16 -60 24 -92 24h-48v37h581v-37h-49c-54 0 -94.333 -16.333 -121 -49c-16.667 -22.667 -25 -74 -25 -154
v-876c0 -68.667 4.33301 -114 13 -136c6 -13.333 20 -27.666 42 -42.999c28 -16 58.333 -24 91 -24h49zM70 1438l-31.999 0.00195312c0 45.333 4.83301 84.333 14.5 117s23.834 59.667 42.501 81c35.333 40.667 79 61 131 61c27.333 0 53.666 -4.66699 78.999 -14
s66.166 -32.5 122.499 -69.5s97.5 -55.5 123.5 -55.5c19.333 0 38 9 56 27c16 18 29 55.333 39 112h31c0 -62.667 -8.16699 -111.834 -24.5 -147.501s-40.166 -63.834 -71.499 -84.501c-15.333 -10.667 -30.5 -18.5 -45.5 -23.5s-31.167 -7.5 -48.5 -7.5
c-52.667 0 -118 26.667 -196 80c-40.667 27.333 -68.667 44.333 -84 51c-7.33301 3.33301 -12.333 5.33301 -15 6c-8.66699 2.66699 -18.334 4 -29.001 4c-25.333 0 -47 -12 -65 -36c-6 -9.33301 -15.333 -43 -28 -101z" />
    <glyph glyph-name="Eth" unicode="&#xd0;" horiz-adv-x="1479" 
d="M35 0l-0.000976562 36.999h51c57.333 0 98.333 18.667 123 56c14 21.333 21 70.333 21 147v438h-195v74h195v364c0 84.667 -9.33301 137.667 -28 159c-26 29.333 -64.667 44 -116 44h-51v37h552c207.333 0 361.333 -23.667 462 -71s184.334 -123.333 251.001 -228
s100 -228 100 -370c0 -191.333 -61.167 -353.666 -183.5 -486.999s-314.5 -200 -576.5 -200h-605zM422.999 99.999l117 -20.998l48 -5l48 -2c154 0 282 54 384 162s153 255.667 153 443c0 185.333 -51.167 332.5 -153.5 441.5s-232.833 163.5 -391.5 163.5
c-20.667 0 -36.667 -0.333008 -48 -1s-31.833 -2.83398 -61.5 -6.50098s-61.5 -10.834 -95.5 -21.501v-501v-74v-578zM567.999 520.001l162 -153l154 153l-154 152zM567.999 839.001l162 -153l154 153l-154 152z" />
    <glyph glyph-name="Ntilde" unicode="&#xd1;" horiz-adv-x="1342" 
d="M1275 1077l-12.001 0.999023c-27.333 0 -53.333 -13.667 -78 -41l-39 -51c-4 -2 -7.5 -8 -10.5 -18s-4.83301 -18.833 -5.5 -26.5s-1 -20.5 -1 -38.5v-656c0 -82 9 -136 27 -162s60 -42 126 -48v-37h-499v37c66 6 108.167 22.333 126.5 49s27.5 80.334 27.5 161.001v716
c0 38 -3 64.667 -9 80c-0.666992 2 -3.66699 4.66699 -9 8c-12 24 -29.333 44.333 -52 61s-44.667 25 -66 25l-264 55c-42 0 -68.5 -2.66699 -79.5 -8s-19.833 -17.333 -26.5 -36l-5 -46l-2 -84v-771c0 -82.667 8.66699 -136.667 26 -162c18 -24 60.333 -40 127 -48v-37
h-520v37h21c8 0 17.333 0.666992 28 2c8.66699 0 22 3 40 9c22.667 8 40.334 18.333 53.001 31c22 25.333 33 81.333 33 168v147l2 268l1 248v52v43v34v28v22v17v14c0 28.667 -1 46 -3 52c-6 16.667 -19 34 -39 52l-31 30c-32 30 -64 45 -96 45l1 57l937 -193l274 -58z
M419.999 1438l-31.999 0.00195312c0 45.333 4.83301 84.333 14.5 117s23.834 59.667 42.501 81c35.333 40.667 79 61 131 61c27.333 0 53.666 -4.66699 78.999 -14s66.166 -32.5 122.499 -69.5s97.5 -55.5 123.5 -55.5c19.333 0 38 9 56 27c16 18 29 55.333 39 112h31
c0 -62.667 -8.16699 -111.834 -24.5 -147.501s-40.166 -63.834 -71.499 -84.501c-15.333 -10.667 -30.5 -18.5 -45.5 -23.5s-31.167 -7.5 -48.5 -7.5c-52.667 0 -118 26.667 -196 80c-40.667 27.333 -68.667 44.333 -84 51c-7.33301 3.33301 -12.333 5.33301 -15 6
c-8.66699 2.66699 -18.334 4 -29.001 4c-25.333 0 -47 -12 -65 -36c-6 -9.33301 -15.333 -43 -28 -101z" />
    <glyph glyph-name="Ograve" unicode="&#xd2;" horiz-adv-x="1479" 
d="M749 1387c174 0 326.001 -66.835 456.001 -200.502s195 -300.5 195 -500.5c0 -206 -65 -377 -195 -513s-287.333 -204 -472 -204s-341 66.333 -469 199s-192 304.334 -192 515.001c0 212.667 73.333 388.334 220 527.001c127.333 118 279.666 177 456.999 177z
M730.001 1314c-118.667 0 -216.001 -45.001 -292.001 -135.001c-91.333 -112.667 -137 -276.667 -137 -492c0 -221.333 47.333 -391.666 142 -510.999c72.667 -90.667 168.667 -136 288 -136c127.333 0 232.5 49.667 315.5 149s124.5 256 124.5 470
c0 232.667 -45.667 405.667 -137 519c-73.333 90.667 -174.666 136 -303.999 136zM578 684.997l162 -153l154 153l-154 152zM437 1786h223l106 -345h-35z" />
    <glyph glyph-name="Oacute" unicode="&#xd3;" horiz-adv-x="1479" 
d="M749 1387c174 0 326.001 -66.835 456.001 -200.502s195 -300.5 195 -500.5c0 -206 -65 -377 -195 -513s-287.333 -204 -472 -204s-341 66.333 -469 199s-192 304.334 -192 515.001c0 212.667 73.333 388.334 220 527.001c127.333 118 279.666 177 456.999 177z
M730.001 1314c-118.667 0 -216.001 -45.001 -292.001 -135.001c-91.333 -112.667 -137 -276.667 -137 -492c0 -221.333 47.333 -391.666 142 -510.999c72.667 -90.667 168.667 -136 288 -136c127.333 0 232.5 49.667 315.5 149s124.5 256 124.5 470
c0 232.667 -45.667 405.667 -137 519c-73.333 90.667 -174.666 136 -303.999 136zM578 684.997l162 -153l154 153l-154 152zM1044 1797l-295 -345h-34l105 345h224z" />
    <glyph glyph-name="Ocircumflex" unicode="&#xd4;" horiz-adv-x="1479" 
d="M749 1387c174 0 326.001 -66.835 456.001 -200.502s195 -300.5 195 -500.5c0 -206 -65 -377 -195 -513s-287.333 -204 -472 -204s-341 66.333 -469 199s-192 304.334 -192 515.001c0 212.667 73.333 388.334 220 527.001c127.333 118 279.666 177 456.999 177z
M730.001 1314c-118.667 0 -216.001 -45.001 -292.001 -135.001c-91.333 -112.667 -137 -276.667 -137 -492c0 -221.333 47.333 -391.666 142 -510.999c72.667 -90.667 168.667 -136 288 -136c127.333 0 232.5 49.667 315.5 149s124.5 256 124.5 470
c0 232.667 -45.667 405.667 -137 519c-73.333 90.667 -174.666 136 -303.999 136zM578 684.997l162 -153l154 153l-154 152zM638 1759h184l190 -331h-31l-255 213l-247 -213h-30z" />
    <glyph glyph-name="Otilde" unicode="&#xd5;" horiz-adv-x="1479" 
d="M749 1387c174 0 326.001 -66.835 456.001 -200.502s195 -300.5 195 -500.5c0 -206 -65 -377 -195 -513s-287.333 -204 -472 -204s-341 66.333 -469 199s-192 304.334 -192 515.001c0 212.667 73.333 388.334 220 527.001c127.333 118 279.666 177 456.999 177z
M730.001 1314c-118.667 0 -216.001 -45.001 -292.001 -135.001c-91.333 -112.667 -137 -276.667 -137 -492c0 -221.333 47.333 -391.666 142 -510.999c72.667 -90.667 168.667 -136 288 -136c127.333 0 232.5 49.667 315.5 149s124.5 256 124.5 470
c0 232.667 -45.667 405.667 -137 519c-73.333 90.667 -174.666 136 -303.999 136zM578 684.997l162 -153l154 153l-154 152zM470 1438l-31.999 0.00195312c0 45.333 4.83301 84.333 14.5 117s23.834 59.667 42.501 81c35.333 40.667 79 61 131 61
c27.333 0 53.666 -4.66699 78.999 -14s66.166 -32.5 122.499 -69.5s97.5 -55.5 123.5 -55.5c19.333 0 38 9 56 27c16 18 29 55.333 39 112h31c0 -62.667 -8.16699 -111.834 -24.5 -147.501s-40.166 -63.834 -71.499 -84.501c-15.333 -10.667 -30.5 -18.5 -45.5 -23.5
s-31.167 -7.5 -48.5 -7.5c-52.667 0 -118 26.667 -196 80c-40.667 27.333 -68.667 44.333 -84 51c-7.33301 3.33301 -12.333 5.33301 -15 6c-8.66699 2.66699 -18.334 4 -29.001 4c-25.333 0 -47 -12 -65 -36c-6 -9.33301 -15.333 -43 -28 -101z" />
    <glyph glyph-name="Odieresis" unicode="&#xd6;" horiz-adv-x="1479" 
d="M749 1387c174 0 326.001 -66.835 456.001 -200.502s195 -300.5 195 -500.5c0 -206 -65 -377 -195 -513s-287.333 -204 -472 -204s-341 66.333 -469 199s-192 304.334 -192 515.001c0 212.667 73.333 388.334 220 527.001c127.333 118 279.666 177 456.999 177z
M730.001 1314c-118.667 0 -216.001 -45.001 -292.001 -135.001c-91.333 -112.667 -137 -276.667 -137 -492c0 -221.333 47.333 -391.666 142 -510.999c72.667 -90.667 168.667 -136 288 -136c127.333 0 232.5 49.667 315.5 149s124.5 256 124.5 470
c0 232.667 -45.667 405.667 -137 519c-73.333 90.667 -174.666 136 -303.999 136zM578 684.997l162 -153l154 153l-154 152zM1086 1612c0 -24 -9.99902 -48.001 -29.999 -72.001c-22.667 -20.667 -46.667 -31 -72 -31c-12.667 0 -24 2.16699 -34 6.5s-22 12.5 -36 24.5
c-20 21.333 -30 45.333 -30 72c0 24 10 47 30 69c10.667 10.667 21.667 18.834 33 24.501s23.666 8.5 36.999 8.5c25.333 0 49.333 -10.333 72 -31c20 -20 30 -43.667 30 -71zM679.001 1612c0 -25.333 -10.333 -49.334 -31 -72.001c-20.667 -20.667 -44.667 -31 -72 -31
c-23.333 0 -46.333 10.333 -69 31c-20.667 20.667 -31 44.667 -31 72c0 24 10 47 30 69s43.333 33 70 33c26 0 49.667 -10.167 71 -30.5s32 -44.166 32 -71.499z" />
    <glyph glyph-name="multiply" unicode="&#xd7;" horiz-adv-x="792" 
d="M400 499l204 -205l70 70l-204 205l175 175l-71 72l-177 -175l-184 190l-73 -71l190 -193l-193 -191l68 -72z" />
    <glyph glyph-name="Oslash" unicode="&#xd8;" horiz-adv-x="1479" 
d="M1147 1238l131.002 162l58 -44l-133 -167c68 -74 118 -150.167 150 -228.5s48 -169.5 48 -273.5c0 -228 -81.333 -413 -244 -555c-126.667 -108.667 -264.334 -163 -413.001 -163c-33.333 0 -68 3 -104 9c-20 3.33301 -37.833 7 -53.5 11s-35.167 9.66699 -58.5 17
c-75.333 24 -141.333 59.333 -198 106l-129 -159l-59 47l132 164c-134 138 -201 314 -201 528c0 194 65 358.333 195 493s287.667 202 473 202c151.333 0 286.666 -49.667 405.999 -149zM416.002 217c36.667 -54.667 75.333 -94.6689 116 -120.002
c59.333 -37.333 125.333 -56 198 -56c70 0 127 10 171 30s85 51.667 123 95s72.333 106.333 103 189c6.66699 18 12.667 38.333 18 61s9.83301 46.5 13.5 71.5s6.5 51.5 8.5 79.5s3 57.667 3 89c0 82 -6 158 -18 228c-8 46.667 -25 106.334 -51 179.001l-39 71
c-76 121.333 -184.667 182 -326 182c-62.667 0 -111.667 -7.33301 -147 -22c-44.667 -17.333 -89.334 -49.333 -134.001 -96c-49.333 -55.333 -87.166 -127.166 -113.499 -215.499s-39.5 -183.5 -39.5 -285.5c0 -154.667 24.333 -290.667 73 -408zM578.001 684.998l162 -153
l154 153l-154 152z" />
    <glyph glyph-name="Ugrave" unicode="&#xd9;" horiz-adv-x="1479" 
d="M1454 1356l0.000976562 -37c-48 -8 -84.333 -23.333 -109 -46c-32.667 -29.333 -64 -79.333 -94 -150l-473 -1154h-37l-508 1169c-26 57.333 -44.333 94 -55 110c-8.66699 10.667 -18.167 20 -28.5 28s-21.5 14.667 -33.5 20c-18.667 9.33301 -51.334 17 -98.001 23v37
h554v-37c-62 -6 -102.5 -16.667 -121.5 -32s-28.5 -35 -28.5 -59c0 -34.667 15.333 -86.667 46 -156l345 -795l320 785c31.333 78.667 47 132.334 47 161.001c0 17.333 -8.83301 34.666 -26.5 51.999s-51.167 31 -100.5 41l-17 3v37h418zM487.001 1786h223l106 -345h-35z
" />
    <glyph glyph-name="Uacute" unicode="&#xda;" horiz-adv-x="1479" 
d="M1454 1356l0.000976562 -37c-48 -8 -84.333 -23.333 -109 -46c-32.667 -29.333 -64 -79.333 -94 -150l-473 -1154h-37l-508 1169c-26 57.333 -44.333 94 -55 110c-8.66699 10.667 -18.167 20 -28.5 28s-21.5 14.667 -33.5 20c-18.667 9.33301 -51.334 17 -98.001 23v37
h554v-37c-62 -6 -102.5 -16.667 -121.5 -32s-28.5 -35 -28.5 -59c0 -34.667 15.333 -86.667 46 -156l345 -795l320 785c31.333 78.667 47 132.334 47 161.001c0 17.333 -8.83301 34.666 -26.5 51.999s-51.167 31 -100.5 41l-17 3v37h418zM1094 1797l-295 -345h-34l105 345
h224z" />
    <glyph glyph-name="Ucircumflex" unicode="&#xdb;" horiz-adv-x="1479" 
d="M1454 1356l0.000976562 -37c-48 -8 -84.333 -23.333 -109 -46c-32.667 -29.333 -64 -79.333 -94 -150l-473 -1154h-37l-508 1169c-26 57.333 -44.333 94 -55 110c-8.66699 10.667 -18.167 20 -28.5 28s-21.5 14.667 -33.5 20c-18.667 9.33301 -51.334 17 -98.001 23v37
h554v-37c-62 -6 -102.5 -16.667 -121.5 -32s-28.5 -35 -28.5 -59c0 -34.667 15.333 -86.667 46 -156l345 -795l320 785c31.333 78.667 47 132.334 47 161.001c0 17.333 -8.83301 34.666 -26.5 51.999s-51.167 31 -100.5 41l-17 3v37h418zM718.001 1759h184l190 -331h-31
l-255 213l-247 -213h-30z" />
    <glyph glyph-name="Udieresis" unicode="&#xdc;" horiz-adv-x="1479" 
d="M1454 1356l0.000976562 -37c-48 -8 -84.333 -23.333 -109 -46c-32.667 -29.333 -64 -79.333 -94 -150l-473 -1154h-37l-508 1169c-26 57.333 -44.333 94 -55 110c-8.66699 10.667 -18.167 20 -28.5 28s-21.5 14.667 -33.5 20c-18.667 9.33301 -51.334 17 -98.001 23v37
h554v-37c-62 -6 -102.5 -16.667 -121.5 -32s-28.5 -35 -28.5 -59c0 -34.667 15.333 -86.667 46 -156l345 -795l320 785c31.333 78.667 47 132.334 47 161.001c0 17.333 -8.83301 34.666 -26.5 51.999s-51.167 31 -100.5 41l-17 3v37h418zM490.001 1438l-31.999 0.00195312
c0 45.333 4.83301 84.333 14.5 117s23.834 59.667 42.501 81c35.333 40.667 79 61 131 61c27.333 0 53.666 -4.66699 78.999 -14s66.166 -32.5 122.499 -69.5s97.5 -55.5 123.5 -55.5c19.333 0 38 9 56 27c16 18 29 55.333 39 112h31
c0 -62.667 -8.16699 -111.834 -24.5 -147.501s-40.166 -63.834 -71.499 -84.501c-15.333 -10.667 -30.5 -18.5 -45.5 -23.5s-31.167 -7.5 -48.5 -7.5c-52.667 0 -118 26.667 -196 80c-40.667 27.333 -68.667 44.333 -84 51c-7.33301 3.33301 -12.333 5.33301 -15 6
c-8.66699 2.66699 -18.334 4 -29.001 4c-25.333 0 -47 -12 -65 -36c-6 -9.33301 -15.333 -43 -28 -101z" />
    <glyph glyph-name="Yacute" unicode="&#xdd;" horiz-adv-x="1511" 
d="M852 656c90 0 158.331 14.835 204.998 44.502s78.334 67.5 95.001 113.5c7.33301 22.667 14.333 53 21 91c2.66699 17.333 5 37.5 7 60.5s3 45.833 3 68.5c0 58 6.16699 106.667 18.5 146s31.5 75.333 57.5 108c46 56 122.333 84 229 84v-38
c-18.667 0 -34.167 -3.5 -46.5 -10.5s-22.833 -18.5 -31.5 -34.5c-13.333 -26.667 -20 -83.667 -20 -171c0 -130.667 -13.167 -229.834 -39.5 -297.501s-80.833 -123.834 -163.5 -168.501c-40.667 -21.333 -89.334 -38.333 -146.001 -51c-28 -6 -57.667 -10.667 -89 -14
s-64.666 -5 -99.999 -5v-317c0 -77.333 4 -127 12 -149s27.333 -41.333 58 -58c29.333 -14 74.333 -21 135 -21v-37h-602v37c60 0 104 6 132 18s47.167 30.333 57.5 55s15.5 76.334 15.5 155.001v317h-13h-54c-14.667 2 -25.334 3.33301 -32.001 4
c-13.333 0 -27.333 1.16699 -42 3.5s-30.334 5.5 -47.001 9.5c-54 12 -102.667 29.333 -146 52c-79.333 42 -133.166 97.667 -161.499 167s-42.5 169.666 -42.5 300.999c0 84 -6.16699 139.833 -18.5 167.5s-38.833 43.5 -79.5 47.5v38
c66.667 0 120.834 -10.167 162.501 -30.5s74.834 -56.166 99.501 -107.499c12 -25.333 22.167 -55.333 30.5 -90s12.5 -71.334 12.5 -110.001c0 -52 2.33301 -94.667 7 -128l9 -48c2 -9.33301 3.66699 -16.333 5 -21s4 -12 8 -22c14 -44 46.167 -81.5 96.5 -112.5
s118.833 -46.5 205.5 -46.5h192zM600.998 1059l162 -153l154 153l-154 152zM1094 1797l-295 -345h-34l105 345h224z" />
    <glyph glyph-name="Thorn" unicode="&#xde;" horiz-adv-x="1139" 
d="M464 325c81.333 0 144.666 9.32617 189.999 27.9932c60 24 104.333 60.333 133 109c11.333 21.333 21.333 54 30 98s13 83 13 117l-1 50c0 12 -2.33301 29.333 -7 52c-4 36.667 -11.667 65.334 -23 86.001c-20.667 40.667 -47.167 72.834 -79.5 96.501
s-70.5 40.5 -114.5 50.5l-52 6l-85 2h-243l2 88c0 76.667 -3.66699 123.334 -11 140.001c-6 18 -22.5 34.333 -49.5 49s-57.167 22 -90.5 22h-40v37h578v-37h-40c-18 0 -33.333 -1.66699 -46 -5c-14 -2.66699 -30.167 -8.5 -48.5 -17.5s-33.166 -25.5 -44.499 -49.5l-11 -25
l-3 -22l-1 -37v-65h74c97.333 0 172 -4 224 -12c72 -12 131.667 -33.333 179 -64s86.333 -71.334 117 -122.001c14 -22 25.167 -57.167 33.5 -105.5s12.5 -86.5 12.5 -114.5v-24c0 -9.33301 -0.666992 -18.666 -2 -27.999l-6 -51c-4 -37.333 -11 -67.666 -21 -90.999
c-4 -9.33301 -8.83301 -19.166 -14.5 -29.499s-12 -20.333 -19 -30s-13.5 -18.167 -19.5 -25.5s-14 -15.666 -24 -24.999c-30.667 -29.333 -68 -54.666 -112 -75.999c-34 -15.333 -87.667 -29 -161 -41c-31.333 -3.33301 -95 -5 -191 -5h-70v-61
c0 -41.333 2.66699 -68.333 8 -81c3.33301 -8.66699 12 -21 26 -37c23.333 -25.333 63 -38 119 -38h41v-37h-578v37h38c62 0 106.333 18.667 133 56c13.333 18.667 20 67.667 20 147l-2 85h239zM278 684.993l162 -153l154 153l-154 152z" />
    <glyph glyph-name="germandbls" unicode="&#xdf;" horiz-adv-x="1024" 
d="M35 0l0.00195312 35.9951c20.667 0 37.667 1.83301 51 5.5s24.666 8.83398 33.999 15.501c17.333 10 29.333 24.667 36 44c2 4.66699 3.66699 11.834 5 21.501s2.66602 21.167 3.99902 34.5s2 36 2 68v741c0 164.667 31 281.834 93 351.501s150 104.5 264 104.5
c108 0 193.667 -30.167 257 -90.5s95 -138.5 95 -234.5c0 -70 -18 -130 -54 -180c-26 -36.667 -71.667 -68.667 -137 -96c90 -26 158 -72.167 204 -138.5s69 -153.166 69 -260.499c0 -116 -30.333 -217.5 -91 -304.5s-142 -130.5 -244 -130.5
c-56.667 0 -102.834 16 -138.501 48s-53.5 70 -53.5 114c0 26.667 7 47.834 21 63.501s33.333 23.5 58 23.5c26 0 46.167 -7.33301 60.5 -22s21.5 -33.667 21.5 -57v-15l-4 -18c-4 -16 -6 -27.667 -6 -35c0 -10 5 -20.667 15 -32c10.667 -9.33301 24.334 -14 41.001 -14
c40.667 0 73.667 17.667 99 53c34 46 51 118 51 216c0 140 -24.667 250 -74 330c-24 40.667 -54.667 72.834 -92 96.501s-80.333 35.5 -129 35.5v57c69.333 0 122.666 21 159.999 63c18 21.333 31.667 49.166 41 83.499s14 75.833 14 124.5
c0 88.667 -17.167 153.167 -51.5 193.5s-81.166 60.5 -140.499 60.5c-54 0 -98 -21.167 -132 -63.5s-51 -127.5 -51 -255.5v-1037h-298z" />
    <glyph glyph-name="agrave" unicode="&#xe0;" horiz-adv-x="1039" 
d="M20 0l-0.000976562 26.001c35.333 5.33301 62.666 17 81.999 35s39.333 52 60 102l331 808h26l353 -812c24 -54 44.667 -89.667 62 -107c6.66699 -7.33301 18.334 -14 35.001 -20c15.333 -4 34 -6 56 -6v-26h-387v26c10.667 0 20.334 0.333008 29.001 1
s16.334 2 23.001 4c15.333 5.33301 26 11 32 17l16 19l5 25c0 21.333 -11 57 -33 107l-241 556l-224 -549c-21.333 -52.667 -32 -90 -32 -112c0 -18.667 6.66699 -34.334 20 -47.001c5.33301 -4 15.333 -9.33301 30 -16c15.333 -3.33301 31.666 -5 48.999 -5v-26h-292z
M362.999 339.001l113 -107l108 107l-108 107zM177.999 1390h223l106 -345h-35z" />
    <glyph glyph-name="aacute" unicode="&#xe1;" horiz-adv-x="1039" 
d="M20 0l-0.000976562 26.001c35.333 5.33301 62.666 17 81.999 35s39.333 52 60 102l331 808h26l353 -812c24 -54 44.667 -89.667 62 -107c6.66699 -7.33301 18.334 -14 35.001 -20c15.333 -4 34 -6 56 -6v-26h-387v26c10.667 0 20.334 0.333008 29.001 1
s16.334 2 23.001 4c15.333 5.33301 26 11 32 17l16 19l5 25c0 21.333 -11 57 -33 107l-241 556l-224 -549c-21.333 -52.667 -32 -90 -32 -112c0 -18.667 6.66699 -34.334 20 -47.001c5.33301 -4 15.333 -9.33301 30 -16c15.333 -3.33301 31.666 -5 48.999 -5v-26h-292z
M362.999 339.001l113 -107l108 107l-108 107zM834.999 1390l-295 -345h-34l105 345h224z" />
    <glyph glyph-name="acircumflex" unicode="&#xe2;" horiz-adv-x="1039" 
d="M20 0l-0.000976562 26.001c35.333 5.33301 62.666 17 81.999 35s39.333 52 60 102l331 808h26l353 -812c24 -54 44.667 -89.667 62 -107c6.66699 -7.33301 18.334 -14 35.001 -20c15.333 -4 34 -6 56 -6v-26h-387v26c10.667 0 20.334 0.333008 29.001 1
s16.334 2 23.001 4c15.333 5.33301 26 11 32 17l16 19l5 25c0 21.333 -11 57 -33 107l-241 556l-224 -549c-21.333 -52.667 -32 -90 -32 -112c0 -18.667 6.66699 -34.334 20 -47.001c5.33301 -4 15.333 -9.33301 30 -16c15.333 -3.33301 31.666 -5 48.999 -5v-26h-292z
M362.999 339.001l113 -107l108 107l-108 107zM428.999 1385h184l190 -331h-31l-255 213l-247 -213h-30z" />
    <glyph glyph-name="atilde" unicode="&#xe3;" horiz-adv-x="1039" 
d="M20 0l-0.000976562 26.001c35.333 5.33301 62.666 17 81.999 35s39.333 52 60 102l331 808h26l353 -812c24 -54 44.667 -89.667 62 -107c6.66699 -7.33301 18.334 -14 35.001 -20c15.333 -4 34 -6 56 -6v-26h-387v26c10.667 0 20.334 0.333008 29.001 1
s16.334 2 23.001 4c15.333 5.33301 26 11 32 17l16 19l5 25c0 21.333 -11 57 -33 107l-241 556l-224 -549c-21.333 -52.667 -32 -90 -32 -112c0 -18.667 6.66699 -34.334 20 -47.001c5.33301 -4 15.333 -9.33301 30 -16c15.333 -3.33301 31.666 -5 48.999 -5v-26h-292z
M362.999 339.001l113 -107l108 107l-108 107zM183.999 1097l-31.999 0.00195312c0 45.333 4.83301 84.333 14.5 117s23.834 59.667 42.501 81c35.333 40.667 79 61 131 61c27.333 0 53.666 -4.66699 78.999 -14s66.166 -32.5 122.499 -69.5s97.5 -55.5 123.5 -55.5
c19.333 0 38 9 56 27c16 18 29 55.333 39 112h31c0 -62.667 -8.16699 -111.834 -24.5 -147.501s-40.166 -63.834 -71.499 -84.501c-15.333 -10.667 -30.5 -18.5 -45.5 -23.5s-31.167 -7.5 -48.5 -7.5c-52.667 0 -118 26.667 -196 80c-40.667 27.333 -68.667 44.333 -84 51
c-7.33301 3.33301 -12.333 5.33301 -15 6c-8.66699 2.66699 -18.334 4 -29.001 4c-25.333 0 -47 -12 -65 -36c-6 -9.33301 -15.333 -43 -28 -101z" />
    <glyph glyph-name="adieresis" unicode="&#xe4;" horiz-adv-x="1039" 
d="M20 0l-0.000976562 26.001c35.333 5.33301 62.666 17 81.999 35s39.333 52 60 102l331 808h26l353 -812c24 -54 44.667 -89.667 62 -107c6.66699 -7.33301 18.334 -14 35.001 -20c15.333 -4 34 -6 56 -6v-26h-387v26c10.667 0 20.334 0.333008 29.001 1
s16.334 2 23.001 4c15.333 5.33301 26 11 32 17l16 19l5 25c0 21.333 -11 57 -33 107l-241 556l-224 -549c-21.333 -52.667 -32 -90 -32 -112c0 -18.667 6.66699 -34.334 20 -47.001c5.33301 -4 15.333 -9.33301 30 -16c15.333 -3.33301 31.666 -5 48.999 -5v-26h-292z
M724.999 1128c0 -15.333 -7 -31.999 -21 -49.999c-16.667 -14.667 -33.334 -22 -50.001 -22c-7.33301 0 -14.166 1.16699 -20.499 3.5s-11.333 4.83301 -15 7.5s-8.16699 6.33398 -13.5 11.001c-14 15.333 -21 32 -21 50c0 15.333 7 31.666 21 48.999c6 6 13 11.167 21 15.5
s17.333 6.83301 28 7.5c18 0 34.333 -7.33301 49 -22s22 -31.334 22 -50.001zM439.999 1128c0 -16 -7 -32.6699 -21 -50.0029c-14.667 -14.667 -31.667 -22 -51 -22c-16.667 0 -32.5 7.33301 -47.5 22s-22.5 31.334 -22.5 50.001c0 16.667 7 32.834 21 48.501
s30.333 23.5 49 23.5c18 0 34.5 -7.16699 49.5 -21.5s22.5 -31.166 22.5 -50.499zM362.999 338.999l113 -107l108 107l-108 107z" />
    <glyph glyph-name="aring" unicode="&#xe5;" horiz-adv-x="1039" 
d="M20 0l-0.000976562 26.001c35.333 5.33301 62.666 17 81.999 35s39.333 52 60 102l331 808h26l353 -812c24 -54 44.667 -89.667 62 -107c6.66699 -7.33301 18.334 -14 35.001 -20c15.333 -4 34 -6 56 -6v-26h-387v26c10.667 0 20.334 0.333008 29.001 1
s16.334 2 23.001 4c15.333 5.33301 26 11 32 17l16 19l5 25c0 21.333 -11 57 -33 107l-241 556l-224 -549c-21.333 -52.667 -32 -90 -32 -112c0 -18.667 6.66699 -34.334 20 -47.001c5.33301 -4 15.333 -9.33301 30 -16c15.333 -3.33301 31.666 -5 48.999 -5v-26h-292z
M651.999 1141c0 -19.333 -2.83105 -36.5 -8.49805 -51.5s-16.834 -31.167 -33.501 -48.5c-28 -28 -61.333 -42 -100 -42c-37.333 0 -70.5 13.5 -99.5 40.5s-43.5 60.833 -43.5 101.5c0 19.333 3.33301 37 10 53c5.33301 16.667 15.666 32.667 30.999 48
c27.333 28 61.333 42 102 42c15.333 0 25 -0.666992 29 -2c6.66699 0 14.667 -2.33301 24 -7l25 -13c6 -3.33301 13.333 -9.33301 22 -18c12 -12 22 -27.167 30 -45.5s12 -37.5 12 -57.5zM598.001 1141c0 21.333 -8.83301 41.5 -26.5 60.5s-38.167 28.5 -61.5 28.5
c-21.333 0 -41.5 -8.83301 -60.5 -26.5s-28.5 -38.5 -28.5 -62.5c0 -21.333 9 -41.333 27 -60s38.667 -28 62 -28c20 0 40.667 8.66699 62 26c17.333 19.333 26 40 26 62zM363.001 339.001l113 -107l108 107l-108 107z" />
    <glyph glyph-name="ae" unicode="&#xe6;" horiz-adv-x="1275" 
d="M719 470l-0.000976562 -313.001c0 -42.667 1.5 -68.167 4.5 -76.5s9.33301 -15.166 19 -20.499s28.5 -8 56.5 -8h128c48.667 0 87.667 4 117 12c27.333 8.66699 54 25 80 49c34.667 32.667 62.667 74.667 84 126h27l-76 -239h-712v26h35
c36.667 0 65.334 11.333 86.001 34c10.667 14.667 16 50.334 16 107.001v730l-364 -693c-32.667 -64 -49 -104.333 -49 -121c0 -10.667 7 -22.667 21 -36c4 -2.66699 9.33301 -5.5 16 -8.5s12.667 -5.5 18 -7.5l23 -4l32 -1v-26h-298v26c20 0 37.667 4 53 12
c6.66699 4 14.167 10 22.5 18s16.5 17.333 24.5 28c14 17.333 36.333 53.333 67 108l288 539c36 67.333 54 112.666 54 135.999c0 12.667 -6.33301 24.334 -19 35.001c-8 4.66699 -20.667 9.66699 -38 15c-18 4 -39.333 6 -64 6v26h778l10 -208h-24
c-0.666992 10 -2.16699 20.667 -4.5 32s-4.83301 21.666 -7.5 30.999c-6 18.667 -13.667 34 -23 46c-12 18.667 -30 32 -54 40l-35 5l-60 2h-232v-376h183l82 84l108 -107l-108 -107l-82 79h-183z" />
    <glyph glyph-name="ccedilla" unicode="&#xe7;" horiz-adv-x="956" 
d="M902 460c0 -116 -32.3301 -218.332 -96.9971 -306.999c-87.333 -116.667 -209 -175 -365 -175c-89.333 0 -165.333 19.667 -228 59s-117.667 101.333 -165 186l22 14c54 -76.667 105.667 -129.334 155 -158.001c46 -26 100.333 -39 163 -39
c71.333 0 134.5 16.667 189.5 50s96.333 81.833 124 145.5s41.5 137.834 41.5 222.501c0 103.333 -14.667 190.666 -44 261.999c-15.333 36.667 -33 67 -53 91c-18.667 24.667 -41.334 45.334 -68.001 62.001c-50.667 31.333 -107.334 47 -170.001 47
c-74 0 -137.667 -20.833 -191 -62.5s-95.333 -111.5 -126 -209.5h-21l21 323h25c4 -21.333 12.667 -39 26 -53c10.667 -8.66699 21.667 -13 33 -13c6 0 20 5 42 15c67.333 34 135 51 203 51c86.667 0 167.167 -21.667 241.5 -65s133.166 -104.833 176.499 -184.5
s65 -166.834 65 -261.501zM321.003 479.001l113 -107l108 107l-108 107zM393.003 11.001l41.999 0.00292969l-35 -55c28.667 -6.66699 50.334 -19.334 65.001 -38.001c6.66699 -8.66699 12 -18.334 16 -29.001s6 -22.334 6 -35.001c0 -32.667 -14 -62 -42 -88
s-64 -39 -108 -39l-29 1c-12 0 -24.333 1.33301 -37 4v30l33 -3c22.667 0 42.5 7.83301 59.5 23.5s25.5 33.5 25.5 53.5c0 14 -5.33301 26.167 -16 36.5s-24 15.5 -40 15.5l-18 -1z" />
    <glyph glyph-name="egrave" unicode="&#xe8;" horiz-adv-x="876" 
d="M178 1390h223l106 -354h-35zM300 522l0.00195312 374.999h260c48 0 81 -3.33301 99 -10c24 -11.333 41.333 -25.666 52 -42.999c12 -17.333 23 -51.666 33 -102.999h27l-10 208h-732v-26h34c38.667 0 66.667 -9.33301 84 -28c12 -12.667 18 -49.667 18 -111v-617
c0 -46 -2.83301 -76.5 -8.5 -91.5s-15.5 -26.167 -29.5 -33.5c-20.667 -10.667 -42 -16 -64 -16h-34v-26h732l82 238h-28c-30.667 -58.667 -60.334 -102.334 -89.001 -131.001c-23.333 -22.667 -46.5 -37.5 -69.5 -44.5s-62.167 -10.5 -117.5 -10.5h-161
c-24.667 0 -42.334 2.33301 -53.001 7c-9.33301 6.66699 -15.833 14.167 -19.5 22.5s-5.5 33.833 -5.5 76.5v313h180l83 -79l108 107l-108 106l-83 -83h-180z" />
    <glyph glyph-name="eacute" unicode="&#xe9;" horiz-adv-x="876" 
d="M785 1390l-295 -345h-34l105 345h224zM300 522l0.00195312 374.999h260c48 0 81 -3.33301 99 -10c24 -11.333 41.333 -25.666 52 -42.999c12 -17.333 23 -51.666 33 -102.999h27l-10 208h-732v-26h34c38.667 0 66.667 -9.33301 84 -28c12 -12.667 18 -49.667 18 -111
v-617c0 -46 -2.83301 -76.5 -8.5 -91.5s-15.5 -26.167 -29.5 -33.5c-20.667 -10.667 -42 -16 -64 -16h-34v-26h732l82 238h-28c-30.667 -58.667 -60.334 -102.334 -89.001 -131.001c-23.333 -22.667 -46.5 -37.5 -69.5 -44.5s-62.167 -10.5 -117.5 -10.5h-161
c-24.667 0 -42.334 2.33301 -53.001 7c-9.33301 6.66699 -15.833 14.167 -19.5 22.5s-5.5 33.833 -5.5 76.5v313h180l83 -79l108 107l-108 106l-83 -83h-180z" />
    <glyph glyph-name="ecircumflex" unicode="&#xea;" horiz-adv-x="876" 
d="M329 1385h184l190 -331h-31l-246 213l-256 -213h-30zM300 522l0.00195312 374.999h260c48 0 81 -3.33301 99 -10c24 -11.333 41.333 -25.666 52 -42.999c12 -17.333 23 -51.666 33 -102.999h27l-10 208h-732v-26h34c38.667 0 66.667 -9.33301 84 -28
c12 -12.667 18 -49.667 18 -111v-617c0 -46 -2.83301 -76.5 -8.5 -91.5s-15.5 -26.167 -29.5 -33.5c-20.667 -10.667 -42 -16 -64 -16h-34v-26h732l82 238h-28c-30.667 -58.667 -60.334 -102.334 -89.001 -131.001c-23.333 -22.667 -46.5 -37.5 -69.5 -44.5
s-62.167 -10.5 -117.5 -10.5h-161c-24.667 0 -42.334 2.33301 -53.001 7c-9.33301 6.66699 -15.833 14.167 -19.5 22.5s-5.5 33.833 -5.5 76.5v313h180l83 -79l108 107l-108 106l-83 -83h-180z" />
    <glyph glyph-name="edieresis" unicode="&#xeb;" horiz-adv-x="876" 
d="M154 1097l-31.999 0.00195312c0 45.333 4.83301 84.333 14.5 117s23.834 59.667 42.501 81c35.333 40.667 79 61 131 61c27.333 0 53.666 -4.66699 78.999 -14s66.166 -32.5 122.499 -69.5s97.5 -55.5 123.5 -55.5c19.333 0 38 9 56 27c16 18 29 55.333 39 112h31
c0 -62.667 -8.16699 -111.834 -24.5 -147.501s-40.166 -63.834 -71.499 -84.501c-15.333 -10.667 -30.5 -18.5 -45.5 -23.5s-31.167 -7.5 -48.5 -7.5c-52.667 0 -118 26.667 -196 80c-40.667 27.333 -68.667 44.333 -84 51c-7.33301 3.33301 -12.333 5.33301 -15 6
c-8.66699 2.66699 -18.334 4 -29.001 4c-25.333 0 -47 -12 -65 -36c-6 -9.33301 -15.333 -43 -28 -101zM300.001 522.002l0.00195312 374.999h260c48 0 81 -3.33301 99 -10c24 -11.333 41.333 -25.666 52 -42.999c12 -17.333 23 -51.666 33 -102.999h27l-10 208h-732v-26h34
c38.667 0 66.667 -9.33301 84 -28c12 -12.667 18 -49.667 18 -111v-617c0 -46 -2.83301 -76.5 -8.5 -91.5s-15.5 -26.167 -29.5 -33.5c-20.667 -10.667 -42 -16 -64 -16h-34v-26h732l82 238h-28c-30.667 -58.667 -60.334 -102.334 -89.001 -131.001
c-23.333 -22.667 -46.5 -37.5 -69.5 -44.5s-62.167 -10.5 -117.5 -10.5h-161c-24.667 0 -42.334 2.33301 -53.001 7c-9.33301 6.66699 -15.833 14.167 -19.5 22.5s-5.5 33.833 -5.5 76.5v313h180l83 -79l108 107l-108 106l-83 -83h-180z" />
    <glyph glyph-name="igrave" unicode="&#xec;" horiz-adv-x="477" 
d="M442 26v-26h-406v26h33c37.333 0 66 11.333 86 34c10.667 14.667 16 50.667 16 108v613c0 48 -3 79.667 -9 95c-3.33301 11.333 -12.666 21.333 -27.999 30c-20.667 11.333 -42.334 17 -65.001 17h-33v26h406v-26h-34c-38 0 -66.333 -11.333 -85 -34
c-11.333 -15.333 -17 -51.333 -17 -108v-613c0 -46 3 -77.667 9 -95c4 -9.33301 14.333 -20 31 -32c17.333 -10 38 -15 62 -15h34zM-22 1390h223l106 -354h-35z" />
    <glyph glyph-name="iacute" unicode="&#xed;" horiz-adv-x="477" 
d="M442 26v-26h-406v26h33c37.333 0 66 11.333 86 34c10.667 14.667 16 50.667 16 108v613c0 48 -3 79.667 -9 95c-3.33301 11.333 -12.666 21.333 -27.999 30c-20.667 11.333 -42.334 17 -65.001 17h-33v26h406v-26h-34c-38 0 -66.333 -11.333 -85 -34
c-11.333 -15.333 -17 -51.333 -17 -108v-613c0 -46 3 -77.667 9 -95c4 -9.33301 14.333 -20 31 -32c17.333 -10 38 -15 62 -15h34zM565 1390l-295 -345h-34l105 345h224z" />
    <glyph glyph-name="icircumflex" unicode="&#xee;" horiz-adv-x="477" 
d="M442 26v-26h-406v26h33c37.333 0 66 11.333 86 34c10.667 14.667 16 50.667 16 108v613c0 48 -3 79.667 -9 95c-3.33301 11.333 -12.666 21.333 -27.999 30c-20.667 11.333 -42.334 17 -65.001 17h-33v26h406v-26h-34c-38 0 -66.333 -11.333 -85 -34
c-11.333 -15.333 -17 -51.333 -17 -108v-613c0 -46 3 -77.667 9 -95c4 -9.33301 14.333 -20 31 -32c17.333 -10 38 -15 62 -15h34zM129 1385h184l190 -331h-31l-255 204l-247 -204h-30z" />
    <glyph glyph-name="idieresis" unicode="&#xef;" horiz-adv-x="477" 
d="M442 26v-26h-406v26h33c37.333 0 66 11.333 86 34c10.667 14.667 16 50.667 16 108v613c0 48 -3 79.667 -9 95c-3.33301 11.333 -12.666 21.333 -27.999 30c-20.667 11.333 -42.334 17 -65.001 17h-33v26h406v-26h-34c-38 0 -66.333 -11.333 -85 -34
c-11.333 -15.333 -17 -51.333 -17 -108v-613c0 -46 3 -77.667 9 -95c4 -9.33301 14.333 -20 31 -32c17.333 -10 38 -15 62 -15h34zM-46 1097l-31.9971 0.00292969c0 43.333 4.66699 81.666 14 114.999s23.666 61 42.999 83c35.333 40.667 79 61 131 61
c27.333 0 53.666 -4.66699 78.999 -14s66.166 -32.5 122.499 -69.5s97.5 -55.5 123.5 -55.5c19.333 0 38 9 56 27c16 18 29 55.333 39 112h31c0 -62.667 -8.16699 -111.834 -24.5 -147.501s-40.166 -63.834 -71.499 -84.501c-15.333 -10.667 -30.5 -18.5 -45.5 -23.5
s-31.167 -7.5 -48.5 -7.5c-52.667 0 -118 26.667 -196 80c-40.667 27.333 -68.667 44.333 -84 51c-7.33301 3.33301 -12.333 5.33301 -15 6c-8.66699 2.66699 -18.334 4 -29.001 4c-25.333 0 -47 -12 -65 -36c-6 -9.33301 -15.333 -43 -28 -101z" />
    <glyph glyph-name="eth" unicode="&#xf0;" horiz-adv-x="1035" 
d="M24 0l0.000976562 26.002h36c39.333 0 68 13 86 39c10 15.333 15 49.666 15 102.999v307h-137v51h137v255c0 60.667 -6.66699 97.667 -20 111c-18.667 20.667 -45.667 31 -81 31h-36v26h387c147.333 0 255.666 -16.5 324.999 -49.5s127.333 -86.333 174 -160
s70 -159.834 70 -258.501c0 -132 -42.833 -245.167 -128.5 -339.5s-220.167 -141.5 -403.5 -141.5h-424zM296.001 70.002l82 -14.999l43 -5h24c108 0 197.667 38 269 114s107 179.333 107 310c0 129.333 -35.667 232.166 -107 308.499s-162.666 114.5 -273.999 114.5l-33 -1
h-13.5c-3.66699 0 -10.834 -1.33301 -21.501 -4c-14 0 -29 -2 -45 -6l-31 -9v-351v-51v-405zM398.001 364.003l113 -107l108 107l-108 106zM398.001 587.003l113 -107l108 107l-108 107z" />
    <glyph glyph-name="ntilde" unicode="&#xf1;" horiz-adv-x="939" 
d="M892 754l-7.99805 1c-18 0 -36.333 -9.66699 -55 -29l-27 -36c-4 -4.66699 -6.66699 -8.66699 -8 -12l-3 -21l-1 -25v-459c0 -56.667 6.33301 -94.667 19 -114c13.333 -18 42.666 -29 87.999 -33v-26h-349v26c46 4 75.5 15.333 88.5 34s19.5 56.334 19.5 113.001v501
c0 26 -2 44.667 -6 56l-7 6c-8 16.667 -20.333 30.667 -37 42c-15.333 12 -30.333 18 -45 18l-185 38c-31.333 0 -50 -1.5 -56 -4.5s-12 -11.5 -18 -25.5c-3.33301 -15.333 -5 -45.666 -5 -90.999v-540c0 -58 6 -96 18 -114c12 -16 41.667 -27 89 -33v-26h-364v26l35 1
c8 0 17 2.33301 27 7c15.333 4 27.666 11 36.999 21c15.333 17.333 23 56.666 23 117.999v103l2 187v174v36v30v24v20v15v12v10v20c0 8.66699 -0.666992 14 -2 16c-4 11.333 -13 23.666 -27 36.999l-22 21c-22 20.667 -44.333 31 -67 31l1 40l656 -135l192 -41z
M204.002 1097l-31.999 0.00195312c0 45.333 4.83301 84.333 14.5 117s23.834 59.667 42.501 81c35.333 40.667 79 61 131 61c27.333 0 53.666 -4.66699 78.999 -14s66.166 -32.5 122.499 -69.5s97.5 -55.5 123.5 -55.5c19.333 0 38 9 56 27c16 18 29 55.333 39 112h31
c0 -62.667 -8.16699 -111.834 -24.5 -147.501s-40.166 -63.834 -71.499 -84.501c-15.333 -10.667 -30.5 -18.5 -45.5 -23.5s-31.167 -7.5 -48.5 -7.5c-52.667 0 -118 26.667 -196 80c-40.667 27.333 -68.667 44.333 -84 51c-7.33301 3.33301 -12.333 5.33301 -15 6
c-8.66699 2.66699 -18.334 4 -29.001 4c-25.333 0 -47 -12 -65 -36c-6 -9.33301 -15.333 -43 -28 -101z" />
    <glyph glyph-name="ograve" unicode="&#xf2;" horiz-adv-x="1035" 
d="M524 971c121.333 0 227.666 -47.167 318.999 -141.5s137 -210.833 137 -349.5c0 -144 -45.667 -263.667 -137 -359s-201.333 -143 -330 -143c-129.333 0 -238.833 46.5 -328.5 139.5s-134.5 213.167 -134.5 360.5c0 149.333 51.333 272.333 154 369
c88.667 82.667 195.334 124 320.001 124zM511 920c-84.667 0 -152.667 -31.667 -204 -95c-64 -78 -96 -192.667 -96 -344c0 -153.333 33 -272.666 99 -357.999c50 -63.333 117.333 -95 202 -95c88 0 161.333 35 220 105s88 179.333 88 328
c0 161.333 -32 282.666 -96 363.999c-51.333 63.333 -122.333 95 -213 95zM228 1390h223l106 -354h-35z" />
    <glyph glyph-name="oacute" unicode="&#xf3;" horiz-adv-x="1035" 
d="M524 971c121.333 0 227.666 -47.167 318.999 -141.5s137 -210.833 137 -349.5c0 -144 -45.667 -263.667 -137 -359s-201.333 -143 -330 -143c-129.333 0 -238.833 46.5 -328.5 139.5s-134.5 213.167 -134.5 360.5c0 149.333 51.333 272.333 154 369
c88.667 82.667 195.334 124 320.001 124zM511 920c-84.667 0 -152.667 -31.667 -204 -95c-64 -78 -96 -192.667 -96 -344c0 -153.333 33 -272.666 99 -357.999c50 -63.333 117.333 -95 202 -95c88 0 161.333 35 220 105s88 179.333 88 328
c0 161.333 -32 282.666 -96 363.999c-51.333 63.333 -122.333 95 -213 95zM815 1390l-295 -345h-34l105 345h224z" />
    <glyph glyph-name="ocircumflex" unicode="&#xf4;" horiz-adv-x="1035" 
d="M524 971c121.333 0 227.666 -47.167 318.999 -141.5s137 -210.833 137 -349.5c0 -144 -45.667 -263.667 -137 -359s-201.333 -143 -330 -143c-129.333 0 -238.833 46.5 -328.5 139.5s-134.5 213.167 -134.5 360.5c0 149.333 51.333 272.333 154 369
c88.667 82.667 195.334 124 320.001 124zM511 920c-84.667 0 -152.667 -31.667 -204 -95c-64 -78 -96 -192.667 -96 -344c0 -153.333 33 -272.666 99 -357.999c50 -63.333 117.333 -95 202 -95c88 0 161.333 35 220 105s88 179.333 88 328
c0 161.333 -32 282.666 -96 363.999c-51.333 63.333 -122.333 95 -213 95zM429 1385h184l190 -331h-31l-246 213l-256 -213h-30z" />
    <glyph glyph-name="otilde" unicode="&#xf5;" horiz-adv-x="1035" 
d="M524 971c121.333 0 227.666 -47.167 318.999 -141.5s137 -210.833 137 -349.5c0 -144 -45.667 -263.667 -137 -359s-201.333 -143 -330 -143c-129.333 0 -238.833 46.5 -328.5 139.5s-134.5 213.167 -134.5 360.5c0 149.333 51.333 272.333 154 369
c88.667 82.667 195.334 124 320.001 124zM511 920c-84.667 0 -152.667 -31.667 -204 -95c-64 -78 -96 -192.667 -96 -344c0 -153.333 33 -272.666 99 -357.999c50 -63.333 117.333 -95 202 -95c88 0 161.333 35 220 105s88 179.333 88 328
c0 161.333 -32 282.666 -96 363.999c-51.333 63.333 -122.333 95 -213 95zM254 1097l-31.999 0.00195312c0 45.333 4.83301 84.333 14.5 117s23.834 59.667 42.501 81c35.333 40.667 79 61 131 61c27.333 0 53.666 -4.66699 78.999 -14s66.166 -32.5 122.499 -69.5
s97.5 -55.5 123.5 -55.5c19.333 0 38 9 56 27c16 18 29 55.333 39 112h31c0 -62.667 -8.16699 -111.834 -24.5 -147.501s-40.166 -63.834 -71.499 -84.501c-15.333 -10.667 -30.5 -18.5 -45.5 -23.5s-31.167 -7.5 -48.5 -7.5c-52.667 0 -118 26.667 -196 80
c-40.667 27.333 -68.667 44.333 -84 51c-7.33301 3.33301 -12.333 5.33301 -15 6c-8.66699 2.66699 -18.334 4 -29.001 4c-25.333 0 -47 -12 -65 -36c-6 -9.33301 -15.333 -43 -28 -101z" />
    <glyph glyph-name="odieresis" unicode="&#xf6;" horiz-adv-x="1035" 
d="M524 971c121.333 0 227.666 -47.167 318.999 -141.5s137 -210.833 137 -349.5c0 -144 -45.667 -263.667 -137 -359s-201.333 -143 -330 -143c-129.333 0 -238.833 46.5 -328.5 139.5s-134.5 213.167 -134.5 360.5c0 149.333 51.333 272.333 154 369
c88.667 82.667 195.334 124 320.001 124zM511 920c-84.667 0 -152.667 -31.667 -204 -95c-64 -78 -96 -192.667 -96 -344c0 -153.333 33 -272.666 99 -357.999c50 -63.333 117.333 -95 202 -95c88 0 161.333 35 220 105s88 179.333 88 328
c0 161.333 -32 282.666 -96 363.999c-51.333 63.333 -122.333 95 -213 95zM725 1128c0 -15.333 -7 -31.999 -21 -49.999c-16.667 -14.667 -33.334 -22 -50.001 -22c-7.33301 0 -14.166 1.16699 -20.499 3.5s-11.333 4.83301 -15 7.5s-8.16699 6.33398 -13.5 11.001
c-14 15.333 -21 32 -21 50c0 15.333 7 31.666 21 48.999c6 6 13 11.167 21 15.5s17.333 6.83301 28 7.5c18 0 34.333 -7.33301 49 -22s22 -31.334 22 -50.001zM440 1128c0 -16 -7 -32.6699 -21 -50.0029c-14.667 -14.667 -31.667 -22 -51 -22
c-16.667 0 -32.5 7.33301 -47.5 22s-22.5 31.334 -22.5 50.001c0 16.667 7 32.834 21 48.501s30.333 23.5 49 23.5c18 0 34.5 -7.16699 49.5 -21.5s22.5 -31.166 22.5 -50.499z" />
    <glyph glyph-name="divide" unicode="&#xf7;" horiz-adv-x="792" 
d="M719 635v99l-656 4l-1 -102zM407 1078c27.333 0 50.666 -9.66699 69.999 -29s29 -42.666 29 -69.999s-9.66699 -50.666 -29 -69.999s-42.666 -29 -69.999 -29s-50.666 9.66699 -69.999 29s-29 42.666 -29 69.999s9.66699 50.666 29 69.999s42.666 29 69.999 29zM411 495
c27.333 0 50.666 -9.66699 69.999 -29s29 -42.666 29 -69.999s-9.66699 -50.666 -29 -69.999s-42.666 -29 -69.999 -29s-50.666 9.66699 -69.999 29s-29 42.666 -29 69.999s9.66699 50.666 29 69.999s42.666 29 69.999 29z" />
    <glyph glyph-name="oslash" unicode="&#xf8;" horiz-adv-x="1035" 
d="M803 867l91.999 112.999l40 -31l-93 -117c48 -52 83.167 -106.167 105.5 -162.5s33.5 -119.166 33.5 -188.499c0 -158 -57 -287.667 -171 -389c-89.333 -76 -185.666 -114 -288.999 -114c-24 0 -48 2 -72 6s-49.833 10.5 -77.5 19.5s-53.167 19.5 -76.5 31.5
s-44.666 26.333 -63.999 43l-90 -111l-42 33l93 115c-94 96 -141 219 -141 369c0 136.667 45.667 252 137 346s201.666 141 330.999 141c106 0 200.667 -34.667 284 -104zM290.999 151.999c25.333 -38 52.333 -65.999 81 -83.999c42 -26 88.333 -39 139 -39
c47.333 0 86.833 7 118.5 21s61.167 36.667 88.5 68c24 26.667 47.667 70 71 130c8.66699 26.667 16 58.334 22 95.001c2.66699 17.333 4.66699 35.166 6 53.499s2 39.166 2 62.499l-3 82c0 13.333 -0.333008 22.5 -1 27.5s-3.66699 21.833 -9 50.5
c-4 33.333 -15.667 75 -35 125l-28 50c-53.333 84.667 -129.333 127 -228 127c-42.667 0 -77 -5 -103 -15c-32 -14 -63.333 -36.333 -94 -67c-34 -39.333 -60.333 -89.5 -79 -150.5s-28 -127.833 -28 -200.5c0 -106.667 17 -202 51 -286z" />
    <glyph glyph-name="ugrave" unicode="&#xf9;" horiz-adv-x="1035" 
d="M1018 949l-0.00195312 -26c-32 -4 -57.667 -14.667 -77 -32c-22 -20.667 -43.667 -55.667 -65 -105l-331 -808h-26l-356 819l-24 50l-14 27l-19 18c-7.33301 6 -15.666 11 -24.999 15c-13.333 6.66699 -36 12 -68 16v26h387v-26c-43.333 -4 -71.666 -11.667 -84.999 -23
c-13.333 -10 -20 -23.333 -20 -40c0 -23.333 11 -60 33 -110l241 -556l224 549c22 55.333 33 93 33 113c0 12.667 -6.33301 25.167 -19 37.5s-36 21.5 -70 27.5l-12 2v26h293zM227.998 1390h223l106 -354h-35z" />
    <glyph glyph-name="uacute" unicode="&#xfa;" horiz-adv-x="1035" 
d="M1018 949l-0.00195312 -26c-32 -4 -57.667 -14.667 -77 -32c-22 -20.667 -43.667 -55.667 -65 -105l-331 -808h-26l-356 819l-24 50l-14 27l-19 18c-7.33301 6 -15.666 11 -24.999 15c-13.333 6.66699 -36 12 -68 16v26h387v-26c-43.333 -4 -71.666 -11.667 -84.999 -23
c-13.333 -10 -20 -23.333 -20 -40c0 -23.333 11 -60 33 -110l241 -556l224 549c22 55.333 33 93 33 113c0 12.667 -6.33301 25.167 -19 37.5s-36 21.5 -70 27.5l-12 2v26h293zM914.998 1390l-295 -345h-34l105 345h224z" />
    <glyph glyph-name="ucircumflex" unicode="&#xfb;" horiz-adv-x="1035" 
d="M1018 949l-0.00195312 -26c-32 -4 -57.667 -14.667 -77 -32c-22 -20.667 -43.667 -55.667 -65 -105l-331 -808h-26l-356 819l-24 50l-14 27l-19 18c-7.33301 6 -15.666 11 -24.999 15c-13.333 6.66699 -36 12 -68 16v26h387v-26c-43.333 -4 -71.666 -11.667 -84.999 -23
c-13.333 -10 -20 -23.333 -20 -40c0 -23.333 11 -60 33 -110l241 -556l224 549c22 55.333 33 93 33 113c0 12.667 -6.33301 25.167 -19 37.5s-36 21.5 -70 27.5l-12 2v26h293zM428.998 1385h184l190 -331h-31l-246 213l-256 -213h-30z" />
    <glyph glyph-name="udieresis" unicode="&#xfc;" horiz-adv-x="1035" 
d="M1018 949l-0.00195312 -26c-32 -4 -57.667 -14.667 -77 -32c-22 -20.667 -43.667 -55.667 -65 -105l-331 -808h-26l-356 819l-24 50l-14 27l-19 18c-7.33301 6 -15.666 11 -24.999 15c-13.333 6.66699 -36 12 -68 16v26h387v-26c-43.333 -4 -71.666 -11.667 -84.999 -23
c-13.333 -10 -20 -23.333 -20 -40c0 -23.333 11 -60 33 -110l241 -556l224 549c22 55.333 33 93 33 113c0 12.667 -6.33301 25.167 -19 37.5s-36 21.5 -70 27.5l-12 2v26h293zM774.998 1128c0 -15.333 -7 -31.999 -21 -49.999c-16.667 -14.667 -33.334 -22 -50.001 -22
c-7.33301 0 -14.166 1.16699 -20.499 3.5s-11.333 4.83301 -15 7.5s-8.16699 6.33398 -13.5 11.001c-14 15.333 -21 32 -21 50c0 15.333 7 31.666 21 48.999c6 6 13 11.167 21 15.5s17.333 6.83301 28 7.5c18 0 34.333 -7.33301 49 -22s22 -31.334 22 -50.001zM489.998 1128
c0 -16 -7 -32.6699 -21 -50.0029c-14.667 -14.667 -31.667 -22 -51 -22c-16.667 0 -32.5 7.33301 -47.5 22s-22.5 31.334 -22.5 50.001c0 16.667 7 32.834 21 48.501s30.333 23.5 49 23.5c18 0 34.5 -7.16699 49.5 -21.5s22.5 -31.166 22.5 -50.499z" />
    <glyph glyph-name="yacute" unicode="&#xfd;" horiz-adv-x="1058" 
d="M596 459c62 0 109.331 10.168 141.998 30.501s55.334 47.166 68.001 80.499c4.66699 12 10 33.333 16 64c4 27.333 6 57.333 6 90c0 41.333 4.33301 75.333 13 102c8 28 21.333 53.333 40 76c32.667 38.667 86.334 58 161.001 58v-26c-12 0 -22.833 -2.83301 -32.5 -8.5
s-17.167 -13.5 -22.5 -23.5c-9.33301 -18.667 -14 -58.334 -14 -119.001c0 -91.333 -9.16699 -160.333 -27.5 -207s-56.5 -86.667 -114.5 -120c-30 -15.333 -66 -27.333 -108 -36s-84.333 -13 -127 -13v-222c0 -55.333 2.83301 -90.333 8.5 -105s19.167 -27.667 40.5 -39
c21.333 -10 53 -15 95 -15v-26h-422v26c42 0 73 4.16699 93 12.5s33.5 21.5 40.5 39.5s10.5 53.667 10.5 107v222c-49.333 0 -93.333 4.16699 -132 12.5s-72.667 20.5 -102 36.5c-54.667 28.667 -92.167 67.167 -112.5 115.5s-30.5 118.833 -30.5 211.5
c0 60.667 -4.33301 99.667 -13 117c-8 18.667 -26.333 30 -55 34v26c45.333 0 82.666 -7 111.999 -21s53 -39 71 -75l12 -29l10 -35l6 -35l2 -41c0 -15.333 0.333008 -30.5 1 -45.5s2.33398 -31 5.00098 -48s4.66699 -28.333 6 -34s4.33301 -14.5 9 -26.5
c8 -29.333 29.667 -55.166 65 -77.499s84 -33.5 146 -33.5h134zM227.998 1390h223l106 -354h-35z" />
    <glyph glyph-name="thorn" unicode="&#xfe;" horiz-adv-x="797" 
d="M325 227c57.333 0 101.666 6.66797 132.999 20.001c42 17.333 73 42.666 93 75.999c8 14.667 15.333 37.334 22 68.001l6 42l2 41l-1 36c0 11.333 -1.66699 23 -5 35c0 13.333 -1.16699 23.833 -3.5 31.5s-6.5 17.167 -12.5 28.5c-14 28.667 -32.333 51 -55 67
s-49.667 28 -81 36l-36 5l-59 1h-171l2 62c0 54.667 -2.66699 87.334 -8 98.001c-4 12 -15.333 23 -34 33c-10 5.33301 -19.833 9.33301 -29.5 12s-21.167 4 -34.5 4h-28v26h405v-26h-28c-22.667 0 -44.667 -5.33301 -66 -16c-13.333 -6 -24 -17.333 -32 -34l-7 -18
c-2 -7.33301 -3 -21 -3 -41v-45h52c70.667 0 126.334 -3.66699 167.001 -11c43.333 -6 81.5 -19.833 114.5 -41.5s60.5 -50.5 82.5 -86.5l12 -27l10 -39l7 -48l3 -40l-1 -35c0 -12 -1.66699 -24.333 -5 -37c0 -14 -1.33301 -25.333 -4 -34l-10 -29
c-12.667 -30.667 -30 -56.334 -52 -77.001s-49 -38.667 -81 -54c-22 -10 -59.333 -19.667 -112 -29c-19.333 -2 -64 -3 -134 -3h-49v-43c0 -28 2 -47 6 -57l5 -11l13 -15c16 -17.333 43.667 -26 83 -26h29v-26h-405v26h27c44 0 75 13 93 39
c9.33301 13.333 14 47.666 14 102.999l-2 59h168zM195 479.001l113 -107l108 107l-108 107z" />
    <glyph glyph-name="ydieresis" unicode="&#xff;" horiz-adv-x="1058" 
d="M596 459c62 0 109.331 10.168 141.998 30.501s55.334 47.166 68.001 80.499c4.66699 12 10 33.333 16 64c4 27.333 6 57.333 6 90c0 41.333 4.33301 75.333 13 102c8 28 21.333 53.333 40 76c32.667 38.667 86.334 58 161.001 58v-26c-12 0 -22.833 -2.83301 -32.5 -8.5
s-17.167 -13.5 -22.5 -23.5c-9.33301 -18.667 -14 -58.334 -14 -119.001c0 -91.333 -9.16699 -160.333 -27.5 -207s-56.5 -86.667 -114.5 -120c-30 -15.333 -66 -27.333 -108 -36s-84.333 -13 -127 -13v-222c0 -55.333 2.83301 -90.333 8.5 -105s19.167 -27.667 40.5 -39
c21.333 -10 53 -15 95 -15v-26h-422v26c42 0 73 4.16699 93 12.5s33.5 21.5 40.5 39.5s10.5 53.667 10.5 107v222c-49.333 0 -93.333 4.16699 -132 12.5s-72.667 20.5 -102 36.5c-54.667 28.667 -92.167 67.167 -112.5 115.5s-30.5 118.833 -30.5 211.5
c0 60.667 -4.33301 99.667 -13 117c-8 18.667 -26.333 30 -55 34v26c45.333 0 82.666 -7 111.999 -21s53 -39 71 -75l12 -29l10 -35l6 -35l2 -41c0 -15.333 0.333008 -30.5 1 -45.5s2.33398 -31 5.00098 -48s4.66699 -28.333 6 -34s4.33301 -14.5 9 -26.5
c8 -29.333 29.667 -55.166 65 -77.499s84 -33.5 146 -33.5h134zM724.998 1128c0 -15.333 -7 -31.999 -21 -49.999c-16.667 -14.667 -33.334 -22 -50.001 -22c-7.33301 0 -14.166 1.16699 -20.499 3.5s-11.333 4.83301 -15 7.5s-8.16699 6.33398 -13.5 11.001
c-14 15.333 -21 32 -21 50c0 15.333 7 31.666 21 48.999c6 6 13 11.167 21 15.5s17.333 6.83301 28 7.5c18 0 34.333 -7.33301 49 -22s22 -31.334 22 -50.001zM439.998 1128c0 -16 -7 -32.6699 -21 -50.0029c-14.667 -14.667 -31.667 -22 -51 -22
c-16.667 0 -32.5 7.33301 -47.5 22s-22.5 31.334 -22.5 50.001c0 16.667 7 32.834 21 48.501s30.333 23.5 49 23.5c18 0 34.5 -7.16699 49.5 -21.5s22.5 -31.166 22.5 -50.499z" />
    <glyph glyph-name="dotlessi" unicode="&#x131;" horiz-adv-x="477" 
d="M442 26v-26h-406v26h33c37.333 0 66 11.333 86 34c10.667 14.667 16 50.667 16 108v613c0 48 -3 79.667 -9 95c-3.33301 11.333 -12.666 21.333 -27.999 30c-20.667 11.333 -42.334 17 -65.001 17h-33v26h406v-26h-34c-38 0 -66.333 -11.333 -85 -34
c-11.333 -15.333 -17 -51.333 -17 -108v-613c0 -46 3 -77.667 9 -95c4 -9.33301 14.333 -20 31 -32c17.333 -10 38 -15 62 -15h34z" />
    <glyph glyph-name="OE" unicode="&#x152;" horiz-adv-x="1821" 
d="M912 1042c0 86 -6.1709 142.669 -18.5039 170.002s-30.166 48.333 -53.499 63c-33.333 19.333 -75.666 29 -126.999 29c-82 0 -154 -24 -216 -72s-109.5 -122.833 -142.5 -224.5s-49.5 -214.834 -49.5 -339.501c0 -101.333 14 -200.333 42 -297s73 -173.5 135 -230.5
s137.667 -85.5 227 -85.5c50.667 0 90.834 8.16699 120.501 24.5s50.834 40.166 63.501 71.499s19 94.333 19 189v702zM1104 746.002h259.998l118 119l154 -152l-154 -153l-118 113h-260v-448c0 -52 3 -86 9 -102s17.333 -29 34 -39c10.667 -5.33301 36.334 -8 77.001 -8
h104c80.667 0 136.334 4.33301 167.001 13c32.667 8 65.667 27.667 99 59c50 44 93 108 129 192h40l-108 -340h-485l-171 -1l-167 -9l-145 -6c-111.333 0 -213.5 28 -306.5 84s-167.167 139.833 -222.5 251.5s-83 230.5 -83 356.5c0 169.333 47 321 141 455
c112 158 276.333 237 493 237l194 -7l160 -3l107 -2h473l12 -298h-32c-16 78 -30.333 127.667 -43 149c-15.333 23.333 -41 44 -77 62c-28 8.66699 -75.667 13 -143 13h-256v-536z" />
    <glyph glyph-name="oe" unicode="&#x153;" horiz-adv-x="1275" 
d="M638 729c0 61.333 -4.33203 101 -12.999 119c-8 20 -20.333 34.667 -37 44c-23.333 14 -53 21 -89 21c-57.333 0 -107.666 -17 -150.999 -51s-77 -86.333 -101 -157c-10.667 -34.667 -19 -72.167 -25 -112.5s-9 -81.833 -9 -124.5c0 -70.667 9.66699 -139.667 29 -207
s51.166 -121.333 95.499 -162s97.166 -61 158.499 -61c34.667 0 62.667 5.83301 84 17.5s36.333 28.5 45 50.5s13 66 13 132v491zM773.001 522l181.999 -0.000976562l82 83l108 -106l-108 -107l-82 79h-182v-314c0 -36 2 -59.5 6 -70.5s12 -20.167 24 -27.5
c7.33301 -4 25.333 -6 54 -6h73c55.333 0 94 3 116 9c12.667 3.33301 24.5 8.33301 35.5 15s22.5 15.667 34.5 27c34.667 30 64.667 74.667 90 134h28l-76 -238h-339l-120 -1l-117 -6l-101 -4c-79.333 0 -151.166 19.667 -215.499 59s-116 98 -155 176s-58.5 161 -58.5 249
c0 118.667 33 225 99 319c79.333 110.667 194.333 166 345 166l136 -5l112 -2l75 -2h331l8 -208h-22c-10.667 52.667 -20.667 87.334 -30 104.001c-10.667 16.667 -28.667 31 -54 43c-18 6 -51.333 9 -100 9h-179v-375z" />
    <glyph glyph-name="Scaron" unicode="&#x160;" horiz-adv-x="1251" 
d="M42 1356l891.003 -1274h-556c-84.667 0 -149.334 18 -194.001 54s-86 112.333 -124 229l-33 -6l64 -359h1104v37l-870 1238h434c73.333 0 125.166 -7.16699 155.499 -21.5s55.166 -37.833 74.499 -70.5c14 -23.333 29.667 -78.666 47 -165.999h38l-28 339h-1003z
M704.003 1434h-184l-190 331h31l273 -212l229 212h30z" />
    <glyph glyph-name="scaron" unicode="&#x161;" horiz-adv-x="876" 
d="M29 949l623.999 -891.999h-389c-59.333 0 -104.5 12.667 -135.5 38s-60.167 78.666 -87.5 159.999l-23 -4l45 -251h773v26l-609 866h304h32.5c9.66699 0 20.834 -1.33301 33.501 -4c16 -2 30 -6 42 -12c21.333 -9.33301 39 -25.333 53 -48
c9.33301 -15.333 20 -54 32 -116h27l-20 237h-702zM483.999 1054h-184l-190 331h31l273 -212l229 212h30z" />
    <glyph glyph-name="Ydieresis" unicode="&#x178;" horiz-adv-x="1511" 
d="M852 656c90 0 158.331 14.835 204.998 44.502s78.334 67.5 95.001 113.5c7.33301 22.667 14.333 53 21 91c2.66699 17.333 5 37.5 7 60.5s3 45.833 3 68.5c0 58 6.16699 106.667 18.5 146s31.5 75.333 57.5 108c46 56 122.333 84 229 84v-38
c-18.667 0 -34.167 -3.5 -46.5 -10.5s-22.833 -18.5 -31.5 -34.5c-13.333 -26.667 -20 -83.667 -20 -171c0 -130.667 -13.167 -229.834 -39.5 -297.501s-80.833 -123.834 -163.5 -168.501c-40.667 -21.333 -89.334 -38.333 -146.001 -51c-28 -6 -57.667 -10.667 -89 -14
s-64.666 -5 -99.999 -5v-317c0 -77.333 4 -127 12 -149s27.333 -41.333 58 -58c29.333 -14 74.333 -21 135 -21v-37h-602v37c60 0 104 6 132 18s47.167 30.333 57.5 55s15.5 76.334 15.5 155.001v317h-13h-54c-14.667 2 -25.334 3.33301 -32.001 4
c-13.333 0 -27.333 1.16699 -42 3.5s-30.334 5.5 -47.001 9.5c-54 12 -102.667 29.333 -146 52c-79.333 42 -133.166 97.667 -161.499 167s-42.5 169.666 -42.5 300.999c0 84 -6.16699 139.833 -18.5 167.5s-38.833 43.5 -79.5 47.5v38
c66.667 0 120.834 -10.167 162.501 -30.5s74.834 -56.166 99.501 -107.499c12 -25.333 22.167 -55.333 30.5 -90s12.5 -71.334 12.5 -110.001c0 -52 2.33301 -94.667 7 -128l9 -48c2 -9.33301 3.66699 -16.333 5 -21s4 -12 8 -22c14 -44 46.167 -81.5 96.5 -112.5
s118.833 -46.5 205.5 -46.5h192zM600.998 1059l162 -153l154 153l-154 152zM1086 1612c0 -24 -9.99902 -48.001 -29.999 -72.001c-22.667 -20.667 -46.667 -31 -72 -31c-12.667 0 -24 2.16699 -34 6.5s-22 12.5 -36 24.5c-20 21.333 -30 45.333 -30 72c0 24 10 47 30 69
c10.667 10.667 21.667 18.834 33 24.501s23.666 8.5 36.999 8.5c25.333 0 49.333 -10.333 72 -31c20 -20 30 -43.667 30 -71zM678.999 1612c0 -25.333 -10.333 -49.334 -31 -72.001c-20.667 -20.667 -44.667 -31 -72 -31c-23.333 0 -46.333 10.333 -69 31
c-20.667 20.667 -31 44.667 -31 72c0 24 10 47 30 69s43.333 33 70 33c26 0 49.667 -10.167 71 -30.5s32 -44.166 32 -71.499z" />
    <glyph glyph-name="florin" unicode="&#x192;" horiz-adv-x="797" 
d="M735 479l-131 -107l-90 107l136 107zM931 949l-35.001 -207.998h-24c0 21.333 -1.83301 39.833 -5.5 55.5s-9.16699 29.5 -16.5 41.5c-11.333 20.667 -28.166 35.667 -50.499 45s-57.5 14 -105.5 14h-210l-80 -373l-139 -656
c-5.33301 -24.667 -10.333 -46.334 -15 -65.001s-9.33398 -33 -14.001 -43l-12 -20c-0.666992 -2.66699 -4.66699 -6.66699 -12 -12s-12.666 -9 -15.999 -11c-17.333 -11.333 -37.666 -17 -60.999 -17h-34h-18h-124l6 26h34c38 0 68.667 11.333 92 34
c13.333 15.333 26.666 51.333 39.999 108l194 913c8 38 12 66 12 84l-1 11c0 9.33301 -8 19.666 -24 30.999c-17.333 10.667 -37 16 -59 16h-34l6 26h706z" />
    <glyph glyph-name="circumflex" unicode="&#x2c6;" 
d="M249 1385h184l190 -331h-31l-273 213l-229 -213h-30z" />
    <glyph glyph-name="caron" unicode="&#x2c7;" 
d="M434 1054h-184l-190 331h31l273 -212l229 212h30z" />
    <glyph glyph-name="ring" unicode="&#x2da;" 
d="M341 1424c53.333 0 98.666 -18.667 135.999 -56s56 -82.333 56 -135c0 -53.333 -18.667 -98.666 -56 -135.999s-82.666 -56 -135.999 -56c-52.667 0 -97.667 18.667 -135 56s-56 82.666 -56 135.999c0 52.667 18.5 97.667 55.5 135s82.167 56 135.5 56zM341 1355
c-34 0 -62.833 -11.833 -86.5 -35.5s-35.5 -52.5 -35.5 -86.5c0 -33.333 11.833 -62 35.5 -86s52.5 -36 86.5 -36c32 0 60.333 12 85 36s37 52.667 37 86c0 32 -11.833 60.333 -35.5 85s-52.5 37 -86.5 37z" />
    <glyph glyph-name="tilde" unicode="&#x2dc;" 
d="M54 1097l-31.999 0.00195312c0 45.333 4.83301 84.333 14.5 117s23.834 59.667 42.501 81c35.333 40.667 79 61 131 61c27.333 0 53.666 -4.66699 78.999 -14s66.166 -32.5 122.499 -69.5s97.5 -55.5 123.5 -55.5c19.333 0 38 9 56 27c16 18 29 55.333 39 112h31
c0 -62.667 -8.16699 -111.834 -24.5 -147.501s-40.166 -63.834 -71.499 -84.501c-15.333 -10.667 -30.5 -18.5 -45.5 -23.5s-31.167 -7.5 -48.5 -7.5c-52.667 0 -118 26.667 -196 80c-40.667 27.333 -68.667 44.333 -84 51c-7.33301 3.33301 -12.333 5.33301 -15 6
c-8.66699 2.66699 -18.334 4 -29.001 4c-25.333 0 -47 -12 -65 -36c-6 -9.33301 -15.333 -43 -28 -101z" />
    <glyph glyph-name="endash" unicode="&#x2013;" horiz-adv-x="934" 
d="M863 542l-0.000976562 -237.001h-35l-1 22c0 15.333 -6.33301 27.833 -19 37.5s-25.667 16.834 -39 21.501l-53 4l-33 3l-52 4l-362 -4c-75.333 0 -124.666 -4 -147.999 -12c-31.333 -11.333 -47 -29.333 -47 -54l-1 -22h-35v237h35l1 -20
c0 -14.667 7.66699 -28.667 23 -42c10.667 -8.66699 26 -15 46 -19c22 -3.33301 64 -5 126 -5h363c80.667 0 130 3.33301 148 10c32 12 48 30.667 48 56v20h35z" />
    <glyph glyph-name="emdash" unicode="&#x2014;" horiz-adv-x="1284" 
d="M1187 542l-0.000976562 -236.999h-48l-2 22c0 15.333 -9.33301 28.333 -28 39c-8 4 -16.5 7.83301 -25.5 11.5s-17.833 6.5 -26.5 8.5l-71 4l-46 3l-72 4l-498 -4c-104 0 -171.667 -4 -203 -12c-43.333 -11.333 -65 -29.333 -65 -54l-1 -22h-48v237h48l1 -20
c0 -14.667 10.667 -28.667 32 -42c15.333 -8.66699 36.833 -14.834 64.5 -18.501s84.834 -5.5 171.501 -5.5h500c109.333 0 177 3.33301 203 10c44 12 66 30.667 66 56v20h48z" />
    <glyph glyph-name="quoteleft" unicode="&#x2018;" 
d="M187 1076l151 -423l154 423l-154 152z" />
    <glyph glyph-name="quoteright" unicode="&#x2019;" 
d="M187 1076l151 -423l154 423l-154 152z" />
    <glyph glyph-name="quotesinglbase" unicode="&#x201a;" 
d="M187 76l151 -423l154 423l-154 152z" />
    <glyph glyph-name="quotedblleft" unicode="&#x201c;" horiz-adv-x="1035" 
d="M587 1076l151 -423l154 423l-154 152zM187 1076l151 -423l154 423l-154 152z" />
    <glyph glyph-name="quotedblright" unicode="&#x201d;" horiz-adv-x="1035" 
d="M587 1076l151 -423l154 423l-154 152zM187 1076l151 -423l154 423l-154 152z" />
    <glyph glyph-name="quotedblbase" unicode="&#x201e;" horiz-adv-x="1035" 
d="M587 76l151 -423l154 423l-154 152zM187 76l151 -423l154 423l-154 152z" />
    <glyph glyph-name="dagger" unicode="&#x2020;" horiz-adv-x="778" 
d="M413 725l0.998047 -462.999c0 -62.667 4 -104 12 -124c11.333 -26 29.333 -39 54 -39l22 -1v-28h-237v28l21 1c12.667 0 26.334 6.33301 41.001 19c8.66699 9.33301 14.834 21.5 18.501 36.5s5.5 50.833 5.5 107.5l1 462l-128 -1c-64 0 -105 -4 -123 -12
c-26 -11.333 -39 -29.333 -39 -54l-1 -22h-29v237h29l1 -20c0 -14.667 6.33301 -28.667 19 -42c8.66699 -8.66699 21.667 -14.834 39 -18.501s52 -5.5 104 -5.5l128 -3l-1 112c0 66.667 -3.33301 107.667 -10 123c-12 26 -30.333 39 -55 39h-21v30h237v-30l-22 -1
c-15.333 0 -28 -5 -38 -15s-17 -21 -21 -33l-4 -44l-2 -21l-5 -49l1 -111l116 3c66.667 0 107.667 3.33301 123 10c26.667 12 40 30.667 40 56v20h29v-237h-29l-1 22c0 14 -5.33301 26.5 -16 37.5s-20.667 17.833 -30 20.5l-22 4l-24 1l-38 5l-33 2z" />
    <glyph glyph-name="daggerdbl" unicode="&#x2021;" horiz-adv-x="778" 
d="M411 783l115.998 3.00098c66.667 0 107.667 3.33301 123 10c26.667 12 40 30.667 40 56v20h29v-237h-29l-1 22c0 14 -5.33301 26.5 -16 37.5s-20.667 17.833 -30 20.5l-22 4l-24 1l-38 5l-33 2l-113 -2l-2 -292l116 3c66.667 0 107.667 3.33301 123 10
c26.667 12 40 30.667 40 56v20h29v-237h-29l-1 22c0 14 -5.33301 26.5 -16 37.5s-20.667 17.833 -30 20.5l-22 4l-24 1l-38 5l-33 2l-113 -2l1 -63l3 -108c0 -15.333 0.833008 -28.666 2.5 -39.999s3.83398 -20 6.50098 -26c11.333 -26 29.333 -39 54 -39l22 -1v-28h-237v28
l21 1c12.667 0 26.334 6.33301 41.001 19c9.33301 10 15 19.333 17 28s3.5 21 4.5 37s1.5 33.667 1.5 53l1 76l1 62l-128 -1c-64 0 -105 -4 -123 -12c-26 -11.333 -39 -29.333 -39 -54l-1 -22h-29v237h29l1 -20c0 -14.667 6.33301 -28.667 19 -42
c8.66699 -8.66699 21.667 -14.834 39 -18.501s52 -5.5 104 -5.5l128 -3v291l-128 -1c-64 0 -105 -4 -123 -12c-26 -11.333 -39 -29.333 -39 -54l-1 -22h-29v237h29l1 -20c0 -14.667 6.33301 -28.667 19 -42c8.66699 -8.66699 21.667 -14.834 39 -18.501s52 -5.5 104 -5.5
l128 -3l-1 122v33v23c-1.33301 8.66699 -2 14.667 -2 18c0 15.333 -2.66699 28.333 -8 39c-12 26 -30.333 39 -55 39h-21v30h237v-30l-22 -1c-15.333 0 -28 -5 -38 -15s-17 -21 -21 -33l-4 -44l-2 -18l-5 -42z" />
    <glyph glyph-name="bullet" unicode="&#x2022;" horiz-adv-x="1035" 
d="M358 479l161 -152l153 152l-153 152z" />
    <glyph glyph-name="ellipsis" unicode="&#x2026;" horiz-adv-x="1467" 
d="M965 76l160 -144l145 144l-154 152zM187 76l151 -144l154 144l-154 152zM587 76l151 -144l154 144l-154 152zM338 -68z" />
    <glyph glyph-name="perthousand" unicode="&#x2030;" horiz-adv-x="1228" 
d="M493 -38l-7 -25l-287 77l6 25l26 -7l26 -3c18.667 0 34 5.66699 46 17c12 10 26.667 44 44 102l158 593l7 28l8 37l4 28c0 9.33301 -5 21 -15 35c-13.333 16 -28.666 26 -45.999 30l-26 7l7 25l287 -77l-6 -25l-27 7l-13 3l-13 1c-18.667 0 -34.667 -6.33301 -48 -19
c-12 -13.333 -26 -47 -42 -101l-158 -592l-14 -57l-4 -37c0 -10 5.33301 -21.667 16 -35c9.33301 -13.333 23.666 -23 42.999 -29zM954 277c22 16 45.999 24 71.999 24c40 0 72.667 -16.667 98 -50c16 -22 24 -46 24 -72c0 -19.333 -4.16699 -37 -12.5 -53
s-20.5 -30.667 -36.5 -44c-10.667 -8 -22.167 -14 -34.5 -18s-25.166 -6 -38.499 -6c-39.333 0 -72 16.333 -98 49c-16 22 -24 46 -24 72c0 40 16.667 72.667 50 98zM966.999 246c17.333 15.333 37.002 23 59.002 23c25.333 0 47.666 -10 66.999 -30
c5.33301 -6.66699 10.666 -16 15.999 -28c4 -11.333 6 -22 6 -32c0 -25.333 -9.33301 -47 -28 -65c-18 -16 -38.333 -24 -61 -24c-26 0 -48 10 -66 30c-15.333 17.333 -23 37.333 -23 60c0 26 10 48 30 66zM126.001 787c22 16 46 23.999 72 23.999
c39.333 0 72 -16.333 98 -49c16 -22 24 -46.333 24 -73c0 -19.333 -4.16699 -37 -12.5 -53s-20.5 -30.667 -36.5 -44c-22 -16 -46.333 -24 -73 -24c-39.333 0 -72 16.333 -98 49c-16 22 -24 46 -24 72c0 40.667 16.667 73.334 50 98.001zM139.001 755.999
c17.333 15.333 37.001 23 59.001 23c25.333 0 47.666 -10 66.999 -30c14.667 -16.667 22 -36.667 22 -60c0 -26 -9.16699 -47.167 -27.5 -63.5s-38.833 -24.5 -61.5 -24.5c-25.333 0 -47 9 -65 27c-16 18 -24 38.667 -24 62c0 26 10 48 30 66zM674.002 276.999
c22 16 45.999 24 71.999 24c40 0 72.667 -16.667 98 -50c16 -22 24 -46 24 -72c0 -19.333 -4.16699 -37 -12.5 -53s-20.5 -30.667 -36.5 -44c-10.667 -8 -22.167 -14 -34.5 -18s-25.166 -6 -38.499 -6c-39.333 0 -72 16.333 -98 49c-16 22 -24 46 -24 72
c0 40 16.667 72.667 50 98zM687.001 245.999c17.333 15.333 37.002 23 59.002 23c25.333 0 47.666 -10 66.999 -30c5.33301 -6.66699 10.666 -16 15.999 -28c4 -11.333 6 -22 6 -32c0 -25.333 -9.33301 -47 -28 -65c-18 -16 -38.333 -24 -61 -24c-26 0 -48 10 -66 30
c-15.333 17.333 -23 37.333 -23 60c0 26 10 48 30 66z" />
    <glyph glyph-name="guilsinglleft" unicode="&#x2039;" horiz-adv-x="477" 
d="M394 -6h-40l-271 331l271 329h40l-171 -329z" />
    <glyph glyph-name="guilsinglright" unicode="&#x203a;" horiz-adv-x="477" 
d="M80 654h41l276 -331l-276 -329h-41l171 329z" />
    <glyph glyph-name="trademark" unicode="&#x2122;" horiz-adv-x="1539" 
d="M600 1336l6 -124.001h-15c-3.33301 22.667 -7 38.334 -11 47.001c-8 16 -19.667 27.333 -35 34s-32.333 10 -51 10h-75v-406c0 -32.667 3.33301 -52.667 10 -60c9.33301 -11.333 24.666 -17 45.999 -17h19v-15h-226v15h20c20 0 35.667 6.66699 47 20c6 8 9 27 9 57v406
h-64c-26.667 0 -45.167 -2.16699 -55.5 -6.5s-21.166 -13.5 -32.499 -27.5l-13 -26l-4 -31h-15l7 124h433zM625 1333l379.003 -79l384 79l1 -17c-8.66699 0 -20 -4 -34 -12l-22 -17c-6 -6 -11 -13 -15 -21l-1 -79v-107v-137v-43v-28c0 -8 1.5 -16.5 4.5 -25.5
s9.66699 -16.167 20 -21.5s24.833 -8 43.5 -8v-15h-203v15c12.667 0 23 1.66699 31 5s14 8 18 14l7 21l4 43v278l-2 53c0 3.33301 -2.83301 6.66602 -8.5 9.99902s-15.167 5 -28.5 5l-105 -22c-10.667 -2 -20.167 -6 -28.5 -12s-15.5 -13.667 -21.5 -23l-3 -3l-4 -30v-256
c0 -32.667 3 -54 9 -64c6 -7.33301 23 -13.666 51 -18.999v-15h-196v15c23.333 0 39.666 6 48.999 18c8 12 12 33.667 12 65v256v15c0 6 -0.666992 10.333 -2 13c-0.666992 4 -2.33398 6.33301 -5.00098 7l-14 18c-10 10 -20.667 15 -32 15l-104 22
c-16 0 -26.333 -1.16699 -31 -3.5s-8.33398 -6.83301 -11.001 -13.5l-2 -18l-1 -33v-278c0 -30.667 4 -52 12 -64c6 -8 22.333 -14.333 49 -19v-15h-204v15c26 0 44 5.5 54 16.5s15 33.167 15 66.5v139l1 163v49v5l-1 6c-3.33301 8.66699 -9 15.667 -17 21l-23 20
c-9.33301 6 -18 9 -26 9zM946.003 1420l59 -60l61 60l-61 60z" />
    <glyph glyph-name=".null" horiz-adv-x="0" 
 />
    <glyph glyph-name="nonmarkingreturn" horiz-adv-x="800" 
 />
  </font>
</defs>
</svg>
