<?xml version="1.0" standalone="no"?>
<!DOCTYPE svg PUBLIC "-//W3C//DTD SVG 1.1//EN" "http://www.w3.org/Graphics/SVG/1.1/DTD/svg11.dtd" >
<svg>
<metadata>
Created by FontForge 20090914 at Fri Feb 20 14:38:11 2015
 By www-data
Converted by Andrey V. Panov from TeX fonts. Some glyphs are copied from Blue Sky fonts released by AMS.
</metadata>
<defs>
<font id="CMUSerif-Bold" horiz-adv-x="575" >
  <font-face 
    font-family="CMU Serif"
    font-weight="700"
    font-stretch="normal"
    units-per-em="1000"
    panose-1="2 0 8 3 0 0 0 0 0 0"
    ascent="800"
    descent="-200"
    x-height="443.998"
    cap-height="686"
    bbox="-1338 -401.001 1738.01 1115"
    underline-thickness="50"
    underline-position="-100"
    unicode-range="U+0020-U+1D703"
  />
<missing-glyph horiz-adv-x="760" 
d="M10 10v755h740v-755h-740zM70 112l276 276l-276 275v-551zM105 70h550l-275 276zM105 705l275 -276l275 276h-550zM414 388l276 -276v551z" />
    <glyph glyph-name="igrave" unicode="i&#x300;" horiz-adv-x="319" 
d="M-4 599c0 16 5.83301 30.498 17.5 43.498s25.5 19.5 41.5 19.5c2.66699 0 5.16699 -0.166992 7.5 -0.5s4.5 -0.666016 6.5 -0.999023s4.33301 -1.33301 7 -3l7 -4.5c2 -1.33301 5 -3.5 9 -6.5s7.5 -5.83301 10.5 -8.5l13 -12l16 -15l20.5 -19l24 -22l39 -36l-25 -40
l-62 21c-60 20 -97 34.333 -111 43s-21 22.334 -21 41.001zM47 -0.00195312l0.000976562 46.999h69v309c0 18.667 -3.33301 29.834 -10 33.501s-25.334 5.5 -56.001 5.5v47l174 8v-403h62v-47c-72 2 -111 3 -117 3c-19.333 0 -60 -1 -122 -3z" />
    <glyph glyph-name="iacute" unicode="i&#x301;" horiz-adv-x="319" 
d="M47 0l0.000976562 46.999h69v309c0 18.667 -3.33301 29.834 -10 33.501s-25.334 5.5 -56.001 5.5v47l174 8v-403h62v-47c-72 2 -111 3 -117 3c-19.333 0 -60 -1 -122 -3zM94.001 534.999c78.667 72.667 122 111.666 130 116.999c9.33301 6.66699 19.333 10 30 10
c16.667 0 30.5 -6.66699 41.5 -20s16.5 -27.666 16.5 -42.999c0 -18.667 -6.83301 -32.167 -20.5 -40.5s-50.167 -22.5 -109.5 -42.5l-63 -22z" />
    <glyph glyph-name="icircumflex" unicode="i&#x302;" horiz-adv-x="319" 
d="M11 510l159 148h1l158 -148l-31 -36l-127 102h-1l-128 -102zM47 0l0.000976562 46.999h69v309c0 18.667 -3.33301 29.834 -10 33.501s-25.334 5.5 -56.001 5.5v47l174 8v-403h62v-47c-72 2 -111 3 -117 3c-19.333 0 -60 -1 -122 -3z" />
    <glyph glyph-name="idieresis" unicode="i&#x308;" horiz-adv-x="383" 
d="M13 608c0 20 7.49902 37.998 22.499 53.998s33.5 24 55.5 24c20.667 0 38.667 -7.5 54 -22.5s23 -33.5 23 -55.5c0 -21.333 -7.5 -39.666 -22.5 -54.999s-33.167 -23 -54.5 -23s-39.666 7.33301 -54.999 22s-23 33.334 -23 56.001zM78.999 -0.00195312v48h69v311
c0 14.667 -3.5 24.167 -10.5 28.5s-22.5 6.5 -46.5 6.5h-9v48l175 8v-402h62v-48c-41.333 2 -78 3 -110 3h-4c-42 0 -84 -1 -126 -3zM236.999 607.998c0 21.333 7.49902 39.668 22.499 55.001s33.167 23 54.5 23c20.667 0 38.834 -7.5 54.501 -22.5s23.5 -33.5 23.5 -55.5
c0 -22.667 -8 -41.334 -24 -56.001s-34 -22 -54 -22c-20.667 0 -38.667 7.5 -54 22.5s-23 33.5 -23 55.5z" />
    <glyph glyph-name="Aogonek" unicode="A&#x328;" horiz-adv-x="869" 
d="M40 0l-0.000976562 47.998c44.667 0 72.5 1.5 83.5 4.5s19.167 10.5 24.5 22.5l245 595c4.66699 10.667 9.5 18 14.5 22s13.5 6 25.5 6s20.833 -2.16699 26.5 -6.5s10.834 -12.166 15.501 -23.499l255 -620h97v-48c-2.66699 0 -17.5 0.333008 -44.5 1s-44.167 1 -51.5 1
c-15.333 0 -29 -6 -41 -18c-16.667 -16.667 -25 -34 -25 -52c0 -17.333 6.66699 -33.166 20 -47.499s28.333 -21.5 45 -21.5c8.66699 0 17.834 3.33301 27.501 10s16.5 10 20.5 10c4.66699 0 10.167 -2.33301 16.5 -7s9.5 -10 9.5 -16c0 -12 -10.667 -25.833 -32 -41.5
s-45 -23.5 -71 -23.5c-32 0 -59.333 10.5 -82 31.5s-34 45.5 -34 73.5c0 34.667 18.667 69 56 103l-154 -3v48h95l-60 144h-268c-34 -82.667 -51 -126 -51 -130c0 -9.33301 28.667 -14 86 -14v-48c-44 2 -88.333 3 -133 3c-30.667 0 -69.334 -1 -116.001 -3z
M273.999 239.998h229l-114 278z" />
    <glyph glyph-name="imacron" unicode="i&#x304;" horiz-adv-x="319" 
d="M-38 552v52h415v-52h-415zM47 0l0.000976562 46.999h69v309c0 18.667 -3.33301 29.834 -10 33.501s-25.334 5.5 -56.001 5.5v47l174 8v-403h62v-47c-72 2 -111 3 -117 3c-19.333 0 -60 -1 -122 -3z" />
    <glyph glyph-name="ibreve" unicode="i&#x306;" horiz-adv-x="319" 
d="M-8 653l36 -0.00195312c1.33301 -20 7.66602 -37 18.999 -51s25.166 -24 41.499 -30s31 -10.167 44 -12.5s25.5 -3.5 37.5 -3.5c16.667 0 34 1.83301 52 5.5s36.833 13.334 56.5 29.001s30.5 36.5 32.5 62.5h36c-2 -49.333 -20.667 -88.166 -56 -116.499
s-75.666 -42.5 -120.999 -42.5c-46.667 0 -87.667 14.5 -123 43.5s-53.666 67.5 -54.999 115.5zM47 -0.00195312l0.000976562 46.999h69v309c0 18.667 -3.33301 29.834 -10 33.501s-25.334 5.5 -56.001 5.5v47l174 8v-403h62v-47c-72 2 -111 3 -117 3
c-19.333 0 -60 -1 -122 -3z" />
    <glyph glyph-name="IJ" unicode="IJ" horiz-adv-x="1011" 
d="M33 0v47h114v592h-114v47c27.333 -2 89 -3 185 -3s157.667 1 185 3v-47h-114v-592h114v-47c-27.333 2 -89 3 -185 3s-157.667 -1 -185 -3zM438 113c0 23.333 7.49902 42.168 22.499 56.501s32.833 21.5 53.5 21.5c21.333 0 39.666 -7.16699 54.999 -21.5
s23 -32.833 23 -55.5c0 -32.667 -16 -56.334 -48 -71.001c28.667 -11.333 56.334 -17 83.001 -17c24.667 0 44.5 6.16699 59.5 18.5s25.5 27.5 31.5 45.5c5.33301 14.667 8 38 8 70v478h-141v48c68 -2 136.333 -3 205 -3c56.667 0 108 1 154 3v-48h-81v-485
c0 -30 -7 -56.167 -21 -78.5s-32.667 -39.5 -56 -51.5s-47.666 -20.667 -72.999 -26s-52.333 -8 -81 -8c-58.667 0 -105.667 11.333 -141 34s-53 52.667 -53 90z" />
    <glyph glyph-name="ij" unicode="ij" horiz-adv-x="671" 
d="M66 0l0.000976562 46.999h69v309c0 18.667 -3.33301 29.834 -10 33.501s-25.334 5.5 -56.001 5.5v47l174 8v-403h62v-47c-72 2 -111 3 -117 3c-19.333 0 -60 -1 -122 -3zM97.001 616.999c0 20.667 7.33301 38.666 22 53.999s33.334 23 56.001 23
c20.667 0 38.667 -7.33301 54 -22s23 -33 23 -55c0 -21.333 -7.5 -39.666 -22.5 -54.999s-33.167 -23 -54.5 -23c-20.667 0 -38.834 7.5 -54.501 22.5s-23.5 33.5 -23.5 55.5zM279.001 -109.002c0 18.667 6.16797 33.835 18.501 45.502s27.166 17.5 44.499 17.5
c16.667 0 31.167 -5.83301 43.5 -17.5s18.5 -26.834 18.5 -45.501c0 -17.333 -8 -34 -24 -50c14 -2.66699 25.667 -4 35 -4c21.333 0 37.333 9.16699 48 27.5s17.334 38.5 20.001 60.5c1.33301 9.33301 2 23.666 2 42.999v392c-0.666992 14.667 -4.83398 24 -12.501 28
s-24.834 6 -51.501 6h-12v48l185 8v-484c0 -31.333 -6.16699 -58.5 -18.5 -81.5s-28.166 -40.333 -47.499 -52s-38.333 -20 -57 -25s-37 -7.5 -55 -7.5c-40 0 -72.833 8.5 -98.5 25.5s-38.5 38.833 -38.5 65.5zM438.002 616.999c0 22.667 8 41.166 24 55.499
s34 21.5 54 21.5c20.667 0 38.834 -7.5 54.501 -22.5s23.5 -33.5 23.5 -55.5c0 -20 -7.5 -37.833 -22.5 -53.5s-33.5 -23.5 -55.5 -23.5c-22.667 0 -41.334 7.83301 -56.001 23.5s-22 33.834 -22 54.501z" />
    <glyph glyph-name="jcircumflex" unicode="j&#x302;" horiz-adv-x="351" 
d="M54 510l159 148h1l158 -148l-31 -36l-127 102h-1l-128 -102zM-56 -109c0 18 5.83105 33 17.498 45s26.834 18 45.501 18c18 0 32.833 -6 44.5 -18s17.5 -26.667 17.5 -44c0 -21.333 -8 -38 -24 -50c15.333 -4 28.333 -6 39 -6c26.667 0 45.834 12.5 57.501 37.5
s17.5 53.167 17.5 84.5v397c0 8.66699 -0.333008 15 -1 19s-2.66699 7.83301 -6 11.5s-8.33301 6.16699 -15 7.5c-10 1.33301 -28 2 -54 2v47l184 8v-492c0 -49.333 -18.333 -88 -55 -116s-78.667 -42 -126 -42c-42 0 -76.167 8.16699 -102.5 24.5s-39.5 38.5 -39.5 66.5z
" />
    <glyph glyph-name="uni01D0" unicode="i&#x30c;" horiz-adv-x="319" 
d="M-2 641v1l17 22h1c100 -57.333 151.333 -86 154 -86h1c3.33301 0 54.333 28.667 153 86h1l18 -22v-1l-172 -171h-1zM47 0l0.000976562 46.999h69v309c0 18.667 -3.33301 29.834 -10 33.501s-25.334 5.5 -56.001 5.5v47l174 8v-403h62v-47c-72 2 -111 3 -117 3
c-19.333 0 -60 -1 -122 -3z" />
    <glyph glyph-name="uni01F0" unicode="j&#x30c;" horiz-adv-x="351" 
d="M41 641v1l17 22h1c100 -57.333 151.333 -86 154 -86h1c3.33301 0 54.333 28.667 153 86h1l18 -22v-1l-172 -171h-1zM-56 -109c0 18 5.83105 33 17.498 45s26.834 18 45.501 18c18 0 32.833 -6 44.5 -18s17.5 -26.667 17.5 -44c0 -21.333 -8 -38 -24 -50
c15.333 -4 28.333 -6 39 -6c26.667 0 45.834 12.5 57.501 37.5s17.5 53.167 17.5 84.5v397c0 8.66699 -0.333008 15 -1 19s-2.66699 7.83301 -6 11.5s-8.33301 6.16699 -15 7.5c-10 1.33301 -28 2 -54 2v47l184 8v-492c0 -49.333 -18.333 -88 -55 -116s-78.667 -42 -126 -42
c-42 0 -76.167 8.16699 -102.5 24.5s-39.5 38.5 -39.5 66.5z" />
    <glyph glyph-name="uni0410_acutecomb" unicode="&#x410;&#x301;" horiz-adv-x="869" 
d="M41 0l0.000976562 47h21c34.667 0 56.667 1.66699 66 5s15.666 9.33301 18.999 18l248 602c2.66699 7.33301 5 12.5 7 15.5s5.5 5.5 10.5 7.5s12.167 3 21.5 3c7.33301 0 12.666 -0.333008 15.999 -1s7.33301 -3 12 -7s8.66699 -10 12 -18l256 -625h97v-47
c-23.333 2 -77.666 3 -162.999 3c-92 0 -150.667 -1 -176 -3v47h95l-60 146h-268l-50 -121c-2.66699 -2.66699 -4 -6.66699 -4 -12c0 -8.66699 29.667 -13 89 -13v-47c-24.667 2 -68.667 3 -132 3c-2 0 -41 -1 -117 -3zM275.001 240h228l-114 278zM330.001 778
c94.667 60 145.667 91.666 153 94.999c4 1.33301 9.66699 2 17 2c16 0 29.333 -6.66699 40 -20s16 -27.666 16 -42.999c0 -6 -0.833008 -11.667 -2.5 -17s-3.5 -9.83301 -5.5 -13.5s-5.33301 -7 -10 -10s-8.5 -5.16699 -11.5 -6.5s-7.66699 -2.83301 -14 -4.5l-13.5 -3.5
c-2.66699 -0.666992 -7.5 -1.5 -14.5 -2.5s-11.167 -1.5 -12.5 -1.5c-56 -9.33301 -98 -16 -126 -20z" />
    <glyph glyph-name="ff" unicode="ff" horiz-adv-x="671" 
d="M31 397l-0.00292969 48.002h74v95c0 30.667 8.33301 57 25 79s39 38.5 67 49.5s56.5 19 85.5 24s59.5 7.5 91.5 7.5c24 0 44.833 -2.66699 62.5 -8s30.834 -10.5 39.501 -15.5s14.334 -7.5 17.001 -7.5c2 0 8.5 2.5 19.5 7.5s26.833 10 47.5 15s44.334 7.5 71.001 7.5
c38.667 0 67.334 -9 86.001 -27s28 -37.667 28 -59c0 -18 -5.83301 -32.833 -17.5 -44.5s-26.167 -17.5 -43.5 -17.5s-32 5.83301 -44 17.5s-18 26.5 -18 44.5c0 17.333 7.66699 33.666 23 48.999c-4 0.666992 -9.66699 1 -17 1c-10.667 0 -20.834 -1.5 -30.501 -4.5
s-20.5 -8.33301 -32.5 -16s-21.5 -20.334 -28.5 -38.001s-10.167 -39.167 -9.5 -64.5v-95h121v-48h-116v-349h87v-48c-47.333 2 -94 3 -140 3s-87.667 -1 -125 -3v48h70v349h-211v-349h70v-48c-43.333 2 -86.333 3 -129 3c-7.33301 0 -47 -1 -119 -3v48h70v349h-74z
M207.997 445.002h216v85c0 12 -4 23.167 -12 33.5s-12 22.5 -12 36.5c0 20 9.66699 37.667 29 53c-22.667 6.66699 -43.667 10 -63 10c-43.333 0 -80.5 -9.16699 -111.5 -27.5s-46.5 -49.5 -46.5 -93.5v-97z" />
    <glyph glyph-name="fi" unicode="fi" horiz-adv-x="639" 
d="M31 397l0.000976562 47.998h74v96c0 30 8.5 56 25.5 78s39.667 38.5 68 49.5s57.333 19 87 24s60.5 7.5 92.5 7.5c47.333 0 84.166 -12 110.499 -36s39.5 -50.667 39.5 -80c0 -19.333 -6.16699 -35.166 -18.5 -47.499s-28.166 -18.5 -47.499 -18.5
c-18.667 0 -34.167 6.16699 -46.5 18.5s-18.5 27.833 -18.5 46.5c0 26.667 14.667 47.334 44 62.001c-24 12 -48.333 18 -73 18c-43.333 0 -80.833 -9.33301 -112.5 -28s-47.5 -50 -47.5 -94v-96h146v4l178 5v-406h70v-48c-72 2 -111.667 3 -119 3
c-43.333 0 -86.333 -1 -129 -3v48h70v317c0 12.667 -2.16699 21.167 -6.5 25.5s-11.833 6.5 -22.5 6.5h-181v-349h69v-48c-72 2 -111.667 3 -119 3c-42.667 0 -85.334 -1 -128.001 -3v48h69v349h-74z" />
    <glyph glyph-name="fl" unicode="fl" horiz-adv-x="639" 
d="M31 397v48h74v97c0 30 8.33301 55.833 25 77.5s39 38 67 49s56.667 19 86 24s60 7.5 92 7.5c23.333 0 43 -1.83301 59 -5.5s26 -5.5 30 -5.5c2.66699 0 25.334 1.66699 68.001 5v-646h70v-48c-72 2 -111.667 3 -119 3c-43.333 0 -86.333 -1 -129 -3v48h70v349h-210v-349
h69v-48c-72 2 -111.667 3 -119 3c-42.667 0 -85.334 -1 -128.001 -3v48h69v349h-74zM208 445l216 0.000976562v95c0 13.333 -4 25.166 -12 35.499s-12 22.5 -12 36.5c0 15.333 6.33301 31 19 47c-14 2.66699 -31 4 -51 4c-44.667 0 -82.5 -9.33301 -113.5 -28
s-46.5 -50 -46.5 -94v-96z" />
    <glyph glyph-name="ffi" unicode="ffi" horiz-adv-x="958" 
d="M31 397l0.00195312 48h74v96c0 30 8.33301 56 25 78s39.167 38.5 67.5 49.5s57 19 86 24s59.167 7.5 90.5 7.5c47.333 0 87 -15 119 -45h1c50.667 30 118.334 45 203.001 45c50 0 87.667 -12.333 113 -37s38 -51 38 -79c0 -20 -6.33301 -36 -19 -48
s-28.334 -18 -47.001 -18s-34.167 6 -46.5 18s-18.5 27.667 -18.5 47c0 30 14.667 50.667 44 62c-24 12 -48.333 18 -73 18c-42.667 0 -80.167 -9.33301 -112.5 -28s-48.5 -50 -48.5 -94v-96h147v4l178 5v-406h69v-48c-72 2 -111.667 3 -119 3
c-42.667 0 -85.334 -1 -128.001 -3v48h69v317c0 13.333 -2.16699 22 -6.5 26s-11.833 6 -22.5 6h-181v-349h69v-48c-72 2 -111.667 3 -119 3c-42 0 -84.667 -1 -128 -3v48h69v349h-210v-349h69v-48c-72 2 -111.667 3 -119 3c-42.667 0 -85.334 -1 -128.001 -3v48h69v349h-74
zM208.002 445l216 0.000976562v64c0 8.66699 -5.33301 18.667 -16 30s-16 25.666 -16 42.999c0 30 14.667 51 44 63c-20 12 -43.667 18 -71 18c-18.667 0 -36.5 -1.83301 -53.5 -5.5s-33.667 -9.66699 -50 -18s-29.333 -20.833 -39 -37.5s-14.5 -36.667 -14.5 -60v-97z" />
    <glyph glyph-name="ffl" unicode="ffl" horiz-adv-x="958" 
d="M31 397l-0.000976562 48.002h74v96c0 30 8.5 56 25.5 78s39.5 38.5 67.5 49.5s56.667 19 86 24s60 7.5 92 7.5c52 0 92.667 -13.667 122 -41c0.666992 0 3.83398 1.5 9.50098 4.5s9.83398 5 12.501 6l14 5.5c6.66699 2.66699 12.5 4.66699 17.5 6l20 5.5
c8.33301 2.33301 16.5 4.16602 24.5 5.49902s17 2.66602 27 3.99902s20.833 2.33301 32.5 3s23.834 1 36.501 1c24 0 44.5 -1.83301 61.5 -5.5s26.833 -5.5 29.5 -5.5c5.33301 0 28.333 1.66699 69 5v-646h69v-48c-72 2 -111.667 3 -119 3c-42.667 0 -85.334 -1 -128.001 -3
v48h69v349h-210v-349h69v-48c-72 2 -111.667 3 -119 3c-42 0 -84.667 -1 -128 -3v48h69v349h-210v-349h69v-48c-72 2 -111.667 3 -119 3c-42.667 0 -85.334 -1 -128.001 -3v48h69v349h-74zM207.999 445.002h216v85c0 12 -4 23.167 -12 33.5s-12 22.5 -12 36.5
c0 20 10 37.667 30 53c-22.667 6.66699 -43.667 10 -63 10c-20 0 -38.667 -1.83301 -56 -5.5s-34 -9.83398 -50 -18.501s-28.833 -21.167 -38.5 -37.5s-14.5 -36.166 -14.5 -59.499v-97zM526.999 445.002l216 0.000976562v95c0 13.333 -4 25.166 -12 35.499
s-12 22.5 -12 36.5c0 15.333 6.33301 31 19 47c-14 2.66699 -31 4 -51 4c-44.667 0 -82.5 -9.33301 -113.5 -28s-46.5 -50 -46.5 -94v-96z" />
    <glyph glyph-name=".notdef" horiz-adv-x="760" 
d="M10 10v755h740v-755h-740zM70 112l276 276l-276 275v-551zM105 70h550l-275 276zM105 705l275 -276l275 276h-550zM414 388l276 -276v551z" />
    <glyph glyph-name="space" unicode=" " horiz-adv-x="383" 
 />
    <glyph glyph-name="exclam" unicode="!" horiz-adv-x="350" 
d="M96 78c0 20 7.5 37.832 22.5 53.499s33.5 23.5 55.5 23.5c20.667 0 38.834 -7.5 54.501 -22.5s23.5 -33.5 23.5 -55.5c0 -20 -7.5 -37.833 -22.5 -53.5s-33.5 -23.5 -55.5 -23.5c-22.667 0 -41.334 7.83301 -56.001 23.5s-22 33.834 -22 54.501zM96 633.999
c0 21.333 8.16699 38.498 24.5 51.498s34.166 19.5 53.499 19.5c20 0 38.167 -6.66699 54.5 -20s24.5 -30.666 24.5 -51.999c0 -7.33301 -1.33301 -18.333 -4 -33l-48 -344c-1.33301 -12.667 -3.5 -21 -6.5 -25s-9.83301 -6 -20.5 -6c-6 0 -10.5 0.5 -13.5 1.5
s-5.5 3.83301 -7.5 8.5s-3.16699 8.16699 -3.5 10.5s-1.16602 8.83301 -2.49902 19.5l-47 334c-2.66699 14.667 -4 26.334 -4 35.001z" />
    <glyph glyph-name="quotedbl" unicode="&#x22;" 
d="M127 650c0 18 6.33301 32.499 19 43.499s27.667 16.5 45 16.5c18 0 33 -5.66699 45 -17s18 -25.666 18 -42.999l-45 -291h-37l-41 257c-2.66699 14.667 -4 26 -4 34zM320 649.999c0 18 6 32.5 18 43.5s27 16.5 45 16.5s33.167 -5.5 45.5 -16.5s18.5 -25.5 18.5 -43.5
c0 -8 -1.33301 -19.333 -4 -34l-41 -257h-37c-30 186 -45 283 -45 291z" />
    <glyph glyph-name="numbersign" unicode="#" horiz-adv-x="958" 
d="M64 138c0 12.667 9.33496 18.998 28.002 18.998h203l58 186h-259c-20 0 -30 6 -30 18s10.667 18 32 18h270c6.66699 22.667 36 116.334 88 281.001c0 0.666992 0.5 2.33398 1.5 5.00098s1.66699 4.66699 2 6s0.833008 3.16602 1.5 5.49902s1.5 4 2.5 5s2 2.33301 3 4
s2.16699 3 3.5 4s2.83301 1.83301 4.5 2.5s3.5 1 5.5 1c5.33301 0 9.66602 -2.5 12.999 -7.5s4.66602 -10.167 3.99902 -15.5l-91 -291h231c4 14.667 33.333 108.334 88 281.001c6.66699 22 15 33 25 33c5.33301 0 9.5 -2.5 12.5 -7.5s4.16699 -10.167 3.5 -15.5l-91 -291
h188c20.667 0 31 -6 31 -18s-10 -18 -30 -18h-201l-58 -186h259c20 0 30 -6 30 -18c0 -12.667 -10.333 -19 -31 -19h-270c-2 -8 -31.333 -101.333 -88 -280c-6.66699 -22 -15 -33 -25 -33c-12 0 -17.333 7.33301 -16 22l91 291h-232c-2 -8 -31.333 -101.333 -88 -280
c0 -0.666992 -0.5 -2.33398 -1.5 -5.00098s-1.66699 -4.66699 -2 -6s-0.833008 -3.16602 -1.5 -5.49902s-1.5 -4 -2.5 -5s-2 -2.33301 -3 -4s-2.16699 -3 -3.5 -4s-2.83301 -1.83301 -4.5 -2.5s-3.5 -1 -5.5 -1c-11.333 0 -17 6.33301 -17 19c0 5.33301 2 13.333 6 24
l85 270h-187c-21.333 0 -32 6 -32 18zM333.002 156.998h232l58 186h-231z" />
    <glyph glyph-name="dollar" unicode="$" 
d="M63 185c0 23.333 6.66309 40.3369 19.9961 51.0039s27.333 16 42 16c18 0 33 -6.16699 45 -18.5s18 -27.166 18 -44.499c0 -14.667 -4.83301 -28.334 -14.5 -41.001s-26.5 -19.667 -50.5 -21c16 -30 35.833 -50.667 59.5 -62s50.5 -18.666 80.5 -21.999v250
c-50.667 10.667 -89.334 25.667 -116.001 45c-21.333 15.333 -39.333 34.333 -54 57c-20 31.333 -30 65.333 -30 102c0 53.333 17.167 99 51.5 137s83.833 59.667 148.5 65v51h48v-51c36.667 -2 68.667 -8.83301 96 -20.5s48 -26.5 62 -44.5s24.333 -36.333 31 -55
s10 -37.667 10 -57c0 -23.333 -6.66699 -40.166 -20 -50.499s-27.333 -15.5 -42 -15.5c-17.333 0 -32.166 5.66699 -44.499 17s-18.5 26.333 -18.5 45c0 14 4.66699 27.5 14 40.5s25.666 20.5 48.999 22.5c-26 41.333 -71.667 64.666 -137 69.999v-223
c42.667 -8 78.667 -22 108 -42s49.833 -42.333 61.5 -67s19.5 -45.334 23.5 -62.001s6 -32.334 6 -47.001c0 -14 -1.16699 -28.5 -3.5 -43.5s-7.66602 -32.333 -15.999 -52s-19.333 -37.334 -33 -53.001s-33.167 -29.834 -58.5 -42.501s-54.666 -20.667 -87.999 -24v-50h-48
v50c-39.333 2.66699 -73.166 11.167 -101.499 25.5s-49.166 31.833 -62.499 52.5s-22.666 40.167 -27.999 58.5s-8 36.166 -8 53.499zM143.996 546.004c0 -7.33301 1.16699 -14.999 3.5 -22.999s7 -17.833 14 -29.5s19.333 -22.5 37 -32.5s39.167 -17.333 64.5 -22v212
c-36.667 -4.66699 -65.667 -15.834 -87 -33.501s-32 -41.5 -32 -71.5zM310.996 44.0049c24.667 3.33301 45.499 9.83301 62.499 19.5s29.167 21 36.5 34s12.333 24.5 15 34.5s4 20 4 30c0 8 -1.16699 16.5 -3.5 25.5s-7 20.333 -14 34s-19.167 26 -36.5 37
s-38.666 19.167 -63.999 24.5v-239z" />
    <glyph glyph-name="percent" unicode="%" horiz-adv-x="958" 
d="M64 549c0 65.333 17.002 115.169 51.002 149.502s74.333 51.5 121 51.5c28 0 54 -8.66699 78 -26c72.667 -53.333 148 -80 226 -80c82 0 147.667 29 197 87c10 12.667 20 19 30 19c7.33301 0 14.166 -2.83301 20.499 -8.5s9.5 -13.167 9.5 -22.5
c0 -6.66699 -3.66699 -14.667 -11 -24l-569 -735c-7.33301 -10.667 -16 -16 -26 -16c-8.66699 0 -16 3 -22 9s-9 13.333 -9 22c0 9.33301 3.66699 17.666 11 24.999l487 630c-36.667 -14.667 -75.667 -22 -117 -22c-55.333 0 -113 13.667 -173 41c10 -31.333 15 -65 15 -101
c0 -66.667 -14.333 -116.834 -43 -150.501s-63.334 -50.5 -104.001 -50.5c-46 0 -86.167 16.833 -120.5 50.5s-51.5 84.167 -51.5 151.5zM167.002 548.003c0 -17.333 0.166992 -31.168 0.5 -41.501s1.66602 -24.5 3.99902 -42.5s5.83301 -32 10.5 -42s11.834 -19 21.501 -27
s21.167 -12 34.5 -12c24.667 0 47.167 13 67.5 39s30.5 68.333 30.5 127c0 56.667 -10 98.334 -30 125.001s-42.667 40 -68 40c-13.333 0 -24.833 -4 -34.5 -12s-16.834 -17 -21.501 -27s-8.16699 -24 -10.5 -42s-3.66602 -32.167 -3.99902 -42.5s-0.5 -24.5 -0.5 -42.5z
M574.002 146.001c0 65.333 17.001 115.168 51.001 149.501s74.333 51.5 121 51.5c40 0 74.5 -16.667 103.5 -50s43.5 -84 43.5 -152c0 -66.667 -14.333 -116.834 -43 -150.501s-63.334 -50.5 -104.001 -50.5c-46 0 -86.167 16.833 -120.5 50.5s-51.5 84.167 -51.5 151.5z
M677.003 145.003c0 -17.333 0.166992 -31.168 0.5 -41.501s1.66602 -24.5 3.99902 -42.5s5.83301 -32 10.5 -42s11.834 -19 21.501 -27s21.167 -12 34.5 -12c24.667 0 47.167 13 67.5 39s30.5 68.333 30.5 127c0 56.667 -10 98.334 -30 125.001s-42.667 40 -68 40
c-13.333 0 -24.833 -4 -34.5 -12s-16.834 -17 -21.501 -27s-8.16699 -24 -10.5 -42s-3.66602 -32.167 -3.99902 -42.5s-0.5 -24.5 -0.5 -42.5z" />
    <glyph glyph-name="ampersand" unicode="&#x26;" horiz-adv-x="894" 
d="M48 138c0 28.667 10.3291 55.332 30.9961 79.999c4.66699 4.66699 25.334 23 62.001 55l74 63c-28.667 66 -43 130 -43 192c0 54 18.5 97 55.5 129s78.5 48 124.5 48c35.333 0 62.5 -14 81.5 -42s28.5 -57.667 28.5 -89s-18.333 -68 -55 -110
c-28 -30.667 -57 -59 -87 -85c32 -68 91 -147.333 177 -238c59.333 56.667 123 138.667 191 246c-16 6.66699 -40.333 10 -73 10v47c27.333 -2 68 -3 122 -3c34 0 67 1 99 3v-47c-22 0 -38 -0.166992 -48 -0.5s-20 -2 -30 -5s-17.333 -7.83301 -22 -14.5l-82 -119
c-31.333 -45.333 -73 -94.666 -125 -147.999c51.333 -49.333 98.666 -74 141.999 -74c7.33301 0 15.833 0.833008 25.5 2.5s21.334 5 35.001 10s25.334 13.5 35.001 25.5s14.834 26.667 15.501 44h47c-1.33301 -40 -18 -71.5 -50 -94.5s-69.667 -34.5 -113 -34.5
c-67.333 0 -137.666 21 -210.999 63c-64 -42 -130.333 -63 -199 -63c-57.333 0 -106.333 13.667 -147 41s-61 63.333 -61 108zM175.996 173.998c0 -10.667 1.00098 -22.168 3.00098 -34.501s5.83301 -27.166 11.5 -44.499s15.167 -31.5 28.5 -42.5
s29.666 -16.5 48.999 -16.5c52.667 0 101.667 14.667 147 44c-74 56 -135.333 130 -184 222c-36.667 -26 -55 -68.667 -55 -128zM275.997 564.997c0 -53.333 9.66699 -103.333 29 -150c73.333 66 110 119 110 159c0 21.333 -5 42.5 -15 63.5s-25.667 31.5 -47 31.5
c-17.333 0 -34.5 -8.16699 -51.5 -24.5s-25.5 -42.833 -25.5 -79.5z" />
    <glyph glyph-name="quotesingle" unicode="'" horiz-adv-x="319" 
d="M95 650c0 18.667 6.16797 33.334 18.501 44.001s27.5 16 45.5 16c17.333 0 32.166 -5.5 44.499 -16.5s18.5 -25.5 18.5 -43.5c0 -3.33301 -0.5 -8.33301 -1.5 -15s-1.5 -10.334 -1.5 -11.001l-42 -265h-37l-40 255c-3.33301 20 -5 32 -5 36z" />
    <glyph glyph-name="parenleft" unicode="(" horiz-adv-x="447" 
d="M108 251c0 178 59.666 326.334 178.999 445.001c38 36 63.667 54 77 54c12 0 18 -4.66699 18 -14c0 -3.33301 -5.33301 -10.333 -16 -21c-107.333 -108 -161 -263 -161 -465c0 -96 12.667 -182.333 38 -259c28 -86 73.333 -158 136 -216l1 -3c1.33301 -2.66699 2 -5 2 -7
c0 -9.33301 -6 -14 -18 -14c-7.33301 0 -20.166 6.83301 -38.499 20.5s-40.833 35.167 -67.5 64.5s-50 61.666 -70 96.999c-53.333 94 -80 200 -80 318z" />
    <glyph glyph-name="parenright" unicode=")" horiz-adv-x="447" 
d="M64 -235c0 3.33301 5.33398 10.3311 16.001 20.998c107.333 108 161 263 161 465c0 199.333 -53.333 353.333 -160 462c-11.333 10.667 -17 18.334 -17 23.001c0 9.33301 6 14 18 14c7.33301 0 20.166 -6.83301 38.499 -20.5s40.833 -35.167 67.5 -64.5
s50 -61.666 70 -96.999c53.333 -94 80 -200 80 -318c0 -178 -59.667 -326.333 -179 -445c-38 -36 -63.667 -54 -77 -54c-12 0 -18 4.66699 -18 14z" />
    <glyph glyph-name="asterisk" unicode="*" 
d="M74 440c0 19.333 10 32.332 30 38.999l141 49l-141 49c-20 6.66699 -30 19.667 -30 39c0 14 4.66699 25.5 14 34.5s19.333 13.5 30 13.5c8 0 17 -3.66699 27 -11l123 -93l-22 128c-2 10.667 -3 18.334 -3 23.001c0 12.667 4.66699 22.334 14 29.001s19.333 10 30 10
s20.667 -3.16699 30 -9.5s14 -16.166 14 -29.499c0 -4.66699 -1 -12.334 -3 -23.001l-22 -128l123 93c10 7.33301 19 11 27 11c10.667 0 20.667 -4.5 30 -13.5s14 -20.5 14 -34.5c0 -19.333 -10 -32.333 -30 -39l-141 -49l141 -49c20 -6.66699 30 -19.667 30 -39
c0 -14 -4.66699 -25.5 -14 -34.5s-19.333 -13.5 -30 -13.5c-8.66699 0 -17.667 3.66699 -27 11l-122 92l13 -77c7.33301 -46 11 -70.333 11 -73c0 -12.667 -4.66699 -22.334 -14 -29.001s-19.333 -10 -30 -10s-20.667 3.16699 -30 9.5s-14 16.166 -14 29.499
c0 4.66699 1 12.334 3 23.001l22 128l-123 -93c-10 -7.33301 -19 -11 -27 -11c-10.667 0 -20.667 4.5 -30 13.5s-14 20.5 -14 34.5z" />
    <glyph glyph-name="plus" unicode="+" horiz-adv-x="894" 
d="M64 250c0 12 11 17.998 33 17.998h331v333c0 20.667 6 31 18 31c12.667 0 19 -10.667 19 -32c0 -1.33301 -0.166992 -3.16602 -0.5 -5.49902s-0.5 -3.83301 -0.5 -4.5v-322h331c22 0 33 -6 33 -18c0 -12.667 -10.333 -19 -31 -19c-2 0 -4.16699 0.166992 -6.5 0.5
s-3.83301 0.5 -4.5 0.5h-322v-322c0 -0.666992 0.166992 -2.16699 0.5 -4.5s0.5 -4.16602 0.5 -5.49902c0 -21.333 -6.33301 -32 -19 -32c-12 0 -18 10.667 -18 32v332h-330c-22.667 0 -34 6 -34 18z" />
    <glyph glyph-name="comma" unicode="," horiz-adv-x="319" 
d="M81 78c0 22 7.16895 40.501 21.502 55.501s32.833 22.5 55.5 22.5c28 0 50.333 -12 67 -36s25 -53.667 25 -89c0 -26 -3.66699 -51.5 -11 -76.5s-16.333 -46 -27 -63s-21.834 -32.333 -33.501 -46s-21.834 -23.667 -30.501 -30s-14.667 -9.5 -18 -9.5
c-4 0 -8.16699 2.16699 -12.5 6.5s-6.5 8.83301 -6.5 13.5c0 4 3 8.66699 9 14c57.333 49.333 88.666 109.333 93.999 180c-13.333 -13.333 -31.666 -20 -54.999 -20c-24 0 -43 7.66699 -57 23s-21 33.666 -21 54.999z" />
    <glyph glyph-name="hyphen" unicode="-" horiz-adv-x="383" 
d="M12 174v97h306v-97h-306z" />
    <glyph glyph-name="period" unicode="." horiz-adv-x="319" 
d="M81 78c0 22.667 8 41.333 24 56s34 22 54 22c20.667 0 38.834 -7.5 54.501 -22.5s23.5 -33.5 23.5 -55.5c0 -20 -7.5 -38 -22.5 -54s-33.5 -24 -55.5 -24c-20.667 0 -38.834 7.5 -54.501 22.5s-23.5 33.5 -23.5 55.5z" />
    <glyph glyph-name="slash" unicode="/" 
d="M64 -231c0 2.66699 4.00098 14 12.001 34l392 918c0 0.666992 0.666992 2.33398 2 5.00098l3 6c0.666992 1.33301 1.66699 3.16602 3 5.49902s2.66602 4.16602 3.99902 5.49902s3 2.5 5 3.5s4.33301 1.5 7 1.5c4.66699 0 8.66699 -1.66699 12 -5s5 -7.33301 5 -12
c0 -2.66699 -2.66699 -11 -8 -25l-395 -927c-8 -18.667 -16.333 -28 -25 -28c-4.66699 0 -8.66699 1.83301 -12 5.5s-5 7.83398 -5 12.501z" />
    <glyph glyph-name="zero" unicode="0" 
d="M45 319c0 20 0.168945 36.668 0.501953 50.001s2.16602 32.833 5.49902 58.5s7.83301 47.5 13.5 65.5s14.5 38 26.5 60s26.167 39.833 42.5 53.5s37.666 25.167 63.999 34.5s56.166 14 89.499 14s63.166 -4.83301 89.499 -14.5s47.666 -21.167 63.999 -34.5
s30.5 -31.166 42.5 -53.499s20.833 -42.333 26.5 -60s10.167 -39.334 13.5 -65.001s5.16602 -45.167 5.49902 -58.5s0.5 -30 0.5 -50s-0.166992 -36.833 -0.5 -50.5s-2.16602 -33 -5.49902 -58s-7.83301 -46.333 -13.5 -64s-14.5 -37.167 -26.5 -58.5
s-26.333 -38.666 -43 -51.999s-38.167 -24.5 -64.5 -33.5s-55.833 -13.5 -88.5 -13.5c-33.333 0 -63.166 4.66699 -89.499 14s-47.666 20.5 -63.999 33.5s-30.5 30.333 -42.5 52s-20.833 41.167 -26.5 58.5s-10.167 38.666 -13.5 63.999s-5.16602 44.666 -5.49902 57.999
s-0.5 30 -0.5 50zM173.002 331.001c0 -106 2.99805 -176.335 8.99805 -211.002c6 -32.667 19.5 -56.667 40.5 -72s42.5 -23 64.5 -23c13.333 0 26.333 2.16699 39 6.5s26.167 15 40.5 32s23.5 39.833 27.5 68.5c4.66699 34.667 7 101 7 199
c0 125.333 -5.66699 200.333 -17 225c-8.66699 20.667 -22 36.334 -40 47.001s-37 16 -57 16c-12 0 -24.167 -1.66699 -36.5 -5s-26.166 -13.166 -41.499 -29.499s-24.666 -37.833 -27.999 -64.5c-5.33301 -34.667 -8 -97.667 -8 -189z" />
    <glyph glyph-name="one" unicode="1" 
d="M85 544l-0.00292969 47h20c82.667 0 149.667 19 201 57c6 4.66699 13.333 7 22 7c12 0 19.333 -2.16699 22 -6.5s4 -12.833 4 -25.5v-576h140v-47c-29.333 2 -95.666 3 -198.999 3s-169.666 -1 -198.999 -3v47h139v517c-41.333 -13.333 -84.666 -20 -129.999 -20h-20z
" />
    <glyph glyph-name="two" unicode="2" 
d="M57 0l0.000976562 18.002c0 10.667 0.666992 17.5 2 20.5s5 7.5 11 13.5l201 205c72 73.333 108 142.666 108 207.999c0 40 -11.667 73.833 -35 101.5s-55.666 41.5 -96.999 41.5c-40.667 0 -75 -11.667 -103 -35c7.33301 -2 14.666 -4.83301 21.999 -8.5
s15 -11.167 23 -22.5s12 -25 12 -41c0 -23.333 -7.5 -41.166 -22.5 -53.499s-31.5 -18.5 -49.5 -18.5c-16.667 0 -32.834 5.83301 -48.501 17.5s-23.5 30.5 -23.5 56.5c0 44.667 20.5 81.167 61.5 109.5s92.167 42.5 153.5 42.5c71.333 0 130 -17.333 176 -52
s69 -80.334 69 -137.001c0 -23.333 -3.33301 -44 -10 -62s-19.334 -36.833 -38.001 -56.5s-36 -35.834 -52 -48.501l-78 -59c-31.333 -22.667 -79.333 -61 -144 -115h147c60.667 0 94.667 2 102 6c8.66699 4.66699 17.334 35 26.001 91h47l-31 -222h-429z" />
    <glyph glyph-name="three" unicode="3" 
d="M48 139c0 24.667 7.33008 43.8271 21.9971 57.4941s33 20.5 55 20.5s40.167 -7 54.5 -21s21.5 -32.333 21.5 -55c0 -39.333 -19.333 -64.333 -58 -75c36 -22.667 78 -34 126 -34c20 0 37 4 51 12s24.333 16.833 31 26.5s11.834 22.5 15.501 38.5s5.66699 28.5 6 37.5
s0.5 20.5 0.5 34.5c0 14.667 -0.166992 26.5 -0.5 35.5s-2.5 21.667 -6.5 38s-9.5 29.166 -16.5 38.499s-17.833 17.833 -32.5 25.5s-32.334 11.5 -53.001 11.5h-44c-7.33301 0 -12.5 0.166992 -15.5 0.5s-5.83301 1.83301 -8.5 4.5s-4 7 -4 13c0 10.667 4 16.334 12 17.001
c7.33301 1.33301 23.333 2.66602 48 3.99902c16.667 0.666992 31.334 4.5 44.001 11.5s22.5 16.167 29.5 27.5s12.833 22.333 17.5 33s8 22.334 10 35.001s3.16699 21.834 3.5 27.501s0.5 10.834 0.5 15.501c0 64.667 -28.667 97 -86 97c-43.333 0 -80 -12 -110 -36
c38.667 -9.33301 58 -32.666 58 -69.999c0 -19.333 -6.33301 -35.666 -19 -48.999s-29.667 -20 -51 -20c-19.333 0 -35.666 6.5 -48.999 19.5s-20 29.833 -20 50.5c0 40.667 18.167 74.834 54.5 102.501s83.833 41.5 142.5 41.5c68 0 121.167 -13.167 159.5 -39.5
s57.5 -59.5 57.5 -99.5s-14 -74.333 -42 -103s-61.333 -49 -100 -61c34 -7.33301 63.167 -17.833 87.5 -31.5s42.333 -29 54 -46s20 -33 25 -48s7.5 -30.5 7.5 -46.5c0 -51.333 -21.167 -96 -63.5 -134s-105.166 -57 -188.499 -57c-65.333 0 -119.333 13.833 -162 41.5
s-64 63.834 -64 108.501z" />
    <glyph glyph-name="four" unicode="4" 
d="M32 156v47l349 437c6 7.33301 10.667 11.833 14 13.5s10 2.5 20 2.5c13.333 0 21.666 -1.83301 24.999 -5.5s5 -12.5 5 -26.5v-421h97v-47h-97v-109h97v-47c-23.333 2 -77.333 3 -162 3c-89.333 0 -146.666 -1 -171.999 -3v47h112v109h-288zM84 203h247v310z" />
    <glyph glyph-name="five" unicode="5" 
d="M57 159c0 18.667 4.83398 33.668 14.501 45.001s19 18.333 28 21s17.167 4 24.5 4c16 0 31.167 -5.5 45.5 -16.5s21.5 -28.167 21.5 -51.5c0 -20 -6.16699 -35.833 -18.5 -47.5s-27.833 -18.167 -46.5 -19.5c30.667 -41.333 73.667 -62 129 -62c16.667 0 31.5 2 44.5 6
s23.667 9 32 15s15.333 14.167 21 24.5s10 19.666 13 27.999s5.16699 19.5 6.5 33.5s2.16602 25 2.49902 33s0.5 19 0.5 33c0 21.333 -0.166992 37.666 -0.5 48.999s-2 25.833 -5 43.5s-7.5 31 -13.5 40s-14.833 17.167 -26.5 24.5s-26.167 11 -43.5 11
c-58 0 -102.667 -18.667 -134 -56c-6.66699 -8 -14 -12 -22 -12c-6.66699 0 -11.667 1.5 -15 4.5s-5.33301 6.33301 -6 10s-1 9.16699 -1 16.5v292c0 6.66699 0.166992 11.5 0.5 14.5s1.5 5.83301 3.5 8.5s5.33301 4 10 4c0.666992 0 5 -1.33301 13 -4
c54 -18.667 105.667 -28 155 -28c53.333 0 104.333 9.33301 153 28c7.33301 2.66699 12.333 4 15 4c9.33301 0 14 -6 14 -18c0 -7.33301 -5.83301 -18.166 -17.5 -32.499s-27.167 -29.5 -46.5 -45.5s-44.666 -30 -75.999 -42s-64 -18 -98 -18c-22.667 0 -47 2.33301 -73 7
v-132c34 23.333 77 35 129 35c71.333 0 127 -19.667 167 -59s60 -89 60 -149c0 -62 -23.333 -112.833 -70 -152.5s-109.334 -59.5 -188.001 -59.5c-59.333 0 -107.833 17.167 -145.5 51.5s-56.5 73.833 -56.5 118.5z" />
    <glyph glyph-name="six" unicode="6" 
d="M48 317c0 60 9.16699 112.832 27.5 158.499s42.5 81 72.5 106s62 43.5 96 55.5s69 18 105 18c49.333 0 86.333 -12.167 111 -36.5s37 -53.833 37 -88.5c0 -19.333 -5.66699 -34.833 -17 -46.5s-26.666 -17.5 -45.999 -17.5c-18.667 0 -33.667 6 -45 18s-17 26.667 -17 44
c0 16 4.66699 29.667 14 41s22.666 18.333 39.999 21c-17.333 17.333 -42.333 26 -75 26c-30 0 -57.5 -7.83301 -82.5 -23.5s-43.833 -35.5 -56.5 -59.5c-18.667 -40 -28 -97.333 -28 -172v-19c28 50.667 68 76 120 76c63.333 0 116.166 -18.667 158.499 -56
s63.5 -89.666 63.5 -156.999c0 -66 -21.667 -118.5 -65 -157.5s-100 -58.5 -170 -58.5c-87.333 0 -151.666 33.333 -192.999 100c-33.333 56 -50 132 -50 228zM186 209.999c0 -60.667 5.33105 -101.663 15.998 -122.996c18.667 -36.667 47.667 -55 87 -55
c19.333 0 35.666 3.16699 48.999 9.5s23.333 13.666 30 21.999s11.667 21.5 15 39.5s5.33301 33.333 6 46s1 32 1 58s-0.166992 45.167 -0.5 57.5s-2.16602 27.666 -5.49902 45.999s-8.16602 31.666 -14.499 39.999s-15.666 15.666 -27.999 21.999s-27.833 9.5 -46.5 9.5
c-30.667 0 -56.5 -14.167 -77.5 -42.5s-31.5 -71.5 -31.5 -129.5z" />
    <glyph glyph-name="seven" unicode="7" 
d="M64 422l34.999 254h47c0.666992 -4.66699 1.5 -8 2.5 -10s3.16699 -4.33301 6.5 -7s8.33301 -4.66699 15 -6c6 -2 34.167 -4 84.5 -6s83.5 -3 99.5 -3h204c0 -18 -0.5 -29.167 -1.5 -33.5s-3.83301 -9.16602 -8.5 -14.499l-155 -180c-34 -39.333 -55.667 -95 -65 -167
c-6.66699 -44.667 -10 -92.334 -10 -143.001v-46c0 -20 -4.5 -35.833 -13.5 -47.5s-17.5 -18.5 -25.5 -20.5s-16 -3 -24 -3c-2.66699 0 -5.66699 0.166992 -9 0.5s-8.5 1.66602 -15.5 3.99902s-13 5.83301 -18 10.5s-9.5 11.667 -13.5 21s-6 20.666 -6 33.999
c0 132.667 56 264.334 168 395.001l55 65h-169c-65.333 0 -101.666 -2 -108.999 -6c-10.667 -5.33301 -19.667 -35.666 -27 -90.999h-47z" />
    <glyph glyph-name="eight" unicode="8" 
d="M48 161c0 74.667 42.667 130.668 128 168.001c-64 36 -96 86.333 -96 151c0 50.667 18.167 92.5 54.5 125.5s87.833 49.5 154.5 49.5c60.667 0 110 -12.333 148 -37s57 -61.334 57 -110.001c0 -57.333 -33.667 -103.333 -101 -138c18 -10.667 32.333 -19.5 43 -26.5
s24.167 -18.167 40.5 -33.5s28.666 -33.333 36.999 -54s12.5 -43.667 12.5 -69c0 -58 -21 -105.5 -63 -142.5s-101.333 -55.5 -178 -55.5c-69.333 0 -126.166 14.333 -170.499 43s-66.5 71.667 -66.5 129zM134 161.001c0 -39.333 13.6699 -70.667 41.0029 -94
s65.333 -35 114 -35c23.333 0 45.166 2.16699 65.499 6.5s39.666 14.5 57.999 30.5s27.5 37 27.5 63c0 15.333 -4.16699 29 -12.5 41s-17 21.167 -26 27.5s-23.167 14.833 -42.5 25.5c-74.667 42 -120.334 67.333 -137.001 76c-58.667 -33.333 -88 -80.333 -88 -141z
M155.003 539c0 -23.333 14.666 -43.332 43.999 -59.999l150 -84c46.667 30.667 70 68 70 112c0 34 -11.833 60.667 -35.5 80s-56.5 29 -98.5 29c-13.333 0 -26 -0.833008 -38 -2.5s-25.667 -4.83398 -41 -9.50098s-27.666 -12.5 -36.999 -23.5s-14 -24.833 -14 -41.5z" />
    <glyph glyph-name="nine" unicode="9" 
d="M48 440c0 66 22.1689 118.329 66.502 156.996s102.5 58 174.5 58c32.667 0 62 -5 88 -15s47 -22.333 63 -37s29.833 -33.334 41.5 -56.001s20.334 -43 26.001 -61s10 -39.167 13 -63.5s4.66699 -42.166 5 -53.499s0.5 -24.666 0.5 -39.999
c0 -61.333 -8.66699 -114.833 -26 -160.5s-40.5 -81 -69.5 -106s-59.5 -43.5 -91.5 -55.5s-65.333 -18 -100 -18c-52.667 0 -92.834 11.833 -120.501 35.5s-41.5 53.5 -41.5 89.5c0 19.333 5.66699 34.833 17 46.5s26.666 17.5 45.999 17.5c18.667 0 33.667 -6 45 -18
s17 -26.667 17 -44c0 -13.333 -3.5 -25 -10.5 -35s-13.667 -16.667 -20 -20s-12.5 -5.66602 -18.5 -6.99902c22 -14.667 50 -22 84 -22c31.333 0 58.166 8.33301 80.499 25s38.5 36.334 48.5 59.001c16 36 24 91.333 24 166v22c-28 -51.333 -68 -77 -120 -77
c-64 0 -117 18.833 -159 56.5s-63 89.834 -63 156.501zM184.002 437.996c0 -26 0.168945 -45.166 0.501953 -57.499s2.16602 -27.666 5.49902 -45.999s8.16602 -31.666 14.499 -39.999s15.666 -15.666 27.999 -21.999s27.833 -9.5 46.5 -9.5c26 0 47.833 9.83301 65.5 29.5
s29.5 41.167 35.5 64.5s9 47 9 71c0 61.333 -4 103 -12 125c-2.66699 7.33301 -6.16699 14.666 -10.5 21.999s-13.5 16 -27.5 26s-30 15 -48 15c-20.667 0 -38 -3.33301 -52 -10s-24.667 -14.334 -32 -23.001s-12.666 -22.334 -15.999 -41.001s-5.33301 -34.334 -6 -47.001
s-1 -31.667 -1 -57z" />
    <glyph glyph-name="colon" unicode=":" horiz-adv-x="319" 
d="M81 366c0 21.333 7.5 39.666 22.5 54.999s33.5 23 55.5 23c21.333 0 39.666 -7.66699 54.999 -23s23 -33.666 23 -54.999s-7.66699 -39.666 -23 -54.999s-33.666 -23 -54.999 -23c-22 0 -40.5 7.66699 -55.5 23s-22.5 33.666 -22.5 54.999zM81 78
c0 21.333 7.5 39.666 22.5 54.999s33.5 23 55.5 23c21.333 0 39.666 -7.66699 54.999 -23s23 -33.666 23 -54.999s-7.66699 -39.666 -23 -54.999s-33.666 -23 -54.999 -23c-22 0 -40.5 7.66699 -55.5 23s-22.5 33.666 -22.5 54.999z" />
    <glyph glyph-name="semicolon" unicode=";" horiz-adv-x="319" 
d="M81 367c0 22.667 8 41.333 24 56s34 22 54 22c20.667 0 38.834 -7.5 54.501 -22.5s23.5 -33.5 23.5 -55.5c0 -20 -7.5 -38 -22.5 -54s-33.5 -24 -55.5 -24c-20.667 0 -38.834 7.5 -54.501 22.5s-23.5 33.5 -23.5 55.5zM81 77.999c0 22 7.16895 40.501 21.502 55.501
s32.833 22.5 55.5 22.5c28 0 50.333 -12 67 -36s25 -53.667 25 -89c0 -26 -3.66699 -51.5 -11 -76.5s-16.333 -46 -27 -63s-21.834 -32.333 -33.501 -46s-21.834 -23.667 -30.501 -30s-14.667 -9.5 -18 -9.5c-4 0 -8.16699 2.16699 -12.5 6.5s-6.5 8.83301 -6.5 13.5
c0 4 3 8.66699 9 14c57.333 49.333 88.666 109.333 93.999 180c-13.333 -13.333 -31.666 -20 -54.999 -20c-24 0 -43 7.66699 -57 23s-21 33.666 -21 54.999z" />
    <glyph glyph-name="less" unicode="&#x3c;" horiz-adv-x="894" 
d="M96 250c0 8 7.33301 15.3301 22 21.9971l639 294c8 4 15 6 21 6c4.66699 0 8.66699 -1.66699 12 -5s5 -7.33301 5 -12c0 -9.33301 -6.66699 -16.666 -20 -21.999l-618 -283l85 -39l533 -245c13.333 -5.33301 20 -12.666 20 -21.999c0 -4.66699 -1.66699 -8.66699 -5 -12
s-7.33301 -5 -12 -5s-11.667 2.33301 -21 7l-639 293c-14.667 6.66699 -22 14.334 -22 23.001z" />
    <glyph glyph-name="equal" unicode="=" horiz-adv-x="894" 
d="M64 139c0 12 9.66699 18 29 18h709c17.333 -0.666992 26 -6.66699 26 -18c0 -12.667 -8.33301 -19 -25 -19h-711c-18.667 0 -28 6.33301 -28 19zM64 361c0 12 9.66699 18 29 18h709c17.333 0 26 -5.66699 26 -17c0 -12.667 -8.33301 -19 -25 -19h-711
c-18.667 0 -28 6 -28 18z" />
    <glyph glyph-name="greater" unicode="&#x3e;" horiz-adv-x="894" 
d="M97 -56c0 8.66699 6.66797 16 20.001 22l618 284c-11.333 4.66699 -27.333 11.834 -48 21.501s-33.334 15.5 -38.001 17.5l-532 244c-13.333 5.33301 -20 12.666 -20 21.999c0 4.66699 1.66699 8.66699 5 12s7.33301 5 12 5c6 0 13 -2 21 -6l639 -294
c14 -6 21 -13.333 21 -22s-7 -16 -21 -22l-639 -294c-9.33301 -4.66699 -16.333 -7 -21 -7s-8.66699 1.66699 -12 5s-5 7.33301 -5 12z" />
    <glyph glyph-name="question" unicode="?" horiz-adv-x="543" 
d="M64 573c0 35.333 16.8252 65.3291 50.4922 89.9961s83.167 37 148.5 37c8.66699 0 16.667 -0.166992 24 -0.5s18.833 -1.33301 34.5 -3s29.667 -4 42 -7s26 -7.66699 41 -14s27.5 -13.833 37.5 -22.5s18.5 -20.167 25.5 -34.5s10.5 -30.166 10.5 -47.499
c0 -19.333 -4.83301 -36.833 -14.5 -52.5s-18.167 -26.167 -25.5 -31.5s-16.666 -11.333 -27.999 -18c-87.333 -50.667 -131 -112.667 -131 -186v-27c0 -13.333 -1.16699 -21.666 -3.5 -24.999s-9.16602 -5 -20.499 -5c-8 0 -13.5 0.833008 -16.5 2.5s-4.83301 4 -5.5 7
s-1 8.83301 -1 17.5v38c0 75.333 30 144.333 90 207c10.667 10.667 18 21.334 22 32.001s6 26.667 6 48c0 15.333 -0.666992 26.833 -2 34.5s-4.66602 16.167 -9.99902 25.5s-14.666 16 -27.999 20s-31 6 -53 6c-47.333 0 -85 -10.333 -113 -31l2 -1
c0.666992 0 1.83398 -0.333008 3.50098 -1s3.5 -1.5 5.5 -2.5s4 -2.16699 6 -3.5s4.16699 -3 6.5 -5s4.5 -4.16699 6.5 -6.5s3.83301 -5 5.5 -8s3.33398 -6.16699 5.00098 -9.5s2.83398 -7 3.50098 -11s1 -8.33301 1 -13c0 -19.333 -6.16699 -34.666 -18.5 -45.999
s-27.166 -17 -44.499 -17c-15.333 0 -29.5 5.16699 -42.5 15.5s-19.5 26.5 -19.5 48.5zM176.992 77.9961c0 21.333 7.5 39.666 22.5 54.999s33.5 23 55.5 23c21.333 0 39.666 -7.66699 54.999 -23s23 -33.666 23 -54.999s-7.66699 -39.666 -23 -54.999
s-33.666 -23 -54.999 -23c-22 0 -40.5 7.66699 -55.5 23s-22.5 33.666 -22.5 54.999z" />
    <glyph glyph-name="at" unicode="@" horiz-adv-x="894" 
d="M64 347c0 102.667 34.001 187.175 102.001 253.508s161.667 99.5 281 99.5c116.667 0 209.5 -32.333 278.5 -97s103.5 -150.667 103.5 -258c0 -20.667 -1.33301 -40.834 -4 -60.501s-7.83398 -42.667 -15.501 -69s-21 -47.5 -40 -63.5s-42.5 -24 -70.5 -24
c-60.667 0 -102.334 15 -125.001 45c-35.333 -30 -78.333 -45 -129 -45c-68.667 0 -123.834 20.167 -165.501 60.5s-62.5 93.166 -62.5 158.499c0 66 21 119 63 159s97 60 165 60c36.667 0 69 -7.83301 97 -23.5s49.667 -35.834 65 -60.501h39
c14.667 0 23.334 -1.33301 26.001 -4s4 -11 4 -25v-230c0 -39.333 11 -59 33 -59c48.667 0 73 58.667 73 176c0 105.333 -31.667 185.666 -95 240.999s-143.666 83 -240.999 83c-103.333 0 -185 -29.167 -245 -87.5s-90 -134.833 -90 -229.5
c0 -90.667 29 -166.167 87 -226.5s142 -90.5 252 -90.5c98 0 195.667 18.667 293 56c10.667 4.66699 22 7 34 7h24c18.667 0 28 -4.66699 28 -14c0 -2 -0.333008 -4.33301 -1 -7l-2 -3c-14 -7.33301 -35.167 -15.833 -63.5 -25.5s-72.666 -20.334 -132.999 -32.001
s-119.833 -17.5 -178.5 -17.5c-64.667 0 -122.167 9.66699 -172.5 29s-90.833 45.666 -121.5 78.999s-53.834 70.666 -69.501 111.999s-23.5 85.666 -23.5 132.999zM331.001 347.008c0 -60 11.333 -105.499 34 -136.499s50.334 -46.5 83.001 -46.5
c48.667 0 86.667 19.333 114 58v250c-28 38.667 -66 58 -114 58c-32.667 0 -60.334 -15.333 -83.001 -46s-34 -76.334 -34 -137.001z" />
    <glyph glyph-name="A" unicode="A" horiz-adv-x="869" 
d="M41 0l0.000976562 47h21c34.667 0 56.667 1.66699 66 5s15.666 9.33301 18.999 18l248 602c2.66699 7.33301 5 12.5 7 15.5s5.5 5.5 10.5 7.5s12.167 3 21.5 3c7.33301 0 12.666 -0.333008 15.999 -1s7.33301 -3 12 -7s8.66699 -10 12 -18l256 -625h97v-47
c-23.333 2 -77.666 3 -162.999 3c-92 0 -150.667 -1 -176 -3v47h95l-60 146h-268l-50 -121c-2.66699 -2.66699 -4 -6.66699 -4 -12c0 -8.66699 29.667 -13 89 -13v-47c-24.667 2 -68.667 3 -132 3c-2 0 -41 -1 -117 -3zM275.001 240h228l-114 278z" />
    <glyph glyph-name="B" unicode="B" horiz-adv-x="818" 
d="M39 0v46.999h108v592h-108v47h434c77.333 0 138 -16.5 182 -49.5s66 -73.833 66 -122.5c0 -38.667 -15.333 -72 -46 -100s-73 -46.667 -127 -56c60 -4.66699 109.167 -22.667 147.5 -54s57.5 -70.666 57.5 -117.999c0 -52 -21.833 -96 -65.5 -132
s-105.167 -54 -184.5 -54h-464zM278 46.999l184 0.000976562c22.667 0 42.834 3 60.501 9s31.334 14.333 41.001 25s17.667 21 24 31s10.666 21.167 12.999 33.5s3.83301 21.166 4.5 26.499s1 10.333 1 15c0 44.667 -11 81 -33 109c-22.667 28.667 -56.334 43 -101.001 43
h-194v-292zM278 375h156.001c46.667 0 82.5 13 107.5 39s37.5 59.333 37.5 100c0 13.333 -1.66699 26.5 -5 39.5s-8.83301 26.333 -16.5 40s-19.834 24.667 -36.501 33s-37 12.5 -61 12.5h-182v-264z" />
    <glyph glyph-name="C" unicode="C" horiz-adv-x="830" 
d="M64 343c0 104 36.3369 188.999 109.004 254.999s170.334 99 293.001 99c75.333 0 141 -22.667 197 -68l66 59c6.66699 6 13 9 19 9c8 0 13 -1.83301 15 -5.5s3 -11.167 3 -22.5v-215c0 -13.333 -1.33301 -21.333 -4 -24s-10.334 -4 -23.001 -4c-11.333 0 -18.333 1 -21 3
s-4.66699 8 -6 18c-10.667 62 -37 111.333 -79 148s-90.667 55 -146 55c-85.333 0 -153.333 -25.667 -204 -77c-44 -46 -66 -122.667 -66 -230c0 -100 19.667 -174 59 -222c48 -56.667 119.333 -85 214 -85c56.667 0 108.167 17 154.5 51s71.166 82 74.499 144
c0.666992 8 2.66699 12.833 6 14.5s9 2.5 17 2.5c9.33301 0 15.666 -1.16699 18.999 -3.5s5 -8.16602 5 -17.499c0 -61.333 -27.833 -116.333 -83.5 -165s-127.834 -73 -216.501 -73c-122.667 0 -220.334 33 -293.001 99s-109 151 -109 255z" />
    <glyph glyph-name="D" unicode="D" horiz-adv-x="881" 
d="M39 0l0.000976562 47h108v592h-108v47h430c101.333 0 184.666 -31.333 249.999 -94s98 -147.667 98 -255c0 -104.667 -32.5 -187 -97.5 -247s-148.167 -90 -249.5 -90h-431zM283.001 47l146 -0.000976562c92 0 157.667 28 197 84c16 22.667 27.333 49.334 34 80.001
s10 73 10 127c0 99.333 -14.333 170 -43 212c-41.333 59.333 -107.333 89 -198 89h-146v-592z" />
    <glyph glyph-name="E" unicode="E" horiz-adv-x="755" 
d="M39 0l-0.00195312 47.001h108v586h-108v47h621l31 -241h-47c-3.33301 27.333 -7.16602 49.833 -11.499 67.5s-11.166 35.167 -20.499 52.5s-21 31 -35 41s-32.333 18 -55 24s-49.667 9 -81 9h-152v-257h55c44.667 0 73.5 9 86.5 27s19.5 48 19.5 90h47v-281h-47
c0 42 -6.5 72 -19.5 90s-41.833 27 -86.5 27h-55v-282h152c30 0 56.5 2.16699 79.5 6.5s42.5 11.666 58.5 21.999s29.5 21.333 40.5 33s20.167 27 27.5 46s13 37.167 17 54.5s8 39 12 65h47l-46 -274h-638z" />
    <glyph glyph-name="F" unicode="F" horiz-adv-x="723" 
d="M39 0l0.000976562 47h108v586h-108v47h605l31 -241h-47c-3.33301 26.667 -7 48.5 -11 65.5s-10.333 34.5 -19 52.5s-19.834 32 -33.501 42s-31.834 18.167 -54.501 24.5s-49.667 9.5 -81 9.5h-140v-269h50c44.667 0 73.334 9 86.001 27s19 48 19 90h47v-281h-47
c0 42 -6.33301 72 -19 90s-41.334 27 -86.001 27h-50v-270h135v-47c-29.333 2 -96.666 3 -201.999 3c-96.667 0 -157.667 -1 -183 -3z" />
    <glyph glyph-name="G" unicode="G" horiz-adv-x="904" 
d="M64 343c0 104.667 36.5 189.832 109.5 255.499s170.167 98.5 291.5 98.5c74 0 139.667 -22.667 197 -68l66 59c6.66699 6 13 9 19 9c8 0 13 -1.83301 15 -5.5s3 -11.167 3 -22.5v-215c0 -13.333 -1.33301 -21.333 -4 -24s-10.334 -4 -23.001 -4
c-11.333 0 -18.333 1 -21 3s-4.66699 8 -6 18c-10.667 62 -37 111.333 -79 148s-90.333 55 -145 55c-46.667 0 -88.667 -8 -126 -24s-66.333 -37 -87 -63c-38 -50 -57 -123 -57 -219c0 -96.667 18.667 -169 56 -217c23.333 -30 54.833 -52.667 94.5 -68
s81.834 -23 126.501 -23c36 0 66 7 90 21c26 15.333 39 39 39 71v101h-144v47c36 -2 104.333 -3 205 -3c84 0 137.667 1 161 3v-47h-80v-201c0 -18.667 -4.66699 -28 -14 -28c-4.66699 0 -18.667 5.83301 -42 17.5s-42 23.5 -56 35.5c-34.667 -42.667 -96.667 -64 -186 -64
c-125.333 0 -223.833 33.333 -295.5 100s-107.5 151.334 -107.5 254.001z" />
    <glyph glyph-name="H" unicode="H" horiz-adv-x="900" 
d="M39 0v47h108v592h-108v47c25.333 -2 85 -3 179 -3s153.667 1 179 3v-47h-108v-259h321v259h-108v47c25.333 -2 85 -3 179 -3s153.667 1 179 3v-47h-108v-592h108v-47c-25.333 2 -85 3 -179 3s-153.667 -1 -179 -3v47h108v286h-321v-286h108v-47c-25.333 2 -85 3 -179 3
s-153.667 -1 -179 -3z" />
    <glyph glyph-name="I" unicode="I" horiz-adv-x="436" 
d="M33 0v47h114v592h-114v47c27.333 -2 89 -3 185 -3s157.667 1 185 3v-47h-114v-592h114v-47c-27.333 2 -89 3 -185 3s-157.667 -1 -185 -3z" />
    <glyph glyph-name="J" unicode="J" horiz-adv-x="594" 
d="M23 114c0 24.667 7.66797 43.667 23.001 57s33.333 20 54 20c19.333 0 36.833 -6.66699 52.5 -20s23.5 -32.333 23.5 -57c0 -16 -3.83301 -30 -11.5 -42s-15.167 -20 -22.5 -24l-12 -6c25.333 -11.333 52.333 -17 81 -17c22.667 0 41.5 5.16699 56.5 15.5
s25.167 24 30.5 41s8.66602 30 9.99902 39s2 18.5 2 28.5v490h-141v47c32 -2 98.333 -3 199 -3c82.667 0 135.667 1 159 3v-47h-81v-489c0 -50.667 -21.167 -90.167 -63.5 -118.5s-97.833 -42.5 -166.5 -42.5c-57.333 0 -103.833 11.333 -139.5 34s-53.5 53 -53.5 91z" />
    <glyph glyph-name="K" unicode="K" horiz-adv-x="901" 
d="M39 0v47h108v592h-108v47c25.333 -2 85 -3 179 -3s153.667 1 179 3v-47h-108v-320l370 309c-2.66699 0.666992 -4 1.33398 -4 2.00098c0 1.33301 -3 2.66602 -9 3.99902c-16.667 3.33301 -36 5 -58 5v47c24 -2 72.667 -3 146 -3c41.333 0 75.333 1 102 3v-47h-17
c-48 0 -79.333 -6 -94 -18l-240 -200l270 -354c6.66699 -8.66699 13.334 -14.167 20.001 -16.5s22.667 -3.5 48 -3.5h29v-47c-24.667 2 -73.334 3 -146.001 3c-90 0 -148.667 -1 -176 -3v47c36.667 0 61 2.66699 73 8c-3.33301 7.33301 -6 12 -8 14l-206 271l-100 -83v-210
h108v-47c-25.333 2 -85 3 -179 3s-153.667 -1 -179 -3z" />
    <glyph glyph-name="L" unicode="L" horiz-adv-x="691" 
d="M39 0l0.00195312 46.999h108v592h-108v47c25.333 -2 86.333 -3 183 -3c105.333 0 172.666 1 201.999 3v-47h-135v-592h103c24.667 0 47.167 3.16699 67.5 9.5s37 14 50 23s24.833 21 35.5 36s18.667 28.167 24 39.5s10.166 26 14.499 44s7 31.333 8 40
s2.5 20.334 4.5 35.001h47l-31 -274h-573z" />
    <glyph glyph-name="M" unicode="M" horiz-adv-x="1091" 
d="M40 0l-0.00195312 47.001h25c20 0 38 1 54 3c14 1.33301 22.333 3.16602 25 5.49902s4 9.16602 4 20.499v563h-108v47h222c8.66699 0 15 -0.333008 19 -1s8.33301 -2.83398 13 -6.50098s8.66699 -9.5 12 -17.5l240 -529l240 529c5.33301 11.333 10.833 18.333 16.5 21
s14.834 4 27.501 4h221v-47h-108v-592h108v-47c-24 2 -81 3 -171 3c-89.333 0 -146 -1 -170 -3v47h108v592h-1l-279 -615c-7.33301 -16 -18 -24 -32 -24s-24.667 8.33301 -32 25l-272 601h-1v-550c0 -11.333 1.33301 -18.166 4 -20.499s11.334 -4.16602 26.001 -5.49902
c18 -2 35.667 -3 53 -3h25v-47c-27.333 2 -72.333 3 -135 3c-64 0 -108.667 -1 -134 -3z" />
    <glyph glyph-name="N" unicode="N" horiz-adv-x="900" 
d="M39 0l0.000976562 47h25c20 0 38 1 54 3c14 1.33301 22.333 3.16602 25 5.49902s4 9.16602 4 20.499v563h-108v47h229c10 0 16.667 -0.666992 20 -2s7.66602 -5 12.999 -11l398 -468v405c0 11.333 -1.33301 18.166 -4 20.499s-11.334 4.16602 -26.001 5.49902
c-18 2 -35.667 3 -53 3h-25v47c27.333 -2 72.333 -3 135 -3c64 0 108.667 1 134 3v-47h-25c-20 0 -38 -1 -54 -3c-14 -1.33301 -22.333 -3.16602 -25 -5.49902s-4 -9.16602 -4 -20.499v-578c0 -13.333 -1.33301 -22 -4 -26s-10.334 -6 -23.001 -6
c-8 0 -13.167 0.666992 -15.5 2s-6.16602 5 -11.499 11l-498 586v-523c0 -11.333 1.33301 -18.166 4 -20.499s11.334 -4.16602 26.001 -5.49902c18 -2 35.667 -3 53 -3h25v-47c-27.333 2 -72.333 3 -135 3c-64 0 -108.667 -1 -134 -3z" />
    <glyph glyph-name="O" unicode="O" horiz-adv-x="863" 
d="M64 339c0 106.667 33.167 193 99.5 259s155.833 99 268.5 99c110.667 0 199.5 -32.667 266.5 -98s100.5 -152 100.5 -260c0 -104 -33 -188.333 -99 -253s-155.667 -97 -269 -97c-112 0 -201.167 32.167 -267.5 96.5s-99.5 148.833 -99.5 253.5zM217 354
c0 -94.667 13.667 -167.667 41 -219c19.333 -35.333 44.833 -61.5 76.5 -78.5s63.834 -25.5 96.501 -25.5c73.333 0 129.666 31.667 168.999 95c30.667 50.667 46 126.667 46 228c0 92 -14 161.667 -42 209c-19.333 31.333 -44.5 54.833 -75.5 70.5s-63.5 23.5 -97.5 23.5
c-32 0 -63 -7.16699 -93 -21.5s-54.667 -35.833 -74 -64.5c-31.333 -48.667 -47 -121 -47 -217z" />
    <glyph glyph-name="P" unicode="P" horiz-adv-x="786" 
d="M39 0v47.002h108v592h-108v47h417c81.333 0 145.833 -18.333 193.5 -55s71.5 -83.334 71.5 -140.001s-24.5 -102.334 -73.5 -137.001s-109.5 -52 -181.5 -52h-177v-255h108v-47c-25.333 2 -85 3 -179 3s-153.667 -1 -179 -3zM283 343.002l133.998 0.000976562
c20.667 0 39.167 1.66699 55.5 5s29.833 7.16602 40.5 11.499s19.667 10.833 27 19.5s12.833 16.5 16.5 23.5s6.33398 16.5 8.00098 28.5s2.66699 21.667 3 29s0.5 17.666 0.5 30.999c0 16 -0.333008 28.167 -1 36.5s-2.16699 19.333 -4.5 33
s-6.66602 24.334 -12.999 32.001s-14.833 15.5 -25.5 23.5s-25 13.833 -43 17.5s-39 5.5 -63 5.5h-135v-296z" />
    <glyph glyph-name="Q" unicode="Q" horiz-adv-x="863" 
d="M64 339c0 106.667 33.165 192.997 99.498 258.997s155.833 99 268.5 99c110.667 0 199.5 -32.667 266.5 -98s100.5 -152 100.5 -260c0 -30 -3.33301 -59.333 -10 -88s-17.167 -58.167 -31.5 -88.5s-35.666 -58.166 -63.999 -83.499s-62.166 -45.666 -101.499 -60.999
c9.33301 -14 18.333 -25.333 27 -34s17.167 -14.667 25.5 -18s15 -5.33301 20 -6s11.5 -1 19.5 -1c52.667 0 81 13 85 39c2 13.333 8 20 18 20c12 0 18 -8.66699 18 -26c0 -26 -4 -52.333 -12 -79s-23 -51.167 -45 -73.5s-48.667 -33.5 -80 -33.5c-18 0 -34 3.5 -48 10.5
s-25.167 14.833 -33.5 23.5s-16.5 22.834 -24.5 42.501s-14 36.667 -18 51s-9.66699 35.833 -17 64.5c-30 -6 -61.667 -9 -95 -9c-114 0 -203.833 32.333 -269.5 97s-98.5 149 -98.5 253zM210.998 339.997c0 -27.333 0.999023 -51.332 2.99902 -71.999s6.5 -46.5 13.5 -77.5
s19.833 -58.5 38.5 -82.5s42.334 -43 71.001 -57c-2 4.66699 -3 12 -3 22c0 23.333 9.66699 42.833 29 58.5s42 23.5 68 23.5c20.667 0 40 -5.5 58 -16.5s31 -21.333 39 -31s17.333 -22.5 28 -38.5c64 44 96 134.333 96 271c0 93.333 -13.667 164 -41 212
c-39.333 70 -99.333 105 -180 105c-13.333 0 -27 -1.33301 -41 -4s-29.667 -7.66699 -47 -15s-34.5 -18.833 -51.5 -34.5s-31.5 -34.834 -43.5 -57.501c-24.667 -47.333 -37 -116 -37 -206zM369.997 72.998c0 -6 1.16602 -11.833 3.49902 -17.5s8.5 -11.5 18.5 -17.5
s23.333 -9 40 -9c30.667 0 58 5.33301 82 16c-15.333 49.333 -42.666 74 -81.999 74c-16.667 0 -31.167 -4.33301 -43.5 -13s-18.5 -19.667 -18.5 -33z" />
    <glyph glyph-name="R" unicode="R" horiz-adv-x="862" 
d="M39 0v47.0029h108v592h-108v47h380c91.333 0 163.833 -17.667 217.5 -53s80.5 -79.333 80.5 -132c0 -35.333 -14 -67.5 -42 -96.5s-69.667 -50.5 -125 -64.5c64 -24 101.333 -63 112 -117c0 -1.33301 1.66699 -14.833 5 -40.5s5.33301 -40.5 6 -44.5
c2 -14.667 4 -26.834 6 -36.501s5.5 -21.334 10.5 -35.001s12.333 -24 22 -31s21.5 -10.5 35.5 -10.5c16 0 30 6 42 18s19.333 29 22 51c0.666992 5.33301 1.33398 9.33301 2.00098 12s2.66699 5.16699 6 7.5s8.33301 3.5 15 3.5c16 0 24 -7.33301 24 -22
c0 -4.66699 -0.666992 -10.5 -2 -17.5s-4.5 -15.833 -9.5 -26.5s-11.5 -20.5 -19.5 -29.5s-19.833 -16.667 -35.5 -23s-33.5 -9.5 -53.5 -9.5c-63.333 0 -112.333 8.66699 -147 26c-16.667 8 -30 17 -40 27s-17 22.333 -21 37s-6.5 27.167 -7.5 37.5
s-1.5 26.166 -1.5 47.499c0 40 -1.5 67 -4.5 81s-12.167 29.333 -27.5 46c-20.667 22.667 -50.334 34 -89.001 34h-117v-278h108v-47c-24 2 -82.667 3 -176 3s-152 -1 -176 -3zM283 361.003h116.002c31.333 0 58 3.33301 80 10s38.5 14 49.5 22s19.333 19.5 25 34.5
s8.83398 27 9.50098 36s1 21.167 1 36.5c0 16 -0.5 28.833 -1.5 38.5s-4.33301 21.667 -10 36s-13.834 25.5 -24.501 33.5s-26.834 15.167 -48.501 21.5s-47.834 9.5 -78.501 9.5h-118v-278z" />
    <glyph glyph-name="S" unicode="S" horiz-adv-x="638" 
d="M64 17l-0.000976562 181.996c0 12.667 1.16699 20.667 3.5 24s9.16602 5 20.499 5c5.33301 0 9.5 -0.333008 12.5 -1s5.33301 -2 7 -4s2.66699 -4.16699 3 -6.5s0.5 -6.16602 0.5 -11.499c2 -34.667 11.5 -64.167 28.5 -88.5s38.667 -41.833 65 -52.5
s50.833 -18 73.5 -22s45.667 -6 69 -6c46.667 0 80 12 100 36s30 51 30 81c0 31.333 -13.333 60.333 -40 87c-10.667 10 -22.5 17 -35.5 21s-43.5 11.333 -91.5 22c-60.667 13.333 -102.167 24.333 -124.5 33s-44.833 24.334 -67.5 47.001c-36 38 -54 82.333 -54 133
c0 56.667 19.333 104.334 58 143.001s94 58 166 58c68 0 125 -18.333 171 -55l45 44c8 7.33301 14.667 11 20 11c8 0 13 -1.83301 15 -5.5s3 -11.167 3 -22.5v-183c0 -12 -1.16699 -19.667 -3.5 -23s-9.16602 -5 -20.499 -5c-10 0 -16.167 1.16699 -18.5 3.5
s-4.5 9.83301 -6.5 22.5c-7.33301 42.667 -22.666 77.334 -45.999 104.001s-48 44.334 -74 53.001s-54 13 -84 13c-45.333 0 -78 -10.833 -98 -32.5s-30 -45.834 -30 -72.501c0 -28 10 -51 30 -69s42 -29.667 66 -35l145 -31c48 -10 88.667 -34.333 122 -73
s50 -84.667 50 -138c0 -57.333 -18.833 -107.333 -56.5 -150s-94.5 -64 -170.5 -64c-84 0 -150.667 18.333 -200 55l-46 -46c-6.66699 -6 -13 -9 -19 -9c-8 0 -13 1.83301 -15 5.5s-3 11.167 -3 22.5z" />
    <glyph glyph-name="T" unicode="T" horiz-adv-x="800" 
d="M42 434l21.002 240.999h673l21 -241h-47c-2.66699 28 -5 49.5 -7 64.5s-6.5 32.333 -13.5 52s-15.833 34.167 -26.5 43.5s-25.667 17.333 -45 24s-43 10 -71 10h-76v-581h153v-47c-36 2 -110.667 3 -224 3s-188 -1 -224 -3v47h153v581h-77
c-28 0 -51.833 -3.5 -71.5 -10.5s-34.834 -15.167 -45.501 -24.5s-19.334 -23.666 -26.001 -42.999s-11.167 -36.5 -13.5 -51.5s-4.5 -36.5 -6.5 -64.5h-47z" />
    <glyph glyph-name="U" unicode="U" horiz-adv-x="884" 
d="M39 639l0.000976562 47.002c25.333 -2 85 -3 179 -3s153.667 1 179 3v-47h-108v-416c0 -16.667 0.5 -30.667 1.5 -42s4.66699 -27 11 -47s15.166 -36.333 26.499 -49s28.833 -24 52.5 -34s52.167 -15 85.5 -15c28.667 0 55.5 3.5 80.5 10.5s48 17.833 69 32.5
s37.667 35.167 50 61.5s18.5 57.166 18.5 92.499v377c0 11.333 -1.33301 18.166 -4 20.499s-11.334 4.16602 -26.001 5.49902c-18 2 -35.667 3 -53 3h-25v47c27.333 -2 72.333 -3 135 -3c64 0 108.667 1 134 3v-47h-25c-20 0 -38 -1 -54 -3
c-14 -1.33301 -22.333 -3.16602 -25 -5.49902s-4 -9.16602 -4 -20.499v-381c0 -66.667 -23.5 -123.334 -70.5 -170.001s-115.167 -70 -204.5 -70c-99.333 0 -176.666 22.833 -231.999 68.5s-83 103.5 -83 173.5v408h-108z" />
    <glyph glyph-name="V" unicode="V" horiz-adv-x="869" 
d="M26 639l0.000976562 47.001c23.333 -2 76 -3 158 -3c92.667 0 151.667 1 177 3v-47h-94l213 -479l202 455c0 0.666992 0.5 1.83398 1.5 3.50098s1.66699 3.16699 2 4.5s0.5 2.66602 0.5 3.99902c0 8 -29.333 12 -88 12v47c26 -2 69.667 -3 131 -3
c8 0 18.333 0.166992 31 0.5s27.334 0.833008 44.001 1.5s29.334 1 38.001 1v-47h-19c-23.333 0 -41 -1 -53 -3s-19.333 -4.33301 -22 -7s-5.33398 -6.66699 -8.00098 -12l-266 -601c-4.66699 -10.667 -10 -17.334 -16 -20.001s-14 -4 -24 -4
c-12.667 0 -21.334 1.83301 -26.001 5.5s-9.33398 10.5 -14.001 20.5l-276 621h-92z" />
    <glyph glyph-name="W" unicode="W" horiz-adv-x="1188" 
d="M24 639l-0.0078125 46.999c23.333 -2 74.333 -3 153 -3c91.333 0 149.666 1 174.999 3v-47h-96l177 -458l136 352l-41 106h-86v47c23.333 -2 74.333 -3 153 -3c91.333 0 149.666 1 174.999 3v-47h-96l177 -458l172 447c-19.333 7.33301 -53.333 11 -102 11v47
c24 -2 69.333 -3 136 -3c17.333 0 53 1 107 3v-47c-24.667 0 -43.667 -0.666992 -57 -2c-15.333 -1.33301 -24.666 -3.16602 -27.999 -5.49902s-6.66602 -7.83301 -9.99902 -16.5l-231 -597c-3.33301 -9.33301 -7.16602 -16 -11.499 -20s-12.166 -6 -23.499 -6
s-19.166 2 -23.499 6s-8.16602 10.667 -11.499 20l-174 450l-174 -450c-3.33301 -9.33301 -7.16602 -16 -11.499 -20s-12.166 -6 -23.499 -6s-19.166 2 -23.499 6s-8.16602 10.667 -11.499 20l-240 621h-86z" />
    <glyph glyph-name="X" unicode="X" horiz-adv-x="869" 
d="M34 0l-0.000976562 47h29c20.667 0 41 1 61 3c15.333 1.33301 25.166 3 29.499 5s8.83301 6 13.5 12l202 265l-222 307h-98v47c23.333 -2 77.333 -3 162 -3c93.333 0 153.666 1 180.999 3v-47h-83l143 -197l132 175c0.666992 0.666992 2 2.5 4 5.5s3.33301 4.83301 4 5.5
c-23.333 7.33301 -54 11 -92 11v47c24 -2 74.667 -3 152 -3c61.333 0 106 1 134 3v-47h-29c-22.667 0 -42 -1 -58 -3c-17.333 -1.33301 -28.166 -2.83301 -32.499 -4.5s-9.16602 -6.16699 -14.499 -13.5l-168 -221l253 -350h98v-47c-23.333 2 -77.333 3 -162 3
c-93.333 0 -153.666 -1 -180.999 -3v47h83l-174 241l-165 -219c-0.666992 -0.666992 -2 -2.5 -4 -5.5s-3.33301 -4.83301 -4 -5.5c23.333 -7.33301 54 -11 92 -11v-47c-24 2 -74.667 3 -152 3c-61.333 0 -106 -1 -134 -3z" />
    <glyph glyph-name="Y" unicode="Y" horiz-adv-x="869" 
d="M19 639l-0.000976562 47.001c23.333 -2 78.333 -3 165 -3c94.667 0 155.667 1 183 3v-47h-85l203 -297l187 275c1.33301 2 3.66602 6 6.99902 12c-17.333 6.66699 -42.666 10 -75.999 10v47c24.667 -2 68.667 -3 132 -3c8 0 18.333 0.166992 31 0.5
s27.334 0.833008 44.001 1.5s29.667 1 39 1v-47h-21c-17.333 0 -34.666 -1 -51.999 -3c-18.667 -2.66699 -30.334 -6.33398 -35.001 -11.001l-4 -6l-235 -345v-227h109v-47c-25.333 2 -84.333 3 -177 3c-93.333 0 -152 -1 -176 -3v47h108v227l-249 365h-98z" />
    <glyph glyph-name="Z" unicode="Z" horiz-adv-x="702" 
d="M64 26c0 9.33301 2.66797 18.0029 8.00098 26.0029l400 587h-130c-70 0 -122.333 -15.667 -157 -47s-54 -80.333 -58 -147h-47l12 241h514c8.66699 0 14.834 -0.333008 18.501 -1s6.83398 -2.83398 9.50098 -6.50098s4 -9.5 4 -17.5s-2.66699 -16 -8 -24l-399 -586h140
c28.667 0 54.334 2.5 77.001 7.5s41.5 11.167 56.5 18.5s28.167 17.666 39.5 30.999s20 25.666 26 36.999s11.167 26.166 15.5 44.499s7.16602 33.666 8.49902 45.999s2.66602 28.5 3.99902 48.5h47l-18 -284h-531c-8.66699 0 -14.834 0.333008 -18.501 1
s-6.83398 2.83398 -9.50098 6.50098s-4 9.83398 -4 18.501z" />
    <glyph glyph-name="bracketleft" unicode="[" horiz-adv-x="319" 
d="M105 -250v1000h189v-36h-80v-928h80v-36h-189z" />
    <glyph glyph-name="backslash" unicode="\" 
d="M64 732c0 4 1.66699 7.66699 5 11s7.33301 5 12 5c3.33301 0 6.33301 -0.666992 9 -2s5.16699 -3.66602 7.5 -6.99902s4 -6 5 -8s2.5 -5.83301 4.5 -11.5s3.33301 -8.83398 4 -9.50098l389 -913c6 -13.333 9 -23 9 -29c0 -3.33301 -1.66699 -7 -5 -11s-7.33301 -6 -12 -6
c-9.33301 0 -17 8 -23 24l-400 939c-3.33301 10 -5 16 -5 18z" />
    <glyph glyph-name="bracketright" unicode="]" horiz-adv-x="319" 
d="M25 -214h80v928h-80v36h189v-1000h-189v36z" />
    <glyph glyph-name="asciicircum" unicode="^" horiz-adv-x="703" 
d="M132 502l219 130l218 -130l-22 -42l-196 90l-197 -90z" />
    <glyph glyph-name="underscore" unicode="_" horiz-adv-x="894" 
d="M96 -278c0 20.667 13 31 39 31h621c26.667 0 40 -10.333 40 -31c0 -20 -13.333 -30 -40 -30h-621c-26 0 -39 10 -39 30z" />
    <glyph glyph-name="grave" unicode="`" 
d="M112 599c0 16 5.83301 30.498 17.5 43.498s25.5 19.5 41.5 19.5c2.66699 0 5.16699 -0.166992 7.5 -0.5s4.5 -0.666016 6.5 -0.999023s4.33301 -1.33301 7 -3l7 -4.5c2 -1.33301 5 -3.5 9 -6.5s7.5 -5.83301 10.5 -8.5l13 -12l16 -15l20.5 -19l24 -22l39 -36l-25 -40
l-62 21c-60 20 -97 34.333 -111 43s-21 22.334 -21 41.001z" />
    <glyph glyph-name="a" unicode="a" horiz-adv-x="559" 
d="M32 108c0 95.333 108.337 147.668 325.004 157.001v34c0 78.667 -36.667 118 -110 118c-26 0 -50 -2.33301 -72 -7c14.667 -10 22 -26.333 22 -49c0 -20 -6.33301 -35.5 -19 -46.5s-27.334 -16.5 -44.001 -16.5c-15.333 0 -29.5 5.5 -42.5 16.5s-19.5 26.5 -19.5 46.5
c0 61.333 59.667 92 179 92c72 0 126.667 -14 164 -42s56 -65.333 56 -112v-215c0 -9.33301 0.666992 -16 2 -20s6.66602 -7.83301 15.999 -11.5s23.666 -5.5 42.999 -5.5c6 0 10.333 -0.333008 13 -1s5.5 -2.66699 8.5 -6s4.5 -8.66602 4.5 -15.999
c0 -10.667 -2.33301 -17.334 -7 -20.001s-13 -4 -25 -4h-48c-24.667 0 -44.667 2.33301 -60 7s-25.833 11.667 -31.5 21s-9.16699 17.166 -10.5 23.499s-2 14.833 -2 25.5c-28.667 -55.333 -78.334 -83 -149.001 -83c-20 0 -40 1.5 -60 4.5s-40.667 8.33301 -62 16
s-38.5 19.5 -51.5 35.5s-19.5 35.333 -19.5 58zM149.004 109.002c0 -22 8.83398 -40.665 26.501 -55.998s39.167 -23 64.5 -23c8.66699 0 18.5 1.33301 29.5 4s23.667 7.33398 38 14.001s26.166 18 35.499 34s14 35 14 57v95
c-14.667 -0.666992 -28.5 -1.83398 -41.5 -3.50098s-30.5 -5.33398 -52.5 -11.001s-40.667 -12.5 -56 -20.5s-28.833 -19.833 -40.5 -35.5s-17.5 -33.834 -17.5 -54.501z" />
    <glyph glyph-name="b" unicode="b" horiz-adv-x="638" 
d="M37 639l0.000976562 46.999l177 8v-293c39.333 32.667 88.333 49 147 49c72 0 129.833 -21 173.5 -63s65.5 -96.667 65.5 -164c0 -69.333 -23.333 -124.833 -70 -166.5s-107.334 -62.5 -182.001 -62.5c-56 0 -104.667 20.667 -146 62l-49 -56h-47v600
c0 18.667 -3.5 29.834 -10.5 33.501s-26.5 5.5 -58.5 5.5zM220.001 98.999c30.667 -46 70.333 -69.002 119 -69.002c46.667 0 82.334 17.333 107.001 52c17.333 26 26 73 26 141c0 16.667 -0.166992 29.834 -0.5 39.501s-1.5 23.167 -3.5 40.5s-5.66699 31.5 -11 42.5
s-12.333 22.333 -21 34s-20.334 20.334 -35.001 26.001s-31.667 8.5 -51 8.5c-26 0 -50.5 -6 -73.5 -18s-41.833 -27.333 -56.5 -46v-251z" />
    <glyph glyph-name="c" unicode="c" horiz-adv-x="511" 
d="M38 222c0 64 21.165 118.501 63.498 163.501s105.5 67.5 189.5 67.5c116 0 174 -30.667 174 -92c0 -20 -6.33301 -35.5 -19 -46.5s-27.334 -16.5 -44.001 -16.5c-15.333 0 -29.5 5.5 -42.5 16.5s-19.5 26.5 -19.5 46.5c0 18.667 6.66699 34 20 46c-17.333 4 -39 6 -65 6
c-24.667 0 -45.667 -5 -63 -15s-30.166 -21.167 -38.499 -33.5s-14.666 -28.666 -18.999 -48.999s-6.83301 -36 -7.5 -47s-1 -24.833 -1 -41.5c0 -128.667 46.333 -193 139 -193c60.667 0 102.334 27.333 125.001 82c2.66699 6.66699 5.16699 10.834 7.5 12.501
s7.83301 2.5 16.5 2.5c16 0 24 -4.66699 24 -14c0 -2.66699 -1.33301 -7.83398 -4 -15.501s-8.33398 -17.834 -17.001 -30.501s-19.667 -24.5 -33 -35.5s-32.166 -20.667 -56.499 -29s-51.5 -12.5 -81.5 -12.5c-76 0 -136.333 21.167 -181 63.5s-67 97.166 -67 164.499z" />
    <glyph glyph-name="d" unicode="d" horiz-adv-x="638" 
d="M38 221c0 69.333 23.333 124.833 70 166.5s107 62.5 181 62.5c51.333 0 96.333 -15 135 -45v195c0 18.667 -3.5 29.834 -10.5 33.501s-26.5 5.5 -58.5 5.5v47l177 8v-608c0 -18.667 3.5 -29.834 10.5 -33.501s26.5 -5.5 58.5 -5.5v-47l-183 -6v49
c-40.667 -32.667 -87.334 -49 -140.001 -49c-73.333 0 -131.666 21.167 -174.999 63.5s-65 96.833 -65 163.5zM166 221c0 -16.667 0.167969 -29.832 0.500977 -39.499s1.5 -23.167 3.5 -40.5s5.66699 -31.5 11 -42.5s12.333 -22.333 21 -34s20.334 -20.334 35.001 -26.001
s31.667 -8.5 51 -8.5c51.333 0 94.666 24.333 129.999 73v250c-30.667 40.667 -70.334 61 -119.001 61c-47.333 0 -83 -17.333 -107 -52c-17.333 -26 -26 -73 -26 -141z" />
    <glyph glyph-name="e" unicode="e" horiz-adv-x="527" 
d="M32 225c0 65.333 21.832 119.665 65.499 162.998s104.167 65 181.5 65c68.667 0 121.667 -18 159 -54c37.333 -37.333 56 -88.666 56 -153.999c0 -12.667 -2.16699 -20.334 -6.5 -23.001s-12.833 -4 -25.5 -4h-302c0 -122.667 47.333 -184 142 -184
c32.667 0 62 7.33301 88 22s44.333 34 55 58c3.33301 8.66699 6.33301 14.334 9 17.001s8 4 16 4c16 0 24 -6 24 -18c0 -4.66699 -1.83301 -11.167 -5.5 -19.5s-10.334 -18.666 -20.001 -30.999s-21.667 -23.833 -36 -34.5s-33.666 -19.667 -57.999 -27s-51.5 -11 -81.5 -11
c-79.333 0 -142.666 21.5 -189.999 64.5s-71 98.5 -71 166.5zM159.999 250.999h239.001c-3.33301 110.667 -43.333 166 -120 166c-40.667 0 -72.334 -17.333 -95.001 -52c-13.333 -20.667 -21.333 -58.667 -24 -114z" />
    <glyph glyph-name="f" unicode="f" horiz-adv-x="351" 
d="M42 397l-0.000976562 47.002h75v101c0 52 20.333 90.833 61 116.5s89 38.5 145 38.5c36.667 0 64.834 -8.66699 84.501 -26s29.5 -37.666 29.5 -60.999c0 -19.333 -6.16699 -34.5 -18.5 -45.5s-26.833 -16.5 -43.5 -16.5c-15.333 0 -29.333 5.33301 -42 16s-19 26 -19 46
c0 21.333 7.66699 37.666 23 48.999c-4.66699 1.33301 -10.334 2 -17.001 2s-13.5 -0.5 -20.5 -1.5s-15.667 -4 -26 -9s-19.166 -11.333 -26.499 -19s-13.833 -19.334 -19.5 -35.001s-8.5 -33.834 -8.5 -54.501v-101h121v-47h-115v-350h87v-47c-24 2 -70 3 -138 3
c-14 0 -56 -1 -126 -3v47h69v350h-75z" />
    <glyph glyph-name="g" unicode="g" 
d="M32 -75c0 14.667 3.66602 27.8291 10.999 39.4961s16.666 20.667 27.999 27s20.5 11 27.5 14s13.5 5.16699 19.5 6.5c-29.333 23.333 -44 55.333 -44 96c0 30.667 11.333 60.334 34 89.001c-16 11.333 -28.667 26.5 -38 45.5s-14 38.833 -14 59.5
c0 40 16.5 74.667 49.5 104s82.833 44 149.5 44c56.667 0 101.334 -11 134.001 -33c32 25.333 67.333 38 106 38c20.667 0 36.334 -6.16699 47.001 -18.5s16 -25.5 16 -39.5c0 -12 -4 -22.167 -12 -30.5s-18.333 -12.5 -31 -12.5s-23 4 -31 12s-12 18.333 -12 31
c0 6.66699 1.33301 13.334 4 20.001c-21.333 -2 -42 -8.33301 -62 -19c26.667 -28.667 40 -60.667 40 -96c0 -40 -16.5 -74.667 -49.5 -104s-82.833 -44 -149.5 -44c-48 0 -88.667 8.66699 -122 26c-6.66699 -8.66699 -10 -19.667 -10 -33c0 -12.667 4.33301 -25.5 13 -38.5
s22.667 -21.167 42 -24.5c3.33301 -0.666992 29 -1 77 -1c40 0 69.333 -0.333008 88 -1s39.5 -3.16699 62.5 -7.5s43.5 -10.833 61.5 -19.5c50 -25.333 75 -67.666 75 -126.999c0 -37.333 -21.5 -68.166 -64.5 -92.499s-106.5 -36.5 -190.5 -36.5c-90 0 -155 13 -195 39
s-60 55 -60 87zM117.999 -73.0049c0 -25.333 14.167 -47.001 42.5 -65.001s70.5 -27 126.5 -27c58.667 0 101.5 9.33301 128.5 28s40.5 39.334 40.5 62.001c0 41.333 -48 62 -144 62h-117c-51.333 0 -77 -20 -77 -60zM166.999 301.994c0 -12.667 0.166992 -22.5 0.5 -29.5
s2 -16.5 5 -28.5s7.5 -21.333 13.5 -28s14.833 -12.667 26.5 -18s25.834 -8 42.501 -8s30.834 2.66699 42.501 8s20.5 11.333 26.5 18s10.5 16 13.5 28s4.66699 21.5 5 28.5s0.5 16.833 0.5 29.5s-0.166992 22.5 -0.5 29.5s-2 16.5 -5 28.5s-7.5 21.333 -13.5 28
s-14.833 12.667 -26.5 18s-25.834 8 -42.501 8s-30.834 -2.66699 -42.501 -8s-20.5 -11.333 -26.5 -18s-10.5 -16 -13.5 -28s-4.66699 -21.5 -5 -28.5s-0.5 -16.833 -0.5 -29.5z" />
    <glyph glyph-name="h" unicode="h" horiz-adv-x="638" 
d="M45 0l0.000976562 46.998h69v553c0 18.667 -3.5 29.834 -10.5 33.501s-26.5 5.5 -58.5 5.5v47l177 8v-340h1c37.333 64 93.666 96 168.999 96c51.333 0 89.833 -11.167 115.5 -33.5s38.5 -59.166 38.5 -110.499v-259h69v-47c-56 2 -98 3 -126 3s-70 -1 -126 -3v47h69v270
c0 36 -4.66699 61.167 -14 75.5s-23 21.5 -41 21.5c-36.667 0 -70.667 -13.833 -102 -41.5s-47 -66.5 -47 -116.5v-209h69v-47c-56 2 -98 3 -126 3s-70 -1 -126 -3z" />
    <glyph glyph-name="i" unicode="i" horiz-adv-x="319" 
d="M78 617c0 21.333 7.5 39.666 22.5 54.999s33.5 23 55.5 23c21.333 0 39.666 -7.66699 54.999 -23s23 -33.666 23 -54.999s-7.66699 -39.666 -23 -54.999s-33.666 -23 -54.999 -23c-22 0 -40.5 7.66699 -55.5 23s-22.5 33.666 -22.5 54.999zM47 0l0.000976562 46.999h69
v309c0 18.667 -3.33301 29.834 -10 33.501s-25.334 5.5 -56.001 5.5v47l174 8v-403h62v-47c-72 2 -111 3 -117 3c-19.333 0 -60 -1 -122 -3z" />
    <glyph glyph-name="j" unicode="j" horiz-adv-x="351" 
d="M111 617c0 21.333 7.5 39.666 22.5 54.999s33.5 23 55.5 23c21.333 0 39.666 -7.66699 54.999 -23s23 -33.666 23 -54.999s-7.66699 -39.666 -23 -54.999s-33.666 -23 -54.999 -23c-22 0 -40.5 7.66699 -55.5 23s-22.5 33.666 -22.5 54.999zM-56 -109
c0 18 5.83105 33 17.498 45s26.834 18 45.501 18c18 0 32.833 -6 44.5 -18s17.5 -26.667 17.5 -44c0 -21.333 -8 -38 -24 -50c15.333 -4 28.333 -6 39 -6c26.667 0 45.834 12.5 57.501 37.5s17.5 53.167 17.5 84.5v397c0 8.66699 -0.333008 15 -1 19
s-2.66699 7.83301 -6 11.5s-8.33301 6.16699 -15 7.5c-10 1.33301 -28 2 -54 2v47l184 8v-492c0 -49.333 -18.333 -88 -55 -116s-78.667 -42 -126 -42c-42 0 -76.167 8.16699 -102.5 24.5s-39.5 38.5 -39.5 66.5z" />
    <glyph glyph-name="k" unicode="k" horiz-adv-x="606" 
d="M37 0l-0.00195312 46.9971h69v553c0 18.667 -3.5 29.834 -10.5 33.501s-26.5 5.5 -58.5 5.5v47l177 8v-457l189 149c-7.33301 7.33301 -18.666 11 -33.999 11v47c46 -2 84.333 -3 115 -3c34 0 60 1 78 3v-47c-21.333 0 -38.166 -0.833008 -50.499 -2.5
s-20.5 -3.5 -24.5 -5.5s-9 -5.33301 -15 -10l-130 -101l169 -211c5.33301 -6 9.33301 -10.167 12 -12.5s7.66699 -4.16602 15 -5.49902s18 -2 32 -2h17v-47c-34 2 -68.667 3 -104 3c-51.333 0 -92 -1 -122 -3v47c20.667 0 31 3 31 9c0 1.33301 -8.33301 13 -25 35l-101 126
c-16 -11.333 -35 -25.666 -57 -42.999v-127h69v-47c-72 2 -112.333 3 -121 3c-6 0 -46 -1 -120 -3z" />
    <glyph glyph-name="l" unicode="l" horiz-adv-x="319" 
d="M47 0v46.999h69v553c0 18.667 -3.5 29.834 -10.5 33.501s-26.5 5.5 -58.5 5.5v47l177 8v-647h69v-47c-68 2 -109 3 -123 3c-18 0 -59 -1 -123 -3z" />
    <glyph glyph-name="m" unicode="m" horiz-adv-x="958" 
d="M45 0l-0.000976562 47h69v309c0 18.667 -3.5 29.834 -10.5 33.501s-26.5 5.5 -58.5 5.5v47l172 8v-108c36.667 72 95.334 108 176.001 108c86 0 136 -32 150 -96c36 64 92.333 96 169 96c52.667 0 91.5 -11.333 116.5 -34s37.5 -59.334 37.5 -110.001v-259h69v-47
c-56 2 -98 3 -126 3s-70 -1 -126 -3v47h69v270c0 36.667 -4.66699 62 -14 76s-23.333 21 -42 21c-36 0 -69.833 -13.833 -101.5 -41.5s-47.5 -66.5 -47.5 -116.5v-209h69v-47c-56 2 -98 3 -126 3s-70 -1 -126 -3v47h69v270c0 36.667 -4.66699 62 -14 76s-23.333 21 -42 21
c-36 0 -69.833 -13.833 -101.5 -41.5s-47.5 -66.5 -47.5 -116.5v-209h69v-47c-56 2 -98 3 -126 3s-70 -1 -126 -3z" />
    <glyph glyph-name="n" unicode="n" horiz-adv-x="638" 
d="M45 0v46.998h69v309c0 18.667 -3.5 29.834 -10.5 33.501s-26.5 5.5 -58.5 5.5v47l172 8v-108c36.667 72 95 108 175 108c51.333 0 89.833 -11.167 115.5 -33.5s38.5 -59.166 38.5 -110.499v-259h69v-47c-56 2 -98 3 -126 3s-70 -1 -126 -3v47h69v270
c0 36 -4.66699 61.167 -14 75.5s-23 21.5 -41 21.5c-36.667 0 -70.667 -13.833 -102 -41.5s-47 -66.5 -47 -116.5v-209h69v-47c-56 2 -98 3 -126 3s-70 -1 -126 -3z" />
    <glyph glyph-name="o" unicode="o" 
d="M32 218c0 68.667 22.5029 125 67.5029 169s107.5 66 187.5 66c79.333 0 141.666 -22 186.999 -66s68 -100.333 68 -169c0 -64.667 -22.333 -118.167 -67 -160.5s-107.334 -63.5 -188.001 -63.5s-143.334 21.167 -188.001 63.5s-67 95.833 -67 160.5zM160.003 229
c0 -20 0.169922 -35.168 0.50293 -45.501s1.66602 -24.666 3.99902 -42.999s6.16602 -32.5 11.499 -42.5s12.5 -20.667 21.5 -32s21 -19.5 36 -24.5s32.833 -7.5 53.5 -7.5s38.5 2.5 53.5 7.5s27 13.167 36 24.5s16.167 22 21.5 32s9.16602 24.167 11.499 42.5
s3.66602 32.666 3.99902 42.999s0.5 25.5 0.5 45.5c0 68.667 -7 114.334 -21 137.001c-21.333 34 -56.666 51 -105.999 51c-53.333 0 -90 -19.333 -110 -58c-11.333 -22.667 -17 -66 -17 -130z" />
    <glyph glyph-name="p" unicode="p" horiz-adv-x="638" 
d="M37 -147h69v504c0 18.667 -3.5 29.667 -10.5 33s-26.5 5 -58.5 5v47l177 8v-49c42 32.667 92.333 49 151 49c71.333 0 128.333 -21 171 -63s64 -96.667 64 -164c0 -69.333 -23.167 -124.833 -69.5 -166.5s-107.166 -62.5 -182.499 -62.5
c-48.667 0 -91.334 15 -128.001 45v-186h69v-47c-56 2 -98 3 -126 3s-70 -1 -126 -3v47zM220 117c0 -10 0.49707 -16.332 1.49707 -18.999s4.16699 -7.33398 9.5 -14.001c30 -36 65.333 -54 106 -54c36.667 0 68.334 15.833 95.001 47.5s40 80.167 40 145.5
c0 60 -11.667 106.167 -35 138.5s-52.666 48.5 -87.999 48.5c-45.333 0 -83.333 -15.667 -114 -47c-7.33301 -7.33301 -11.666 -12.5 -12.999 -15.5s-2 -9.16699 -2 -18.5v-212z" />
    <glyph glyph-name="q" unicode="q" horiz-adv-x="606" 
d="M38 222c0 68.667 23.001 123.834 69.001 165.501s106 62.5 180 62.5c30 0 58.333 -7 85 -21s48.667 -33.333 66 -58l53 79h41v-597h69v-47c-56 2 -98 3 -126 3s-70 -1 -126 -3v47h69v195c-41.333 -36 -88 -54 -140 -54c-70.667 0 -128.334 20.667 -173.001 62
s-67 96.666 -67 165.999zM166.001 221c0 -62.667 11.834 -110.167 35.501 -142.5s52.5 -48.5 86.5 -48.5c49.333 0 89.666 23.333 120.999 70c10 14 15 28 15 42v139c0 28.667 -11.833 57.334 -35.5 86.001s-53.167 43 -88.5 43s-66.5 -15.333 -93.5 -46
s-40.5 -78.334 -40.5 -143.001z" />
    <glyph glyph-name="r" unicode="r" horiz-adv-x="473" 
d="M37 0v46.999h69v309c0 18.667 -3.5 29.834 -10.5 33.501s-26.5 5.5 -58.5 5.5v47l166 8v-113c27.333 75.333 71.666 113 132.999 113c28 0 52.667 -7.33301 74 -22s32 -34.667 32 -60c0 -18.667 -6.16699 -33.5 -18.5 -44.5s-26.5 -16.5 -42.5 -16.5
s-30.167 5.33301 -42.5 16s-18.5 25.667 -18.5 45c0 18 6.33301 33.333 19 46c-23.333 0 -43.666 -6.5 -60.999 -19.5s-30.333 -30 -39 -51s-15 -41.5 -19 -61.5s-6 -40 -6 -60v-175h87v-47c-24 2 -70 3 -138 3c-14 0 -56 -1 -126 -3z" />
    <glyph glyph-name="s" unicode="s" horiz-adv-x="453" 
d="M38 22v108.999c0 12.667 1.16699 20.667 3.5 24s9.16602 5 20.499 5c8 0 13.5 -0.666992 16.5 -2s5.5 -5.33301 7.5 -12c4 -14 8.5 -26.333 13.5 -37s12.667 -22.834 23 -36.501s24.666 -24.167 42.999 -31.5s39.833 -11 64.5 -11c76 0 114 25 114 75
c0 14 -3.66699 26 -11 36s-18 17.833 -32 23.5s-25.5 9.66699 -34.5 12s-20.167 4.5 -33.5 6.5c-32.667 6 -55.334 10.333 -68.001 13s-27.167 7.5 -43.5 14.5s-30.833 16.167 -43.5 27.5c-26.667 22.667 -40 50.667 -40 84c0 20.667 3.66699 39 11 55s17.5 28.5 30.5 37.5
s25.833 16.333 38.5 22s27.167 9.5 43.5 11.5s28.333 3.33301 36 4s15.834 1 24.501 1c42 0 75.667 -6.33301 101 -19c26 12.667 41 19 45 19c8 0 13 -1.83301 15 -5.5s3 -11.167 3 -22.5v-80c0 -12.667 -1.16699 -20.5 -3.5 -23.5s-9.16602 -4.5 -20.499 -4.5
c-10 0 -16.167 1.33301 -18.5 4s-3.83301 8 -4.5 16c-5.33301 56 -44.666 84 -117.999 84c-74.667 0 -112 -20.667 -112 -62c0 -11.333 3.16699 -21 9.5 -29s16 -14.333 29 -19s23.167 -8 30.5 -10s18.333 -4.33301 33 -7c43.333 -7.33301 74.5 -13.833 93.5 -19.5
s37.5 -15.167 55.5 -28.5c36.667 -29.333 55 -64.666 55 -105.999c0 -23.333 -3.66699 -43.833 -11 -61.5s-17.5 -31.5 -30.5 -41.5s-25.833 -18.167 -38.5 -24.5s-27.334 -10.666 -44.001 -12.999s-28.667 -3.83301 -36 -4.5s-15.666 -1 -24.999 -1
c-48 0 -87.333 10.667 -118 32l-26 -17c-14 -10 -24 -15 -30 -15c-8 0 -13 2 -15 6s-3 11.333 -3 22z" />
    <glyph glyph-name="t" unicode="t" horiz-adv-x="447" 
d="M21 397v36c46.667 1.33301 83 21.833 109 61.5s39.333 86.5 40 140.5h47v-191h146v-47h-146v-276c0 -58 19.333 -87 58 -87c16 0 30 7.5 42 22.5s18 38.167 18 69.5v51h47v-53c0 -37.333 -10.833 -68.333 -32.5 -93s-51.167 -37 -88.5 -37c-105.333 0 -158 43 -158 129
v274h-82z" />
    <glyph glyph-name="u" unicode="u" horiz-adv-x="638" 
d="M45 395l0.000976562 46.999l183 8v-341c0 -30.667 4.33301 -51.5 13 -62.5s31 -16.5 67 -16.5c36.667 0 66.5 12.333 89.5 37s34.5 57.334 34.5 98.001v191c0 18.667 -3.5 29.834 -10.5 33.501s-26.5 5.5 -58.5 5.5v47l183 8v-364c0 -18.667 3.5 -29.834 10.5 -33.501
s26.5 -5.5 58.5 -5.5v-47l-177 -6v78c-30.667 -52 -78.667 -78 -144 -78c-56.667 0 -100.834 9.16699 -132.501 27.5s-47.5 52.166 -47.5 101.499v233c0 18.667 -3.5 29.834 -10.5 33.501s-26.5 5.5 -58.5 5.5z" />
    <glyph glyph-name="v" unicode="v" horiz-adv-x="606" 
d="M26 397l-0.000976562 47c6.66699 0 24.667 -0.5 54 -1.5s49.333 -1.5 60 -1.5c49.333 0 90.666 1 123.999 3v-47h-54l127 -273l116 250c3.33301 6.66699 5 10.667 5 12c0 7.33301 -16 11 -48 11v47c42 -2 72.333 -3 91 -3c27.333 0 53.666 1 78.999 3v-47
c-29.333 0 -48.166 -1.5 -56.499 -4.5s-14.166 -8.5 -17.499 -16.5l-166 -356c-7.33301 -16 -19.666 -24 -36.999 -24s-30 8.33301 -38 25l-175 376h-64z" />
    <glyph glyph-name="w" unicode="w" horiz-adv-x="830" 
d="M25 397v46.9961c68 -2 104.333 -3 109 -3c41.333 0 82.333 1 123 3v-47h-56l105 -258l79 192c2.66699 8 4 12.333 4 13c0 2 -7 19.667 -21 53h-59v47c32 -2 65.333 -3 100 -3c12 0 50 1 114 3v-47h-56l114 -280l105 256c0 0.666992 0.5 1.83398 1.5 3.50098
s1.66699 3.33398 2 5.00098s0.5 2.83398 0.5 3.50098c0 8 -19.333 12 -58 12v47c44 -2 76 -3 96 -3c28 0 53.667 1 77 3v-47c-18.667 0 -32.834 -1 -42.501 -3s-15.834 -4.16699 -18.501 -6.5s-5 -6.16602 -7 -11.499l-144 -353c-2.66699 -7.33301 -5 -12.5 -7 -15.5
s-5.33301 -5.66699 -10 -8s-11 -3.5 -19 -3.5c-11.333 0 -19.166 2 -23.499 6s-8.5 11 -12.5 21l-106 259l-106 -259c-2.66699 -7.33301 -5 -12.5 -7 -15.5s-5.33301 -5.66699 -10 -8s-11 -3.5 -19 -3.5c-11.333 0 -19.166 2 -23.499 6s-8.5 11 -12.5 21l-153 374h-59z" />
    <glyph glyph-name="x" unicode="x" horiz-adv-x="606" 
d="M22 0v46.999c20.667 0 35.834 0.166992 45.501 0.5s20 2 31 5s19.167 7.5 24.5 13.5l131 147l-156 184h-71v47c66 -2 102.667 -3 110 -3c28.667 0 69 1 121 3v-47h-40l98 -115l84 94l8 12c-10 6 -22.667 9 -38 9v47c56 -2 90.333 -3 103 -3c26 0 56.667 1 92 3v-47
c-26.667 0 -47 -0.833008 -61 -2.5s-23 -3.66699 -27 -6s-8.66699 -6.5 -14 -12.5l-117 -130l168 -199h71v-47c-66 2 -102.667 3 -110 3c-28 0 -68 -1 -120 -3v47h39l-110 130l-97 -109c-4.66699 -5.33301 -7 -8.66602 -7 -9.99902c0 -7.33301 12.333 -11 37 -11v-47
c-40 2 -74.333 3 -103 3c-26.667 0 -57.334 -1 -92.001 -3z" />
    <glyph glyph-name="y" unicode="y" horiz-adv-x="606" 
d="M22 -108c0 18.667 5.66895 32.999 17.002 42.999s24.666 15 39.999 15c16.667 0 30.5 -5.33301 41.5 -16s16.5 -24.334 16.5 -41.001c0 -26 -10.667 -43.667 -32 -53c7.33301 -2.66699 15.333 -4 24 -4c16.667 0 31.834 3.5 45.501 10.5s25.667 17.333 36 31
s18.333 25.334 24 35.001s12.167 22.834 19.5 39.501l23 48l-187 397h-64v47c6.66699 0 24.667 -0.5 54 -1.5s49.333 -1.5 60 -1.5c49.333 0 90.666 1 123.999 3v-47h-54l127 -270l115 246c3.33301 3.33301 5 7.33301 5 12c0 8 -15.667 12 -47 12v47c42 -2 72.333 -3 91 -3
c28.667 0 55 1 79 3v-47c-20.667 0 -36.167 -0.833008 -46.5 -2.5s-16.833 -3.66699 -19.5 -6s-5.33398 -6.5 -8.00098 -12.5l-215 -457c-15.333 -32.667 -37.333 -60.667 -66 -84s-60.667 -35 -96 -35c-30 0 -55.333 9 -76 27s-31 39.667 -31 65z" />
    <glyph glyph-name="z" unicode="z" horiz-adv-x="511" 
d="M32 22c0 7.33301 3.00195 14.665 9.00195 21.998l279 364h-85c-50.667 0 -85.834 -10.167 -105.501 -30.5s-31.167 -56.5 -34.5 -108.5h-47l12 175h367c8 0 13.667 -0.166992 17 -0.5s6.66602 -2.16602 9.99902 -5.49902s5 -8.33301 5 -15
c0 -5.33301 -3.33301 -12.666 -10 -21.999l-277 -361h86c32 0 58.167 3.33301 78.5 10s35.833 18 46.5 34s18 32.333 22 49s7.33301 39.667 10 69h47l-18 -202h-380c-8 -0 -13.833 0.333008 -17.5 1s-7 2.66699 -10 6s-4.5 8.33301 -4.5 15z" />
    <glyph glyph-name="braceleft" unicode="{" 
d="M78 250c0 7.33301 2.16699 12.167 6.5 14.5s12.666 4 24.999 5s22.833 2.83301 31.5 5.5c59.333 18 89 52.667 89 104v224c0 10 0.166992 17.333 0.5 22s1.83301 12.667 4.5 24s6.83398 20.666 12.501 27.999s14.334 15.666 26.001 24.999s25.834 17.333 42.501 24
c42.667 16 93.334 24 152.001 24c6 0 10.5 -0.166992 13.5 -0.5s6 -2 9 -5s4.5 -7.16699 4.5 -12.5c0 -8 -2.5 -13.167 -7.5 -15.5s-14.167 -4 -27.5 -5s-25 -3.16699 -35 -6.5c-54 -16.667 -81 -49 -81 -97v-223c0 -70 -40.333 -115 -121 -135
c80.667 -20.667 121 -65.667 121 -135v-223c0 -9.33301 1.16699 -18.166 3.5 -26.499s7.16602 -18.666 14.499 -30.999s20.666 -22.833 39.999 -31.5s43.333 -14 72 -16c14.667 -1.33301 22 -7.66602 22 -18.999c0 -12 -8.33301 -18 -25 -18c-26.667 0 -52 1.66699 -76 5
s-48 8.83301 -72 16.5s-44.167 19.167 -60.5 34.5s-26.5 34 -30.5 56c-1.33301 8 -2 19.667 -2 35v215c0 24.667 -4.66699 44.667 -14 60c-20.667 32.667 -55.334 52 -104.001 58c-1.33301 0 -4 0.166992 -8 0.5s-6.66699 0.666016 -8 0.999023s-3.5 1 -6.5 2
s-5.16699 2.16699 -6.5 3.5s-2.5 3 -3.5 5s-1.5 4.66699 -1.5 8z" />
    <glyph glyph-name="bar" unicode="|" horiz-adv-x="319" 
d="M129 -209v914c0 29.333 10 44 30 44s30 -13 30 -39v-915c0 -29.333 -10 -44 -30 -44s-30 13.333 -30 40z" />
    <glyph glyph-name="braceright" unicode="}" 
d="M78 -231c0 5.33301 1.66211 9.33105 4.99512 11.998s7.16602 4.33398 11.499 5.00098s10.833 1.5 19.5 2.5s16.334 2.16699 23.001 3.5c62 14.667 93 48 93 100v223c0 9.33301 0.166992 16.666 0.5 21.999s2.5 14.5 6.5 27.5s9.83301 24 17.5 33s19.667 18.5 36 28.5
s36.166 18 59.499 24c-80 20 -120 65 -120 135v215c0 16 -1 28 -3 36c-5.33301 20.667 -19.166 38 -41.499 52s-49.166 22.333 -80.499 25l-5 1h-6.5c-1 0 -2.83301 0.5 -5.5 1.5s-4.5 2 -5.5 3s-2 2.66699 -3 5s-1.5 4.83301 -1.5 7.5c0 12.667 7.33301 19 22 19h4
c24.667 0 48.5 -1.5 71.5 -4.5s46.667 -8.16699 71 -15.5s45 -18.666 62 -33.999s27.833 -34 32.5 -56c2 -8 3 -20.333 3 -37v-217c0 -22 4.33301 -40.833 13 -56.5s20.167 -27.5 34.5 -35.5s27 -13.833 38 -17.5s22.167 -6.16699 33.5 -7.5h8
c4.66699 0 7.83398 -0.333008 9.50098 -1s4 -1.5 7 -2.5s5.16699 -2.83301 6.5 -5.5s2 -6 2 -10s-0.666992 -7.16699 -2 -9.5s-3.5 -4.16602 -6.5 -5.49902s-5.66699 -2.33301 -8 -3s-5.66602 -1.16699 -9.99902 -1.5s-7.16602 -0.5 -8.49902 -0.5
c-28 -3.33301 -52.833 -12.5 -74.5 -27.5s-35.167 -35.167 -40.5 -60.5c-1.33301 -6.66699 -2 -16.667 -2 -30v-215c0 -12 -0.666992 -22.167 -2 -30.5s-4.83301 -19.5 -10.5 -33.5s-16.167 -26.5 -31.5 -37.5s-34.666 -20.167 -57.999 -27.5c-38.667 -12 -85 -18 -139 -18
c-16.667 0 -25 6.33301 -25 19z" />
    <glyph glyph-name="asciitilde" unicode="~" horiz-adv-x="703" 
d="M95 611c2.66699 2.66699 9.00391 9.66406 19.0039 20.9971s16.167 18 18.5 20s7.5 6.66699 15.5 14s14 11.666 18 12.999s10 3.83301 18 7.5s16.167 5.83398 24.5 6.50098s17.833 1 28.5 1c23.333 0 64.333 -5.66699 123 -17s99.667 -17 123 -17
c38.667 0 70.667 11.333 96 34l26 -25l-18.5 -21c-8.33301 -9.33301 -14.166 -15.666 -17.499 -18.999s-8.5 -8.16602 -15.5 -14.499s-12.833 -10.666 -17.5 -12.999s-10.834 -5 -18.501 -8s-15.834 -5 -24.501 -6s-18.334 -1.5 -29.001 -1.5
c-26.667 0 -67.834 5.66699 -123.501 17s-96.834 17 -123.501 17c-17.333 0 -32.833 -2 -46.5 -6s-23.167 -7.83301 -28.5 -11.5s-12.333 -9.16699 -21 -16.5z" />
    <glyph glyph-name="uni00A0" unicode="&#xa0;" horiz-adv-x="383" 
 />
    <glyph glyph-name="exclamdown" unicode="&#xa1;" horiz-adv-x="350" 
d="M96 -134c0 4 0.666992 9.66699 2 17s2 12.333 2 15l48 343l2.5 15c0.333008 2 1.33301 5 3 9s4.16699 6.5 7.5 7.5s7.66602 1.5 12.999 1.5s9.66602 -0.5 12.999 -1.5s5.83301 -3.16699 7.5 -6.5s2.83398 -6 3.50098 -8s1.33398 -5.66699 2.00098 -11
s1.33398 -9.33301 2.00098 -12l49 -351c1.33301 -8 2 -14 2 -18c0 -20 -7.83301 -36.833 -23.5 -50.5s-33.834 -20.5 -54.501 -20.5c-20 0 -38.167 6.5 -54.5 19.5s-24.5 30.167 -24.5 51.5zM97 422c0 20.667 7.33301 38.834 22 54.501s33 23.5 55 23.5
c22.667 0 41.334 -7.83301 56.001 -23.5s22 -33.834 22 -54.501s-7.33301 -38.834 -22 -54.501s-33 -23.5 -55 -23.5c-22.667 0 -41.334 7.83301 -56.001 23.5s-22 33.834 -22 54.501z" />
    <glyph glyph-name="cent" unicode="&#xa2;" 
d="M38 223c0 25.333 4.00098 49.6621 12.001 72.9951s21.167 46.5 39.5 69.5s45 42.167 80 57.5s76.833 25 125.5 29v93h48v-92c24 0 44.667 -0.833008 62 -2.5s36.666 -5.16699 57.999 -10.5s37.833 -14.666 49.5 -27.999s17.5 -30 17.5 -50
c0 -18.667 -6.16699 -33.834 -18.5 -45.501s-27.166 -17.5 -44.499 -17.5s-32 5.66699 -44 17s-18 26.333 -18 45c0 16 6 31.333 18 46c-22 3.33301 -48.667 5 -80 5v-377c67.333 2.66699 114.333 24.334 141 65.001l7 11.5c2.66699 4.33301 4.5 7.5 5.5 9.5
s2.5 3.83301 4.5 5.5s4.16699 2.83398 6.5 3.50098s5.83301 1 10.5 1c15.333 0 23 -4.66699 23 -14c-0.666992 -4 -2 -9.16699 -4 -15.5s-7.33301 -15.5 -16 -27.5s-19.5 -23 -32.5 -33s-32.333 -19.5 -58 -28.5s-54.834 -14.833 -87.501 -17.5v-92h-48v92
c-48.667 3.33301 -90.5 12.833 -125.5 28.5s-61.667 34.834 -80 57.501s-31.5 45.834 -39.5 69.501s-12 47.834 -12 72.501zM166.001 222.996c0 -104 43.001 -165 129.001 -183v371c-46.667 -8 -79.834 -26.833 -99.501 -56.5s-29.5 -73.5 -29.5 -131.5z" />
    <glyph glyph-name="sterling" unicode="&#xa3;" horiz-adv-x="735" 
d="M63 51c0 26.667 13 47.9971 39 63.9971s60 24 102 24c16.667 0 35.667 -1.66699 57 -5l1 78v111h-61c-8.66699 0 -14.834 1.5 -18.501 4.5s-5.5 9.5 -5.5 19.5c0 16 8.66699 24 26 24h59v112c0 3.33301 -0.166992 8 -0.5 14s-0.5 10.333 -0.5 13
c0 36.667 6.66699 68.334 20 95.001s31.333 46.834 54 60.501s45.5 23.5 68.5 29.5s47.167 9 72.5 9c57.333 0 103.833 -18.667 139.5 -56s53.5 -78.666 53.5 -123.999c0 -23.333 -6.83301 -40.166 -20.5 -50.499s-27.834 -15.5 -42.501 -15.5
c-16.667 0 -31.167 5.83301 -43.5 17.5s-18.5 26.5 -18.5 44.5c0 14.667 4.66699 28.5 14 41.5s26 20.167 50 21.5c-29.333 56 -72.666 84 -129.999 84c-43.333 0 -73 -17 -89 -51c-8.66699 -17.333 -13 -47.333 -13 -90v-155h90c9.33301 0 16 -1.5 20 -4.5s6 -9.5 6 -19.5
s-2 -16.5 -6 -19.5s-10.667 -4.5 -20 -4.5h-90v-138c0 -28.667 -4.33301 -54.334 -13 -77.001l44 -13l42 -12.5c8 -2.33301 18.833 -5.16602 32.5 -8.49902s25.834 -5.5 36.501 -6.5s21.667 -1.5 33 -1.5c26 0 48.5 5.5 67.5 16.5s30.5 26.833 34.5 47.5
c1.33301 6 2.5 10.167 3.5 12.5s3 4.66602 6 6.99902s7.5 3.5 13.5 3.5c16.667 0 25 -7 25 -21c0 -32 -15.5 -62.833 -46.5 -92.5s-73.5 -44.5 -127.5 -44.5c-25.333 0 -54.166 3.83301 -86.499 11.5s-60 15.167 -83 22.5s-35.833 11 -38.5 11
c-3.33301 0 -10.833 -3.66699 -22.5 -11s-29.334 -14.833 -53.001 -22.5s-51.167 -11.5 -82.5 -11.5c-65.333 0 -98 18.667 -98 56zM128 48.9971c0 -12 11.332 -18 33.999 -18c28.667 0 53.334 10.333 74.001 31c-20.667 3.33301 -40 5 -58 5c-33.333 0 -50 -6 -50 -18z" />
    <glyph glyph-name="currency" unicode="&#xa4;" horiz-adv-x="773" 
d="M53 -18c0 2 0.327148 4.16113 0.994141 6.49414s1.83398 4.83301 3.50098 7.5s3.5 5.33398 5.5 8.00098s4.83301 6 8.5 10l10.5 11.5c3.33301 3.66699 8 8.33398 14 14.001l16.5 16l20 19.5l22.5 22v1c-40 50.667 -60 113.334 -60 188.001s20 137.334 60 188.001v1
c-54 53.333 -84.5 83.833 -91.5 91.5s-10.5 15.167 -10.5 22.5c0 8 2.83301 15 8.5 21s12.5 9 20.5 9c7.33301 0 15.833 -4 25.5 -12s26.834 -24.667 51.501 -50l39 -40c50.667 40 113.334 60 188.001 60h1c74 0 136.333 -20 187 -60h1c53.333 54 83.833 84.5 91.5 91.5
s15.167 10.5 22.5 10.5s14.166 -3 20.499 -9s9.5 -13 9.5 -21c0 -2 -0.166992 -3.83301 -0.5 -5.5s-1.16602 -3.66699 -2.49902 -6s-2.66602 -4.5 -3.99902 -6.5s-3.66602 -4.83301 -6.99902 -8.5l-9.5 -10.5c-3 -3.33301 -7.5 -7.83301 -13.5 -13.5l-17 -16.5l-21.5 -21.5
l-26.5 -26.5c40 -52 60 -114.667 60 -188c0 -72.667 -20 -135.667 -60 -189c60 -59.333 92.333 -92.333 97 -99c3.33301 -5.33301 5 -10.666 5 -15.999c0 -7.33301 -2.83301 -14 -8.5 -20s-12.5 -9 -20.5 -9c-7.33301 0 -14.166 2.83301 -20.499 8.5
s-25.833 24.834 -58.5 57.501l-36 36h-1c-50.667 -40 -113.667 -60 -189 -60c-72.667 0 -135.334 20 -188.001 60c-60 -60.667 -93 -93 -99 -97c-5.33301 -3.33301 -10.666 -5 -15.999 -5c-8 0 -14.833 2.83301 -20.5 8.5s-8.5 12.5 -8.5 20.5zM154.994 284.994
c0 -70.667 21 -126.668 63 -168.001s97.667 -62 167 -62c72 0 128.5 21 169.5 63s61.5 98 61.5 168c0 70.667 -20.833 126.667 -62.5 168s-97.167 62 -166.5 62c-71.333 0 -127.833 -21.167 -169.5 -63.5s-62.5 -98.166 -62.5 -167.499z" />
    <glyph glyph-name="yen" unicode="&#xa5;" horiz-adv-x="869" 
d="M19 638l0.000976562 47.998c94 -2 146.667 -3 158 -3c63.333 0 126.666 1 189.999 3v-48h-84l122 -180h141c8.66699 0 14.334 0.833008 17.001 2.5s7 6.83398 13 15.501l59 86c26.667 38.667 40 60 40 64c0 8 -24 12 -72 12v48c44.667 -2 89.667 -3 135 -3
c37.333 0 74.333 1 111 3v-48h-1c-46.667 0 -75.5 -1.5 -86.5 -4.5s-20.833 -10.833 -29.5 -23.5l-103 -152h142c20 0 30 -6 30 -18s-9.66699 -18 -29 -18h-169l-46.5 -70c-15 -22 -25.667 -37.167 -32 -45.5s-11.5 -16.666 -15.5 -24.999s-6 -16.833 -6 -25.5v-20h268
c20 0 30 -5.66699 30 -17c0 -9.33301 -5.33301 -15.333 -16 -18c-2 -0.666992 -8.66699 -1 -20 -1h-262v-152h108v-48c-60 2 -120.333 3 -181 3c-46 0 -103.333 -1 -172 -3v48h108v152h-262c-0.666992 0 -1.83398 -0.166992 -3.50098 -0.5s-3.16699 -0.5 -4.5 -0.5
c-18.667 0 -28 6.33301 -28 19c0 12 10 18 30 18h268v26c0 6.66699 -2.16699 13.667 -6.5 21s-16.833 26 -37.5 56l-45 65c-8 12 -17 18 -27 18h-149c-16 0 -26.333 3 -31 9c-2.66699 4.66699 -3.16699 9.5 -1.5 14.5s4.83398 8.5 9.50098 10.5
c3.33301 1.33301 25.666 2 66.999 2h95l-123 180h-98zM431.001 421.998l53 -79l55 79h-108z" />
    <glyph glyph-name="brokenbar" unicode="&#xa6;" horiz-adv-x="192" 
d="M65 126c0 19.333 5.33301 31.999 16 37.999c5.33301 2.66699 10 4 14 4s7.83301 -0.666992 11.5 -2s7.66699 -5.16602 12 -11.499s6.5 -14.833 6.5 -25.5v-339c0 -26.667 -9.66699 -40 -29 -40c-20.667 0 -31 13 -31 39v337zM65 370.999v335.001c0 28.667 10 43 30 43
s30 -13 30 -39v-336c0 -28 -10 -42 -30 -42c-4 0 -7.83301 0.666992 -11.5 2s-7.66699 5.16602 -12 11.499s-6.5 14.833 -6.5 25.5z" />
    <glyph glyph-name="section" unicode="&#xa7;" horiz-adv-x="529" 
d="M80 253c0 53.333 25 96.001 75 128.001c-50 50 -75 103.667 -75 161c0 46 18.333 83.667 55 113s80 44 130 44c46.667 0 86.334 -12 119.001 -36s49 -53.333 49 -88c0 -18.667 -5.83301 -33 -17.5 -43s-25.167 -15 -40.5 -15c-16 0 -29.333 5.33301 -40 16s-16 24 -16 40
c0 25.333 13.667 44 41 56c-26.667 22.667 -58 34 -94 34c-32.667 0 -60.167 -12.167 -82.5 -36.5s-33.5 -50.5 -33.5 -78.5c0 -16 7.33301 -29.333 22 -40s38.167 -21.5 70.5 -32.5s52.5 -18.5 60.5 -22.5c50 -24 86.667 -55.333 110 -94s35 -76.334 35 -113.001
c0 -54 -24.667 -96.667 -74 -128c50 -51.333 75 -105 75 -161c0 -45.333 -18.5 -82.833 -55.5 -112.5s-80.5 -44.5 -130.5 -44.5c-46.667 0 -86.167 12 -118.5 36s-48.5 53.333 -48.5 88c0 18 5.66699 32.333 17 43s24.666 16 39.999 16c16 0 29.5 -5.5 40.5 -16.5
s16.5 -24.5 16.5 -40.5c0 -26.667 -14 -45 -42 -55c28.667 -22.667 60.334 -34 95.001 -34c27.333 0 52.166 9.33301 74.499 28s35.5 44 39.5 76c0 0.666992 0.166992 2 0.5 4s0.5 3.33301 0.5 4c0 14 -5.33301 26.167 -16 36.5s-22.5 18 -35.5 23s-30.333 11.333 -52 19
s-38.167 14.167 -49.5 19.5c-50.667 24 -87.5 55.167 -110.5 93.5s-34.5 75.833 -34.5 112.5zM150 263.001c0 -18 7.16699 -32.001 21.5 -42.001s39.333 -21.333 75 -34s64.834 -25.334 87.501 -38.001c29.333 27.333 44 56.666 44 87.999c0 18.667 -7 32.834 -21 42.501
s-38.833 20.834 -74.5 33.501s-64.834 25.334 -87.501 38.001c-30 -28 -45 -57.333 -45 -88z" />
    <glyph glyph-name="dieresis" unicode="&#xa8;" 
d="M97 608c0 20 7.49902 37.998 22.499 53.998s33.5 24 55.5 24c20.667 0 38.667 -7.5 54 -22.5s23 -33.5 23 -55.5c0 -21.333 -7.5 -39.666 -22.5 -54.999s-33.167 -23 -54.5 -23s-39.666 7.33301 -54.999 22s-23 33.334 -23 56.001zM320.999 607.998
c0 21.333 7.49902 39.668 22.499 55.001s33.167 23 54.5 23c20.667 0 38.834 -7.5 54.501 -22.5s23.5 -33.5 23.5 -55.5c0 -22.667 -8 -41.334 -24 -56.001s-34 -22 -54 -22c-20.667 0 -38.667 7.5 -54 22.5s-23 33.5 -23 55.5z" />
    <glyph glyph-name="copyright" unicode="&#xa9;" horiz-adv-x="1277" 
d="M63 250c0 52 6.99902 102.332 20.999 150.999s36.167 94.834 66.5 138.501s67.5 81.834 111.5 114.501s98.5 58.667 163.5 78s136.5 29 214.5 29c172.667 0 311.334 -47.167 416.001 -141.5s157 -217.833 157 -370.5c0 -150.667 -51.833 -273.334 -155.5 -368.001
s-244.5 -142 -422.5 -142c-172.667 0 -311.167 47 -415.5 141s-156.5 217.333 -156.5 370zM123.999 249.999c0 -57.333 9.66797 -111.831 29.001 -163.498s48.666 -99.334 87.999 -143.001s93 -78.5 161 -104.5s146.333 -39 235 -39c158 0 283.333 41 376 123
s139 191 139 327c0 135.333 -46.333 244.166 -139 326.499s-217.667 123.5 -375 123.5s-282.333 -41 -375 -123s-139 -191 -139 -327zM319 240.001c0 74.667 30.3301 135.161 90.9971 181.494s140 69.5 238 69.5c56 0 107.333 -14 154 -42
c42.667 27.333 67.334 41 74.001 41c11.333 0 17 -9.33301 17 -28v-137c0 -12.667 -1.33301 -21.167 -4 -25.5s-9.66699 -6.5 -21 -6.5c-7.33301 0 -12.666 0.5 -15.999 1.5s-6 3 -8 6s-3.33301 6.33301 -4 10s-2.16699 9.33398 -4.5 17.001s-5.16602 15.167 -8.49902 22.5
c-11.333 23.333 -29.5 44.666 -54.5 63.999s-57.833 29 -98.5 29c-78.667 0 -135 -21.667 -169 -65c-22 -27.333 -33 -72.666 -33 -135.999c0 -19.333 0.5 -35.666 1.5 -48.999s5.33301 -30.833 13 -52.5s18.167 -39.167 31.5 -52.5s33.666 -25.166 60.999 -35.499
s60.333 -15.5 99 -15.5c41.333 0 78.333 10.167 111 30.5s51.334 49.5 56.001 87.5c0.666992 4.66699 1.16699 7.83398 1.5 9.50098s1.33301 3.83398 3 6.50098s4 4.5 7 5.5s7.16699 1.5 12.5 1.5c16 0 24 -7 24 -21c0 -17.333 -4.66699 -35.333 -14 -54
s-23 -36.667 -41 -54s-43.333 -31.666 -76 -42.999s-69.667 -17 -111 -17c-101.333 0 -182 23.5 -242 70.5s-90 107.167 -90 180.5z" />
    <glyph glyph-name="ordfeminine" unicode="&#xaa;" horiz-adv-x="511" 
d="M31 451c0 57.333 87.335 87.9951 262.002 91.9951v39c0 93.333 -25 140 -75 140c-18.667 0 -38.334 -4.66699 -59.001 -14c24.667 -11.333 37 -30.666 37 -57.999c0 -18 -6.16699 -32.833 -18.5 -44.5s-27.166 -17.5 -44.499 -17.5s-32 5.83301 -44 17.5
s-18 26.834 -18 45.501c0 31.333 14.667 57 44 77s65.666 30 108.999 30c21.333 0 41.833 -2.66699 61.5 -8s39.167 -14.166 58.5 -26.499s34.833 -30.833 46.5 -55.5s17.5 -53.667 17.5 -87c0 -3.33301 -0.166992 -7.66602 -0.5 -12.999s-0.5 -9.66602 -0.5 -12.999v-126
c11.333 -3.33301 25.333 -5 42 -5s28.167 -1.5 34.5 -4.5s9.5 -9.83301 9.5 -20.5c0 -16 -9.66699 -24 -29 -24h-52c-36 0 -60.833 2.5 -74.5 7.5s-22.834 15.167 -27.501 30.5c-24.667 -28.667 -65.667 -43 -123 -43c-104 0 -156 27 -156 81zM46.002 296.995
c2 12 11.667 18.001 29 18.001h363c16.667 -0.666992 25 -7.33398 25 -20.001c0 -11.333 -9 -17 -27 -17h-363c-19.333 0 -28.333 6.33301 -27 19zM149.002 450.996c0 -11.333 5 -21.667 15 -31s25.333 -14 46 -14c40 0 66 10 78 30c3.33301 6 5 16 5 30v45
c-96 -5.33301 -144 -25.333 -144 -60z" />
    <glyph glyph-name="guillemotleft" unicode="&#xab;" horiz-adv-x="639" 
d="M127 236c0 5.33301 7.66699 12.998 23 22.998c76.667 47.333 139.334 111.666 188.001 192.999c7.33301 13.333 15.333 20 24 20c11.333 0 17 -5 17 -15c0 -5.33301 -4.16699 -18.333 -12.5 -39s-23.5 -48.667 -45.5 -84s-47.333 -68 -76 -98
c36.667 -36 68.167 -78.333 94.5 -127s39.5 -79.667 39.5 -93c0 -10 -5.66699 -15 -17 -15c-8.66699 0 -16.667 6.33301 -24 19c-19.333 32.667 -41.333 62.834 -66 90.501s-45.834 48.167 -63.501 61.5s-34.5 25.333 -50.5 36s-24.333 16.334 -25 17.001
c-4 2.66699 -6 6.33398 -6 11.001zM321 235.998c0 4 4.16797 8.99707 12.501 14.9971l34.5 24c14.667 10 30.5 22 47.5 36s36.167 33.333 57.5 58s41 52.334 59 83.001c7.33301 13.333 15.333 20 24 20c11.333 0 17 -5 17 -15c0 -5.33301 -4.16699 -18.333 -12.5 -39
s-23.5 -48.667 -45.5 -84s-47.333 -68 -76 -98c36.667 -36 68.167 -78.333 94.5 -127s39.5 -79.667 39.5 -93c0 -10 -5.66699 -15 -17 -15c-8.66699 0 -16.667 6.33301 -24 19c-19.333 32.667 -41.333 62.834 -66 90.501s-45.834 48.167 -63.501 61.5s-34.5 25.333 -50.5 36
s-24.333 16.334 -25 17.001c-4 4 -6 7.66699 -6 11z" />
    <glyph glyph-name="logicalnot" unicode="&#xac;" horiz-adv-x="766" 
d="M64 340c0 20 13 30 39 30h552c0.666992 0 1.66699 0.166992 3 0.5s2.33301 0.5 3 0.5c17.333 0 28.5 -3.66699 33.5 -11s7.5 -18 7.5 -32v-228c0 -26 -10 -39 -30 -39s-30.333 13 -31 39v210h-541c-24 0.666992 -36 10.667 -36 30z" />
    <glyph glyph-name="uni00AD" unicode="&#xad;" horiz-adv-x="192" 
d="M12 174v97h306v-97h-306z" />
    <glyph glyph-name="registered" unicode="&#xae;" horiz-adv-x="1277" 
d="M63 250c0 52 6.99902 102.332 20.999 150.999s36.167 94.834 66.5 138.501s67.5 81.834 111.5 114.501s98.5 58.667 163.5 78s136.5 29 214.5 29c172.667 0 311.334 -47.167 416.001 -141.5s157 -217.833 157 -370.5c0 -150.667 -51.833 -273.334 -155.5 -368.001
s-244.5 -142 -422.5 -142c-172.667 0 -311.167 47 -415.5 141s-156.5 217.333 -156.5 370zM123.999 249.999c0 -57.333 9.66797 -111.831 29.001 -163.498s48.666 -99.334 87.999 -143.001s93 -78.5 161 -104.5s146.333 -39 235 -39c158 0 283.333 41 376 123
s139 191 139 327c0 135.333 -46.333 244.166 -139 326.499s-217.667 123.5 -375 123.5s-282.333 -41 -375 -123s-139 -191 -139 -327zM274 0.000976562l-0.00195312 48.001h109v384h-109v48h319c101.333 0 174 -13.667 218 -41s66 -58.333 66 -93
c0 -28.667 -12.667 -51.834 -38 -69.501s-54 -30.5 -86 -38.5l5 -2c2.66699 -1.33301 5.5 -3 8.5 -5l11 -7c4.33301 -2.66699 8.5 -6 12.5 -10s8 -8.33301 12 -13s7.66699 -10.167 11 -16.5s6 -13.166 8 -20.499c2 -6.66699 4.83301 -20.167 8.5 -40.5
s7.16699 -36.333 10.5 -48s10.166 -22.834 20.499 -33.501s23.5 -16 39.5 -16c15.333 0 27.833 5.16699 37.5 15.5s15.834 23.166 18.501 38.499c2 16.667 7.33301 26.334 16 29.001c2.66699 0.666992 5.33398 1 8.00098 1c16 0 24 -8 24 -24
c0 -7.33301 -1.66699 -15.833 -5 -25.5s-8.66602 -20.167 -15.999 -31.5s-19 -20.833 -35 -28.5s-34.667 -11.5 -56 -11.5h-16c-72 0 -122.5 8 -151.5 24s-43.5 46.333 -43.5 91v37c0 26 -7.16699 46 -21.5 60s-35.5 21 -63.5 21h-77v-174h109v-48c-57.333 2 -115 3 -173 3
c-60.667 0 -121 -1 -181 -3zM518.998 258.002h59.001c24.667 0 43.5 0.333008 56.5 1s28.667 4.16699 47 10.5s30.166 15.833 35.499 28.5c4.66699 10.667 7 28 7 52c-0.666992 34.667 -11 57 -31 67s-56.333 15 -109 15h-65v-174z" />
    <glyph glyph-name="macron" unicode="&#xaf;" 
d="M80 645v52h415v-52h-415z" />
    <glyph glyph-name="degree" unicode="&#xb0;" horiz-adv-x="383" 
d="M64 559c0 36.667 11.667 67 35 91s54.333 36 93 36c38 0 68.667 -12 92 -36s35 -54.667 35 -92s-11.833 -67.833 -35.5 -91.5s-54.5 -35.5 -92.5 -35.5s-68.667 12 -92 36s-35 54.667 -35 92zM125 558c0 -21.333 6 -37.666 18 -48.999s28 -17 48 -17c20.667 0 37 6 49 18
s18 28.333 18 49c0 21.333 -6 37.666 -18 48.999s-28 17 -48 17c-20.667 0 -37 -6 -49 -18s-18 -28.333 -18 -49z" />
    <glyph glyph-name="plusminus" unicode="&#xb1;" horiz-adv-x="894" 
d="M64 -8c0 20.667 13.999 30.999 41.999 30.999h310v292h-307c-10 0 -17.667 0.666992 -23 2c-14.667 4.66699 -22 14.334 -22 29.001c0 20 13.333 30 40 30h312v307c0 10.667 0.666992 18.334 2 23.001c4.66699 14.667 14 22 28 22c14.667 0 24.334 -7.33301 29.001 -22
c1.33301 -5.33301 2 -13.333 2 -24v-306h306c10.667 0 18.667 -0.666992 24 -2c14.667 -4.66699 22 -14 22 -28c0 -14.667 -7.33301 -24.334 -22 -29.001c-5.33301 -1.33301 -13.333 -2 -24 -2h-306v-292h313c25.333 0 38 -10.333 38 -31c0 -20 -13 -30 -39 -30h-685
c-10.667 0 -19.167 2 -25.5 6s-10.333 8 -12 12s-2.5 8 -2.5 12z" />
    <glyph glyph-name="twosuperior" unicode="&#xb2;" horiz-adv-x="511" 
d="M57 347l0.00292969 87.998c0.666992 9.33301 2.5 15.5 5.5 18.5s10.5 7.16699 22.5 12.5l44.5 20l41.5 18.5l35.5 16.5c14.333 6.66699 25.166 12.167 32.499 16.5l25.5 15.5c9.66699 6 17 11.5 22 16.5s9.83301 10.667 14.5 17s8 13 10 20s3 14.167 3 21.5
c0 21.333 -9.16699 40.5 -27.5 57.5s-48.833 26.167 -91.5 27.5c4 -12 6 -22 6 -30c0 -21.333 -7 -38.666 -21 -51.999s-31 -20 -51 -20c-20.667 0 -37.834 7 -51.501 21s-20.5 31 -20.5 51c0 14.667 4.16699 27.334 12.5 38.001s17.666 18.5 27.999 23.5
s25 8.83301 44 11.5s34.333 4.16699 46 4.5s27.5 0.5 47.5 0.5c81.333 0 138 -13.5 170 -40.5s48 -57.833 48 -92.5c0 -20 -7 -39.333 -21 -58h21l-31 -223h-365zM192.003 472.998h89.999h46c8.66699 0 18.5 0.833008 29.5 2.5s17.833 3 20.5 4s6 4.33301 10 10
s6.33301 10.667 7 15s2 12.166 4 23.499c1.33301 7.33301 2.33301 13.333 3 18c-21.333 -10.667 -52.166 -21.667 -92.499 -33s-79.5 -24.666 -117.5 -39.999z" />
    <glyph glyph-name="threesuperior" unicode="&#xb3;" horiz-adv-x="511" 
d="M47 459c0 22.667 7.33203 41.167 21.999 55.5s33.334 21.5 56.001 21.5c21.333 0 39.333 -7.16699 54 -21.5s22 -32.833 22 -55.5c0 -26 -11.333 -47.333 -34 -64c24.667 -6.66699 47 -10 67 -10h5c26.667 0 45 6.66699 55 20s15 33.333 15 60
c0 26 -5.16699 45.5 -15.5 58.5s-29.166 19.833 -56.499 20.5h-19c-10 0 -18.333 2 -25 6c-16 -9.33301 -30.667 -14 -44 -14c-18.667 0 -35 6.16699 -49 18.5s-21 29.833 -21 52.5c0 38.667 14.833 74 44.5 106s70.5 48 122.5 48c56 0 100.667 -8.83301 134 -26.5
s50 -41.167 50 -70.5c0 -44 -31 -77.333 -93 -100c33.333 -6 62.5 -17.333 87.5 -34s37.5 -38.667 37.5 -66c0 -30.667 -17.167 -58.667 -51.5 -84s-90.5 -38 -168.5 -38c-70.667 0 -120.834 12 -150.501 36s-44.5 51 -44.5 81zM149.999 675
c18 -2 32.5 -7.66797 43.5 -17.001s17.833 -18.333 20.5 -27s4 -17.334 4 -26.001c0 -8 -1 -16 -3 -24c28 2 47.667 9.66699 59 23c12 14.667 18 36.334 18 65.001c0 10 -0.5 17.833 -1.5 23.5s-5.66699 11.834 -14 18.501s-20.5 10 -36.5 10c-36 0 -66 -15.333 -90 -46z
" />
    <glyph glyph-name="acute" unicode="&#xb4;" 
d="M243 535c78.667 72.667 122 111.666 130 116.999c9.33301 6.66699 19.333 10 30 10c16.667 0 30.5 -6.66699 41.5 -20s16.5 -27.666 16.5 -42.999c0 -18.667 -6.83301 -32.167 -20.5 -40.5s-50.167 -22.5 -109.5 -42.5l-63 -22z" />
    <glyph glyph-name="uni00B5" unicode="&#xb5;" horiz-adv-x="639" 
d="M44 -147l69.998 -0.00292969v506c0 14.667 -3.66699 24.167 -11 28.5s-23.333 6.5 -48 6.5h-11v48l184 8v-303c0 -3.33301 -0.166992 -8.16602 -0.5 -14.499s-0.5 -11.166 -0.5 -14.499c0 -34 4.5 -57 13.5 -69s31.5 -18 67.5 -18c31.333 0 59.833 10.833 85.5 32.5
s38.5 57.167 38.5 106.5v185c0 16.667 -3.16699 27.334 -9.5 32.001s-23.166 7 -50.499 7h-9v48l183 8v-365c0 -16 3.83301 -26.167 11.5 -30.5s23.834 -6.5 48.501 -6.5h10v-48l-178 -5v43l-1 34c-32 -51.333 -79.333 -77 -142 -77h-3c-24 0 -45.333 1.33301 -64 4v-146h69
v-48c-44 2 -87.667 3 -131 3c-7.33301 0 -48 -1 -122 -3v48z" />
    <glyph glyph-name="paragraph" unicode="&#xb6;" horiz-adv-x="703" 
d="M63 457c0 65.333 26.999 121.167 80.999 167.5s127.333 69.5 220 69.5h264c27.333 0 41 -10 41 -30c0 -12 -5.66699 -21 -17 -27c-4.66699 -2 -14.667 -3 -30 -3h-48v-768h49c14.667 0 24.334 -1.33301 29.001 -4c11.333 -5.33301 17 -14.333 17 -27
c0 -20 -13 -30 -39 -30h-314c-25.333 0.666992 -38 11 -38 31c0 10.667 5.33301 19 16 25c6 3.33301 15.667 5 29 5h50v354c-88 4.66699 -161.667 28.167 -221 70.5s-89 97.833 -89 166.5zM432.999 -133.999h80v768h-80v-768z" />
    <glyph glyph-name="periodcentered" unicode="&#xb7;" horiz-adv-x="275" 
d="M59 236c0 22.667 8 41.333 24 56s34 22 54 22c20.667 0 38.834 -7.5 54.501 -22.5s23.5 -33.5 23.5 -55.5c0 -20 -7.5 -38 -22.5 -54s-33.5 -24 -55.5 -24c-20.667 0 -38.834 7.5 -54.501 22.5s-23.5 33.5 -23.5 55.5z" />
    <glyph glyph-name="cedilla" unicode="&#xb8;" horiz-adv-x="511" 
d="M102 -163l11 -0.000976562c59.333 0 104 3.66699 134 11s45.333 21.333 46 42c0 32.667 -31.667 49.334 -95 50.001v60h114v-30c64 -11.333 96 -38 96 -80c0 -35.333 -24.167 -59 -72.5 -71s-121.5 -18 -219.5 -18h-14v36z" />
    <glyph glyph-name="onesuperior" unicode="&#xb9;" horiz-adv-x="511" 
d="M80 638l0.000976562 48c38.667 1.33301 72.167 6 100.5 14s48.166 16.5 59.499 25.5l32 24.5c10 7.33301 18.667 11 26 11c16.667 0 25 -11 25 -33v-333h108v-48h-59l44 1l-103 2l-119 -1l-83 -2h-15v48h107v264c-41.333 -13.333 -82.333 -20.333 -123 -21z" />
    <glyph glyph-name="ordmasculine" unicode="&#xba;" horiz-adv-x="511" 
d="M31 560c0 53.333 18.667 99.668 56 139.001s93.333 59 168 59c68.667 0 123 -18.833 163 -56.5s60 -84.834 60 -141.501c0 -57.333 -20 -103.333 -60 -138s-94.667 -52 -164 -52c-68 0 -122.167 17.333 -162.5 52s-60.5 80.667 -60.5 138zM46 296.002
c0 12.667 9 19.001 27 19.001h365c16.667 -0.666992 25 -7.33398 25 -20.001c0 -11.333 -9 -17 -27 -17h-363c-18 0 -27 6 -27 18zM159 550.003c0 -16.667 0.167969 -29.667 0.500977 -39s2.16602 -21.5 5.49902 -36.5s8.16602 -26.333 14.499 -34s15.833 -14.667 28.5 -21
s28 -9.5 46 -9.5c37.333 0 64 12.667 80 38c10.667 16.667 16 59.667 16 129c0 52 -4.33301 86.333 -13 103c-15.333 28 -42.666 42 -81.999 42c-18 0 -33.167 -2.83301 -45.5 -8.5s-21.833 -12.334 -28.5 -20.001s-11.667 -18.5 -15 -32.5s-5.33301 -26.167 -6 -36.5
s-1 -24.166 -1 -41.499v-33z" />
    <glyph glyph-name="guillemotright" unicode="&#xbb;" horiz-adv-x="639" 
d="M65 16c0 6.66699 4.5 20.668 13.5 42.001s24.333 49.166 46 83.499s46.5 65.833 74.5 94.5c-36.667 36 -68.167 78.5 -94.5 127.5s-39.5 80.167 -39.5 93.5c0 10 5.33301 15 16 15c8.66699 0 16.667 -6.66699 24 -20c47.333 -79.333 110 -143.333 188 -192
c16 -9.33301 24 -17.333 24 -24c0 -5.33301 -8 -13 -24 -23c-75.333 -46.667 -138 -111 -188 -193c-7.33301 -12.667 -15.333 -19 -24 -19c-10.667 0 -16 5 -16 15zM259 14.001c0 14.667 12.5 45 37.5 91s57.167 89.667 96.5 131c-25.333 25.333 -49 55.166 -71 89.499
s-38 63 -48 86s-15 37.833 -15 44.5c0 10.667 5.33301 16 16 16c8.66699 0 16.667 -6.66699 24 -20c47.333 -79.333 110 -143.333 188 -192c16 -9.33301 24 -17.333 24 -24c0 -5.33301 -7.66699 -13 -23 -23c-76.667 -47.333 -139.667 -111.666 -189 -192.999
c-7.33301 -12.667 -15.333 -19 -24 -19c-10.667 0 -16 4.33301 -16 13z" />
    <glyph glyph-name="onequarter" unicode="&#xbc;" horiz-adv-x="511" 
d="M2 278c0 20 13.334 30 40.001 30h421c13.333 0 22.666 -1.33301 27.999 -4c11.333 -5.33301 17 -14.333 17 -27c0 -20 -13.333 -30 -40 -30h-428c-25.333 0.666992 -38 11 -38 31zM31.001 -85c0 10 1.16504 16.832 3.49805 20.499s9.83301 11.5 22.5 23.5l240 219
c11.333 10.667 19.5 16.834 24.5 18.501s14.167 2.5 27.5 2.5h1c10.667 0 18.334 -1.5 23.001 -4.5s7.33398 -10.5 8.00098 -22.5v-236h98v-48h-98v-35h98v-48l-146 3l-189 -3v48h112v35h-225v27zM79.999 676.999l0.000976562 47c3.33301 0 14 0.166992 32 0.5
s30.667 0.833008 38 1.5s18.333 1.83398 33 3.50098s28.167 4.16699 40.5 7.5s24.833 7.66602 37.5 12.999c20 7.33301 31.333 11 34 11c18 0 27 -9.66699 27 -29v-316h108v-48l-183 3l-152 -3v48h107v269c-18.667 -3.33301 -34.334 -5.33301 -47.001 -6
s-26.167 -1 -40.5 -1s-25.833 -0.333008 -34.5 -1zM92 -64.001h175v159z" />
    <glyph glyph-name="onehalf" unicode="&#xbd;" horiz-adv-x="511" 
d="M2 278c0 20 13.334 30 40.001 30h421c13.333 0 22.666 -1.33301 27.999 -4c11.333 -5.33301 17 -14.333 17 -27c0 -20 -13.333 -30 -40 -30h-428c-25.333 0.666992 -38 11 -38 31zM57.001 -173c0.666992 10 3.33203 17.3359 7.99902 22.0029
c5.33301 5.33301 54.666 41 147.999 107l12 8c0.666992 0 4.33398 2.33301 11.001 7s11.834 8.5 15.501 11.5l16.5 13c7.33301 5.66699 13.166 11.334 17.499 17.001s9 12.167 14 19.5s8.66699 15.166 11 23.499s3.5 16.833 3.5 25.5c0 13.333 -4 24.833 -12 34.5
s-18.5 16.667 -31.5 21s-25.5 7.5 -37.5 9.5s-24.333 3 -37 3c2.66699 -6.66699 4 -12 4 -16c0 -15.333 -6.33301 -30 -19 -44s-30 -21 -52 -21c-21.333 0 -38.5 6.83301 -51.5 20.5s-19.5 29.5 -19.5 47.5c0 10 2.33301 18.833 7 26.5s12 13.5 22 17.5s19.333 7.5 28 10.5
s20.667 4.83301 36 5.5l34.5 1.5c7.66699 0.333008 18.834 0.5 33.501 0.5h9c22 0 41.5 -0.5 58.5 -1.5s36.5 -3.83301 58.5 -8.5s40.333 -10.834 55 -18.501s27.167 -18.834 37.5 -33.501s15.5 -32.334 15.5 -53.001c0 -18.667 -7 -37 -21 -55h21l-31 -223h-365v22z
M79.999 677.003l0.000976562 47c3.33301 0 14 0.166992 32 0.5s30.667 0.833008 38 1.5s18.333 1.83398 33 3.50098s28.167 4.16699 40.5 7.5s24.833 7.66602 37.5 12.999c20 7.33301 31.333 11 34 11c18 0 27 -9.66699 27 -29v-316h108v-48l-183 3l-152 -3v48h107v269
c-18.667 -3.33301 -34.334 -5.33301 -47.001 -6s-26.167 -1 -40.5 -1s-25.833 -0.333008 -34.5 -1zM245 -68.9971c64 0 104 1 120 3c7.33301 0.666992 12.666 2.16699 15.999 4.5s6.83301 8.66602 10.5 18.999s6.83398 26.166 9.50098 47.499
c-14 -7.33301 -29 -14.166 -45 -20.499s-53 -24.166 -111 -53.499z" />
    <glyph glyph-name="threequarters" unicode="&#xbe;" horiz-adv-x="511" 
d="M2 278c0 20 13.334 30 40.001 30h421c13.333 0 22.666 -1.33301 27.999 -4c11.333 -5.33301 17 -14.333 17 -27c0 -20 -13.333 -30 -40 -30h-428c-25.333 0.666992 -38 11 -38 31zM31.001 -85c0 10 1.16797 16.833 3.50098 20.5s9.83301 11.5 22.5 23.5l240 219
c11.333 10.667 19.666 17 24.999 19s14.333 3 27 3h1c10 0 17.5 -1.66699 22.5 -5s7.83301 -11 8.5 -23v-236h98v-48h-98v-35h98v-48l-146 3l-189 -3v48h112v35h-225v27zM47.002 473c0 22.667 7.50098 40.998 22.501 54.998s33.167 21 54.5 21s39.333 -7 54 -21
s22 -32.333 22 -55c0 -25.333 -10.667 -46.666 -32 -63.999c20.667 -5.33301 44 -8 70 -8c28 0 46.833 6.16699 56.5 18.5s14.5 30.5 14.5 54.5c0 14.667 -1.83301 27.167 -5.5 37.5s-7.83398 18 -12.501 23s-11.667 8.83301 -21 11.5s-16.666 4.16699 -21.999 4.5
s-14 0.5 -26 0.5c-10.667 0 -17.334 0.5 -20.001 1.5s-5.33398 3.5 -8.00098 7.5c-4 8.66699 -2.66699 16.334 4 23.001c3.33301 2.66699 14 4.66699 32 6s32 8 42 20c13.333 15.333 20 36 20 62c0 8.66699 -0.833008 16.167 -2.5 22.5s-6.5 12.5 -14.5 18.5
s-19.333 9 -34 9c-22 0 -44.333 -5 -67 -15c30 -14 45 -35.667 45 -65c0 -20 -6.83301 -36.5 -20.5 -49.5s-30.167 -19.5 -49.5 -19.5s-35.666 6.33301 -48.999 19s-20 29.667 -20 51c0 32.667 14.667 60.667 44 84s70 35 122 35c61.333 0 107.333 -9 138 -27
s46 -40.333 46 -67c0 -42.667 -29.667 -75 -89 -97c32.667 -6 61 -16.833 85 -32.5s36 -36.5 36 -62.5c0 -29.333 -17.167 -56.333 -51.5 -81s-89.833 -37 -166.5 -37c-71.333 0 -122 11.833 -152 35.5s-45 50.5 -45 80.5zM92.0029 -64.002h175v159z" />
    <glyph glyph-name="questiondown" unicode="&#xbf;" horiz-adv-x="543" 
d="M63 -71c0 6.66699 0.501953 13.0029 1.50195 19.0029s2.16699 11.5 3.5 16.5s3.33301 10 6 15s5 9.16699 7 12.5s4.66699 7 8 11s6 7 8 9s4.83301 4.5 8.5 7.5s6.16699 5 7.5 6s3.66602 2.5 6.99902 4.5l5 4c70.667 50 106 114 106 192v22c0 9.33301 1.5 16 4.5 20
s9.5 6 19.5 6s16.5 -2 19.5 -6s4.5 -11 4.5 -21c0 -0.666992 -0.166992 -2 -0.5 -4s-0.5 -3.66699 -0.5 -5v-13c0 -44 -5.33301 -82.833 -16 -116.5s-23.834 -62.834 -39.501 -87.501s-23.5 -37.334 -23.5 -38.001c-5.33301 -12.667 -8 -31.334 -8 -56.001v-5
c0 -22.667 1 -39.167 3 -49.5s8 -19 18 -26s25.333 -10.5 46 -10.5c54.667 0 100.667 11 138 33c-28.667 10.667 -43 30.667 -43 60c0 18 6 32.833 18 44.5s27 17.5 45 17.5s32.833 -5.83301 44.5 -17.5s17.5 -27.167 17.5 -46.5c0 -14.667 -3.33301 -28.667 -10 -42
s-17.667 -26.833 -33 -40.5s-38.833 -24.5 -70.5 -32.5s-69.5 -12 -113.5 -12c-38 0 -70.333 4.16699 -97 12.5s-46.167 19.5 -58.5 33.5s-20.833 27.5 -25.5 40.5s-7 27.167 -7 42.5zM177.002 422.003c0 20.667 7.33301 38.834 22 54.501s33 23.5 55 23.5
c22.667 0 41.334 -7.83301 56.001 -23.5s22 -33.834 22 -54.501s-7.33301 -38.834 -22 -54.501s-33 -23.5 -55 -23.5c-22.667 0 -41.334 7.83301 -56.001 23.5s-22 33.834 -22 54.501z" />
    <glyph glyph-name="Agrave" unicode="&#xc0;" horiz-adv-x="869" 
d="M41 0l0.000976562 47h21c34.667 0 56.667 1.66699 66 5s15.666 9.33301 18.999 18l248 602c2.66699 7.33301 5 12.5 7 15.5s5.5 5.5 10.5 7.5s12.167 3 21.5 3c7.33301 0 12.666 -0.333008 15.999 -1s7.33301 -3 12 -7s8.66699 -10 12 -18l256 -625h97v-47
c-23.333 2 -77.666 3 -162.999 3c-92 0 -150.667 -1 -176 -3v47h95l-60 146h-268l-50 -121c-2.66699 -2.66699 -4 -6.66699 -4 -12c0 -8.66699 29.667 -13 89 -13v-47c-24.667 2 -68.667 3 -132 3c-2 0 -41 -1 -117 -3zM275.001 240h228l-114 278zM279.001 812
c0 16 5.16699 30.5 15.5 43.5s23.833 19.5 40.5 19.5c8.66699 0 18.667 -3 30 -9s37.666 -22.333 78.999 -49l61 -39l-16 -45l-37 5.5c-11.333 1.66699 -27.166 4.16699 -47.499 7.5l-67.5 11c-38.667 4.66699 -58 23 -58 55z" />
    <glyph glyph-name="Aacute" unicode="&#xc1;" horiz-adv-x="869" 
d="M41 0l0.000976562 47h21c34.667 0 56.667 1.66699 66 5s15.666 9.33301 18.999 18l248 602c2.66699 7.33301 5 12.5 7 15.5s5.5 5.5 10.5 7.5s12.167 3 21.5 3c7.33301 0 12.666 -0.333008 15.999 -1s7.33301 -3 12 -7s8.66699 -10 12 -18l256 -625h97v-47
c-23.333 2 -77.666 3 -162.999 3c-92 0 -150.667 -1 -176 -3v47h95l-60 146h-268l-50 -121c-2.66699 -2.66699 -4 -6.66699 -4 -12c0 -8.66699 29.667 -13 89 -13v-47c-24.667 2 -68.667 3 -132 3c-2 0 -41 -1 -117 -3zM275.001 240h228l-114 278zM330.001 778
c94.667 60 145.667 91.666 153 94.999c4 1.33301 9.66699 2 17 2c16 0 29.333 -6.66699 40 -20s16 -27.666 16 -42.999c0 -6 -0.833008 -11.667 -2.5 -17s-3.5 -9.83301 -5.5 -13.5s-5.33301 -7 -10 -10s-8.5 -5.16699 -11.5 -6.5s-7.66699 -2.83301 -14 -4.5l-13.5 -3.5
c-2.66699 -0.666992 -7.5 -1.5 -14.5 -2.5s-11.167 -1.5 -12.5 -1.5c-56 -9.33301 -98 -16 -126 -20z" />
    <glyph glyph-name="Acircumflex" unicode="&#xc2;" horiz-adv-x="869" 
d="M41 0l0.000976562 47h21c34.667 0 56.667 1.66699 66 5s15.666 9.33301 18.999 18l248 602c2.66699 7.33301 5 12.5 7 15.5s5.5 5.5 10.5 7.5s12.167 3 21.5 3c7.33301 0 12.666 -0.333008 15.999 -1s7.33301 -3 12 -7s8.66699 -10 12 -18l256 -625h97v-47
c-23.333 2 -77.666 3 -162.999 3c-92 0 -150.667 -1 -176 -3v47h95l-60 146h-268l-50 -121c-2.66699 -2.66699 -4 -6.66699 -4 -12c0 -8.66699 29.667 -13 89 -13v-47c-24.667 2 -68.667 3 -132 3c-2 0 -41 -1 -117 -3zM275.001 240h228l-114 278zM276.001 774v1l157 125h1
l157 -125v-1l-27 -38l-130 81h-1l-129 -81z" />
    <glyph glyph-name="Atilde" unicode="&#xc3;" horiz-adv-x="869" 
d="M41 0l0.000976562 47h21c34.667 0 56.667 1.66699 66 5s15.666 9.33301 18.999 18l248 602c2.66699 7.33301 5 12.5 7 15.5s5.5 5.5 10.5 7.5s12.167 3 21.5 3c7.33301 0 12.666 -0.333008 15.999 -1s7.33301 -3 12 -7s8.66699 -10 12 -18l256 -625h97v-47
c-23.333 2 -77.666 3 -162.999 3c-92 0 -150.667 -1 -176 -3v47h95l-60 146h-268l-50 -121c-2.66699 -2.66699 -4 -6.66699 -4 -12c0 -8.66699 29.667 -13 89 -13v-47c-24.667 2 -68.667 3 -132 3c-2 0 -41 -1 -117 -3zM210.001 812l17.002 17.5l16.5 17
c3 3 7.83301 7.5 14.5 13.5s11.667 10.167 15 12.5s8.16602 5.33301 14.499 9s12 6.16699 17 7.5s11 2.5 18 3.5s14.5 1.5 22.5 1.5c22 0 55 -5.66699 99 -17s77 -17 99 -17c33.333 0 62.666 11.333 87.999 34l26 -26l-17 -17.5l-16.5 -17c-3 -3 -7.83301 -7.5 -14.5 -13.5
s-11.667 -10.167 -15 -12.5s-8.16602 -5.33301 -14.499 -9s-12 -6.16699 -17 -7.5s-11 -2.5 -18 -3.5s-14.5 -1.5 -22.5 -1.5c-22.667 0 -55.667 5.66699 -99 17s-76.333 17 -99 17c-32.667 0 -62.334 -11.333 -89.001 -34zM275.003 240h228l-114 278z" />
    <glyph glyph-name="Adieresis" unicode="&#xc4;" horiz-adv-x="869" 
d="M41 0l0.000976562 47h21c34.667 0 56.667 1.66699 66 5s15.666 9.33301 18.999 18l248 602c2.66699 7.33301 5 12.5 7 15.5s5.5 5.5 10.5 7.5s12.167 3 21.5 3c7.33301 0 12.666 -0.333008 15.999 -1s7.33301 -3 12 -7s8.66699 -10 12 -18l256 -625h97v-47
c-23.333 2 -77.666 3 -162.999 3c-92 0 -150.667 -1 -176 -3v47h95l-60 146h-268l-50 -121c-2.66699 -2.66699 -4 -6.66699 -4 -12c0 -8.66699 29.667 -13 89 -13v-47c-24.667 2 -68.667 3 -132 3c-2 0 -41 -1 -117 -3zM244.001 816c0 22 7.66895 40.502 23.002 55.502
s33.333 22.5 54 22.5c21.333 0 39.666 -7.33301 54.999 -22s23 -33.334 23 -56.001c0 -20.667 -7.33301 -38.834 -22 -54.501s-33 -23.5 -55 -23.5c-20.667 0 -38.834 7.5 -54.501 22.5s-23.5 33.5 -23.5 55.5zM275.003 240.002h228l-114 278zM467.003 816.002
c0 20 7.49707 37.998 22.4971 53.998s33.5 24 55.5 24c20.667 0 38.834 -7.5 54.501 -22.5s23.5 -33.5 23.5 -55.5c0 -21.333 -7.66699 -39.666 -23 -54.999s-33.666 -23 -54.999 -23s-39.666 7.33301 -54.999 22s-23 33.334 -23 56.001z" />
    <glyph glyph-name="Aring" unicode="&#xc5;" horiz-adv-x="869" 
d="M40 0l0.00195312 48c34 0 57.833 0.833008 71.5 2.5s22.5 4.16699 26.5 7.5s8 10 12 20l242 590c-52 18.667 -78 56.667 -78 114c0 36 10.833 65 32.5 87s50.5 33 86.5 33s65 -11 87 -33s33 -51 33 -87c0 -57.333 -26 -95.333 -78 -114l255 -620h97v-48
c-63.333 2 -116 3 -158 3c-60.667 0 -121.334 -1 -182.001 -3v48h95l-60 144h-268c-34 -82.667 -51 -126 -51 -130c0 -9.33301 28.667 -14 86 -14v-48c-44 2 -88.333 3 -133 3c-30.667 0 -69.334 -1 -116.001 -3zM274.002 240h229l-114 278zM361.002 785
c0 -10 0.166992 -18 0.5 -24s1.83301 -13.5 4.5 -22.5s6.33398 -16 11.001 -21s11.667 -9.5 21 -13.5s20.666 -6 33.999 -6c28 0 47.167 6.83301 57.5 20.5s15.5 33.834 15.5 60.501c0 10 -0.166992 18 -0.5 24s-1.83301 13.5 -4.5 22.5s-6.33398 16 -11.001 21
s-11.667 9.5 -21 13.5s-20.666 6 -33.999 6c-28.667 0 -48 -6.83301 -58 -20.5s-15 -33.834 -15 -60.501z" />
    <glyph glyph-name="AE" unicode="&#xc6;" horiz-adv-x="1041" 
d="M40 0l-0.000976562 47.999c34 0 57.833 0.833008 71.5 2.5s22.5 4 26.5 7s8 9.5 12 19.5l236 561h-77v48h637l30 -242h-47c-4.66699 36 -9.66699 64 -15 84s-14.666 39.333 -27.999 58s-31.833 31.834 -55.5 39.501s-54.5 11.834 -92.5 12.501h-124v-284h55
c14 0 25.167 0.333008 33.5 1s18.333 2.66699 30 6s21.334 9.33301 29.001 18s13.167 19.667 16.5 33c3.33301 12.667 5 32 5 58h48v-281h-48c0 51.333 -10.667 84.666 -32 99.999c-16 11.333 -43.333 17 -82 17h-55v-258h104c30 0 53.667 0.666992 71 2
s38.5 7.33301 63.5 18s44.5 26.334 58.5 47.001c19.333 27.333 35.666 80.666 48.999 159.999h48l-46 -275h-562v48h81v258h-177l-48.5 -117l-39 -91.5c-8.33301 -19.667 -12.5 -31.167 -12.5 -34.5c0 -10 28.667 -15 86 -15v-48c-44 2 -88.333 3 -133 3
c-31.333 0 -70.333 -1 -117 -3zM324.999 353.999h156v284h-37z" />
    <glyph glyph-name="Ccedilla" unicode="&#xc7;" horiz-adv-x="830" 
d="M63 343c0 106 37.1689 191.5 111.502 256.5s170.833 97.5 289.5 97.5c76.667 0 142.667 -22.667 198 -68h1c44.667 40 70 61.667 76 65c3.33301 1.33301 6.33301 2 9 2c12 0 18 -9.66699 18 -29v-216c0 -10 -1.83301 -16.667 -5.5 -20s-9.83398 -5 -18.501 -5h-2
c-10.667 0 -18 1.83301 -22 5.5s-6.16699 8.5 -6.5 14.5s-2.5 16.5 -6.5 31.5s-10.333 30.833 -19 47.5c-6.66699 12 -14.5 24 -23.5 36s-21.5 25.167 -37.5 39.5s-35.833 26 -59.5 35s-49.5 13.5 -77.5 13.5c-96.667 0 -169 -30 -217 -90
c-36.667 -46.667 -55 -118.334 -55 -215.001c0 -60.667 7.33301 -112.667 22 -156s42.334 -78.666 83.001 -105.999c44.667 -30 100.667 -45 168 -45c61.333 0 113.666 17.5 156.999 52.5s67 77.833 71 128.5c2 14.667 5.33301 23.334 10 26.001c4 2 9 3 15 3
c16 0 24 -7 24 -21c0 -21.333 -4.5 -43.5 -13.5 -66.5s-22.667 -45.833 -41 -68.5s-43.5 -42.834 -75.5 -60.501s-68.667 -29.834 -110 -36.501v-24c64 -11.333 96 -37.666 96 -78.999c0 -36 -23.833 -60 -71.5 -72s-125.5 -18 -233.5 -18v36h9
c62 0 107.667 3.83301 137 11.5s44 21.167 44 40.5c0 33.333 -31.667 50.333 -95 51v52c-23.333 2 -46.333 5.5 -69 10.5s-48.167 13.667 -76.5 26s-54 27.166 -77 44.499s-44.833 40.333 -65.5 69s-36.334 61.334 -47.001 98.001c-9.33301 30.667 -14 65 -14 103z" />
    <glyph glyph-name="Egrave" unicode="&#xc8;" horiz-adv-x="755" 
d="M264 812c0 16 5.50098 30.499 16.501 43.499s24.167 19.5 39.5 19.5h1c8.66699 0 17 -2.16699 25 -6.5s32 -19.166 72 -44.499l73 -46l-16 -45c-10.667 1.33301 -61.334 9 -152.001 23c-39.333 5.33301 -59 24 -59 56zM39.001 -0.000976562l-0.00195312 47.001h108v586
h-108v47h621l31 -241h-47c-3.33301 27.333 -7.16602 49.833 -11.499 67.5s-11.166 35.167 -20.499 52.5s-21 31 -35 41s-32.333 18 -55 24s-49.667 9 -81 9h-152v-257h55c44.667 0 73.5 9 86.5 27s19.5 48 19.5 90h47v-281h-47c0 42 -6.5 72 -19.5 90s-41.833 27 -86.5 27
h-55v-282h152c30 0 56.5 2.16699 79.5 6.5s42.5 11.666 58.5 21.999s29.5 21.333 40.5 33s20.167 27 27.5 46s13 37.167 17 54.5s8 39 12 65h47l-46 -274h-638z" />
    <glyph glyph-name="Eacute" unicode="&#xc9;" horiz-adv-x="755" 
d="M331 778c94.667 60 144.999 91.3301 150.999 93.9971c6 2 12.333 3 19 3h1c15.333 0 28.5 -6.5 39.5 -19.5s16.5 -27.5 16.5 -43.5c0 -5.33301 -0.5 -10.5 -1.5 -15.5s-2.83301 -9.16699 -5.5 -12.5s-5 -6.5 -7 -9.5s-5.5 -5.5 -10.5 -7.5s-8.5 -3.66699 -10.5 -5
s-6.33301 -2.66602 -13 -3.99902s-10.667 -2.16602 -12 -2.49902s-5.66602 -1.16602 -12.999 -2.49902l-11 -1c-24 -4 -66.333 -10.333 -127 -19zM38.999 -0.00292969l-0.00195312 47.001h108v586h-108v47h621l31 -241h-47c-3.33301 27.333 -7.16602 49.833 -11.499 67.5
s-11.166 35.167 -20.499 52.5s-21 31 -35 41s-32.333 18 -55 24s-49.667 9 -81 9h-152v-257h55c44.667 0 73.5 9 86.5 27s19.5 48 19.5 90h47v-281h-47c0 42 -6.5 72 -19.5 90s-41.833 27 -86.5 27h-55v-282h152c30 0 56.5 2.16699 79.5 6.5s42.5 11.666 58.5 21.999
s29.5 21.333 40.5 33s20.167 27 27.5 46s13 37.167 17 54.5s8 39 12 65h47l-46 -274h-638z" />
    <glyph glyph-name="Ecircumflex" unicode="&#xca;" horiz-adv-x="755" 
d="M39 0l-0.00195312 47.001h108v586h-108v47h621l31 -241h-47c-3.33301 27.333 -7.16602 49.833 -11.499 67.5s-11.166 35.167 -20.499 52.5s-21 31 -35 41s-32.333 18 -55 24s-49.667 9 -81 9h-152v-257h55c44.667 0 73.5 9 86.5 27s19.5 48 19.5 90h47v-281h-47
c0 42 -6.5 72 -19.5 90s-41.833 27 -86.5 27h-55v-282h152c30 0 56.5 2.16699 79.5 6.5s42.5 11.666 58.5 21.999s29.5 21.333 40.5 33s20.167 27 27.5 46s13 37.167 17 54.5s8 39 12 65h47l-46 -274h-638zM229.998 775.001l157 125h1l156 -125l-27 -39l-129 81h-1l-130 -81
z" />
    <glyph glyph-name="Edieresis" unicode="&#xcb;" horiz-adv-x="755" 
d="M39 0l-0.00195312 47.001h108v586h-108v47h621l31 -241h-47c-3.33301 27.333 -7.16602 49.833 -11.499 67.5s-11.166 35.167 -20.499 52.5s-21 31 -35 41s-32.333 18 -55 24s-49.667 9 -81 9h-152v-257h55c44.667 0 73.5 9 86.5 27s19.5 48 19.5 90h47v-281h-47
c0 42 -6.5 72 -19.5 90s-41.833 27 -86.5 27h-55v-282h152c30 0 56.5 2.16699 79.5 6.5s42.5 11.666 58.5 21.999s29.5 21.333 40.5 33s20.167 27 27.5 46s13 37.167 17 54.5s8 39 12 65h47l-46 -274h-638zM197.998 816.001c0 22.667 7.83301 41.332 23.5 55.999
s33.5 22 53.5 22c20.667 0 38.834 -7.5 54.501 -22.5s23.5 -33.5 23.5 -55.5c0 -21.333 -7.33301 -39.666 -22 -54.999s-33 -23 -55 -23c-20.667 0 -38.834 7.5 -54.501 22.5s-23.5 33.5 -23.5 55.5zM420.998 815.999c0 20.667 7.5 38.834 22.5 54.501s33.5 23.5 55.5 23.5
c20.667 0 38.834 -7.5 54.501 -22.5s23.5 -33.5 23.5 -55.5c0 -22.667 -8 -41.334 -24 -56.001s-34 -22 -54 -22c-20.667 0 -38.834 7.5 -54.501 22.5s-23.5 33.5 -23.5 55.5z" />
    <glyph glyph-name="Igrave" unicode="&#xcc;" horiz-adv-x="436" 
d="M33 0v47h114v592h-114v47c27.333 -2 89 -3 185 -3s157.667 1 185 3v-47h-114v-592h114v-47c-27.333 2 -89 3 -185 3s-157.667 -1 -185 -3zM79 812c0 16 5.49805 30.501 16.498 43.501s24.167 19.5 39.5 19.5c8.66699 0 19.334 -3.33301 32.001 -10s40 -23.667 82 -51
l56 -36l-16 -45l-37 5.5c-11.333 1.66699 -27.166 4.16699 -47.499 7.5l-67.5 11c-38.667 7.33301 -58 25.666 -58 54.999z" />
    <glyph glyph-name="Iacute" unicode="&#xcd;" horiz-adv-x="436" 
d="M33 0v47h114v592h-114v47c27.333 -2 89 -3 185 -3s157.667 1 185 3v-47h-114v-592h114v-47c-27.333 2 -89 3 -185 3s-157.667 -1 -185 -3zM108 778c94.667 60 145.003 91.334 151.003 94.001c6 2 12.333 3 19 3c15.333 0 28.5 -6.5 39.5 -19.5s16.5 -27.5 16.5 -43.5
c0 -6 -0.833008 -11.667 -2.5 -17s-3.5 -9.83301 -5.5 -13.5s-5.33301 -7 -10 -10s-8.33398 -5.16699 -11.001 -6.5s-7.33398 -2.83301 -14.001 -4.5s-11.167 -2.83398 -13.5 -3.50098s-7.33301 -1.5 -15 -2.5s-11.834 -1.5 -12.501 -1.5c-56 -9.33301 -98 -16 -126 -20z
" />
    <glyph glyph-name="Icircumflex" unicode="&#xce;" horiz-adv-x="436" 
d="M61 775l157 125l157 -125l-28 -39l-129 81l-129 -81zM33 0v47h114v592h-114v47c27.333 -2 89 -3 185 -3s157.667 1 185 3v-47h-114v-592h114v-47c-27.333 2 -89 3 -185 3s-157.667 -1 -185 -3z" />
    <glyph glyph-name="Idieresis" unicode="&#xcf;" horiz-adv-x="436" 
d="M28 816c0 20 7.5 38 22.5 54s33.5 24 55.5 24c20.667 0 38.834 -7.5 54.501 -22.5s23.5 -33.5 23.5 -55.5c0 -20 -7.5 -38 -22.5 -54s-33.5 -24 -55.5 -24c-20.667 0 -38.834 7.5 -54.501 22.5s-23.5 33.5 -23.5 55.5zM33 0v47h114v592h-114v47c27.333 -2 89 -3 185 -3
s157.667 1 185 3v-47h-114v-592h114v-47c-27.333 2 -89 3 -185 3s-157.667 -1 -185 -3zM251 816c0 20 7.5 37.832 22.5 53.499s33.5 23.5 55.5 23.5c20.667 0 38.834 -7.5 54.501 -22.5s23.5 -33.5 23.5 -55.5c0 -20 -7.5 -37.833 -22.5 -53.5s-33.5 -23.5 -55.5 -23.5
c-22.667 0 -41.334 7.83301 -56.001 23.5s-22 33.834 -22 54.501z" />
    <glyph glyph-name="Eth" unicode="&#xd0;" horiz-adv-x="882" 
d="M39 0v48h108v265h-80c-18.667 0 -28 8 -28 24c0 15.333 9.33301 23 28 23h80v278h-108v48h405c120.667 0 212.667 -31 276 -93c65.333 -63.333 98 -148.333 98 -255c0 -98 -28.5 -176.5 -85.5 -235.5s-131.167 -92.5 -222.5 -100.5c-14.667 -1.33301 -36.667 -2 -66 -2
h-405zM284 48h132.002c93.333 0 161 24.667 203 74c34 40.667 51 106 51 196v34c0 20 -0.333008 37.5 -1 52.5s-3 33 -7 54s-9.16699 39.167 -15.5 54.5s-15.833 31.333 -28.5 48s-27.834 30.167 -45.501 40.5s-39.834 19 -66.501 26s-57 10.5 -91 10.5h-131v-278h170
c20 0 30 -8 30 -24c0 -15.333 -10 -23 -30 -23h-170v-265z" />
    <glyph glyph-name="Ntilde" unicode="&#xd1;" horiz-adv-x="900" 
d="M39 0l0.000976562 47h25c20 0 38 1 54 3c14 1.33301 22.333 3.16602 25 5.49902s4 9.16602 4 20.499v563h-108v47h229c10 0 16.667 -0.666992 20 -2s7.66602 -5 12.999 -11l398 -468v405c0 11.333 -1.33301 18.166 -4 20.499s-11.334 4.16602 -26.001 5.49902
c-18 2 -35.667 3 -53 3h-25v47c27.333 -2 72.333 -3 135 -3c64 0 108.667 1 134 3v-47h-25c-20 0 -38 -1 -54 -3c-14 -1.33301 -22.333 -3.16602 -25 -5.49902s-4 -9.16602 -4 -20.499v-578c0 -13.333 -1.33301 -22 -4 -26s-10.334 -6 -23.001 -6
c-8 0 -13.167 0.666992 -15.5 2s-6.16602 5 -11.499 11l-498 586v-523c0 -11.333 1.33301 -18.166 4 -20.499s11.334 -4.16602 26.001 -5.49902c18 -2 35.667 -3 53 -3h25v-47c-27.333 2 -72.333 3 -135 3c-64 0 -108.667 -1 -134 -3zM226.001 812l17.001 17.499l16.5 17
c3 3 7.83301 7.5 14.5 13.5s11.667 10.167 15 12.5s8.16602 5.33301 14.499 9s12 6.16699 17 7.5s11 2.5 18 3.5s14.5 1.5 22.5 1.5c22 0 55 -5.66699 99 -17s77.333 -17 100 -17c33.333 0 62.666 11.333 87.999 34l25 -26l-19.5 -20l-18.5 -19
c-3.33301 -3.33301 -8.66602 -8.16602 -15.999 -14.499s-13.333 -10.5 -18 -12.5s-10.5 -4.66699 -17.5 -8s-14.167 -5.5 -21.5 -6.5s-15.333 -1.5 -24 -1.5c-22.667 0 -55.667 5.66699 -99 17s-76.333 17 -99 17c-32 0 -61.333 -11.333 -88 -34z" />
    <glyph glyph-name="Ograve" unicode="&#xd2;" horiz-adv-x="863" 
d="M64 339c0 106.667 33.167 193 99.5 259s155.833 99 268.5 99c110.667 0 199.5 -32.667 266.5 -98s100.5 -152 100.5 -260c0 -104 -33 -188.333 -99 -253s-155.667 -97 -269 -97c-112 0 -201.167 32.167 -267.5 96.5s-99.5 148.833 -99.5 253.5zM217 354
c0 -94.667 13.667 -167.667 41 -219c19.333 -35.333 44.833 -61.5 76.5 -78.5s63.834 -25.5 96.501 -25.5c73.333 0 129.666 31.667 168.999 95c30.667 50.667 46 126.667 46 228c0 92 -14 161.667 -42 209c-19.333 31.333 -44.5 54.833 -75.5 70.5s-63.5 23.5 -97.5 23.5
c-32 0 -63 -7.16699 -93 -21.5s-54.667 -35.833 -74 -64.5c-31.333 -48.667 -47 -121 -47 -217zM308 812c0 16 5.5 30.5 16.5 43.5s24.167 19.5 39.5 19.5c8.66699 0 18 -2.66699 28 -8s36.667 -21.666 80 -48.999l63 -40l-17 -45c-16 2 -38 5.33301 -66 10l-85 14
c-39.333 5.33301 -59 23.666 -59 54.999z" />
    <glyph glyph-name="Oacute" unicode="&#xd3;" horiz-adv-x="863" 
d="M327 778c94.667 60 144.999 91.3301 150.999 93.9971c6 2 12.333 3 19 3h1c15.333 0 28.5 -6.5 39.5 -19.5s16.5 -27.5 16.5 -43.5c0 -5.33301 -0.5 -10.5 -1.5 -15.5s-2.83301 -9.16699 -5.5 -12.5s-5 -6.5 -7 -9.5s-5.5 -5.5 -10.5 -7.5s-8.5 -3.66699 -10.5 -5
s-6.33301 -2.66602 -13 -3.99902s-10.667 -2.16602 -12 -2.49902s-5.66602 -1.16602 -12.999 -2.49902l-11 -1c-24 -4 -66.333 -10.333 -127 -19zM63.999 338.997c0 106.667 33.167 193 99.5 259s155.833 99 268.5 99c110.667 0 199.5 -32.667 266.5 -98
s100.5 -152 100.5 -260c0 -104 -33 -188.333 -99 -253s-155.667 -97 -269 -97c-112 0 -201.167 32.167 -267.5 96.5s-99.5 148.833 -99.5 253.5zM216.999 353.997c0 -94.667 13.667 -167.667 41 -219c19.333 -35.333 44.833 -61.5 76.5 -78.5s63.834 -25.5 96.501 -25.5
c73.333 0 129.666 31.667 168.999 95c30.667 50.667 46 126.667 46 228c0 92 -14 161.667 -42 209c-19.333 31.333 -44.5 54.833 -75.5 70.5s-63.5 23.5 -97.5 23.5c-32 0 -63 -7.16699 -93 -21.5s-54.667 -35.833 -74 -64.5c-31.333 -48.667 -47 -121 -47 -217z" />
    <glyph glyph-name="Ocircumflex" unicode="&#xd4;" horiz-adv-x="863" 
d="M64 339c0 106.667 33.167 193 99.5 259s155.833 99 268.5 99c110.667 0 199.5 -32.667 266.5 -98s100.5 -152 100.5 -260c0 -104 -33 -188.333 -99 -253s-155.667 -97 -269 -97c-112 0 -201.167 32.167 -267.5 96.5s-99.5 148.833 -99.5 253.5zM217 354
c0 -94.667 13.667 -167.667 41 -219c19.333 -35.333 44.833 -61.5 76.5 -78.5s63.834 -25.5 96.501 -25.5c73.333 0 129.666 31.667 168.999 95c30.667 50.667 46 126.667 46 228c0 92 -14 161.667 -42 209c-19.333 31.333 -44.5 54.833 -75.5 70.5s-63.5 23.5 -97.5 23.5
c-32 0 -63 -7.16699 -93 -21.5s-54.667 -35.833 -74 -64.5c-31.333 -48.667 -47 -121 -47 -217zM274 775l157 125h1l156 -125l-27 -39l-129 81h-1l-130 -81z" />
    <glyph glyph-name="Otilde" unicode="&#xd5;" horiz-adv-x="863" 
d="M64 339c0 106.667 33.167 193 99.5 259s155.833 99 268.5 99c110.667 0 199.5 -32.667 266.5 -98s100.5 -152 100.5 -260c0 -104 -33 -188.333 -99 -253s-155.667 -97 -269 -97c-112 0 -201.167 32.167 -267.5 96.5s-99.5 148.833 -99.5 253.5zM208 812l17.001 17.499
l16.5 17c3 3 7.83301 7.5 14.5 13.5s11.667 10.167 15 12.5s8.16602 5.33301 14.499 9s12 6.16699 17 7.5s11 2.5 18 3.5s14.5 1.5 22.5 1.5c22 0 55 -5.66699 99 -17s77 -17 99 -17c33.333 0 62.666 11.333 87.999 34l25 -26l-19.5 -20l-18.5 -19
c-3.33301 -3.33301 -8.66602 -8.16602 -15.999 -14.499s-13.333 -10.5 -18 -12.5s-10.5 -4.66699 -17.5 -8s-14.167 -5.5 -21.5 -6.5s-15.333 -1.5 -24 -1.5c-22 0 -55 5.66699 -99 17s-77 17 -99 17c-32 0 -61.333 -11.333 -88 -34zM217.001 353.999
c0 -94.667 13.667 -167.667 41 -219c19.333 -35.333 44.833 -61.5 76.5 -78.5s63.834 -25.5 96.501 -25.5c73.333 0 129.666 31.667 168.999 95c30.667 50.667 46 126.667 46 228c0 92 -14 161.667 -42 209c-19.333 31.333 -44.5 54.833 -75.5 70.5s-63.5 23.5 -97.5 23.5
c-32 0 -63 -7.16699 -93 -21.5s-54.667 -35.833 -74 -64.5c-31.333 -48.667 -47 -121 -47 -217z" />
    <glyph glyph-name="Odieresis" unicode="&#xd6;" horiz-adv-x="863" 
d="M64 339c0 106.667 33.167 193 99.5 259s155.833 99 268.5 99c110.667 0 199.5 -32.667 266.5 -98s100.5 -152 100.5 -260c0 -104 -33 -188.333 -99 -253s-155.667 -97 -269 -97c-112 0 -201.167 32.167 -267.5 96.5s-99.5 148.833 -99.5 253.5zM217 354
c0 -94.667 13.667 -167.667 41 -219c19.333 -35.333 44.833 -61.5 76.5 -78.5s63.834 -25.5 96.501 -25.5c73.333 0 129.666 31.667 168.999 95c30.667 50.667 46 126.667 46 228c0 92 -14 161.667 -42 209c-19.333 31.333 -44.5 54.833 -75.5 70.5s-63.5 23.5 -97.5 23.5
c-32 0 -63 -7.16699 -93 -21.5s-54.667 -35.833 -74 -64.5c-31.333 -48.667 -47 -121 -47 -217zM242 816c0 21.333 7.49902 39.668 22.499 55.001s33.167 23 54.5 23c20.667 0 38.834 -7.5 54.501 -22.5s23.5 -33.5 23.5 -55.5c0 -22.667 -8 -41.334 -24 -56.001
s-34 -22 -54 -22c-20.667 0 -38.667 7.5 -54 22.5s-23 33.5 -23 55.5zM464.999 816.002c0 20.667 7.33301 38.833 22 54.5s33 23.5 55 23.5c20.667 0 38.834 -7.5 54.501 -22.5s23.5 -33.5 23.5 -55.5s-7.66699 -40.5 -23 -55.5s-33.333 -22.5 -54 -22.5
s-38.834 7.5 -54.501 22.5s-23.5 33.5 -23.5 55.5z" />
    <glyph glyph-name="multiply" unicode="&#xd7;" horiz-adv-x="894" 
d="M168 0c0 9.33301 6 20.001 18 32.001l218 218l-219 219c-11.333 12.667 -17 22.667 -17 30s2.83301 14.166 8.5 20.499s12.5 9.5 20.5 9.5h3c6 0 15.833 -6.16699 29.5 -18.5s54.167 -52.833 121.5 -121.5l95 -96h1l219 219c11.333 11.333 21.333 17 30 17
s15.667 -3 21 -9s8 -13 8 -21c0 -8.66699 -6 -19 -18 -31l-218 -218l220 -220c10.667 -11.333 16 -21.333 16 -30c0 -8 -3 -14.833 -9 -20.5s-12.667 -8.5 -20 -8.5c-9.33301 0 -19.333 5.33301 -30 16l-219 220h-1l-219 -219c-11.333 -11.333 -21.333 -17 -30 -17
c-8 0 -14.833 2.83301 -20.5 8.5s-8.5 12.5 -8.5 20.5z" />
    <glyph glyph-name="Oslash" unicode="&#xd8;" horiz-adv-x="894" 
d="M63 340c0 107.333 34.833 193.667 104.5 259s162.167 98 277.5 98c66 0 131.667 -13.667 197 -41l63 90h1l32 -23l-60 -88c48 -30 85.167 -71 111.5 -123s39.5 -109.667 39.5 -173c0 -105.333 -34.667 -190 -104 -254s-162 -96 -278 -96c-66 0 -131.667 13.333 -197 40
l-62 -89l-34 23l60 86c-33.333 20.667 -61.166 45.5 -83.499 74.5s-37.833 58.5 -46.5 88.5s-14.334 54.333 -17.001 73s-4 37 -4 55zM205 338.001c0 -64 4.16602 -111.667 12.499 -143s21.5 -60 39.5 -86l349 496v1c-43.333 36 -96.666 54 -159.999 54
c-44 0 -83.5 -8.83301 -118.5 -26.5s-62.167 -42.834 -81.5 -75.501c-27.333 -45.333 -41 -118.666 -41 -219.999zM284.999 79.001c46.667 -36 100.333 -54 161 -54c92.667 0 159.667 33.333 201 100c26.667 43.333 40 110.333 40 201v14c0 67.333 -4.16699 117 -12.5 149
s-21.5 60.667 -39.5 86z" />
    <glyph glyph-name="Ugrave" unicode="&#xd9;" horiz-adv-x="884" 
d="M39 639l0.000976562 47.002c25.333 -2 85 -3 179 -3s153.667 1 179 3v-47h-108v-416c0 -16.667 0.5 -30.667 1.5 -42s4.66699 -27 11 -47s15.166 -36.333 26.499 -49s28.833 -24 52.5 -34s52.167 -15 85.5 -15c28.667 0 55.5 3.5 80.5 10.5s48 17.833 69 32.5
s37.667 35.167 50 61.5s18.5 57.166 18.5 92.499v377c0 11.333 -1.33301 18.166 -4 20.499s-11.334 4.16602 -26.001 5.49902c-18 2 -35.667 3 -53 3h-25v47c27.333 -2 72.333 -3 135 -3c64 0 108.667 1 134 3v-47h-25c-20 0 -38 -1 -54 -3
c-14 -1.33301 -22.333 -3.16602 -25 -5.49902s-4 -9.16602 -4 -20.499v-381c0 -66.667 -23.5 -123.334 -70.5 -170.001s-115.167 -70 -204.5 -70c-99.333 0 -176.666 22.833 -231.999 68.5s-83 103.5 -83 173.5v408h-108zM319.001 812.002c0 16 5.5 30.5 16.5 43.5
s24.167 19.5 39.5 19.5c8.66699 0 18 -2.66699 28 -8s36.667 -21.666 80 -48.999l63 -40l-17 -45c-16 2 -38 5.33301 -66 10l-85 14c-39.333 5.33301 -59 23.666 -59 54.999z" />
    <glyph glyph-name="Uacute" unicode="&#xda;" horiz-adv-x="884" 
d="M386 778c94.667 60 144.999 91.3301 150.999 93.9971c6 2 12.333 3 19 3h1c15.333 0 28.5 -6.5 39.5 -19.5s16.5 -27.5 16.5 -43.5c0 -5.33301 -0.5 -10.5 -1.5 -15.5s-2.83301 -9.16699 -5.5 -12.5s-5 -6.5 -7 -9.5s-5.5 -5.5 -10.5 -7.5s-8.5 -3.66699 -10.5 -5
s-6.33301 -2.66602 -13 -3.99902s-10.667 -2.16602 -12 -2.49902s-5.66602 -1.16602 -12.999 -2.49902l-11 -1c-24 -4 -66.333 -10.333 -127 -19zM38.999 638.997l0.000976562 47.002c25.333 -2 85 -3 179 -3s153.667 1 179 3v-47h-108v-416c0 -16.667 0.5 -30.667 1.5 -42
s4.66699 -27 11 -47s15.166 -36.333 26.499 -49s28.833 -24 52.5 -34s52.167 -15 85.5 -15c28.667 0 55.5 3.5 80.5 10.5s48 17.833 69 32.5s37.667 35.167 50 61.5s18.5 57.166 18.5 92.499v377c0 11.333 -1.33301 18.166 -4 20.499s-11.334 4.16602 -26.001 5.49902
c-18 2 -35.667 3 -53 3h-25v47c27.333 -2 72.333 -3 135 -3c64 0 108.667 1 134 3v-47h-25c-20 0 -38 -1 -54 -3c-14 -1.33301 -22.333 -3.16602 -25 -5.49902s-4 -9.16602 -4 -20.499v-381c0 -66.667 -23.5 -123.334 -70.5 -170.001s-115.167 -70 -204.5 -70
c-99.333 0 -176.666 22.833 -231.999 68.5s-83 103.5 -83 173.5v408h-108z" />
    <glyph glyph-name="Ucircumflex" unicode="&#xdb;" horiz-adv-x="884" 
d="M39 639l0.000976562 47.002c25.333 -2 85 -3 179 -3s153.667 1 179 3v-47h-108v-416c0 -16.667 0.5 -30.667 1.5 -42s4.66699 -27 11 -47s15.166 -36.333 26.499 -49s28.833 -24 52.5 -34s52.167 -15 85.5 -15c28.667 0 55.5 3.5 80.5 10.5s48 17.833 69 32.5
s37.667 35.167 50 61.5s18.5 57.166 18.5 92.499v377c0 11.333 -1.33301 18.166 -4 20.499s-11.334 4.16602 -26.001 5.49902c-18 2 -35.667 3 -53 3h-25v47c27.333 -2 72.333 -3 135 -3c64 0 108.667 1 134 3v-47h-25c-20 0 -38 -1 -54 -3
c-14 -1.33301 -22.333 -3.16602 -25 -5.49902s-4 -9.16602 -4 -20.499v-381c0 -66.667 -23.5 -123.334 -70.5 -170.001s-115.167 -70 -204.5 -70c-99.333 0 -176.666 22.833 -231.999 68.5s-83 103.5 -83 173.5v408h-108zM307.001 775.002l157 125h1l157 -125l-28 -39
l-129 81h-1l-130 -81z" />
    <glyph glyph-name="Udieresis" unicode="&#xdc;" horiz-adv-x="884" 
d="M39 639l0.000976562 47.002c25.333 -2 85 -3 179 -3s153.667 1 179 3v-47h-108v-416c0 -16.667 0.5 -30.667 1.5 -42s4.66699 -27 11 -47s15.166 -36.333 26.499 -49s28.833 -24 52.5 -34s52.167 -15 85.5 -15c28.667 0 55.5 3.5 80.5 10.5s48 17.833 69 32.5
s37.667 35.167 50 61.5s18.5 57.166 18.5 92.499v377c0 11.333 -1.33301 18.166 -4 20.499s-11.334 4.16602 -26.001 5.49902c-18 2 -35.667 3 -53 3h-25v47c27.333 -2 72.333 -3 135 -3c64 0 108.667 1 134 3v-47h-25c-20 0 -38 -1 -54 -3
c-14 -1.33301 -22.333 -3.16602 -25 -5.49902s-4 -9.16602 -4 -20.499v-381c0 -66.667 -23.5 -123.334 -70.5 -170.001s-115.167 -70 -204.5 -70c-99.333 0 -176.666 22.833 -231.999 68.5s-83 103.5 -83 173.5v408h-108zM253.001 816.002
c0 21.333 7.49902 39.668 22.499 55.001s33.167 23 54.5 23c20.667 0 38.834 -7.5 54.501 -22.5s23.5 -33.5 23.5 -55.5c0 -22.667 -8 -41.334 -24 -56.001s-34 -22 -54 -22c-20.667 0 -38.667 7.5 -54 22.5s-23 33.5 -23 55.5zM476 816.004
c0 20.667 7.33301 38.832 22 54.499s33 23.5 55 23.5c20.667 0 38.834 -7.5 54.501 -22.5s23.5 -33.5 23.5 -55.5c0 -21.333 -7.5 -39.666 -22.5 -54.999s-33.167 -23 -54.5 -23c-20.667 0 -38.834 7.5 -54.501 22.5s-23.5 33.5 -23.5 55.5z" />
    <glyph glyph-name="Yacute" unicode="&#xdd;" horiz-adv-x="869" 
d="M19 639l-0.000976562 47.001c23.333 -2 78.333 -3 165 -3c94.667 0 155.667 1 183 3v-47h-85l203 -297l187 275c1.33301 2 3.66602 6 6.99902 12c-17.333 6.66699 -42.666 10 -75.999 10v47c24.667 -2 68.667 -3 132 -3c8 0 18.333 0.166992 31 0.5
s27.334 0.833008 44.001 1.5s29.667 1 39 1v-47h-21c-17.333 0 -34.666 -1 -51.999 -3c-18.667 -2.66699 -30.334 -6.33398 -35.001 -11.001l-4 -6l-235 -345v-227h109v-47c-25.333 2 -84.333 3 -177 3c-93.333 0 -152 -1 -176 -3v47h108v227l-249 365h-98zM377.999 778.001
c94.667 60.667 145.999 92.332 153.999 94.999c4.66699 1.33301 10.334 2 17.001 2c16 0 29.333 -6.66699 40 -20s16 -27.666 16 -42.999c0 -6 -0.833008 -11.667 -2.5 -17s-3.66699 -9.83301 -6 -13.5s-5.83301 -7 -10.5 -10s-8.5 -5.33301 -11.5 -7
s-7.66699 -3.16699 -14 -4.5s-10.833 -2.33301 -13.5 -3s-7.5 -1.5 -14.5 -2.5s-11.167 -1.5 -12.5 -1.5c-56 -9.33301 -98 -16 -126 -20z" />
    <glyph glyph-name="Thorn" unicode="&#xde;" horiz-adv-x="722" 
d="M39 0l-0.000976562 47.999h108v590h-108v48c60 -2 120 -3 180 -3h4c46.667 0 101.334 1 164.001 3v-48h-108v-73h138c44.667 0 83.5 -6.16699 116.5 -18.5s58 -28.666 75 -48.999s29.5 -41 37.5 -62s12 -42.5 12 -64.5c0 -53.333 -18.333 -97 -55 -131s-85 -54 -145 -60
c-12.667 -1.33301 -31.667 -2 -57 -2h-122v-130h108v-48c-59.333 2 -119 3 -179 3c-56 0 -112.333 -1 -169 -3zM278.999 225.999h96.001c49.333 0 84.166 14.167 104.499 42.5s30.5 62.833 30.5 103.5c0 38.667 -8.83301 72.5 -26.5 101.5s-47.5 43.5 -89.5 43.5h-115v-291z
" />
    <glyph glyph-name="germandbls" unicode="&#xdf;" horiz-adv-x="597" 
d="M35 0l0.000976562 48.001h70v349h-70v48h70v87c0 2.66699 -0.166992 6.33398 -0.5 11.001s-0.5 8 -0.5 10c0 98 65.333 147 196 147c112 0 168 -48 168 -144c0 -28.667 -2.16699 -52.667 -6.5 -72s-10.5 -33 -18.5 -41s-15.167 -13.667 -21.5 -17s-14.333 -5.5 -24 -6.5
s-15.5 -1.83301 -17.5 -2.5c-21.333 -6.66699 -32 -25.667 -32 -57c0 -40 20.667 -63 62 -69c16.667 -2.66699 29.167 -5 37.5 -7s21.166 -8 38.499 -18s32 -23 44 -39c18.667 -26 28 -55 28 -87c0 -39.333 -11.5 -73.333 -34.5 -102s-61.833 -43 -116.5 -43
c-26 0 -49.667 7 -71 21c-20 -14 -34 -21 -42 -21c-11.333 0 -17 7.66699 -17 23v115c0.666992 8.66699 2.5 14.834 5.5 18.501s9.16699 5.5 18.5 5.5c8.66699 0 14.667 -1.83301 18 -5.5s5.66602 -9.5 6.99902 -17.5c6.66699 -36 15.834 -62.167 27.501 -78.5
s29.5 -24.5 53.5 -24.5c29.333 0 50 7.16699 62 21.5s18 31.833 18 52.5c0 31.333 -15 54.333 -45 69c-6.66699 3.33301 -22.167 7.16602 -46.5 11.499s-43.833 11.166 -58.5 20.499c-40 25.333 -60 64.333 -60 117c0 38 9.5 68.333 28.5 91s47.833 35.334 86.5 38.001
c7.33301 0.666992 12.5 2.66699 15.5 6s5.83301 12.166 8.5 26.499s4 36.166 4 65.499c0 16 -0.833008 29 -2.5 39s-5.83398 21.5 -12.501 34.5s-18.667 22.833 -36 29.5s-39.333 10 -66 10c-20.667 0 -37.5 -2.83301 -50.5 -8.5s-22.167 -14.5 -27.5 -26.5
s-8.66602 -22.667 -9.99902 -32s-2 -22 -2 -38v-558l-39 3z" />
    <glyph glyph-name="agrave" unicode="&#xe0;" horiz-adv-x="559" 
d="M176 599c0 16 5.83301 30.498 17.5 43.498s25.5 19.5 41.5 19.5c2.66699 0 5.16699 -0.166992 7.5 -0.5s4.5 -0.666016 6.5 -0.999023s4.33301 -1.33301 7 -3l7 -4.5c2 -1.33301 5 -3.5 9 -6.5s7.5 -5.83301 10.5 -8.5l13 -12l16 -15l20.5 -19l24 -22l39 -36l-25 -40
l-62 21c-60 20 -97 34.333 -111 43s-21 22.334 -21 41.001zM32 107.998c0 95.333 108.337 147.668 325.004 157.001v34c0 78.667 -36.667 118 -110 118c-26 0 -50 -2.33301 -72 -7c14.667 -10 22 -26.333 22 -49c0 -20 -6.33301 -35.5 -19 -46.5
s-27.334 -16.5 -44.001 -16.5c-15.333 0 -29.5 5.5 -42.5 16.5s-19.5 26.5 -19.5 46.5c0 61.333 59.667 92 179 92c72 0 126.667 -14 164 -42s56 -65.333 56 -112v-215c0 -9.33301 0.666992 -16 2 -20s6.66602 -7.83301 15.999 -11.5s23.666 -5.5 42.999 -5.5
c6 0 10.333 -0.333008 13 -1s5.5 -2.66699 8.5 -6s4.5 -8.66602 4.5 -15.999c0 -10.667 -2.33301 -17.334 -7 -20.001s-13 -4 -25 -4h-48c-24.667 0 -44.667 2.33301 -60 7s-25.833 11.667 -31.5 21s-9.16699 17.166 -10.5 23.499s-2 14.833 -2 25.5
c-28.667 -55.333 -78.334 -83 -149.001 -83c-20 0 -40 1.5 -60 4.5s-40.667 8.33301 -62 16s-38.5 19.5 -51.5 35.5s-19.5 35.333 -19.5 58zM149.004 109c0 -22 8.83398 -40.665 26.501 -55.998s39.167 -23 64.5 -23c8.66699 0 18.5 1.33301 29.5 4
s23.667 7.33398 38 14.001s26.166 18 35.499 34s14 35 14 57v95c-14.667 -0.666992 -28.5 -1.83398 -41.5 -3.50098s-30.5 -5.33398 -52.5 -11.001s-40.667 -12.5 -56 -20.5s-28.833 -19.833 -40.5 -35.5s-17.5 -33.834 -17.5 -54.501z" />
    <glyph glyph-name="aacute" unicode="&#xe1;" horiz-adv-x="559" 
d="M32 108c0 95.333 108.337 147.668 325.004 157.001v34c0 78.667 -36.667 118 -110 118c-26 0 -50 -2.33301 -72 -7c14.667 -10 22 -26.333 22 -49c0 -20 -6.33301 -35.5 -19 -46.5s-27.334 -16.5 -44.001 -16.5c-15.333 0 -29.5 5.5 -42.5 16.5s-19.5 26.5 -19.5 46.5
c0 61.333 59.667 92 179 92c72 0 126.667 -14 164 -42s56 -65.333 56 -112v-215c0 -9.33301 0.666992 -16 2 -20s6.66602 -7.83301 15.999 -11.5s23.666 -5.5 42.999 -5.5c6 0 10.333 -0.333008 13 -1s5.5 -2.66699 8.5 -6s4.5 -8.66602 4.5 -15.999
c0 -10.667 -2.33301 -17.334 -7 -20.001s-13 -4 -25 -4h-48c-24.667 0 -44.667 2.33301 -60 7s-25.833 11.667 -31.5 21s-9.16699 17.166 -10.5 23.499s-2 14.833 -2 25.5c-28.667 -55.333 -78.334 -83 -149.001 -83c-20 0 -40 1.5 -60 4.5s-40.667 8.33301 -62 16
s-38.5 19.5 -51.5 35.5s-19.5 35.333 -19.5 58zM149.004 109.002c0 -22 8.83398 -40.665 26.501 -55.998s39.167 -23 64.5 -23c8.66699 0 18.5 1.33301 29.5 4s23.667 7.33398 38 14.001s26.166 18 35.499 34s14 35 14 57v95
c-14.667 -0.666992 -28.5 -1.83398 -41.5 -3.50098s-30.5 -5.33398 -52.5 -11.001s-40.667 -12.5 -56 -20.5s-28.833 -19.833 -40.5 -35.5s-17.5 -33.834 -17.5 -54.501zM178.005 535.004c78.667 72.667 122 111.667 130 117c9.33301 6.66699 19.333 10 30 10
c16 0 29.833 -6.5 41.5 -19.5s17.5 -27.5 17.5 -43.5c0 -18.667 -6.83301 -32.167 -20.5 -40.5s-50.5 -22.5 -110.5 -42.5l-63 -22z" />
    <glyph glyph-name="acircumflex" unicode="&#xe2;" horiz-adv-x="559" 
d="M96 510l159 148h1l158 -148l-31 -36l-127 102h-1l-128 -102zM32 108c0 95.333 108.337 147.668 325.004 157.001v34c0 78.667 -36.667 118 -110 118c-26 0 -50 -2.33301 -72 -7c14.667 -10 22 -26.333 22 -49c0 -20 -6.33301 -35.5 -19 -46.5
s-27.334 -16.5 -44.001 -16.5c-15.333 0 -29.5 5.5 -42.5 16.5s-19.5 26.5 -19.5 46.5c0 61.333 59.667 92 179 92c72 0 126.667 -14 164 -42s56 -65.333 56 -112v-215c0 -9.33301 0.666992 -16 2 -20s6.66602 -7.83301 15.999 -11.5s23.666 -5.5 42.999 -5.5
c6 0 10.333 -0.333008 13 -1s5.5 -2.66699 8.5 -6s4.5 -8.66602 4.5 -15.999c0 -10.667 -2.33301 -17.334 -7 -20.001s-13 -4 -25 -4h-48c-24.667 0 -44.667 2.33301 -60 7s-25.833 11.667 -31.5 21s-9.16699 17.166 -10.5 23.499s-2 14.833 -2 25.5
c-28.667 -55.333 -78.334 -83 -149.001 -83c-20 0 -40 1.5 -60 4.5s-40.667 8.33301 -62 16s-38.5 19.5 -51.5 35.5s-19.5 35.333 -19.5 58zM149.004 109.002c0 -22 8.83398 -40.665 26.501 -55.998s39.167 -23 64.5 -23c8.66699 0 18.5 1.33301 29.5 4
s23.667 7.33398 38 14.001s26.166 18 35.499 34s14 35 14 57v95c-14.667 -0.666992 -28.5 -1.83398 -41.5 -3.50098s-30.5 -5.33398 -52.5 -11.001s-40.667 -12.5 -56 -20.5s-28.833 -19.833 -40.5 -35.5s-17.5 -33.834 -17.5 -54.501z" />
    <glyph glyph-name="atilde" unicode="&#xe3;" horiz-adv-x="559" 
d="M60 549c3.33301 3.33301 10.499 11.1689 21.499 23.502s17.667 19.666 20 21.999s7.66602 7.16602 15.999 14.499s15 11.833 20 13.5s11.333 3.66699 19 6s15.834 3.5 24.501 3.5c18.667 0 45.334 -5.66699 80.001 -17s61.334 -17 80.001 -17c16 0 29 2.5 39 7.5
s22 13.833 36 26.5l27 -25c-4 -4 -11.167 -11.667 -21.5 -23s-17 -18.5 -20 -21.5s-8.66699 -8.16699 -17 -15.5s-15 -11.833 -20 -13.5s-11.333 -3.66699 -19 -6s-15.834 -3.5 -24.501 -3.5c-18.667 0 -45.167 5.66699 -79.5 17s-60.833 17 -79.5 17
c-16 0 -29.167 -2.5 -39.5 -7.5s-22.5 -13.833 -36.5 -26.5zM31.999 108.003c0 95.333 108.337 147.668 325.004 157.001v34c0 78.667 -36.667 118 -110 118c-26 0 -50 -2.33301 -72 -7c14.667 -10 22 -26.333 22 -49c0 -20 -6.33301 -35.5 -19 -46.5
s-27.334 -16.5 -44.001 -16.5c-15.333 0 -29.5 5.5 -42.5 16.5s-19.5 26.5 -19.5 46.5c0 61.333 59.667 92 179 92c72 0 126.667 -14 164 -42s56 -65.333 56 -112v-215c0 -9.33301 0.666992 -16 2 -20s6.66602 -7.83301 15.999 -11.5s23.666 -5.5 42.999 -5.5
c6 0 10.333 -0.333008 13 -1s5.5 -2.66699 8.5 -6s4.5 -8.66602 4.5 -15.999c0 -10.667 -2.33301 -17.334 -7 -20.001s-13 -4 -25 -4h-48c-24.667 0 -44.667 2.33301 -60 7s-25.833 11.667 -31.5 21s-9.16699 17.166 -10.5 23.499s-2 14.833 -2 25.5
c-28.667 -55.333 -78.334 -83 -149.001 -83c-20 0 -40 1.5 -60 4.5s-40.667 8.33301 -62 16s-38.5 19.5 -51.5 35.5s-19.5 35.333 -19.5 58zM149.003 109.005c0 -22 8.83398 -40.665 26.501 -55.998s39.167 -23 64.5 -23c8.66699 0 18.5 1.33301 29.5 4
s23.667 7.33398 38 14.001s26.166 18 35.499 34s14 35 14 57v95c-14.667 -0.666992 -28.5 -1.83398 -41.5 -3.50098s-30.5 -5.33398 -52.5 -11.001s-40.667 -12.5 -56 -20.5s-28.833 -19.833 -40.5 -35.5s-17.5 -33.834 -17.5 -54.501z" />
    <glyph glyph-name="adieresis" unicode="&#xe4;" horiz-adv-x="559" 
d="M97 608c0 20 7.49902 37.998 22.499 53.998s33.5 24 55.5 24c20.667 0 38.667 -7.5 54 -22.5s23 -33.5 23 -55.5c0 -21.333 -7.5 -39.666 -22.5 -54.999s-33.167 -23 -54.5 -23s-39.666 7.33301 -54.999 22s-23 33.334 -23 56.001zM320.999 607.998
c0 21.333 7.49902 39.668 22.499 55.001s33.167 23 54.5 23c20.667 0 38.834 -7.5 54.501 -22.5s23.5 -33.5 23.5 -55.5c0 -22.667 -8 -41.334 -24 -56.001s-34 -22 -54 -22c-20.667 0 -38.667 7.5 -54 22.5s-23 33.5 -23 55.5zM31.998 108
c0 95.333 108.337 147.668 325.004 157.001v34c0 78.667 -36.667 118 -110 118c-26 0 -50 -2.33301 -72 -7c14.667 -10 22 -26.333 22 -49c0 -20 -6.33301 -35.5 -19 -46.5s-27.334 -16.5 -44.001 -16.5c-15.333 0 -29.5 5.5 -42.5 16.5s-19.5 26.5 -19.5 46.5
c0 61.333 59.667 92 179 92c72 0 126.667 -14 164 -42s56 -65.333 56 -112v-215c0 -9.33301 0.666992 -16 2 -20s6.66602 -7.83301 15.999 -11.5s23.666 -5.5 42.999 -5.5c6 0 10.333 -0.333008 13 -1s5.5 -2.66699 8.5 -6s4.5 -8.66602 4.5 -15.999
c0 -10.667 -2.33301 -17.334 -7 -20.001s-13 -4 -25 -4h-48c-24.667 0 -44.667 2.33301 -60 7s-25.833 11.667 -31.5 21s-9.16699 17.166 -10.5 23.499s-2 14.833 -2 25.5c-28.667 -55.333 -78.334 -83 -149.001 -83c-20 0 -40 1.5 -60 4.5s-40.667 8.33301 -62 16
s-38.5 19.5 -51.5 35.5s-19.5 35.333 -19.5 58zM149.002 109.002c0 -22 8.83398 -40.665 26.501 -55.998s39.167 -23 64.5 -23c8.66699 0 18.5 1.33301 29.5 4s23.667 7.33398 38 14.001s26.166 18 35.499 34s14 35 14 57v95
c-14.667 -0.666992 -28.5 -1.83398 -41.5 -3.50098s-30.5 -5.33398 -52.5 -11.001s-40.667 -12.5 -56 -20.5s-28.833 -19.833 -40.5 -35.5s-17.5 -33.834 -17.5 -54.501z" />
    <glyph glyph-name="aring" unicode="&#xe5;" horiz-adv-x="559" 
d="M32 108c0 95.333 108.337 147.668 325.004 157.001v34c0 78.667 -36.667 118 -110 118c-26 0 -50 -2.33301 -72 -7c14.667 -10 22 -26.333 22 -49c0 -20 -6.33301 -35.5 -19 -46.5s-27.334 -16.5 -44.001 -16.5c-15.333 0 -29.5 5.5 -42.5 16.5s-19.5 26.5 -19.5 46.5
c0 61.333 59.667 92 179 92c72 0 126.667 -14 164 -42s56 -65.333 56 -112v-215c0 -9.33301 0.666992 -16 2 -20s6.66602 -7.83301 15.999 -11.5s23.666 -5.5 42.999 -5.5c6 0 10.333 -0.333008 13 -1s5.5 -2.66699 8.5 -6s4.5 -8.66602 4.5 -15.999
c0 -10.667 -2.33301 -17.334 -7 -20.001s-13 -4 -25 -4h-48c-24.667 0 -44.667 2.33301 -60 7s-25.833 11.667 -31.5 21s-9.16699 17.166 -10.5 23.499s-2 14.833 -2 25.5c-28.667 -55.333 -78.334 -83 -149.001 -83c-20 0 -40 1.5 -60 4.5s-40.667 8.33301 -62 16
s-38.5 19.5 -51.5 35.5s-19.5 35.333 -19.5 58zM135.004 574.002c0 22 9.5 42 28.5 60s49.5 27 91.5 27s72.333 -9 91 -27s28 -38 28 -60s-9.5 -42 -28.5 -60s-49.833 -27 -92.5 -27c-41.333 0 -71.333 9 -90 27s-28 38 -28 60zM149.004 109.002
c0 -22 8.83398 -40.665 26.501 -55.998s39.167 -23 64.5 -23c8.66699 0 18.5 1.33301 29.5 4s23.667 7.33398 38 14.001s26.166 18 35.499 34s14 35 14 57v95c-14.667 -0.666992 -28.5 -1.83398 -41.5 -3.50098s-30.5 -5.33398 -52.5 -11.001s-40.667 -12.5 -56 -20.5
s-28.833 -19.833 -40.5 -35.5s-17.5 -33.834 -17.5 -54.501zM183.005 574.004c0 -12 1.83105 -21.667 5.49805 -29s9.33398 -12.666 17.001 -15.999s14.667 -5.33301 21 -6s14.833 -1 25.5 -1c12 0 21.5 0.333008 28.5 1s14.5 2.66699 22.5 6s13.833 8.66602 17.5 15.999
s5.5 17 5.5 29c0 19.333 -5.16699 32.833 -15.5 40.5s-28.166 11.5 -53.499 11.5c-24.667 0 -43.167 -3.33301 -55.5 -10s-18.5 -20.667 -18.5 -42z" />
    <glyph glyph-name="ae" unicode="&#xe6;" horiz-adv-x="830" 
d="M37 103c0 16.667 4.32812 32.332 12.9951 46.999s23.834 29.5 45.501 44.5s54.834 27.333 99.501 37s99 15.167 163 16.5v42c0 47.333 -11.333 81 -34 101c-18.667 16.667 -43.334 25 -74.001 25c-26 0 -51 -2 -75 -6c14 -14 21 -30.333 21 -49
c0 -18 -6 -32.833 -18 -44.5s-26.667 -17.5 -44 -17.5c-16.667 0 -31.334 5.5 -44.001 16.5s-19 26.5 -19 46.5c0.666992 60.667 60.334 91 179.001 91c78.667 0 139.334 -18.667 182.001 -56c43.333 37.333 99 56 167 56c38 0 70.667 -6.33301 98 -19s48 -29.667 62 -51
s24 -43.166 30 -65.499s9 -45.833 9 -70.5c0 -8.66699 -1.5 -15.334 -4.5 -20.001s-6.33301 -7.33398 -10 -8.00098s-9.16699 -1 -16.5 -1h-295c3.33301 -122 53 -183 149 -183c28.667 0 54.334 7 77.001 21s39 32.667 49 56
c0.666992 0.666992 1.33398 1.83398 2.00098 3.50098s1.16699 3 1.5 4s0.833008 2.16699 1.5 3.5s1.33398 2.33301 2.00098 3s1.5 1.66699 2.5 3s2 2.16602 3 2.49902s2.33301 0.833008 4 1.5s3.33398 1.16699 5.00098 1.5s3.5 0.5 5.5 0.5c15.333 0 23 -6.33301 23 -19
c0 -7.33301 -3.5 -17.166 -10.5 -29.499s-17.167 -25.666 -30.5 -39.999s-32.833 -26.5 -58.5 -36.5s-54.5 -15 -86.5 -15c-74 0 -135.333 21.333 -184 64c-40.667 -42.667 -107.334 -64 -200.001 -64c-32 0 -61.167 2.66699 -87.5 8s-50 16.5 -71 33.5
s-31.5 39.167 -31.5 66.5zM154.995 103.998c0 -21.333 8.33203 -38.835 24.999 -52.502s37.334 -20.5 62.001 -20.5c36 0 67.5 9.33301 94.5 28s40.5 40.334 40.5 65.001c0 3.33301 -2.66699 13 -8 29s-9 36.667 -11 62c-72 -4 -124.667 -16.667 -158 -38
c-30 -19.333 -45 -43.666 -45 -72.999zM471.994 250.996h231.004c-0.666992 21.333 -2.33398 39.5 -5.00098 54.5s-7.33398 32 -14.001 51s-17.334 33.667 -32.001 44s-33 15.5 -55 15.5c-40.667 0 -72.334 -16 -95.001 -48c-18.667 -26.667 -28.667 -65.667 -30 -117z" />
    <glyph glyph-name="ccedilla" unicode="&#xe7;" horiz-adv-x="511" 
d="M38 222c0 27.333 4.33008 53.832 12.9971 79.499s22.334 50.167 41.001 73.5s45 42.166 79 56.499s74 21.5 120 21.5c116.667 0 175 -30.667 175 -92c0 -18.667 -6.16699 -33.667 -18.5 -45s-27.166 -17 -44.499 -17s-32 5.66699 -44 17s-18 26 -18 44
c0 16.667 6.33301 32.667 19 48c-17.333 2.66699 -39.666 4 -66.999 4c-62.667 0 -102.334 -32 -119.001 -96c-5.33301 -21.333 -8 -54.333 -8 -99c0 -36.667 4.5 -67.834 13.5 -93.501s21 -44.5 36 -56.5s29.833 -20.333 44.5 -25s30 -7 46 -7
c27.333 0 51.833 6.83301 73.5 20.5s37.834 32.834 48.501 57.501c4.66699 12 13 18 25 18c16 0 24 -5 24 -15c0 -15.333 -11.667 -36.5 -35 -63.5s-56 -44.5 -98 -52.5v-30c64 -11.333 96 -38 96 -80c0 -14 -4 -26.167 -12 -36.5s-20 -18.666 -36 -24.999
s-32 -11.5 -48 -15.5s-36.833 -6.83301 -62.5 -8.5s-47 -2.66699 -64 -3s-38.833 -0.5 -65.5 -0.5h-18v36h27c109.333 0 164 17.333 164 52c0 33.333 -31.667 50.333 -95 51v59c-5.33301 0.666992 -12.333 2 -21 4s-24 7.83301 -46 17.5s-41.333 21.834 -58 36.501
s-32 36.5 -46 65.5s-21 62.167 -21 99.5z" />
    <glyph glyph-name="egrave" unicode="&#xe8;" horiz-adv-x="527" 
d="M32 225c0 65.333 21.832 119.665 65.499 162.998s104.167 65 181.5 65c68.667 0 121.667 -18 159 -54c37.333 -37.333 56 -88.666 56 -153.999c0 -12.667 -2.16699 -20.334 -6.5 -23.001s-12.833 -4 -25.5 -4h-302c0 -122.667 47.333 -184 142 -184
c32.667 0 62 7.33301 88 22s44.333 34 55 58c3.33301 8.66699 6.33301 14.334 9 17.001s8 4 16 4c16 0 24 -6 24 -18c0 -4.66699 -1.83301 -11.167 -5.5 -19.5s-10.334 -18.666 -20.001 -30.999s-21.667 -23.833 -36 -34.5s-33.666 -19.667 -57.999 -27s-51.5 -11 -81.5 -11
c-79.333 0 -142.666 21.5 -189.999 64.5s-71 98.5 -71 166.5zM159.999 250.999h239.001c-3.33301 110.667 -43.333 166 -120 166c-40.667 0 -72.334 -17.333 -95.001 -52c-13.333 -20.667 -21.333 -58.667 -24 -114zM184 598.999c0 16 5.66699 30.3311 17 42.998
s25 19.334 41 20.001h1c2.66699 0 5.16699 -0.166992 7.5 -0.5s4.5 -0.666016 6.5 -0.999023s4.33301 -1.33301 7 -3s5 -3 7 -4s5 -3.16699 9 -6.5l10.5 -9l13 -12l15.5 -14.5l20 -18.5l24 -22c17.333 -16 30.333 -28.333 39 -37l-24 -40c-99.333 34 -154 53.667 -164 59
c-18.667 14 -28.667 29.333 -30 46z" />
    <glyph glyph-name="eacute" unicode="&#xe9;" horiz-adv-x="527" 
d="M32 225c0 65.333 21.832 119.665 65.499 162.998s104.167 65 181.5 65c68.667 0 121.667 -18 159 -54c37.333 -37.333 56 -88.666 56 -153.999c0 -12.667 -2.16699 -20.334 -6.5 -23.001s-12.833 -4 -25.5 -4h-302c0 -122.667 47.333 -184 142 -184
c32.667 0 62 7.33301 88 22s44.333 34 55 58c3.33301 8.66699 6.33301 14.334 9 17.001s8 4 16 4c16 0 24 -6 24 -18c0 -4.66699 -1.83301 -11.167 -5.5 -19.5s-10.334 -18.666 -20.001 -30.999s-21.667 -23.833 -36 -34.5s-33.666 -19.667 -57.999 -27s-51.5 -11 -81.5 -11
c-79.333 0 -142.666 21.5 -189.999 64.5s-71 98.5 -71 166.5zM153.999 534.999c77.333 72 120 110.669 128 116.002c10.667 7.33301 21.334 11 32.001 11c16 0 29.667 -6.5 41 -19.5s17 -27.5 17 -43.5c0 -18.667 -7.33301 -32.334 -22 -41.001s-52 -23.334 -112 -44.001
c-24.667 -8 -44.334 -14.667 -59.001 -20zM159.999 251.001h239.001c-3.33301 110.667 -43.333 166 -120 166c-40.667 0 -72.334 -17.333 -95.001 -52c-13.333 -20.667 -21.333 -58.667 -24 -114z" />
    <glyph glyph-name="ecircumflex" unicode="&#xea;" horiz-adv-x="527" 
d="M32 225c0 65.333 21.832 119.665 65.499 162.998s104.167 65 181.5 65c68.667 0 121.667 -18 159 -54c37.333 -37.333 56 -88.666 56 -153.999c0 -12.667 -2.16699 -20.334 -6.5 -23.001s-12.833 -4 -25.5 -4h-302c0 -122.667 47.333 -184 142 -184
c32.667 0 62 7.33301 88 22s44.333 34 55 58c3.33301 8.66699 6.33301 14.334 9 17.001s8 4 16 4c16 0 24 -6 24 -18c0 -4.66699 -1.83301 -11.167 -5.5 -19.5s-10.334 -18.666 -20.001 -30.999s-21.667 -23.833 -36 -34.5s-33.666 -19.667 -57.999 -27s-51.5 -11 -81.5 -11
c-79.333 0 -142.666 21.5 -189.999 64.5s-71 98.5 -71 166.5zM102.999 509.999l159 148h1l158 -148l-30 -35h-1l-127 101h-1l-127 -101h-1zM159.999 250.999h239.001c-3.33301 110.667 -43.333 166 -120 166c-40.667 0 -72.334 -17.333 -95.001 -52
c-13.333 -20.667 -21.333 -58.667 -24 -114z" />
    <glyph glyph-name="edieresis" unicode="&#xeb;" horiz-adv-x="527" 
d="M32 225c0 65.333 21.832 119.665 65.499 162.998s104.167 65 181.5 65c68.667 0 121.667 -18 159 -54c37.333 -37.333 56 -88.666 56 -153.999c0 -12.667 -2.16699 -20.334 -6.5 -23.001s-12.833 -4 -25.5 -4h-302c0 -122.667 47.333 -184 142 -184
c32.667 0 62 7.33301 88 22s44.333 34 55 58c3.33301 8.66699 6.33301 14.334 9 17.001s8 4 16 4c16 0 24 -6 24 -18c0 -4.66699 -1.83301 -11.167 -5.5 -19.5s-10.334 -18.666 -20.001 -30.999s-21.667 -23.833 -36 -34.5s-33.666 -19.667 -57.999 -27s-51.5 -11 -81.5 -11
c-79.333 0 -142.666 21.5 -189.999 64.5s-71 98.5 -71 166.5zM72.999 607.999c0 20.667 7.33301 38.832 22 54.499s33 23.5 55 23.5c20.667 0 38.834 -7.5 54.501 -22.5s23.5 -33.5 23.5 -55.5s-7.66699 -40.5 -23 -55.5s-33.333 -22.5 -54 -22.5
c-22.667 0 -41.334 7.83301 -56.001 23.5s-22 33.834 -22 54.501zM159.999 250.997h239.001c-3.33301 110.667 -43.333 166 -120 166c-40.667 0 -72.334 -17.333 -95.001 -52c-13.333 -20.667 -21.333 -58.667 -24 -114zM296 607.997c0 21.333 7.66797 39.667 23.001 55
s33.666 23 54.999 23c20.667 0 38.834 -7.5 54.501 -22.5s23.5 -33.5 23.5 -55.5c0 -20 -7.5 -38 -22.5 -54s-33.5 -24 -55.5 -24c-20.667 0 -38.834 7.5 -54.501 22.5s-23.5 33.5 -23.5 55.5z" />
    <glyph glyph-name="eth" unicode="&#xf0;" 
d="M31 219c0 72.667 23.998 129.831 71.998 171.498s107.667 62.5 179 62.5c40 0 77 -14 111 -42c-21.333 56.667 -57 109 -107 157h-1c-52 -32.667 -82.667 -49 -92 -49c-4.66699 0 -8.66699 3 -12 9c-3.33301 5.33301 -5.33301 10.333 -6 15c0 5.33301 3 10 9 14
s28 17 66 39c-51.333 32 -98.666 51.667 -141.999 59c-16.667 2.66699 -25 8 -25 16c0 16 17.667 24 53 24c32.667 0 63.834 -4.16699 93.501 -12.5s53 -16.5 70 -24.5s26.833 -12 29.5 -12c5.33301 0 21 7.66699 47 23s41.333 23 46 23c5.33301 0 10.166 -2.5 14.499 -7.5
s6.5 -10.167 6.5 -15.5c0 -3.33301 -0.666992 -6.16602 -2 -8.49902s-7.5 -7.16602 -18.5 -14.499s-28.167 -17 -51.5 -29c28 -21.333 51 -42 69 -62c68 -74.667 102 -161.667 102 -261v-58c0 -46 -7.83301 -85.5 -23.5 -118.5s-36.667 -58 -63 -75
s-53.333 -29.167 -81 -36.5s-57.167 -11 -88.5 -11c-77.333 0 -139.166 20.5 -185.499 61.5s-69.5 95.167 -69.5 162.5zM158.998 214.997c0 -20 0.667969 -36.832 2.00098 -50.499s4.66602 -30 9.99902 -49s14.833 -35 28.5 -48s30.834 -22.167 51.501 -27.5
c13.333 -3.33301 25 -5 35 -5c36.667 0 66.667 12 90 36c25.333 26.667 38 75.667 38 147c0 39.333 -4.16699 72.833 -12.5 100.5s-19.333 48.167 -33 61.5s-27.334 22.666 -41.001 27.999s-27.834 8 -42.501 8c-38 0 -68.667 -13 -92 -39
c-21.333 -24 -32.666 -66 -33.999 -126v-36z" />
    <glyph glyph-name="ntilde" unicode="&#xf1;" horiz-adv-x="638" 
d="M139 549c3.33301 3.33301 10.499 11.1689 21.499 23.502s17.667 19.666 20 21.999s7.66602 7.16602 15.999 14.499s15 11.833 20 13.5s11.333 3.66699 19 6s15.834 3.5 24.501 3.5c18.667 0 45.334 -5.66699 80.001 -17s61.334 -17 80.001 -17c16 0 29 2.5 39 7.5
s22 13.833 36 26.5l27 -25c-4 -4 -11.167 -11.667 -21.5 -23s-17 -18.5 -20 -21.5s-8.66699 -8.16699 -17 -15.5s-15 -11.833 -20 -13.5s-11.333 -3.66699 -19 -6s-15.834 -3.5 -24.501 -3.5c-18.667 0 -45.167 5.66699 -79.5 17s-60.833 17 -79.5 17
c-16 0 -29.167 -2.5 -39.5 -7.5s-22.5 -13.833 -36.5 -26.5zM44.999 0.00292969v46.998h69v309c0 18.667 -3.5 29.834 -10.5 33.501s-26.5 5.5 -58.5 5.5v47l172 8v-108c36.667 72 95 108 175 108c51.333 0 89.833 -11.167 115.5 -33.5s38.5 -59.166 38.5 -110.499v-259h69
v-47c-56 2 -98 3 -126 3s-70 -1 -126 -3v47h69v270c0 36 -4.66699 61.167 -14 75.5s-23 21.5 -41 21.5c-36.667 0 -70.667 -13.833 -102 -41.5s-47 -66.5 -47 -116.5v-209h69v-47c-56 2 -98 3 -126 3s-70 -1 -126 -3z" />
    <glyph glyph-name="ograve" unicode="&#xf2;" 
d="M176 599c0 16 5.83301 30.498 17.5 43.498s25.5 19.5 41.5 19.5c2.66699 0 5.16699 -0.166992 7.5 -0.5s4.5 -0.666016 6.5 -0.999023s4.33301 -1.33301 7 -3l7 -4.5c2 -1.33301 5 -3.5 9 -6.5s7.5 -5.83301 10.5 -8.5l13 -12l16 -15l20.5 -19l24 -22l39 -36l-25 -40
l-62 21c-60 20 -97 34.333 -111 43s-21 22.334 -21 41.001zM32 217.998c0 68.667 22.5029 125 67.5029 169s107.5 66 187.5 66c79.333 0 141.666 -22 186.999 -66s68 -100.333 68 -169c0 -64.667 -22.333 -118.167 -67 -160.5s-107.334 -63.5 -188.001 -63.5
s-143.334 21.167 -188.001 63.5s-67 95.833 -67 160.5zM160.003 228.998c0 -20 0.169922 -35.168 0.50293 -45.501s1.66602 -24.666 3.99902 -42.999s6.16602 -32.5 11.499 -42.5s12.5 -20.667 21.5 -32s21 -19.5 36 -24.5s32.833 -7.5 53.5 -7.5s38.5 2.5 53.5 7.5
s27 13.167 36 24.5s16.167 22 21.5 32s9.16602 24.167 11.499 42.5s3.66602 32.666 3.99902 42.999s0.5 25.5 0.5 45.5c0 68.667 -7 114.334 -21 137.001c-21.333 34 -56.666 51 -105.999 51c-53.333 0 -90 -19.333 -110 -58c-11.333 -22.667 -17 -66 -17 -130z" />
    <glyph glyph-name="oacute" unicode="&#xf3;" 
d="M32 218c0 68.667 22.5029 125 67.5029 169s107.5 66 187.5 66c79.333 0 141.666 -22 186.999 -66s68 -100.333 68 -169c0 -64.667 -22.333 -118.167 -67 -160.5s-107.334 -63.5 -188.001 -63.5s-143.334 21.167 -188.001 63.5s-67 95.833 -67 160.5zM160.003 229
c0 -20 0.169922 -35.168 0.50293 -45.501s1.66602 -24.666 3.99902 -42.999s6.16602 -32.5 11.499 -42.5s12.5 -20.667 21.5 -32s21 -19.5 36 -24.5s32.833 -7.5 53.5 -7.5s38.5 2.5 53.5 7.5s27 13.167 36 24.5s16.167 22 21.5 32s9.16602 24.167 11.499 42.5
s3.66602 32.666 3.99902 42.999s0.5 25.5 0.5 45.5c0 68.667 -7 114.334 -21 137.001c-21.333 34 -56.666 51 -105.999 51c-53.333 0 -90 -19.333 -110 -58c-11.333 -22.667 -17 -66 -17 -130zM178.006 534.999c78.667 72.667 122 111.667 130 117
c9.33301 6.66699 19.333 10 30 10c16 0 29.833 -6.5 41.5 -19.5s17.5 -27.5 17.5 -43.5c0 -18.667 -6.83301 -32.167 -20.5 -40.5s-50.5 -22.5 -110.5 -42.5l-63 -22z" />
    <glyph glyph-name="ocircumflex" unicode="&#xf4;" 
d="M127 510l159 148h1l158 -148l-31 -36l-127 102h-1l-128 -102zM32 218c0 68.667 22.5029 125 67.5029 169s107.5 66 187.5 66c79.333 0 141.666 -22 186.999 -66s68 -100.333 68 -169c0 -64.667 -22.333 -118.167 -67 -160.5s-107.334 -63.5 -188.001 -63.5
s-143.334 21.167 -188.001 63.5s-67 95.833 -67 160.5zM160.003 229c0 -20 0.169922 -35.168 0.50293 -45.501s1.66602 -24.666 3.99902 -42.999s6.16602 -32.5 11.499 -42.5s12.5 -20.667 21.5 -32s21 -19.5 36 -24.5s32.833 -7.5 53.5 -7.5s38.5 2.5 53.5 7.5
s27 13.167 36 24.5s16.167 22 21.5 32s9.16602 24.167 11.499 42.5s3.66602 32.666 3.99902 42.999s0.5 25.5 0.5 45.5c0 68.667 -7 114.334 -21 137.001c-21.333 34 -56.666 51 -105.999 51c-53.333 0 -90 -19.333 -110 -58c-11.333 -22.667 -17 -66 -17 -130z" />
    <glyph glyph-name="otilde" unicode="&#xf5;" 
d="M95 549c3.33301 3.33301 10.499 11.1689 21.499 23.502s17.667 19.666 20 21.999s7.66602 7.16602 15.999 14.499s15 11.833 20 13.5s11.333 3.66699 19 6s15.834 3.5 24.501 3.5c18.667 0 45.334 -5.66699 80.001 -17s61.334 -17 80.001 -17c16 0 29 2.5 39 7.5
s22 13.833 36 26.5l27 -25c-4 -4 -11.167 -11.667 -21.5 -23s-17 -18.5 -20 -21.5s-8.66699 -8.16699 -17 -15.5s-15 -11.833 -20 -13.5s-11.333 -3.66699 -19 -6s-15.834 -3.5 -24.501 -3.5c-18.667 0 -45.167 5.66699 -79.5 17s-60.833 17 -79.5 17
c-16 0 -29.167 -2.5 -39.5 -7.5s-22.5 -13.833 -36.5 -26.5zM31.999 218.003c0 68.667 22.5029 125 67.5029 169s107.5 66 187.5 66c79.333 0 141.666 -22 186.999 -66s68 -100.333 68 -169c0 -64.667 -22.333 -118.167 -67 -160.5s-107.334 -63.5 -188.001 -63.5
s-143.334 21.167 -188.001 63.5s-67 95.833 -67 160.5zM160.002 229.003c0 -20 0.169922 -35.168 0.50293 -45.501s1.66602 -24.666 3.99902 -42.999s6.16602 -32.5 11.499 -42.5s12.5 -20.667 21.5 -32s21 -19.5 36 -24.5s32.833 -7.5 53.5 -7.5s38.5 2.5 53.5 7.5
s27 13.167 36 24.5s16.167 22 21.5 32s9.16602 24.167 11.499 42.5s3.66602 32.666 3.99902 42.999s0.5 25.5 0.5 45.5c0 68.667 -7 114.334 -21 137.001c-21.333 34 -56.666 51 -105.999 51c-53.333 0 -90 -19.333 -110 -58c-11.333 -22.667 -17 -66 -17 -130z" />
    <glyph glyph-name="odieresis" unicode="&#xf6;" 
d="M97 608c0 20 7.49902 37.998 22.499 53.998s33.5 24 55.5 24c20.667 0 38.667 -7.5 54 -22.5s23 -33.5 23 -55.5c0 -21.333 -7.5 -39.666 -22.5 -54.999s-33.167 -23 -54.5 -23s-39.666 7.33301 -54.999 22s-23 33.334 -23 56.001zM320.999 607.998
c0 21.333 7.49902 39.668 22.499 55.001s33.167 23 54.5 23c20.667 0 38.834 -7.5 54.501 -22.5s23.5 -33.5 23.5 -55.5c0 -22.667 -8 -41.334 -24 -56.001s-34 -22 -54 -22c-20.667 0 -38.667 7.5 -54 22.5s-23 33.5 -23 55.5zM31.998 218
c0 68.667 22.5029 125 67.5029 169s107.5 66 187.5 66c79.333 0 141.666 -22 186.999 -66s68 -100.333 68 -169c0 -64.667 -22.333 -118.167 -67 -160.5s-107.334 -63.5 -188.001 -63.5s-143.334 21.167 -188.001 63.5s-67 95.833 -67 160.5zM160.001 229
c0 -20 0.169922 -35.168 0.50293 -45.501s1.66602 -24.666 3.99902 -42.999s6.16602 -32.5 11.499 -42.5s12.5 -20.667 21.5 -32s21 -19.5 36 -24.5s32.833 -7.5 53.5 -7.5s38.5 2.5 53.5 7.5s27 13.167 36 24.5s16.167 22 21.5 32s9.16602 24.167 11.499 42.5
s3.66602 32.666 3.99902 42.999s0.5 25.5 0.5 45.5c0 68.667 -7 114.334 -21 137.001c-21.333 34 -56.666 51 -105.999 51c-53.333 0 -90 -19.333 -110 -58c-11.333 -22.667 -17 -66 -17 -130z" />
    <glyph glyph-name="divide" unicode="&#xf7;" horiz-adv-x="894" 
d="M64 250c0 16 8.33301 25.667 25 29c2.66699 0.666992 11 1 25 1h671c10.667 0 17 -0.333008 19 -1c16 -4 24 -13.667 24 -29c0 -20 -13.667 -30 -41 -30h-685c-25.333 0 -38 10 -38 30zM352 5c0 26.667 9.33301 49 28 67s40.667 27 66 27
c27.333 0 49.833 -9.5 67.5 -28.5s26.5 -40.833 26.5 -65.5c0 -26.667 -9.33301 -49 -28 -67s-40.667 -27 -66 -27s-47.333 9 -66 27s-28 40.333 -28 67zM352 494c0 26.667 9.33301 49 28 67s40.667 27 66 27c27.333 0 49.833 -9.5 67.5 -28.5s26.5 -40.833 26.5 -65.5
c0 -26.667 -9.33301 -49 -28 -67s-40.667 -27 -66 -27s-47.333 9 -66 27s-28 40.333 -28 67z" />
    <glyph glyph-name="oslash" unicode="&#xf8;" 
d="M31 219c0 68.667 22.832 124.833 68.499 168.5s107.834 65.5 186.501 65.5c38 0 75 -6.33301 111 -19l72 117h1l30 -19v-1l-70 -112c24 -13.333 44.167 -29.5 60.5 -48.5s27.833 -38.5 34.5 -58.5s11.167 -37.167 13.5 -51.5s3.5 -28.166 3.5 -41.499
c0 -68 -23.167 -122.333 -69.5 -163s-108.5 -61 -186.5 -61c-40 0 -76.333 5.66699 -109 17l-73 -119l-31 19v1l70 113c-23.333 12.667 -43 28 -59 46s-27.5 36.5 -34.5 55.5s-11.833 35.667 -14.5 50s-4 28.166 -4 41.499zM144.999 208.999
c0 -61.333 9.99902 -105.333 29.999 -132l196 316c-27.333 15.333 -55.666 23 -84.999 23c-50.667 0 -88 -16.333 -112 -49c-19.333 -26 -29 -74.333 -29 -145v-13zM201.998 51.999c24.667 -14 53.002 -21 85.002 -21c26.667 0 49.5 4.5 68.5 13.5s33 19.167 42 30.5
s16 26.5 21 45.5s7.83301 34 8.5 45s1 25.167 1 42.5v23c0 20.667 -0.333008 37 -1 49s-3.33398 26 -8.00098 42s-11.334 31 -20.001 45h-1z" />
    <glyph glyph-name="ugrave" unicode="&#xf9;" horiz-adv-x="638" 
d="M204 599c0 16 5.83301 30.498 17.5 43.498s25.5 19.5 41.5 19.5c2.66699 0 5.16699 -0.166992 7.5 -0.5s4.5 -0.666016 6.5 -0.999023s4.33301 -1.33301 7 -3l7 -4.5c2 -1.33301 5 -3.5 9 -6.5s7.5 -5.83301 10.5 -8.5l13 -12l16 -15l20.5 -19l24 -22l39 -36l-25 -40
l-62 21c-60 20 -97 34.333 -111 43s-21 22.334 -21 41.001zM45 394.998l0.000976562 46.999l183 8v-341c0 -30.667 4.33301 -51.5 13 -62.5s31 -16.5 67 -16.5c36.667 0 66.5 12.333 89.5 37s34.5 57.334 34.5 98.001v191c0 18.667 -3.5 29.834 -10.5 33.501
s-26.5 5.5 -58.5 5.5v47l183 8v-364c0 -18.667 3.5 -29.834 10.5 -33.501s26.5 -5.5 58.5 -5.5v-47l-177 -6v78c-30.667 -52 -78.667 -78 -144 -78c-56.667 0 -100.834 9.16699 -132.501 27.5s-47.5 52.166 -47.5 101.499v233c0 18.667 -3.5 29.834 -10.5 33.501
s-26.5 5.5 -58.5 5.5z" />
    <glyph glyph-name="uacute" unicode="&#xfa;" horiz-adv-x="638" 
d="M222 535c78.667 72.667 122 111.666 130 116.999c9.33301 6.66699 19.333 10 30 10c16.667 0 30.5 -6.66699 41.5 -20s16.5 -27.666 16.5 -42.999c0 -18.667 -6.83301 -32.167 -20.5 -40.5s-50.167 -22.5 -109.5 -42.5l-63 -22zM45 394.999l0.000976562 46.999l183 8
v-341c0 -30.667 4.33301 -51.5 13 -62.5s31 -16.5 67 -16.5c36.667 0 66.5 12.333 89.5 37s34.5 57.334 34.5 98.001v191c0 18.667 -3.5 29.834 -10.5 33.501s-26.5 5.5 -58.5 5.5v47l183 8v-364c0 -18.667 3.5 -29.834 10.5 -33.501s26.5 -5.5 58.5 -5.5v-47l-177 -6v78
c-30.667 -52 -78.667 -78 -144 -78c-56.667 0 -100.834 9.16699 -132.501 27.5s-47.5 52.166 -47.5 101.499v233c0 18.667 -3.5 29.834 -10.5 33.501s-26.5 5.5 -58.5 5.5z" />
    <glyph glyph-name="ucircumflex" unicode="&#xfb;" horiz-adv-x="638" 
d="M170 510l159 148h1l158 -148l-31 -36l-127 102h-1l-128 -102zM45 395l0.000976562 46.999l183 8v-341c0 -30.667 4.33301 -51.5 13 -62.5s31 -16.5 67 -16.5c36.667 0 66.5 12.333 89.5 37s34.5 57.334 34.5 98.001v191c0 18.667 -3.5 29.834 -10.5 33.501
s-26.5 5.5 -58.5 5.5v47l183 8v-364c0 -18.667 3.5 -29.834 10.5 -33.501s26.5 -5.5 58.5 -5.5v-47l-177 -6v78c-30.667 -52 -78.667 -78 -144 -78c-56.667 0 -100.834 9.16699 -132.501 27.5s-47.5 52.166 -47.5 101.499v233c0 18.667 -3.5 29.834 -10.5 33.501
s-26.5 5.5 -58.5 5.5z" />
    <glyph glyph-name="udieresis" unicode="&#xfc;" horiz-adv-x="638" 
d="M141 608c0 20 7.49902 37.998 22.499 53.998s33.5 24 55.5 24c20.667 0 38.667 -7.5 54 -22.5s23 -33.5 23 -55.5c0 -21.333 -7.5 -39.666 -22.5 -54.999s-33.167 -23 -54.5 -23s-39.666 7.33301 -54.999 22s-23 33.334 -23 56.001zM364.999 607.998
c0 21.333 7.49902 39.668 22.499 55.001s33.167 23 54.5 23c20.667 0 38.834 -7.5 54.501 -22.5s23.5 -33.5 23.5 -55.5c0 -22.667 -8 -41.334 -24 -56.001s-34 -22 -54 -22c-20.667 0 -38.667 7.5 -54 22.5s-23 33.5 -23 55.5zM44.998 395l0.000976562 46.999l183 8v-341
c0 -30.667 4.33301 -51.5 13 -62.5s31 -16.5 67 -16.5c36.667 0 66.5 12.333 89.5 37s34.5 57.334 34.5 98.001v191c0 18.667 -3.5 29.834 -10.5 33.501s-26.5 5.5 -58.5 5.5v47l183 8v-364c0 -18.667 3.5 -29.834 10.5 -33.501s26.5 -5.5 58.5 -5.5v-47l-177 -6v78
c-30.667 -52 -78.667 -78 -144 -78c-56.667 0 -100.834 9.16699 -132.501 27.5s-47.5 52.166 -47.5 101.499v233c0 18.667 -3.5 29.834 -10.5 33.501s-26.5 5.5 -58.5 5.5z" />
    <glyph glyph-name="yacute" unicode="&#xfd;" horiz-adv-x="606" 
d="M22 -108c0 18.667 5.66895 32.999 17.002 42.999s24.666 15 39.999 15c16.667 0 30.5 -5.33301 41.5 -16s16.5 -24.334 16.5 -41.001c0 -26 -10.667 -43.667 -32 -53c7.33301 -2.66699 15.333 -4 24 -4c16.667 0 31.834 3.5 45.501 10.5s25.667 17.333 36 31
s18.333 25.334 24 35.001s12.167 22.834 19.5 39.501l23 48l-187 397h-64v47c6.66699 0 24.667 -0.5 54 -1.5s49.333 -1.5 60 -1.5c49.333 0 90.666 1 123.999 3v-47h-54l127 -270l115 246c3.33301 3.33301 5 7.33301 5 12c0 8 -15.667 12 -47 12v47c42 -2 72.333 -3 91 -3
c28.667 0 55 1 79 3v-47c-20.667 0 -36.167 -0.833008 -46.5 -2.5s-16.833 -3.66699 -19.5 -6s-5.33398 -6.5 -8.00098 -12.5l-215 -457c-15.333 -32.667 -37.333 -60.667 -66 -84s-60.667 -35 -96 -35c-30 0 -55.333 9 -76 27s-31 39.667 -31 65zM259.002 534.999
c78.667 72.667 122 111.667 130 117c9.33301 6.66699 19.333 10 30 10c15.333 0 28.833 -6.5 40.5 -19.5s17.5 -27.5 17.5 -43.5c0 -18.667 -6.83301 -32.167 -20.5 -40.5s-50.5 -22.5 -110.5 -42.5l-63 -22z" />
    <glyph glyph-name="thorn" unicode="&#xfe;" horiz-adv-x="639" 
d="M35 -147l69.999 -0.00195312v758c-0.666992 14.667 -5.16699 23.834 -13.5 27.501s-24.833 5.5 -49.5 5.5h-7v47l178 9v-299c46 32.667 97 49 153 49c68 0 123.833 -20.667 167.5 -62s65.5 -96.333 65.5 -165c0 -69.333 -23.333 -124.666 -70 -165.999
s-106.667 -62 -180 -62c-47.333 0 -90.666 15 -129.999 45v-187h69v-48c-44 2 -87.667 3 -131 3c-7.33301 0 -48 -1 -122 -3v48zM217.999 112.998c0 -17.333 12.332 -35.334 36.999 -54.001s52 -28 82 -28c34.667 0 65.667 14.833 93 44.5s41 79.167 41 148.5
c0 56.667 -11.167 101.667 -33.5 135s-52.166 50 -89.499 50c-28.667 0 -54.667 -6.66699 -78 -20s-39 -26.333 -47 -39c-2.66699 -4 -4 -10.667 -4 -20v-210c0 -0.666992 -0.166992 -1.66699 -0.5 -3s-0.5 -2.66602 -0.5 -3.99902z" />
    <glyph glyph-name="ydieresis" unicode="&#xff;" horiz-adv-x="606" 
d="M22 -108c0 18.667 5.66895 32.999 17.002 42.999s24.666 15 39.999 15c16.667 0 30.5 -5.33301 41.5 -16s16.5 -24.334 16.5 -41.001c0 -26 -10.667 -43.667 -32 -53c7.33301 -2.66699 15.333 -4 24 -4c16.667 0 31.834 3.5 45.501 10.5s25.667 17.333 36 31
s18.333 25.334 24 35.001s12.167 22.834 19.5 39.501l23 48l-187 397h-64v47c6.66699 0 24.667 -0.5 54 -1.5s49.333 -1.5 60 -1.5c49.333 0 90.666 1 123.999 3v-47h-54l127 -270l115 246c3.33301 3.33301 5 7.33301 5 12c0 8 -15.667 12 -47 12v47c42 -2 72.333 -3 91 -3
c28.667 0 55 1 79 3v-47c-20.667 0 -36.167 -0.833008 -46.5 -2.5s-16.833 -3.66699 -19.5 -6s-5.33398 -6.5 -8.00098 -12.5l-215 -457c-15.333 -32.667 -37.333 -60.667 -66 -84s-60.667 -35 -96 -35c-30 0 -55.333 9 -76 27s-31 39.667 -31 65zM114.002 607.999
c0 22.667 7.83301 41.332 23.5 55.999s33.5 22 53.5 22c20.667 0 38.834 -7.5 54.501 -22.5s23.5 -33.5 23.5 -55.5c0 -21.333 -7.5 -39.666 -22.5 -54.999s-33.167 -23 -54.5 -23c-20.667 0 -38.834 7.5 -54.501 22.5s-23.5 33.5 -23.5 55.5zM337.002 607.997
c0 21.333 7.5 39.668 22.5 55.001s33.167 23 54.5 23c20.667 0 38.834 -7.5 54.501 -22.5s23.5 -33.5 23.5 -55.5c0 -20.667 -7.33301 -38.834 -22 -54.501s-33 -23.5 -55 -23.5c-20.667 0 -38.834 7.5 -54.501 22.5s-23.5 33.5 -23.5 55.5z" />
    <glyph glyph-name="Amacron" unicode="&#x100;" horiz-adv-x="869" 
d="M201 791v51h466v-51h-466zM41 0l0.000976562 47h21c34.667 0 56.667 1.66699 66 5s15.666 9.33301 18.999 18l248 602c2.66699 7.33301 5 12.5 7 15.5s5.5 5.5 10.5 7.5s12.167 3 21.5 3c7.33301 0 12.666 -0.333008 15.999 -1s7.33301 -3 12 -7s8.66699 -10 12 -18
l256 -625h97v-47c-23.333 2 -77.666 3 -162.999 3c-92 0 -150.667 -1 -176 -3v47h95l-60 146h-268l-50 -121c-2.66699 -2.66699 -4 -6.66699 -4 -12c0 -8.66699 29.667 -13 89 -13v-47c-24.667 2 -68.667 3 -132 3c-2 0 -41 -1 -117 -3zM275.001 240h228l-114 278z" />
    <glyph glyph-name="amacron" unicode="&#x101;" horiz-adv-x="559" 
d="M43 552v52h415v-52h-415zM32 108c0 95.333 108.337 147.668 325.004 157.001v34c0 78.667 -36.667 118 -110 118c-26 0 -50 -2.33301 -72 -7c14.667 -10 22 -26.333 22 -49c0 -20 -6.33301 -35.5 -19 -46.5s-27.334 -16.5 -44.001 -16.5c-15.333 0 -29.5 5.5 -42.5 16.5
s-19.5 26.5 -19.5 46.5c0 61.333 59.667 92 179 92c72 0 126.667 -14 164 -42s56 -65.333 56 -112v-215c0 -9.33301 0.666992 -16 2 -20s6.66602 -7.83301 15.999 -11.5s23.666 -5.5 42.999 -5.5c6 0 10.333 -0.333008 13 -1s5.5 -2.66699 8.5 -6s4.5 -8.66602 4.5 -15.999
c0 -10.667 -2.33301 -17.334 -7 -20.001s-13 -4 -25 -4h-48c-24.667 0 -44.667 2.33301 -60 7s-25.833 11.667 -31.5 21s-9.16699 17.166 -10.5 23.499s-2 14.833 -2 25.5c-28.667 -55.333 -78.334 -83 -149.001 -83c-20 0 -40 1.5 -60 4.5s-40.667 8.33301 -62 16
s-38.5 19.5 -51.5 35.5s-19.5 35.333 -19.5 58zM149.004 109.002c0 -22 8.83398 -40.665 26.501 -55.998s39.167 -23 64.5 -23c8.66699 0 18.5 1.33301 29.5 4s23.667 7.33398 38 14.001s26.166 18 35.499 34s14 35 14 57v95
c-14.667 -0.666992 -28.5 -1.83398 -41.5 -3.50098s-30.5 -5.33398 -52.5 -11.001s-40.667 -12.5 -56 -20.5s-28.833 -19.833 -40.5 -35.5s-17.5 -33.834 -17.5 -54.501z" />
    <glyph glyph-name="Abreve" unicode="&#x102;" horiz-adv-x="869" 
d="M41 0l0.000976562 47h21c34.667 0 56.667 1.66699 66 5s15.666 9.33301 18.999 18l248 602c2.66699 7.33301 5 12.5 7 15.5s5.5 5.5 10.5 7.5s12.167 3 21.5 3c7.33301 0 12.666 -0.333008 15.999 -1s7.33301 -3 12 -7s8.66699 -10 12 -18l256 -625h97v-47
c-23.333 2 -77.666 3 -162.999 3c-92 0 -150.667 -1 -176 -3v47h95l-60 146h-268l-50 -121c-2.66699 -2.66699 -4 -6.66699 -4 -12c0 -8.66699 29.667 -13 89 -13v-47c-24.667 2 -68.667 3 -132 3c-2 0 -41 -1 -117 -3zM256.001 894h36
c4.66699 -50.667 51.334 -76 140.001 -76c91.333 0 139 25.333 143 76h36c-2 -43.333 -20.333 -77.333 -55 -102s-75.334 -37 -122.001 -37c-45.333 0 -85.833 11.833 -121.5 35.5s-54.5 58.167 -56.5 103.5zM275.001 240h228l-114 278z" />
    <glyph glyph-name="abreve" unicode="&#x103;" horiz-adv-x="559" 
d="M108 653l36 -0.00195312c1.33301 -20 7.66602 -37 18.999 -51s25.166 -24 41.499 -30s31 -10.167 44 -12.5s25.5 -3.5 37.5 -3.5c16.667 0 34 1.83301 52 5.5s36.833 13.334 56.5 29.001s30.5 36.5 32.5 62.5h36c-2 -49.333 -20.667 -88.166 -56 -116.499
s-75.666 -42.5 -120.999 -42.5c-46.667 0 -87.667 14.5 -123 43.5s-53.666 67.5 -54.999 115.5zM32 107.998c0 95.333 108.337 147.668 325.004 157.001v34c0 78.667 -36.667 118 -110 118c-26 0 -50 -2.33301 -72 -7c14.667 -10 22 -26.333 22 -49
c0 -20 -6.33301 -35.5 -19 -46.5s-27.334 -16.5 -44.001 -16.5c-15.333 0 -29.5 5.5 -42.5 16.5s-19.5 26.5 -19.5 46.5c0 61.333 59.667 92 179 92c72 0 126.667 -14 164 -42s56 -65.333 56 -112v-215c0 -9.33301 0.666992 -16 2 -20s6.66602 -7.83301 15.999 -11.5
s23.666 -5.5 42.999 -5.5c6 0 10.333 -0.333008 13 -1s5.5 -2.66699 8.5 -6s4.5 -8.66602 4.5 -15.999c0 -10.667 -2.33301 -17.334 -7 -20.001s-13 -4 -25 -4h-48c-24.667 0 -44.667 2.33301 -60 7s-25.833 11.667 -31.5 21s-9.16699 17.166 -10.5 23.499
s-2 14.833 -2 25.5c-28.667 -55.333 -78.334 -83 -149.001 -83c-20 0 -40 1.5 -60 4.5s-40.667 8.33301 -62 16s-38.5 19.5 -51.5 35.5s-19.5 35.333 -19.5 58zM149.004 109c0 -22 8.83398 -40.665 26.501 -55.998s39.167 -23 64.5 -23c8.66699 0 18.5 1.33301 29.5 4
s23.667 7.33398 38 14.001s26.166 18 35.499 34s14 35 14 57v95c-14.667 -0.666992 -28.5 -1.83398 -41.5 -3.50098s-30.5 -5.33398 -52.5 -11.001s-40.667 -12.5 -56 -20.5s-28.833 -19.833 -40.5 -35.5s-17.5 -33.834 -17.5 -54.501z" />
    <glyph glyph-name="aogonek" unicode="&#x105;" horiz-adv-x="559" 
d="M31 109c0 29.333 10.833 54.6699 32.5 76.0029s50 37.5 85 48.5s69.667 19 104 24s69.166 7.5 104.499 7.5v27c0 82.667 -36 124 -108 124c-26 0 -51 -2 -75 -6c14.667 -16 22 -32.333 22 -49c0 -18 -6.16699 -32.833 -18.5 -44.5s-27.166 -17.5 -44.499 -17.5
c-18 0 -32.833 6 -44.5 18s-17.5 27 -17.5 45c0 60.667 60 91 180 91c34.667 0 65.334 -3.5 92.001 -10.5s47.334 -15.167 62.001 -24.5s27 -20.5 37 -33.5s16.667 -23.833 20 -32.5s5.66602 -17.334 6.99902 -26.001c1.33301 -8 2 -20 2 -36v-197
c0 -12.667 0.333008 -20.334 1 -23.001c3.33301 -12 17 -19 41 -21s37.333 -5.33301 40 -10c3.33301 -5.33301 5 -10.333 5 -15c0 -10.667 -2.83301 -17.334 -8.5 -20.001s-13.834 -4 -24.501 -4h-46c-18 -0 -32.5 -7.66699 -43.5 -23s-16.5 -30 -16.5 -44
c0 -19.333 6.83301 -35.666 20.5 -48.999s27.834 -20 42.501 -20c9.33301 0 19 3.66699 29 11s17 11 21 11c4.66699 0 10.167 -2.5 16.5 -7.5s9.5 -10.5 9.5 -16.5c0 -10.667 -10.5 -24.5 -31.5 -41.5s-45.5 -25.5 -73.5 -25.5c-30.667 0 -57.334 10.167 -80.001 30.5
s-34 45.166 -34 74.499c0 39.333 22.333 77 67 113c-10.667 6.66699 -18.5 14 -23.5 22s-7.66699 14 -8 18s-0.833008 12.333 -1.5 25c-28 -55.333 -77.667 -83 -149 -83c-21.333 0 -42.166 1.66699 -62.499 5s-40.833 8.83301 -61.5 16.5s-37.334 19.5 -50.001 35.5
s-19 35 -19 57zM149 110.004c0 -22.667 8.83398 -41.501 26.501 -56.501s39.167 -22.5 64.5 -22.5c27.333 0 53.666 8.5 78.999 25.5s38 45.167 38 84.5v93c-102.667 -6.66699 -167.667 -32.667 -195 -78c-8.66699 -15.333 -13 -30.666 -13 -45.999z" />
    <glyph glyph-name="Cacute" unicode="&#x106;" horiz-adv-x="830" 
d="M358 778c94.667 60 144.999 91.3301 150.999 93.9971c6 2 12.333 3 19 3h1c15.333 0 28.5 -6.5 39.5 -19.5s16.5 -27.5 16.5 -43.5c0 -5.33301 -0.5 -10.5 -1.5 -15.5s-2.83301 -9.16699 -5.5 -12.5s-5 -6.5 -7 -9.5s-5.5 -5.5 -10.5 -7.5s-8.5 -3.66699 -10.5 -5
s-6.33301 -2.66602 -13 -3.99902s-10.667 -2.16602 -12 -2.49902s-5.66602 -1.16602 -12.999 -2.49902l-11 -1c-24 -4 -66.333 -10.333 -127 -19zM63.999 342.997c0 104 36.3369 188.999 109.004 254.999s170.334 99 293.001 99c75.333 0 141 -22.667 197 -68l66 59
c6.66699 6 13 9 19 9c8 0 13 -1.83301 15 -5.5s3 -11.167 3 -22.5v-215c0 -13.333 -1.33301 -21.333 -4 -24s-10.334 -4 -23.001 -4c-11.333 0 -18.333 1 -21 3s-4.66699 8 -6 18c-10.667 62 -37 111.333 -79 148s-90.667 55 -146 55c-85.333 0 -153.333 -25.667 -204 -77
c-44 -46 -66 -122.667 -66 -230c0 -100 19.667 -174 59 -222c48 -56.667 119.333 -85 214 -85c56.667 0 108.167 17 154.5 51s71.166 82 74.499 144c0.666992 8 2.66699 12.833 6 14.5s9 2.5 17 2.5c9.33301 0 15.666 -1.16699 18.999 -3.5s5 -8.16602 5 -17.499
c0 -61.333 -27.833 -116.333 -83.5 -165s-127.834 -73 -216.501 -73c-122.667 0 -220.334 33 -293.001 99s-109 151 -109 255z" />
    <glyph glyph-name="cacute" unicode="&#x107;" horiz-adv-x="511" 
d="M38 222c0 64 21.165 118.501 63.498 163.501s105.5 67.5 189.5 67.5c116 0 174 -30.667 174 -92c0 -20 -6.33301 -35.5 -19 -46.5s-27.334 -16.5 -44.001 -16.5c-15.333 0 -29.5 5.5 -42.5 16.5s-19.5 26.5 -19.5 46.5c0 18.667 6.66699 34 20 46c-17.333 4 -39 6 -65 6
c-24.667 0 -45.667 -5 -63 -15s-30.166 -21.167 -38.499 -33.5s-14.666 -28.666 -18.999 -48.999s-6.83301 -36 -7.5 -47s-1 -24.833 -1 -41.5c0 -128.667 46.333 -193 139 -193c60.667 0 102.334 27.333 125.001 82c2.66699 6.66699 5.16699 10.834 7.5 12.501
s7.83301 2.5 16.5 2.5c16 0 24 -4.66699 24 -14c0 -2.66699 -1.33301 -7.83398 -4 -15.501s-8.33398 -17.834 -17.001 -30.501s-19.667 -24.5 -33 -35.5s-32.166 -20.667 -56.499 -29s-51.5 -12.5 -81.5 -12.5c-76 0 -136.333 21.167 -181 63.5s-67 97.166 -67 164.499z
M194.998 535.001c77.333 72 119.999 110.667 127.999 116c10.667 7.33301 21.334 11 32.001 11c16 0 29.667 -6.5 41 -19.5s17 -27.5 17 -43.5c0 -18.667 -7.16699 -32.167 -21.5 -40.5s-51.5 -22.833 -111.5 -43.5l-61 -21z" />
    <glyph glyph-name="Ccircumflex" unicode="&#x108;" horiz-adv-x="830" 
d="M308 775l157 125l157 -125l-28 -39l-129 81l-129 -81zM64 343c0 104 36.3369 188.999 109.004 254.999s170.334 99 293.001 99c75.333 0 141 -22.667 197 -68l66 59c6.66699 6 13 9 19 9c8 0 13 -1.83301 15 -5.5s3 -11.167 3 -22.5v-215
c0 -13.333 -1.33301 -21.333 -4 -24s-10.334 -4 -23.001 -4c-11.333 0 -18.333 1 -21 3s-4.66699 8 -6 18c-10.667 62 -37 111.333 -79 148s-90.667 55 -146 55c-85.333 0 -153.333 -25.667 -204 -77c-44 -46 -66 -122.667 -66 -230c0 -100 19.667 -174 59 -222
c48 -56.667 119.333 -85 214 -85c56.667 0 108.167 17 154.5 51s71.166 82 74.499 144c0.666992 8 2.66699 12.833 6 14.5s9 2.5 17 2.5c9.33301 0 15.666 -1.16699 18.999 -3.5s5 -8.16602 5 -17.499c0 -61.333 -27.833 -116.333 -83.5 -165s-127.834 -73 -216.501 -73
c-122.667 0 -220.334 33 -293.001 99s-109 151 -109 255z" />
    <glyph glyph-name="ccircumflex" unicode="&#x109;" horiz-adv-x="511" 
d="M132 510l159 148h1l158 -148l-31 -36l-127 102h-1l-128 -102zM38 222c0 64 21.165 118.501 63.498 163.501s105.5 67.5 189.5 67.5c116 0 174 -30.667 174 -92c0 -20 -6.33301 -35.5 -19 -46.5s-27.334 -16.5 -44.001 -16.5c-15.333 0 -29.5 5.5 -42.5 16.5
s-19.5 26.5 -19.5 46.5c0 18.667 6.66699 34 20 46c-17.333 4 -39 6 -65 6c-24.667 0 -45.667 -5 -63 -15s-30.166 -21.167 -38.499 -33.5s-14.666 -28.666 -18.999 -48.999s-6.83301 -36 -7.5 -47s-1 -24.833 -1 -41.5c0 -128.667 46.333 -193 139 -193
c60.667 0 102.334 27.333 125.001 82c2.66699 6.66699 5.16699 10.834 7.5 12.501s7.83301 2.5 16.5 2.5c16 0 24 -4.66699 24 -14c0 -2.66699 -1.33301 -7.83398 -4 -15.501s-8.33398 -17.834 -17.001 -30.501s-19.667 -24.5 -33 -35.5s-32.166 -20.667 -56.499 -29
s-51.5 -12.5 -81.5 -12.5c-76 0 -136.333 21.167 -181 63.5s-67 97.166 -67 164.499z" />
    <glyph glyph-name="Cdotaccent" unicode="&#x10a;" horiz-adv-x="830" 
d="M387 824c0 21.333 7.5 39.666 22.5 54.999s33.5 23 55.5 23c21.333 0 39.666 -7.66699 54.999 -23s23 -33.666 23 -54.999s-7.66699 -39.666 -23 -54.999s-33.666 -23 -54.999 -23c-22 0 -40.5 7.66699 -55.5 23s-22.5 33.666 -22.5 54.999zM64 343
c0 104 36.3369 188.999 109.004 254.999s170.334 99 293.001 99c75.333 0 141 -22.667 197 -68l66 59c6.66699 6 13 9 19 9c8 0 13 -1.83301 15 -5.5s3 -11.167 3 -22.5v-215c0 -13.333 -1.33301 -21.333 -4 -24s-10.334 -4 -23.001 -4c-11.333 0 -18.333 1 -21 3
s-4.66699 8 -6 18c-10.667 62 -37 111.333 -79 148s-90.667 55 -146 55c-85.333 0 -153.333 -25.667 -204 -77c-44 -46 -66 -122.667 -66 -230c0 -100 19.667 -174 59 -222c48 -56.667 119.333 -85 214 -85c56.667 0 108.167 17 154.5 51s71.166 82 74.499 144
c0.666992 8 2.66699 12.833 6 14.5s9 2.5 17 2.5c9.33301 0 15.666 -1.16699 18.999 -3.5s5 -8.16602 5 -17.499c0 -61.333 -27.833 -116.333 -83.5 -165s-127.834 -73 -216.501 -73c-122.667 0 -220.334 33 -293.001 99s-109 151 -109 255z" />
    <glyph glyph-name="cdotaccent" unicode="&#x10b;" horiz-adv-x="511" 
d="M213 617c0 20 7.5 37.832 22.5 53.499s33.5 23.5 55.5 23.5c20.667 0 38.834 -7.5 54.501 -22.5s23.5 -33.5 23.5 -55.5c0 -20 -7.5 -37.833 -22.5 -53.5s-33.5 -23.5 -55.5 -23.5c-22.667 0 -41.334 7.83301 -56.001 23.5s-22 33.834 -22 54.501zM38 221.999
c0 64 21.165 118.501 63.498 163.501s105.5 67.5 189.5 67.5c116 0 174 -30.667 174 -92c0 -20 -6.33301 -35.5 -19 -46.5s-27.334 -16.5 -44.001 -16.5c-15.333 0 -29.5 5.5 -42.5 16.5s-19.5 26.5 -19.5 46.5c0 18.667 6.66699 34 20 46c-17.333 4 -39 6 -65 6
c-24.667 0 -45.667 -5 -63 -15s-30.166 -21.167 -38.499 -33.5s-14.666 -28.666 -18.999 -48.999s-6.83301 -36 -7.5 -47s-1 -24.833 -1 -41.5c0 -128.667 46.333 -193 139 -193c60.667 0 102.334 27.333 125.001 82c2.66699 6.66699 5.16699 10.834 7.5 12.501
s7.83301 2.5 16.5 2.5c16 0 24 -4.66699 24 -14c0 -2.66699 -1.33301 -7.83398 -4 -15.501s-8.33398 -17.834 -17.001 -30.501s-19.667 -24.5 -33 -35.5s-32.166 -20.667 -56.499 -29s-51.5 -12.5 -81.5 -12.5c-76 0 -136.333 21.167 -181 63.5s-67 97.166 -67 164.499z" />
    <glyph glyph-name="Ccaron" unicode="&#x10c;" horiz-adv-x="830" 
d="M64 343c0 104 36.3369 188.999 109.004 254.999s170.334 99 293.001 99c75.333 0 141 -22.667 197 -68l66 59c6.66699 6 13 9 19 9c8 0 13 -1.83301 15 -5.5s3 -11.167 3 -22.5v-215c0 -13.333 -1.33301 -21.333 -4 -24s-10.334 -4 -23.001 -4c-11.333 0 -18.333 1 -21 3
s-4.66699 8 -6 18c-10.667 62 -37 111.333 -79 148s-90.667 55 -146 55c-85.333 0 -153.333 -25.667 -204 -77c-44 -46 -66 -122.667 -66 -230c0 -100 19.667 -174 59 -222c48 -56.667 119.333 -85 214 -85c56.667 0 108.167 17 154.5 51s71.166 82 74.499 144
c0.666992 8 2.66699 12.833 6 14.5s9 2.5 17 2.5c9.33301 0 15.666 -1.16699 18.999 -3.5s5 -8.16602 5 -17.499c0 -61.333 -27.833 -116.333 -83.5 -165s-127.834 -73 -216.501 -73c-122.667 0 -220.334 33 -293.001 99s-109 151 -109 255zM321.004 877.999l12 26
c103.333 -28.667 156 -43 158 -43h1c0.666992 0 52.667 14.333 156 43l12 -26l-115 -77c-32.667 -22 -50.667 -33 -54 -33c-4 0 -22.333 11 -55 33z" />
    <glyph glyph-name="ccaron" unicode="&#x10d;" horiz-adv-x="511" 
d="M117 641v1l17 22h1c100 -57.333 151.333 -86 154 -86h1c3.33301 0 54.333 28.667 153 86h1l18 -22v-1l-172 -171h-1zM38 222c0 64 21.165 118.501 63.498 163.501s105.5 67.5 189.5 67.5c116 0 174 -30.667 174 -92c0 -20 -6.33301 -35.5 -19 -46.5
s-27.334 -16.5 -44.001 -16.5c-15.333 0 -29.5 5.5 -42.5 16.5s-19.5 26.5 -19.5 46.5c0 18.667 6.66699 34 20 46c-17.333 4 -39 6 -65 6c-24.667 0 -45.667 -5 -63 -15s-30.166 -21.167 -38.499 -33.5s-14.666 -28.666 -18.999 -48.999s-6.83301 -36 -7.5 -47
s-1 -24.833 -1 -41.5c0 -128.667 46.333 -193 139 -193c60.667 0 102.334 27.333 125.001 82c2.66699 6.66699 5.16699 10.834 7.5 12.501s7.83301 2.5 16.5 2.5c16 0 24 -4.66699 24 -14c0 -2.66699 -1.33301 -7.83398 -4 -15.501s-8.33398 -17.834 -17.001 -30.501
s-19.667 -24.5 -33 -35.5s-32.166 -20.667 -56.499 -29s-51.5 -12.5 -81.5 -12.5c-76 0 -136.333 21.167 -181 63.5s-67 97.166 -67 164.499z" />
    <glyph glyph-name="Dcaron" unicode="&#x10e;" horiz-adv-x="881" 
d="M39 0l0.000976562 47h108v592h-108v47h430c101.333 0 184.666 -31.333 249.999 -94s98 -147.667 98 -255c0 -104.667 -32.5 -187 -97.5 -247s-148.167 -90 -249.5 -90h-431zM213.001 878l12 26c103.333 -28.667 156 -43 158 -43h1c0.666992 0 52.667 14.333 156 43
l12 -26l-115 -77c-32.667 -22 -50.667 -33 -54 -33c-4 0 -22.333 11 -55 33zM283.001 47l146 -0.000976562c92 0 157.667 28 197 84c16 22.667 27.333 49.334 34 80.001s10 73 10 127c0 99.333 -14.333 170 -43 212c-41.333 59.333 -107.333 89 -198 89h-146v-592z" />
    <glyph glyph-name="dcaron" unicode="&#x10f;" horiz-adv-x="810" 
d="M38 221c0 69.333 23.333 124.833 70 166.5s107 62.5 181 62.5c51.333 0 96.333 -15 135 -45v195c0 18.667 -3.5 29.834 -10.5 33.501s-26.5 5.5 -58.5 5.5v47l177 8v-608c0 -18.667 3.5 -29.834 10.5 -33.501s26.5 -5.5 58.5 -5.5v-47l-183 -6v49
c-40.667 -32.667 -87.334 -49 -140.001 -49c-73.333 0 -131.666 21.167 -174.999 63.5s-65 96.833 -65 163.5zM166 221c0 -16.667 0.167969 -29.832 0.500977 -39.499s1.5 -23.167 3.5 -40.5s5.66699 -31.5 11 -42.5s12.333 -22.333 21 -34s20.334 -20.334 35.001 -26.001
s31.667 -8.5 51 -8.5c51.333 0 94.666 24.333 129.999 73v250c-30.667 40.667 -70.334 61 -119.001 61c-47.333 0 -83 -17.333 -107 -52c-17.333 -26 -26 -73 -26 -141zM578.001 676.002c0 22 7.16699 40.498 21.5 55.498s32.833 22.5 55.5 22.5
c24.667 0 46.667 -9.33301 66 -28s29 -44 29 -76c0 -49.333 -15.833 -91.666 -47.5 -126.999s-56.5 -53 -74.5 -53c-4.66699 0 -8.83398 2 -12.501 6s-5.5 8.33301 -5.5 13s4.16699 9.83398 12.5 15.501l28 18.5c10.333 6.66699 21.333 18.5 33 35.5s20.5 37.167 26.5 60.5
c-17.333 -14 -35.333 -21 -54 -21c-23.333 0 -42.166 7.5 -56.499 22.5s-21.5 33.5 -21.5 55.5z" />
    <glyph glyph-name="Dcroat" unicode="&#x110;" horiz-adv-x="882" 
d="M39 0v48h108v265h-80c-18.667 0 -28 8 -28 24c0 15.333 9.33301 23 28 23h80v278h-108v48h405c120.667 0 212.667 -31 276 -93c65.333 -63.333 98 -148.333 98 -255c0 -98 -28.5 -176.5 -85.5 -235.5s-131.167 -92.5 -222.5 -100.5c-14.667 -1.33301 -36.667 -2 -66 -2
h-405zM284 48h132.002c93.333 0 161 24.667 203 74c34 40.667 51 106 51 196v34c0 20 -0.333008 37.5 -1 52.5s-3 33 -7 54s-9.16699 39.167 -15.5 54.5s-15.833 31.333 -28.5 48s-27.834 30.167 -45.501 40.5s-39.834 19 -66.501 26s-57 10.5 -91 10.5h-131v-278h170
c20 0 30 -8 30 -24c0 -15.333 -10 -23 -30 -23h-170v-265z" />
    <glyph glyph-name="dcroat" unicode="&#x111;" horiz-adv-x="639" 
d="M38 222c0 68.667 23 123.833 69 165.5s106.667 62.5 182 62.5c49.333 0 94.333 -15 135 -45v115h-223v48h223v24c0 20.667 -3 33.5 -9 38.5s-23.333 7.5 -52 7.5h-9v48l179 8v-126h51v-48h-51v-440c0.666992 -14 4.66699 -22.833 12 -26.5s22.666 -5.5 45.999 -5.5h11
v-48l-184 -5v49c-41.333 -32.667 -88.666 -49 -141.999 -49c-69.333 0 -126.333 20.5 -171 61.5s-67 96.167 -67 165.5zM166 203.999c0 -60 8.99902 -102.335 26.999 -127.002c21.333 -30.667 53 -46 95 -46c32 0 60.333 8.83301 85 26.5s39.334 33.5 44.001 47.5
c0.666992 2 1 8.66699 1 20v210c0 20.667 -12.667 38.834 -38 54.501s-52.333 23.5 -81 23.5c-48 0 -83.667 -17.667 -107 -53c-17.333 -25.333 -26 -67.666 -26 -126.999v-29z" />
    <glyph glyph-name="Emacron" unicode="&#x112;" horiz-adv-x="755" 
d="M148 791v51h466v-51h-466zM39 0l-0.00195312 47.001h108v586h-108v47h621l31 -241h-47c-3.33301 27.333 -7.16602 49.833 -11.499 67.5s-11.166 35.167 -20.499 52.5s-21 31 -35 41s-32.333 18 -55 24s-49.667 9 -81 9h-152v-257h55c44.667 0 73.5 9 86.5 27
s19.5 48 19.5 90h47v-281h-47c0 42 -6.5 72 -19.5 90s-41.833 27 -86.5 27h-55v-282h152c30 0 56.5 2.16699 79.5 6.5s42.5 11.666 58.5 21.999s29.5 21.333 40.5 33s20.167 27 27.5 46s13 37.167 17 54.5s8 39 12 65h47l-46 -274h-638z" />
    <glyph glyph-name="emacron" unicode="&#x113;" horiz-adv-x="527" 
d="M70 552v52h415v-52h-415zM32 225c0 65.333 21.832 119.665 65.499 162.998s104.167 65 181.5 65c68.667 0 121.667 -18 159 -54c37.333 -37.333 56 -88.666 56 -153.999c0 -12.667 -2.16699 -20.334 -6.5 -23.001s-12.833 -4 -25.5 -4h-302
c0 -122.667 47.333 -184 142 -184c32.667 0 62 7.33301 88 22s44.333 34 55 58c3.33301 8.66699 6.33301 14.334 9 17.001s8 4 16 4c16 0 24 -6 24 -18c0 -4.66699 -1.83301 -11.167 -5.5 -19.5s-10.334 -18.666 -20.001 -30.999s-21.667 -23.833 -36 -34.5
s-33.666 -19.667 -57.999 -27s-51.5 -11 -81.5 -11c-79.333 0 -142.666 21.5 -189.999 64.5s-71 98.5 -71 166.5zM159.999 250.999h239.001c-3.33301 110.667 -43.333 166 -120 166c-40.667 0 -72.334 -17.333 -95.001 -52c-13.333 -20.667 -21.333 -58.667 -24 -114z" />
    <glyph glyph-name="Ebreve" unicode="&#x114;" horiz-adv-x="755" 
d="M203 894h36.0029c4.66699 -50.667 52 -76 142 -76c88.667 0 135.334 25.333 140.001 76h38c-2.66699 -44.667 -21.834 -79 -57.501 -103s-75.834 -36 -120.501 -36s-84.834 12 -120.501 36s-54.834 58.333 -57.501 103zM39.0029 0l-0.00195312 47.001h108v586h-108v47
h621l31 -241h-47c-3.33301 27.333 -7.16602 49.833 -11.499 67.5s-11.166 35.167 -20.499 52.5s-21 31 -35 41s-32.333 18 -55 24s-49.667 9 -81 9h-152v-257h55c44.667 0 73.5 9 86.5 27s19.5 48 19.5 90h47v-281h-47c0 42 -6.5 72 -19.5 90s-41.833 27 -86.5 27h-55v-282
h152c30 0 56.5 2.16699 79.5 6.5s42.5 11.666 58.5 21.999s29.5 21.333 40.5 33s20.167 27 27.5 46s13 37.167 17 54.5s8 39 12 65h47l-46 -274h-638z" />
    <glyph glyph-name="ebreve" unicode="&#x115;" horiz-adv-x="527" 
d="M100 653l36 -0.00195312c1.33301 -20 7.66602 -37 18.999 -51s25.166 -24 41.499 -30s31 -10.167 44 -12.5s25.5 -3.5 37.5 -3.5c16.667 0 34 1.83301 52 5.5s36.833 13.334 56.5 29.001s30.5 36.5 32.5 62.5h36c-2 -49.333 -20.667 -88.166 -56 -116.499
s-75.666 -42.5 -120.999 -42.5c-46.667 0 -87.667 14.5 -123 43.5s-53.666 67.5 -54.999 115.5zM32 224.998c0 65.333 21.832 119.665 65.499 162.998s104.167 65 181.5 65c68.667 0 121.667 -18 159 -54c37.333 -37.333 56 -88.666 56 -153.999
c0 -12.667 -2.16699 -20.334 -6.5 -23.001s-12.833 -4 -25.5 -4h-302c0 -122.667 47.333 -184 142 -184c32.667 0 62 7.33301 88 22s44.333 34 55 58c3.33301 8.66699 6.33301 14.334 9 17.001s8 4 16 4c16 0 24 -6 24 -18c0 -4.66699 -1.83301 -11.167 -5.5 -19.5
s-10.334 -18.666 -20.001 -30.999s-21.667 -23.833 -36 -34.5s-33.666 -19.667 -57.999 -27s-51.5 -11 -81.5 -11c-79.333 0 -142.666 21.5 -189.999 64.5s-71 98.5 -71 166.5zM159.999 250.997h239.001c-3.33301 110.667 -43.333 166 -120 166
c-40.667 0 -72.334 -17.333 -95.001 -52c-13.333 -20.667 -21.333 -58.667 -24 -114z" />
    <glyph glyph-name="Edotaccent" unicode="&#x116;" horiz-adv-x="755" 
d="M303 824c0 21.333 7.5 39.666 22.5 54.999s33.5 23 55.5 23c21.333 0 39.666 -7.66699 54.999 -23s23 -33.666 23 -54.999s-7.66699 -39.666 -23 -54.999s-33.666 -23 -54.999 -23c-22 0 -40.5 7.66699 -55.5 23s-22.5 33.666 -22.5 54.999zM39 0l-0.00195312 47.001h108
v586h-108v47h621l31 -241h-47c-3.33301 27.333 -7.16602 49.833 -11.499 67.5s-11.166 35.167 -20.499 52.5s-21 31 -35 41s-32.333 18 -55 24s-49.667 9 -81 9h-152v-257h55c44.667 0 73.5 9 86.5 27s19.5 48 19.5 90h47v-281h-47c0 42 -6.5 72 -19.5 90
s-41.833 27 -86.5 27h-55v-282h152c30 0 56.5 2.16699 79.5 6.5s42.5 11.666 58.5 21.999s29.5 21.333 40.5 33s20.167 27 27.5 46s13 37.167 17 54.5s8 39 12 65h47l-46 -274h-638z" />
    <glyph glyph-name="edotaccent" unicode="&#x117;" horiz-adv-x="527" 
d="M200 617c0 20 7.5 37.832 22.5 53.499s33.5 23.5 55.5 23.5c20.667 0 38.834 -7.5 54.501 -22.5s23.5 -33.5 23.5 -55.5c0 -20 -7.5 -37.833 -22.5 -53.5s-33.5 -23.5 -55.5 -23.5c-22.667 0 -41.334 7.83301 -56.001 23.5s-22 33.834 -22 54.501zM32 224.999
c0 65.333 21.832 119.665 65.499 162.998s104.167 65 181.5 65c68.667 0 121.667 -18 159 -54c37.333 -37.333 56 -88.666 56 -153.999c0 -12.667 -2.16699 -20.334 -6.5 -23.001s-12.833 -4 -25.5 -4h-302c0 -122.667 47.333 -184 142 -184c32.667 0 62 7.33301 88 22
s44.333 34 55 58c3.33301 8.66699 6.33301 14.334 9 17.001s8 4 16 4c16 0 24 -6 24 -18c0 -4.66699 -1.83301 -11.167 -5.5 -19.5s-10.334 -18.666 -20.001 -30.999s-21.667 -23.833 -36 -34.5s-33.666 -19.667 -57.999 -27s-51.5 -11 -81.5 -11
c-79.333 0 -142.666 21.5 -189.999 64.5s-71 98.5 -71 166.5zM159.999 250.998h239.001c-3.33301 110.667 -43.333 166 -120 166c-40.667 0 -72.334 -17.333 -95.001 -52c-13.333 -20.667 -21.333 -58.667 -24 -114z" />
    <glyph glyph-name="Eogonek" unicode="&#x118;" horiz-adv-x="755" 
d="M39 0l0.000976562 48h108v585h-108v47h622l30 -242h-47c-5.33301 41.333 -12.666 74.666 -21.999 99.999s-25.333 46.333 -48 63c-28.667 21.333 -80.667 32 -156 32h-129v-256h50c13.333 0 24.166 0.5 32.499 1.5s18.333 3.16699 30 6.5s21.167 9.16602 28.5 17.499
s12.666 19.5 15.999 33.5c2.66699 10 4 29.333 4 58h48v-282h-48c0 46 -7.5 77 -22.5 93s-44.5 24 -88.5 24h-50v-281h153c44 0.666992 80 5.5 108 14.5s50.167 24.167 66.5 45.5s28.333 43.833 36 67.5s15.167 56.834 22.5 99.501h48l-46 -275h-71
c-16.667 0 -31 -7.5 -43 -22.5s-18 -30.167 -18 -45.5c0 -17.333 6.66699 -33.166 20 -47.499s28.333 -21.5 45 -21.5c9.33301 0 18.5 3.5 27.5 10.5s15.833 10.5 20.5 10.5c6 0 11.833 -2.83301 17.5 -8.5s8.5 -10.834 8.5 -15.501c0 -12 -10.833 -25.833 -32.5 -41.5
s-45.5 -23.5 -71.5 -23.5c-31.333 0 -58.333 10.333 -81 31s-34 45.334 -34 74.001c0 32.667 17.667 66 53 100h-479z" />
    <glyph glyph-name="eogonek" unicode="&#x119;" horiz-adv-x="527" 
d="M31 225c0 66.667 22.165 121.334 66.498 164.001s104.833 64 181.5 64c40.667 0 75.834 -6.33301 105.501 -19s52 -29.834 67 -51.501s25.833 -43.667 32.5 -66s10 -46.166 10 -71.499c0 -8 -1.66699 -14.167 -5 -18.5s-6.83301 -6.83301 -10.5 -7.5
s-8.83398 -1 -15.501 -1h-304c0 -66.667 12.667 -113.667 38 -141c26 -28 61.333 -42 106 -42c31.333 0 59.833 7 85.5 21s43.834 33 54.501 57c6 12 12 19 18 21c2.66699 0.666992 5.66699 1 9 1c14.667 0 22 -6.33301 22 -19s-7.16699 -28.167 -21.5 -46.5
s-32.166 -33.5 -53.499 -45.5c-0.666992 -0.666992 -4.33398 -2.66699 -11.001 -6l-18.5 -9.5c-5.66699 -3 -12.5 -7.33301 -20.5 -13s-14.667 -11.5 -20 -17.5s-10 -13 -14 -21s-6 -16.333 -6 -25c0 -16.667 6.66699 -32.334 20 -47.001s28.333 -22 45 -22
c8.66699 0 17.834 3.5 27.501 10.5s16.5 10.5 20.5 10.5c4.66699 0 10.167 -2.33301 16.5 -7s9.5 -10 9.5 -16c0 -12 -10.5 -26 -31.5 -42s-44.833 -24 -71.5 -24c-32 0 -59.167 10.5 -81.5 31.5s-33.5 45.167 -33.5 72.5c0 32 15.333 64 46 96
c-84 0.666992 -148.833 22.667 -194.5 66s-68.5 98 -68.5 164zM158.998 251h239.999c-3.33301 60.667 -15.666 103.667 -36.999 129c-20 24 -47.667 36 -83 36c-42 0 -73.667 -17 -95 -51c-14 -21.333 -22.333 -59.333 -25 -114z" />
    <glyph glyph-name="Ecaron" unicode="&#x11a;" horiz-adv-x="755" 
d="M39 0l-0.00195312 47.001h108v586h-108v47h621l31 -241h-47c-3.33301 27.333 -7.16602 49.833 -11.499 67.5s-11.166 35.167 -20.499 52.5s-21 31 -35 41s-32.333 18 -55 24s-49.667 9 -81 9h-152v-257h55c44.667 0 73.5 9 86.5 27s19.5 48 19.5 90h47v-281h-47
c0 42 -6.5 72 -19.5 90s-41.833 27 -86.5 27h-55v-282h152c30 0 56.5 2.16699 79.5 6.5s42.5 11.666 58.5 21.999s29.5 21.333 40.5 33s20.167 27 27.5 46s13 37.167 17 54.5s8 39 12 65h47l-46 -274h-638zM176.998 878.001l12 26c103.333 -28.667 156 -43 158 -43h1
c0.666992 0 52.667 14.333 156 43l12 -26l-115 -77c-32.667 -22 -50.667 -33 -54 -33c-4 0 -22.333 11 -55 33z" />
    <glyph glyph-name="ecaron" unicode="&#x11b;" horiz-adv-x="527" 
d="M106 641v1l17 22h1c100 -57.333 151.333 -86 154 -86h1c3.33301 0 54.333 28.667 153 86h1l18 -22v-1l-172 -171h-1zM32 225c0 65.333 21.832 119.665 65.499 162.998s104.167 65 181.5 65c68.667 0 121.667 -18 159 -54c37.333 -37.333 56 -88.666 56 -153.999
c0 -12.667 -2.16699 -20.334 -6.5 -23.001s-12.833 -4 -25.5 -4h-302c0 -122.667 47.333 -184 142 -184c32.667 0 62 7.33301 88 22s44.333 34 55 58c3.33301 8.66699 6.33301 14.334 9 17.001s8 4 16 4c16 0 24 -6 24 -18c0 -4.66699 -1.83301 -11.167 -5.5 -19.5
s-10.334 -18.666 -20.001 -30.999s-21.667 -23.833 -36 -34.5s-33.666 -19.667 -57.999 -27s-51.5 -11 -81.5 -11c-79.333 0 -142.666 21.5 -189.999 64.5s-71 98.5 -71 166.5zM159.999 250.999h239.001c-3.33301 110.667 -43.333 166 -120 166
c-40.667 0 -72.334 -17.333 -95.001 -52c-13.333 -20.667 -21.333 -58.667 -24 -114z" />
    <glyph glyph-name="Gcircumflex" unicode="&#x11c;" horiz-adv-x="904" 
d="M308 775l157 125l157 -125l-28 -39l-129 81l-129 -81zM64 343c0 104.667 36.5 189.832 109.5 255.499s170.167 98.5 291.5 98.5c74 0 139.667 -22.667 197 -68l66 59c6.66699 6 13 9 19 9c8 0 13 -1.83301 15 -5.5s3 -11.167 3 -22.5v-215
c0 -13.333 -1.33301 -21.333 -4 -24s-10.334 -4 -23.001 -4c-11.333 0 -18.333 1 -21 3s-4.66699 8 -6 18c-10.667 62 -37 111.333 -79 148s-90.333 55 -145 55c-46.667 0 -88.667 -8 -126 -24s-66.333 -37 -87 -63c-38 -50 -57 -123 -57 -219
c0 -96.667 18.667 -169 56 -217c23.333 -30 54.833 -52.667 94.5 -68s81.834 -23 126.501 -23c36 0 66 7 90 21c26 15.333 39 39 39 71v101h-144v47c36 -2 104.333 -3 205 -3c84 0 137.667 1 161 3v-47h-80v-201c0 -18.667 -4.66699 -28 -14 -28
c-4.66699 0 -18.667 5.83301 -42 17.5s-42 23.5 -56 35.5c-34.667 -42.667 -96.667 -64 -186 -64c-125.333 0 -223.833 33.333 -295.5 100s-107.5 151.334 -107.5 254.001z" />
    <glyph glyph-name="gcircumflex" unicode="&#x11d;" 
d="M95 510l159 148h1l158 -148l-31 -36l-127 102h-1l-128 -102zM32 -75c0 14.667 3.66602 27.8291 10.999 39.4961s16.666 20.667 27.999 27s20.5 11 27.5 14s13.5 5.16699 19.5 6.5c-29.333 23.333 -44 55.333 -44 96c0 30.667 11.333 60.334 34 89.001
c-16 11.333 -28.667 26.5 -38 45.5s-14 38.833 -14 59.5c0 40 16.5 74.667 49.5 104s82.833 44 149.5 44c56.667 0 101.334 -11 134.001 -33c32 25.333 67.333 38 106 38c20.667 0 36.334 -6.16699 47.001 -18.5s16 -25.5 16 -39.5c0 -12 -4 -22.167 -12 -30.5
s-18.333 -12.5 -31 -12.5s-23 4 -31 12s-12 18.333 -12 31c0 6.66699 1.33301 13.334 4 20.001c-21.333 -2 -42 -8.33301 -62 -19c26.667 -28.667 40 -60.667 40 -96c0 -40 -16.5 -74.667 -49.5 -104s-82.833 -44 -149.5 -44c-48 0 -88.667 8.66699 -122 26
c-6.66699 -8.66699 -10 -19.667 -10 -33c0 -12.667 4.33301 -25.5 13 -38.5s22.667 -21.167 42 -24.5c3.33301 -0.666992 29 -1 77 -1c40 0 69.333 -0.333008 88 -1s39.5 -3.16699 62.5 -7.5s43.5 -10.833 61.5 -19.5c50 -25.333 75 -67.666 75 -126.999
c0 -37.333 -21.5 -68.166 -64.5 -92.499s-106.5 -36.5 -190.5 -36.5c-90 0 -155 13 -195 39s-60 55 -60 87zM117.999 -73.0049c0 -25.333 14.167 -47.001 42.5 -65.001s70.5 -27 126.5 -27c58.667 0 101.5 9.33301 128.5 28s40.5 39.334 40.5 62.001
c0 41.333 -48 62 -144 62h-117c-51.333 0 -77 -20 -77 -60zM166.999 301.994c0 -12.667 0.166992 -22.5 0.5 -29.5s2 -16.5 5 -28.5s7.5 -21.333 13.5 -28s14.833 -12.667 26.5 -18s25.834 -8 42.501 -8s30.834 2.66699 42.501 8s20.5 11.333 26.5 18s10.5 16 13.5 28
s4.66699 21.5 5 28.5s0.5 16.833 0.5 29.5s-0.166992 22.5 -0.5 29.5s-2 16.5 -5 28.5s-7.5 21.333 -13.5 28s-14.833 12.667 -26.5 18s-25.834 8 -42.501 8s-30.834 -2.66699 -42.501 -8s-20.5 -11.333 -26.5 -18s-10.5 -16 -13.5 -28s-4.66699 -21.5 -5 -28.5
s-0.5 -16.833 -0.5 -29.5z" />
    <glyph glyph-name="Gbreve" unicode="&#x11e;" horiz-adv-x="904" 
d="M64 343c0 32.667 4 64.667 12 96s22.167 62.833 42.5 94.5s45.5 59.334 75.5 83.001s69.167 43 117.5 58s102.5 22.5 162.5 22.5c40 0 75.5 -2.5 106.5 -7.5s53.833 -10.167 68.5 -15.5s22.667 -8 24 -8c4.66699 0 16.667 5 36 15s32.333 15 39 15
c12 0 18 -8.33301 18 -25v-106c0 -12 -1.5 -19.833 -4.5 -23.5s-10.5 -5.5 -22.5 -5.5h-2c-10.667 0 -17.5 2.33301 -20.5 7s-6.5 12.5 -10.5 23.5s-11.667 21.833 -23 32.5c-35.333 33.333 -94.333 50 -177 50h-3c-68.667 0 -128 -15 -178 -45s-82.333 -78.667 -97 -146
c-7.33301 -30.667 -11 -69.334 -11 -116.001c0 -110 25.667 -188.667 77 -236c50 -46 117.333 -69 202 -69c34 0 63.833 7 89.5 21s38.5 37.333 38.5 70v100h-144v47c46 -1.33301 115.333 -2 208 -2c63.333 0 116 0.666992 158 2v-47h-80v-205c0 -14 -5 -21 -15 -21
c-6 0 -20 5.33301 -42 16s-40 22.334 -54 35.001h-1c-40 -42.667 -102 -64 -186 -64c-122 0 -219.833 32.667 -293.5 98s-110.5 150.666 -110.5 255.999zM292 894h37c4 -50.667 51.667 -76 143 -76c88 0 134.333 25.333 139 76h37c-2 -43.333 -20.5 -77.333 -55.5 -102
s-75.833 -37 -122.5 -37c-45.333 0 -85.833 11.833 -121.5 35.5s-54.5 58.167 -56.5 103.5z" />
    <glyph glyph-name="gbreve" unicode="&#x11f;" 
d="M108 653l36 -0.00195312c1.33301 -20 7.66602 -37 18.999 -51s25.166 -24 41.499 -30s31 -10.167 44 -12.5s25.5 -3.5 37.5 -3.5c16.667 0 34 1.83301 52 5.5s36.833 13.334 56.5 29.001s30.5 36.5 32.5 62.5h36c-2 -49.333 -20.667 -88.166 -56 -116.499
s-75.666 -42.5 -120.999 -42.5c-46.667 0 -87.667 14.5 -123 43.5s-53.666 67.5 -54.999 115.5zM32 -75.002c0 14.667 3.66602 27.8291 10.999 39.4961s16.666 20.667 27.999 27s20.5 11 27.5 14s13.5 5.16699 19.5 6.5c-29.333 23.333 -44 55.333 -44 96
c0 30.667 11.333 60.334 34 89.001c-16 11.333 -28.667 26.5 -38 45.5s-14 38.833 -14 59.5c0 40 16.5 74.667 49.5 104s82.833 44 149.5 44c56.667 0 101.334 -11 134.001 -33c32 25.333 67.333 38 106 38c20.667 0 36.334 -6.16699 47.001 -18.5s16 -25.5 16 -39.5
c0 -12 -4 -22.167 -12 -30.5s-18.333 -12.5 -31 -12.5s-23 4 -31 12s-12 18.333 -12 31c0 6.66699 1.33301 13.334 4 20.001c-21.333 -2 -42 -8.33301 -62 -19c26.667 -28.667 40 -60.667 40 -96c0 -40 -16.5 -74.667 -49.5 -104s-82.833 -44 -149.5 -44
c-48 0 -88.667 8.66699 -122 26c-6.66699 -8.66699 -10 -19.667 -10 -33c0 -12.667 4.33301 -25.5 13 -38.5s22.667 -21.167 42 -24.5c3.33301 -0.666992 29 -1 77 -1c40 0 69.333 -0.333008 88 -1s39.5 -3.16699 62.5 -7.5s43.5 -10.833 61.5 -19.5
c50 -25.333 75 -67.666 75 -126.999c0 -37.333 -21.5 -68.166 -64.5 -92.499s-106.5 -36.5 -190.5 -36.5c-90 0 -155 13 -195 39s-60 55 -60 87zM117.999 -73.0068c0 -25.333 14.167 -47.001 42.5 -65.001s70.5 -27 126.5 -27c58.667 0 101.5 9.33301 128.5 28
s40.5 39.334 40.5 62.001c0 41.333 -48 62 -144 62h-117c-51.333 0 -77 -20 -77 -60zM166.999 301.992c0 -12.667 0.166992 -22.5 0.5 -29.5s2 -16.5 5 -28.5s7.5 -21.333 13.5 -28s14.833 -12.667 26.5 -18s25.834 -8 42.501 -8s30.834 2.66699 42.501 8
s20.5 11.333 26.5 18s10.5 16 13.5 28s4.66699 21.5 5 28.5s0.5 16.833 0.5 29.5s-0.166992 22.5 -0.5 29.5s-2 16.5 -5 28.5s-7.5 21.333 -13.5 28s-14.833 12.667 -26.5 18s-25.834 8 -42.501 8s-30.834 -2.66699 -42.501 -8s-20.5 -11.333 -26.5 -18s-10.5 -16 -13.5 -28
s-4.66699 -21.5 -5 -28.5s-0.5 -16.833 -0.5 -29.5z" />
    <glyph glyph-name="Gdotaccent" unicode="&#x120;" horiz-adv-x="904" 
d="M387 824c0 21.333 7.5 39.666 22.5 54.999s33.5 23 55.5 23c21.333 0 39.666 -7.66699 54.999 -23s23 -33.666 23 -54.999s-7.66699 -39.666 -23 -54.999s-33.666 -23 -54.999 -23c-22 0 -40.5 7.66699 -55.5 23s-22.5 33.666 -22.5 54.999zM64 343
c0 104.667 36.5 189.832 109.5 255.499s170.167 98.5 291.5 98.5c74 0 139.667 -22.667 197 -68l66 59c6.66699 6 13 9 19 9c8 0 13 -1.83301 15 -5.5s3 -11.167 3 -22.5v-215c0 -13.333 -1.33301 -21.333 -4 -24s-10.334 -4 -23.001 -4c-11.333 0 -18.333 1 -21 3
s-4.66699 8 -6 18c-10.667 62 -37 111.333 -79 148s-90.333 55 -145 55c-46.667 0 -88.667 -8 -126 -24s-66.333 -37 -87 -63c-38 -50 -57 -123 -57 -219c0 -96.667 18.667 -169 56 -217c23.333 -30 54.833 -52.667 94.5 -68s81.834 -23 126.501 -23c36 0 66 7 90 21
c26 15.333 39 39 39 71v101h-144v47c36 -2 104.333 -3 205 -3c84 0 137.667 1 161 3v-47h-80v-201c0 -18.667 -4.66699 -28 -14 -28c-4.66699 0 -18.667 5.83301 -42 17.5s-42 23.5 -56 35.5c-34.667 -42.667 -96.667 -64 -186 -64c-125.333 0 -223.833 33.333 -295.5 100
s-107.5 151.334 -107.5 254.001z" />
    <glyph glyph-name="gdotaccent" unicode="&#x121;" 
d="M176 617c0 20 7.5 37.832 22.5 53.499s33.5 23.5 55.5 23.5c20.667 0 38.834 -7.5 54.501 -22.5s23.5 -33.5 23.5 -55.5c0 -20 -7.5 -37.833 -22.5 -53.5s-33.5 -23.5 -55.5 -23.5c-22.667 0 -41.334 7.83301 -56.001 23.5s-22 33.834 -22 54.501zM32 -75.001
c0 14.667 3.66602 27.8291 10.999 39.4961s16.666 20.667 27.999 27s20.5 11 27.5 14s13.5 5.16699 19.5 6.5c-29.333 23.333 -44 55.333 -44 96c0 30.667 11.333 60.334 34 89.001c-16 11.333 -28.667 26.5 -38 45.5s-14 38.833 -14 59.5c0 40 16.5 74.667 49.5 104
s82.833 44 149.5 44c56.667 0 101.334 -11 134.001 -33c32 25.333 67.333 38 106 38c20.667 0 36.334 -6.16699 47.001 -18.5s16 -25.5 16 -39.5c0 -12 -4 -22.167 -12 -30.5s-18.333 -12.5 -31 -12.5s-23 4 -31 12s-12 18.333 -12 31c0 6.66699 1.33301 13.334 4 20.001
c-21.333 -2 -42 -8.33301 -62 -19c26.667 -28.667 40 -60.667 40 -96c0 -40 -16.5 -74.667 -49.5 -104s-82.833 -44 -149.5 -44c-48 0 -88.667 8.66699 -122 26c-6.66699 -8.66699 -10 -19.667 -10 -33c0 -12.667 4.33301 -25.5 13 -38.5s22.667 -21.167 42 -24.5
c3.33301 -0.666992 29 -1 77 -1c40 0 69.333 -0.333008 88 -1s39.5 -3.16699 62.5 -7.5s43.5 -10.833 61.5 -19.5c50 -25.333 75 -67.666 75 -126.999c0 -37.333 -21.5 -68.166 -64.5 -92.499s-106.5 -36.5 -190.5 -36.5c-90 0 -155 13 -195 39s-60 55 -60 87z
M117.999 -73.0059c0 -25.333 14.167 -47.001 42.5 -65.001s70.5 -27 126.5 -27c58.667 0 101.5 9.33301 128.5 28s40.5 39.334 40.5 62.001c0 41.333 -48 62 -144 62h-117c-51.333 0 -77 -20 -77 -60zM166.999 301.993c0 -12.667 0.166992 -22.5 0.5 -29.5s2 -16.5 5 -28.5
s7.5 -21.333 13.5 -28s14.833 -12.667 26.5 -18s25.834 -8 42.501 -8s30.834 2.66699 42.501 8s20.5 11.333 26.5 18s10.5 16 13.5 28s4.66699 21.5 5 28.5s0.5 16.833 0.5 29.5s-0.166992 22.5 -0.5 29.5s-2 16.5 -5 28.5s-7.5 21.333 -13.5 28s-14.833 12.667 -26.5 18
s-25.834 8 -42.501 8s-30.834 -2.66699 -42.501 -8s-20.5 -11.333 -26.5 -18s-10.5 -16 -13.5 -28s-4.66699 -21.5 -5 -28.5s-0.5 -16.833 -0.5 -29.5z" />
    <glyph glyph-name="Hcircumflex" unicode="&#x124;" horiz-adv-x="900" 
d="M293 775l157 125l157 -125l-28 -39l-129 81l-129 -81zM39 0v47h108v592h-108v47c25.333 -2 85 -3 179 -3s153.667 1 179 3v-47h-108v-259h321v259h-108v47c25.333 -2 85 -3 179 -3s153.667 1 179 3v-47h-108v-592h108v-47c-25.333 2 -85 3 -179 3s-153.667 -1 -179 -3v47
h108v286h-321v-286h108v-47c-25.333 2 -85 3 -179 3s-153.667 -1 -179 -3z" />
    <glyph glyph-name="hcircumflex" unicode="&#x125;" horiz-adv-x="638" 
d="M171 751l159 148h1l158 -148l-31 -36l-127 102h-1l-128 -102zM45 0l0.000976562 46.998h69v553c0 18.667 -3.5 29.834 -10.5 33.501s-26.5 5.5 -58.5 5.5v47l177 8v-340h1c37.333 64 93.666 96 168.999 96c51.333 0 89.833 -11.167 115.5 -33.5
s38.5 -59.166 38.5 -110.499v-259h69v-47c-56 2 -98 3 -126 3s-70 -1 -126 -3v47h69v270c0 36 -4.66699 61.167 -14 75.5s-23 21.5 -41 21.5c-36.667 0 -70.667 -13.833 -102 -41.5s-47 -66.5 -47 -116.5v-209h69v-47c-56 2 -98 3 -126 3s-70 -1 -126 -3z" />
    <glyph glyph-name="uni0127" unicode="&#x127;" horiz-adv-x="671" 
d="M17 546c0 16 10 24.0029 30 24.0029h98v22c0 20.667 -3 33.667 -9 39s-23.333 8 -52 8h-9v47l179 9v-125h135c20 0 30 -8 30 -24s-9.66699 -24 -29 -24h-136v-170c36.667 65.333 93.334 98 170.001 98c28.667 0 53 -3.5 73 -10.5s35.167 -15.333 45.5 -25
s18.333 -22.5 24 -38.5s9 -29.333 10 -40s1.5 -24.334 1.5 -41.001v-247h70v-48c-44 2 -88 3 -132 3c-7.33301 0 -48 -1 -122 -3v48h70v263c0 20.667 -1 37.5 -3 50.5s-7.5 24.833 -16.5 35.5s-21.5 16 -37.5 16c-12.667 0 -26.334 -2.33301 -41.001 -7
s-30.5 -12.334 -47.5 -23.001s-31.167 -27.834 -42.5 -51.501s-17 -51.5 -17 -83.5v-200h70v-48c-44 2 -88 3 -132 3c-7.33301 0 -48 -1 -122 -3v48h70v474h-99c-19.333 0 -29 8 -29 24z" />
    <glyph glyph-name="Itilde" unicode="&#x128;" horiz-adv-x="436" 
d="M33 0v47h114v592h-114v47c27.333 -2 89 -3 185 -3s157.667 1 185 3v-47h-114v-592h114v-47c-27.333 2 -89 3 -185 3s-157.667 -1 -185 -3zM45 821c18 22.667 31.3311 38.499 39.998 47.499s19.334 17.333 32.001 25s26 11.5 40 11.5c16.667 0 40 -5.5 70 -16.5
s52.667 -16.5 68 -16.5c23.333 0 46 11 68 33l27 -24c-3.33301 -3.33301 -9.16602 -10.166 -17.499 -20.499s-13.833 -16.833 -16.5 -19.5l-14 -14.5c-6.66699 -7 -11.667 -11.5 -15 -13.5l-14 -8c-6 -3.33301 -11.667 -5.5 -17 -6.5s-11.333 -1.5 -18 -1.5
c-16 0 -39 5.5 -69 16.5s-53 16.5 -69 16.5c-22.667 0 -45 -11 -67 -33z" />
    </font>
</defs>
</svg>
